<svg xmlns="http://www.w3.org/2000/svg" xmlns:xlink="http://www.w3.org/1999/xlink" width="385.37" height="506.798" viewBox="0 0 385.37 506.798">
  <defs>
    <filter id="aura3" x="5.49" y="10.816" width="370.081" height="491.162" filterUnits="userSpaceOnUse">
      <feOffset dy="3" input="SourceAlpha"/>
      <feGaussianBlur stdDeviation="3" result="blur"/>
      <feFlood flood-opacity="0"/>
      <feComposite operator="in" in2="blur"/>
      <feComposite in="SourceGraphic"/>
    </filter>
    <filter id="aura2" x="17.95" y="26.569" width="345.61" height="464.19" filterUnits="userSpaceOnUse">
      <feOffset dy="3" input="SourceAlpha"/>
      <feGaussianBlur stdDeviation="3" result="blur-2"/>
      <feFlood flood-opacity="0"/>
      <feComposite operator="in" in2="blur-2"/>
      <feComposite in="SourceGraphic"/>
    </filter>
    <filter id="aura1" x="32.921" y="32.548" width="323.43" height="451.728" filterUnits="userSpaceOnUse">
      <feOffset dy="3" input="SourceAlpha"/>
      <feGaussianBlur stdDeviation="3" result="blur-3"/>
      <feFlood flood-opacity="0"/>
      <feComposite operator="in" in2="blur-3"/>
      <feComposite in="SourceGraphic"/>
    </filter>
    <clipPath id="clip-path">
      <rect id="Rectangle_1340" data-name="Rectangle 1340" width="296.585" height="424.772" transform="translate(0 0)" fill="none"/>
    </clipPath>
  </defs>
  <g id="auras" transform="translate(-921.7 -2657.293)">
    <path id="aura4" d="M1092.141,2780.241s-3.9,58.419-39.684,96.6-72.726,17.488-103.469,56.115-26.13,32.248-27.206,70.306,8.518,49.376,24.484,72.173,6.444,38,47.843,56.99,76.126,31.119,151.34,31.632,113.643-3.962,149.516-29.581-20.325-111.656-10.982-180.51,19.333-74.52,18.186-142.281-14.319-87.688-27.256-118.806-87.6-49.175-131.643-22.988S1092.141,2780.241,1092.141,2780.241Z" fill="#95754a"/>
    <g transform="matrix(1, 0, 0, 1, 921.7, 2657.29)" filter="url(#aura3)">
      <path id="aura3-2" data-name="aura3" d="M1096.045,2837.033c-20.105,31.346-19.716,46.224-51.2,69.592s-84.875,21.953-98.92,55.295-9.956,41.384-5.736,66.268,11.871,14.1,22.613,33.268,9.712,36.6,20.357,43.412c25.017,16.015,42.857,10.349,84.676,27.7s55.81,15.258,98.645,13.685a465.815,465.815,0,0,0,80.755-10.616s38,3.772,40.628-41.452-21.98-94.242-20.783-137.227,19.08-49.427,20.783-107.785-1.528-83.965-16.341-126.328-38.116-40.952-38.116-40.952l-45.2-7.781s-42.947-.928-58,25.66-21.629,45.749-23.932,76.811S1116.15,2805.688,1096.045,2837.033Z" transform="translate(-921.7 -2657.29)" fill="#5c79a2"/>
    </g>
    <g transform="matrix(1, 0, 0, 1, 921.7, 2657.29)" filter="url(#aura2)">
      <path id="aura2-2" data-name="aura2" d="M1134.832,2814.552c-.256,15.629-26.381,28.8-37.592,52.089s-14.194,27.3-31.281,44.405a108.914,108.914,0,0,1-37.064,24s-13.642,6.829-28.9,12.6-20.627,3.711-32.133,10.5-13.573,15.522-13.889,16.644-4.685,20.979-5.292,34.745,8.01,19.887,8.01,19.887,13.919,14.455,20.307,20.268,3.5,19.844,8.232,31.719,9.266,12.674,21.525,18.8,25.687,2.906,43.635,7.636,34.824,17.49,44.684,21.579,18.906,5.48,33.716,6.5,28.153-4.747,57.56-7.776,47.008-.767,68.161-10.938,19.57-28.777,19.637-54.532-22.063-65.724-17.2-117.349,17.993-51.789,19.119-86.365-2.769-88.676-6.35-106.62c-7.951-39.841-16.388-38.843-16.388-38.843s-9.417-11.366-40.229-19.636-55.429-2.958-66.953,8.667-16.858,36.877-20.261,60.756S1135.087,2798.923,1134.832,2814.552Z" transform="translate(-921.7 -2657.29)" fill="#55a891"/>
    </g>
    <g transform="matrix(1, 0, 0, 1, 921.7, 2657.29)" filter="url(#aura1)">
      <path id="aura1-2" data-name="aura1" d="M7318.13,858.728a34.784,34.784,0,0,1-5.59-.555,23.223,23.223,0,0,1-7.938-2.9,20.049,20.049,0,0,1-3.01-2.106,19.309,19.309,0,0,1-2.711-1.752,12.64,12.64,0,0,1-3.962-4.693,12.93,12.93,0,0,1-.884-3.793,7.855,7.855,0,0,0-3.064-6.086c-2.649-2.25-5.018-2.566-8.018-2.965a36.748,36.748,0,0,1-5.337-1.007,62.982,62.982,0,0,0-10.477-2.009l-12.489-2.485a145.536,145.536,0,0,0-20.9-5.424,84.332,84.332,0,0,0-10.655-1.124,36.794,36.794,0,0,1-11.279-1.911,18.536,18.536,0,0,1-7.878-4.885,10.1,10.1,0,0,1-1.927-2.862c-.039-.052-3.873-5.2-4.876-10.387-.213-1.105-.429-1.96-.619-2.713l-.007-.026a8.556,8.556,0,0,1-.431-3.4,14.26,14.26,0,0,1,1.85-4.589c1.4-2.606,3.981-4.306,6.256-5.806,2.592-1.709,4.83-3.184,4.83-5.523,0-2.386-4.375-4-9.913-6.05-4.849-1.793-10.342-3.824-14.758-6.96-8.347-5.927-9.149-7.19-12.133-11.888-.4-.632-.9-1.417-1.462-2.279a22.341,22.341,0,0,1-3.458-9.011,71.963,71.963,0,0,1-.577-11.316c0-9.01.727-10.8,3.136-16.722a68.248,68.248,0,0,1,5.615-10.545,96.983,96.983,0,0,1,8.879-11.821,21.84,21.84,0,0,1,6.279-4.723,40.874,40.874,0,0,1,7.189-2.876,53.882,53.882,0,0,1,8.372-1.818l17.864-7.3c.154-.065,15.889-6.716,26-10.6,1.2-.459,2.222-.851,3.109-1.191l.211-.081c5.565-2.127,5.565-2.127,8.8-3.863l.08-.043c.529-.284,1.129-.607,1.856-.993a66.624,66.624,0,0,0,10.31-6.784l26.18-27.452a182.962,182.962,0,0,0,14.967-22.613,100.528,100.528,0,0,0,6.123-13.223l.008-.021c.838-2.159,1.789-4.606,3.487-8.383.374-.831.708-1.577,1.01-2.25,2.792-6.229,2.792-6.229,5.171-9.541l.012-.016c.443-.617.946-1.317,1.568-2.2,3.845-5.441,4.877-5.99,9.839-8.632l.094-.05c.724-.385,1.544-.822,2.462-1.322a49.711,49.711,0,0,1,11.222-4.22,30.279,30.279,0,0,0,6.53-2.314,10.094,10.094,0,0,0,5.162-6.034,1.175,1.175,0,0,0-.144-1.012c-.507-.679-1.971-.772-3.825-.891a21.613,21.613,0,0,1-6.08-1.009,8.544,8.544,0,0,1-5.079-4.669c-2.246-4.938-2.327-6.494-2.462-9.071a47.08,47.08,0,0,0-1.329-9.193,59.691,59.691,0,0,0-3.465-11.232l0-.008a14.483,14.483,0,0,1-1.247-4.129c-.043-.325-.1-.724-.168-1.187l0-.028c-.757-5.257-2.767-19.221-.53-33.518a68.858,68.858,0,0,1,2.662-10.882,80.363,80.363,0,0,1,3.479-8.752,66.8,66.8,0,0,1,4.312-7.95,70.879,70.879,0,0,1,5.162-4.906,52.706,52.706,0,0,1,11.719-7.9,39.714,39.714,0,0,1,15.938-3.237c1.341,0,2.149.07,2.157.071s1.332-.087,3.292-.087a48.579,48.579,0,0,1,13.164,1.582c4.233,1.273,5.375,2.239,6.955,3.578a28.9,28.9,0,0,0,4.861,3.424c2.229,1.278,3.527,2.14,4.672,2.9a43.724,43.724,0,0,0,8.777,4.575,32.683,32.683,0,0,0,8.523,2.259c3.468.549,6.464,1.022,10.566,4.129a25.057,25.057,0,0,1,7.2,8.977,26.469,26.469,0,0,1,1.911,4.975,103.875,103.875,0,0,1,4.852,17.448c.127.64.322,1.686.324,1.7.11.6,2.718,14.939,3.6,26.745q.162,2.161.3,3.869l.015.194c.646,8.276.763,9.768-.312,17.374-.141.992-.262,1.876-.373,2.682-.862,6.271-.994,7.235-3.555,11.7-2.169,3.784-2.862,4.236-4.535,5.328-.546.356-1.225.8-2.1,1.456-1.793,1.35-2.69,2.466-3,3.729-.34,1.389.023,3,.674,4.995a7.5,7.5,0,0,0,3.438,4.257,18.553,18.553,0,0,1,4.521,4.288c3.8,5.032,5.472,8.245,7.289,16.261a39.3,39.3,0,0,0,1.206,4.277c.847,2.519.847,2.519-1.1,11.15l-.109.485c-.748,3.324-1.345,6.168-1.922,8.919a242.847,242.847,0,0,1-6.218,24.649c-1.861,6.063-3.106,9.148-4.107,11.627-1.4,3.479-2.332,5.777-3.785,13.552-2.074,11.107-2.059,13.9-2.014,22.208v.1c.008,1.584.018,3.38.014,5.469,0,1.118,0,2.136-.007,3.07a181.919,181.919,0,0,0,.915,22.129c.8,9.951,1.4,13.931,2.313,19.955l.02.131c.255,1.687.544,3.6.868,5.842.142.981.26,1.8.359,2.495.541,3.762.541,3.762.839,5.151l0,.019c.221,1.029.632,2.945,1.579,7.9,2.126,11.126,3,16.78,4.321,25.337l.013.082c.187,1.208.383,2.476.593,3.83.6,3.848.96,5.849,1.2,7.173a48.97,48.97,0,0,1,.8,8.148c.143,2.41.343,4.245.521,5.863a32.357,32.357,0,0,1-.521,12.49,26.532,26.532,0,0,1-4.114,9.585,20.608,20.608,0,0,1-2.813,3.344,44.2,44.2,0,0,1-3.581,3.609,47.821,47.821,0,0,1-9.3,6.669c-7.544,4.034-17.539,6.023-17.639,6.043a35.267,35.267,0,0,1-4.551,1.294,59.865,59.865,0,0,1-12.173,1.4c-1.529.021-2.893.048-4.212.074h-.023c-2.075.041-3.868.076-5.6.076a72.1,72.1,0,0,1-14.1-1.276c-5.193-.941-8.119-3.152-10.949-5.291a21.477,21.477,0,0,0-7.444-4.154,11.9,11.9,0,0,0-3.184-.465,8.12,8.12,0,0,0-5.073,1.672,6.624,6.624,0,0,0-1.56,1.672,19.4,19.4,0,0,1-5.51,7c-.691.587-1.294,1.116-1.826,1.583l-.014.012c-2.741,2.406-4.117,3.614-9.654,5.849a30.661,30.661,0,0,1-9.74,2.506c-1.345.165-3.019.369-5.256.739-1.093.181-2.057.348-2.907.5A38.738,38.738,0,0,1,7318.13,858.728Zm9.212-198.355c-1.252,0-3.876,2.844-3.9,2.873a133.858,133.858,0,0,1-14.892,16.009c-2.225,1.964-3.791,3.464-5.05,4.67-3.4,3.26-4.958,4.747-12.2,8.708a89.212,89.212,0,0,1-15.135,6.3c-4.309,1.4-7.5,2.168-7.631,2.2l-.072.014c-4.229.815-41.326,7.959-41.594,7.98-.057,0-5.8.72-6,1.733-.19.967,5.175,2.177,5.229,2.189l69.288,20.61c.375.109,9.256,2.688,14.036,3.4a18.912,18.912,0,0,0,2.733.231c2.343,0,2.75-.694,2.766-.724a41.242,41.242,0,0,0,5.486-8.119,120.838,120.838,0,0,0,5.366-12.45c.051-.306,1.249-7.54,1.817-15.9.955-14.085.915-27.629.913-28.2,0-.11.216-11.044-.913-11.48A.665.665,0,0,0,7327.342,660.373Z" transform="translate(-7124.79 -386.45)" fill="#b5b5b5"/>
    </g>
    <path id="lines-bg" d="M7310.007,848.925h0l-2.292-.348-1.034-.6-.816-1.493-.963-.659-1.616-.566-1.955-.893-.871-1.633-2.338-2.667-.878-.921-.542-1.107V836.85l1.421-2.182.483-1.15-2.043-2.6-.938-1.97-.255-1.414v-1.163l.82-1.18,1.4-2.081-.892-.539-7.746,1.3-6.5.847h-3.991l-5.678-1.051-8.855-.691-6.525-1.131-16.292-5.634-6.772-1.847-4.074-.581-13.625-.564-2.04-.528-3.639-.773-2.227-1.1-3.459-3.431-1.3-.609-.689-.59-1.751-3.527-1.409-1.991-1.153-1.457-.625-1.41-.238-2.311-.25-4.178v-2.086l.487-1.674,1.079-.914,2.109-1.111,4.461-.792,5.572-.322,9.521.322,9.778,1.086,2.341-.142-43.625-26.92-.4.227-.532,1.144-1.23-.592-2.564-1.463-7.076-6.15-4.762-5.012-5.078-12.192-.949-5.259.949-4.744,4.44-13.17,4.2-7.789,5.963-9.108,3.815-3.276,6.542-2.94,34.348-13.56,35.206-14.355,7.387-3.377,5.461-4.637,15.6-15.681,12.3-13.831,2.83-4.823,12.249-23.484,9.626-18.193,10.934-14.546,14.833-8.04,8.117-.652,2.339-2.266,7.741-3.459.581-3.9-1.113-9.846v-1.953h-1.571l-8.514.755h-4.486l-1.549-.755-1.545-2.566-2.129-6.557-1.131-5.7-.543-7.345-1.23-5.48-2.051-3.991-.676-3.388.676-9.2-.676-12.419.676-4.974,2.289-10.87,3.913-13.456,5.629-10.531L7361,434.13l9.864-4.721,10.86-3.416,10.943-.993,9.269,3.043,13.046,7.3,7.651,6.188h2.816l10.271,2.729,7.542,4.892L7451.23,458l3.984,7.555,2.809,10.937,2.584,22.324.637,13.256-.711,13.938L7458.1,533.8l-3.989,5.729-4.684,4.21-5.156.837-4.937-1.187-5.177-2.794-5.275-4.2-3.368-3.326-3.051-5.145-1.581-4.3v-3.628l-4.313,3.238-2.7.994,5.527,11.891,2.732,2.206,10.788,6.252,4.094,3,11.482,12.44L7460.832,579l1.729,7.13-.277,9.917-1.452,6.463-1.009,4.763-4.13,15.052-8.34,31.687-.812,7.887-.257,24.16.433,14.812.508,7.216,5.677,47.55,1.311,7.358,1.736,9.866,2.341,22.407-.523,12.715-1.245,6.2-1.94,3.8-2.347,2.813-3.479,3.1-5.718,3.742-7.836,3.8-8.529,2.9-8.449,2.266-9.542,1.59-7.6.622-7.115-.236-5.772-1.23-5.971-2.114-5.038-2.268-5.81-3.386-5.581-3.787-5.458-4.843-10.926,12.782-3.083,2.562-16.1,9.278-3.976,1.26-9.99,1.746ZM7200.7,709.459h6.463l4.682.541,31.813,9.038,69.1,21.433,7.971-13.876,3.328-5.811,2.134-2.289,3.3-2.03v-10.54l-.352-35.019V659.3l-1-13.116-3.1,2.865-9.449,9.066-11.171,10.745-8.085,7.7-6.894,4.75-12.241,6.171-14.065,5.214-35.425,7.585-21.006,4.2-7.664,2.815-3.274,2.489Z" transform="translate(-6199.979 2275.214)" fill="#3b8671"/>
    <g id="lines" transform="translate(966.612 2699.89)">
      <g id="Groupe_2669" data-name="Groupe 2669" transform="translate(0 0)" clip-path="url(#clip-path)">
        <path id="Tracé_1843" data-name="Tracé 1843" d="M122.692,2697.759a98.615,98.615,0,0,0,26.9-4.337c14.1-4.225,24.657-10.434,28.955-17.035,3.321-5.1,4.261-15.931,2.794-32.191-1.087-12.043-3.159-22.753-3.18-22.86a.58.58,0,0,0-1.139.222c.083.423,8.168,42.5.553,54.2-4.151,6.374-14.472,12.408-28.316,16.556a97.421,97.421,0,0,1-26.545,4.292,39.946,39.946,0,0,1-7.192-.575c-8-1.492-17.218-5.787-25.285-11.783-8.438-6.273-14.3-13.375-16.509-20a.58.58,0,0,0-1-.187,46.813,46.813,0,0,1-10.759,8.914c-6.116,3.695-15.758,7.443-26.96,4.325a.58.58,0,1,0-.311,1.117,32.6,32.6,0,0,0,15.585.507,39.518,39.518,0,0,0,12.318-4.975,48.824,48.824,0,0,0,10.358-8.4c2.5,6.572,8.348,13.5,16.583,19.625,8.2,6.1,17.594,10.47,25.764,11.993a40.951,40.951,0,0,0,7.383.591" transform="translate(110.156 -2283.072)" fill="#fff"/>
        <path id="Tracé_1844" data-name="Tracé 1844" d="M28.623,1563.447a.613.613,0,0,0,.068,0,.58.58,0,0,0,.509-.644c-.044-.377-4.438-37.892-5.821-48.955-1.36-10.884-1.165-44.03,0-51.588.7-4.572,4.973-20.068,8.4-32.519,1.964-7.127,3.66-13.283,4.176-15.553a.58.58,0,1,0-1.131-.257c-.51,2.244-2.2,8.388-4.163,15.5-3.439,12.48-7.718,28.012-8.432,32.65-1.171,7.61-1.37,40.963,0,51.908,1.382,11.058,5.776,48.568,5.82,48.946a.58.58,0,0,0,.575.513" transform="translate(257.873 -1231.298)" fill="#fff"/>
        <path id="Tracé_1845" data-name="Tracé 1845" d="M26.22,992.907a.58.58,0,0,0,.539-.365c1.4-3.5,5.505-18.792-.023-29.571C21,951.776,8.931,936.866.92,931.065a.58.58,0,0,0-.68.94c7.892,5.715,19.791,20.433,25.465,31.5,5.328,10.389,1.338,25.21-.022,28.61a.58.58,0,0,0,.538.8" transform="translate(267.043 -810.966)" fill="#fff"/>
        <path id="Tracé_1846" data-name="Tracé 1846" d="M373.14,1450.459a.58.58,0,0,0,.573-.493c2.1-13.918,9.162-36.544,13.119-47.536,2.776-7.712,3.06-15.663,3.249-20.924.043-1.217.081-2.269.141-3.2a12.331,12.331,0,0,0-2.77-9.164c-.227-.321-.461-.652-.683-.986a.58.58,0,1,0-.965.644c.231.346.47.685.7,1.012a11.221,11.221,0,0,1,2.56,8.419c-.061.945-.1,2.055-.143,3.231-.2,5.5-.465,13.031-3.181,20.573-3.972,11.033-11.061,33.755-13.175,47.755a.58.58,0,0,0,.487.66.558.558,0,0,0,.087.007" transform="translate(-141.694 -1191.596)" fill="#fff"/>
        <path id="Tracé_1847" data-name="Tracé 1847" d="M541.085,2120.187a.937.937,0,0,0,.421-.1c1.072-.536,2.767-2.662,3.892-4.32.947-1.4,2.5-3.923,2.295-5.177-.044-.266-.117-.654-.208-1.144-.478-2.563-1.474-7.9-1.1-10.179a.58.58,0,1,0-1.144-.189c-.41,2.483.573,7.751,1.1,10.581.09.485.162.867.2,1.122.081.489-.617,2.135-2.111,4.335a17,17,0,0,1-3.3,3.844,8.691,8.691,0,0,1-.689-2.685c-.254-1.576-.454-3.52-.647-5.4a41.914,41.914,0,0,0-.8-5.74c-.583-1.942,3.438-8.8,5.6-12.489.714-1.218,1.33-2.27,1.725-3.017,1.732-3.281,14.1-25.344,17.782-31,2.4-3.695,11.183-6.713,18.239-9.139a74.776,74.776,0,0,0,7.828-2.966c2.477-1.239,10.446-5.414,18.883-9.834,10.773-5.644,21.913-11.481,23.615-12.255a.58.58,0,0,0-.48-1.056c-1.732.787-12.886,6.631-23.674,12.283-8.432,4.418-16.4,8.59-18.863,9.824a74.358,74.358,0,0,1-7.686,2.907c-7.224,2.483-16.215,5.573-18.834,9.6-3.693,5.681-16.1,27.805-17.835,31.094-.383.725-.993,1.766-1.7,2.972-3.392,5.789-6.381,11.169-5.709,13.41a43.05,43.05,0,0,1,.756,5.525c.592,5.751.982,8.522,2,9.08a.908.908,0,0,0,.438.116" transform="translate(-405.745 -1762.541)" fill="#fff"/>
        <path id="Tracé_1848" data-name="Tracé 1848" d="M1085.156,2700.333a5.74,5.74,0,0,0,3.778-1.565c1.213-1.068-.124-3.484-1.817-6.544a20.685,20.685,0,0,1-2.233-4.836c-.194-1.069-.7-2.869-1.292-4.952-1.146-4.055-2.573-9.1-2.573-11.795a.58.58,0,1,0-1.16,0c0,2.856,1.451,7.987,2.617,12.11.581,2.055,1.083,3.83,1.267,4.844a21.064,21.064,0,0,0,2.359,5.191,35.415,35.415,0,0,1,1.8,3.525c.532,1.334.281,1.576.269,1.586a4.272,4.272,0,0,1-3.907,1.161,5.071,5.071,0,0,1-3.275-3.438c-1.385-3.879-8.051-20.9-8.118-21.067a.58.58,0,1,0-1.08.423c.067.171,6.726,17.171,8.106,21.034a6.2,6.2,0,0,0,4.077,4.171,4.744,4.744,0,0,0,1.187.151" transform="translate(-930.951 -2325.924)" fill="#fff"/>
        <path id="Tracé_1849" data-name="Tracé 1849" d="M1000.082,2695.069a5.237,5.237,0,0,0,3.981-1.811c1.5-1.739-.783-5.2-3.688-9.2-.541-.746-1.008-1.389-1.295-1.848-.929-1.487-2.23-9.417-3.007-14.156-.362-2.2-.647-3.947-.835-4.779a.58.58,0,0,0-1.131.256c.181.8.478,2.611.822,4.71,1.157,7.057,2.194,13.026,3.168,14.583.308.492.786,1.151,1.339,1.915a43.192,43.192,0,0,1,3.071,4.643c1.118,2.1.9,2.854.677,3.117a4.1,4.1,0,0,1-3.162,1.408c-1.9-.027-3.928-1.292-5.856-3.657a.58.58,0,0,0-.9.733c2.717,3.336,5.164,4.062,6.739,4.084h.076" transform="translate(-835.954 -2319.621)" fill="#fff"/>
        <path id="Tracé_1850" data-name="Tracé 1850" d="M947.929,2671.52a2.57,2.57,0,0,0,.5-.048,2.969,2.969,0,0,0,2.194-2.327c.754-2.412-1.415-6.89-3.329-10.841-.661-1.365-1.285-2.653-1.723-3.724-1.608-3.93-2.356-11.665-2.6-14.207l-.017-.175a.58.58,0,0,0-1.155.112l.017.175c.25,2.583,1.01,10.446,2.683,14.534.451,1.1,1.083,2.408,1.753,3.79,1.73,3.571,3.882,8.015,3.265,9.99-.282.9-.723,1.417-1.313,1.534-.861.172-2.076-.509-3.1-1.733-1.855-2.225-6.675-10.826-7.291-12.3s-4.126-13.108-4.161-13.226a.58.58,0,0,0-1.111.335c.145.481,3.559,11.794,4.2,13.337.63,1.512,5.568,10.318,7.47,12.6a5.217,5.217,0,0,0,3.709,2.177" transform="translate(-774.386 -2299.454)" fill="#fff"/>
        <path id="Tracé_1851" data-name="Tracé 1851" d="M100.519,1813.164a2.044,2.044,0,0,0,1.261-.4c.883-.657,1.277-2.047,1.277-4.505,0-3.8-1.83-13.8-2.81-18.311-.833-3.832.6-11.8,1.366-16.077.068-.378.13-.726.186-1.042a49.412,49.412,0,0,0,.317-6.834c.015-2.5.039-6.236.472-6.935,2.775-.156,32.764-5.748,37.035-7.423,1.788-.7,5.833-2.595,10.115-4.6,5.964-2.792,12.724-5.956,14.418-6.38,3.265-.817,9.466-3.575,13.164-7.828,3.751-4.314,28.276-65.722,29.318-68.334a.58.58,0,0,0-1.077-.43c-8.8,22.063-26.217,64.668-29.116,68-3.522,4.051-9.447,6.683-12.57,7.464-1.8.451-8.323,3.5-14.629,6.455-4.265,2-8.294,3.882-10.047,4.57-1.782.7-9.018,2.31-19.358,4.311-9.042,1.748-16.551,3.037-17.32,3.037H102.5a.9.9,0,0,0-.673.259c-.753.712-.844,2.932-.875,7.826a49.015,49.015,0,0,1-.3,6.639c-.055.314-.118.662-.185,1.038-.783,4.359-2.24,12.472-1.358,16.528.971,4.466,2.784,14.349,2.784,18.064,0,1.973-.272,3.175-.81,3.575-.1.076-.415.308-1.311.039-1.435-.43-2.5-4.416-2.5-5.537a13.711,13.711,0,0,0-1.474-3.932,21.145,21.145,0,0,1-1.15-2.76,19.379,19.379,0,0,0-3.121-6.547,7.285,7.285,0,0,1-1.348-2.593.58.58,0,0,0-1.16,0c0,.89.679,1.923,1.539,3.23a18.434,18.434,0,0,1,2.957,6.157,19.983,19.983,0,0,0,1.229,3,17.774,17.774,0,0,1,1.368,3.446c0,1.118,1.07,5.972,3.327,6.649a3.772,3.772,0,0,0,1.076.177" transform="translate(78.432 -1449.275)" fill="#fff"/>
        <path id="Tracé_1852" data-name="Tracé 1852" d="M232.332,1008.074a.58.58,0,0,0,.405-.995c-7.94-7.755-11.357-22.788-11.357-26.5,0-3.268,5.609-15.9,14.291-32.174a37.835,37.835,0,0,1,11.237-13.3,20.367,20.367,0,0,1,5.743-3.005.58.58,0,0,0-.3-1.121,20.965,20.965,0,0,0-6.06,3.14,38.951,38.951,0,0,0-11.646,13.744c-3.384,6.346-14.427,27.46-14.427,32.72,0,2.173.959,7.056,2.793,12.185,1.614,4.514,4.47,10.806,8.914,15.147a.579.579,0,0,0,.405.165" transform="translate(15.121 -810.965)" fill="#fff"/>
        <path id="Tracé_1853" data-name="Tracé 1853" d="M314.842,944.319a.58.58,0,0,0,.561-.435c2.161-8.346,9.306-20.979,14.919-30.108,6.4-10.4,12.293-18.687,13.07-19.4,1.143-1.048,5.238-3.162,7.419-4.254-2.259,5.372-9.947,23.832-10.437,27.431-.066.48-.176,1.164-.3,1.956-1.052,6.521-3.241,20.091,1.741,22.582,2.409,1.2,7.021,1.217,10.533.827s7.867-1.4,9.526-3.059c1.87-1.87,7.1-11.626,11.7-20.234,2.41-4.5,4.491-8.385,5.535-10.082,2.925-4.753,23.052-28.035,23.255-28.269a.58.58,0,1,0-.877-.759c-.831.961-20.391,23.587-23.365,28.42-1.063,1.727-3.151,5.627-5.57,10.142-4.346,8.114-9.754,18.212-11.5,19.961-1.192,1.192-4.66,2.262-8.834,2.726-4.207.468-8.087.188-9.887-.711-4.22-2.11-1.964-16.1-1.115-21.36.129-.8.24-1.49.308-1.984.543-3.98,10.857-28.324,10.961-28.57a.58.58,0,0,0-.786-.749c-.3.146-7.392,3.573-9.091,5.13-.961.881-7.081,9.576-13.274,19.647-5.655,9.2-12.856,21.94-15.054,30.425a.58.58,0,0,0,.416.707.587.587,0,0,0,.146.019" transform="translate(-146.426 -766.854)" fill="#fff"/>
        <path id="Tracé_1854" data-name="Tracé 1854" d="M1009.4,1514.239h0a.58.58,0,0,0,.58-.58c0-2.158-.035-52.915-.4-58.464-.145-2.174-.524-6.306-.925-10.681-.636-6.931-1.356-14.787-1.361-17.164-.011-4.9,4.832-20.263,6.135-23.952a.58.58,0,0,0-1.094-.386c-.815,2.309-6.213,18.867-6.2,24.341.006,2.428.729,10.311,1.366,17.266.4,4.367.779,8.492.923,10.652.368,5.511.4,57.86.4,58.388a.58.58,0,0,0,.58.579" transform="translate(-846.553 -1221.845)" fill="#fff"/>
        <path id="Tracé_1855" data-name="Tracé 1855" d="M89.6,2548.44a.584.584,0,0,0,.122-.013c.3-.064,30-6.435,34.594-7.17s13.311-1.692,13.4-1.7a.58.58,0,1,0-.126-1.153c-.088.009-8.833.969-13.455,1.709s-33.43,6.919-34.655,7.181a.58.58,0,0,0,.121,1.147" transform="translate(146.876 -2211.233)" fill="#fff"/>
        <path id="Tracé_1856" data-name="Tracé 1856" d="M125.929,2640.715a.58.58,0,0,0,.3-1.077c-1.045-.628-25.716-15.407-36.452-18.746a.58.58,0,0,0-.345,1.108c10.6,3.3,35.945,18.479,36.2,18.633a.581.581,0,0,0,.3.082" transform="translate(158.602 -2283.07)" fill="#fff"/>
        <path id="Tracé_1857" data-name="Tracé 1857" d="M266.862,2507.988a.58.58,0,0,0,.419-.981c-.059-.061-5.932-6.191-13.621-13.1-10.345-9.293-18.873-15.493-25.346-18.427-15.362-6.963-41.074-18.619-55.224-19.562a.58.58,0,1,0-.077,1.157c13.94.929,39.531,12.53,54.822,19.462,15.2,6.889,38.376,31.028,38.608,31.271a.578.578,0,0,0,.419.179" transform="translate(6.914 -2139.382)" fill="#fff"/>
        <path id="Tracé_1858" data-name="Tracé 1858" d="M800.662,1198.349l.095,0a.981.981,0,0,0,.779-.386c.46-.613.573-1.928-2.665-6.7a74.033,74.033,0,0,0-5.388-6.972c-1.908-2.1-3.14-8.007-3.8-11.178-.138-.661-.257-1.233-.354-1.633-.522-2.157.15-8.239,1-10.083a26.731,26.731,0,0,1,.613,4.325c.22,2.486.362,5.32.466,7.39.054,1.074.1,1.922.132,2.355.183,2.2,1.825,6.234,4.766,7.915a1.749,1.749,0,0,0,1.791.1c1.292-.707,2.006-3.258,2.246-8.029.109-2.169-.037-5.263-.18-8.255-.188-3.968-.423-8.906.168-9.847.149-.237.307-.491.473-.758a37.639,37.639,0,0,1,5.506-7.409c2.315-2.137,11.625-1.448,15.6-1.153,4.913.364,101.952,30.165,102.932,30.466a.58.58,0,1,0,.341-1.109c-4.005-1.23-98.145-30.14-103.187-30.514-7.161-.531-14.113-.721-16.474,1.457a38.492,38.492,0,0,0-5.7,7.65c-.165.265-.322.518-.47.754-.732,1.165-.619,4.751-.345,10.519.141,2.964.286,6.03.18,8.142-.289,5.727-1.246,6.852-1.645,7.07-.078.042-.26.143-.659-.085-2.467-1.41-4.016-4.974-4.185-7-.035-.414-.076-1.254-.13-2.317-.54-10.785-1.013-12.768-1.867-13.136a.776.776,0,0,0-.824.142c-1.617,1.386-2.229,9.419-1.678,11.693.092.382.21.945.346,1.6.732,3.509,1.957,9.382,4.078,11.72a73.049,73.049,0,0,1,5.181,6.688c2.623,3.834,2.821,5.1,2.811,5.421-.368-.059-1.831-.559-6.342-4.4a89.933,89.933,0,0,1-7.5-7.114c-2.869-3.227-6.754-14.741-6.941-18.478-.176-3.518,5.786-20.183,8.739-24.427.645-.927,1.292-2,1.977-3.144,2.479-4.126,5.563-9.261,11.1-11.392,8.192-3.15,73.622-29.347,78.925-31.907,5.6-2.706,30.749-29.274,35.463-35.8,2.6-3.6,8.153-14.485,13.526-25.015,4.733-9.278,9.628-18.871,12.416-23.315,6.439-10.262,14.241-20.338,32.354-21.022a.58.58,0,1,0-.044-1.159c-8.58.324-15.637,2.768-21.574,7.472-5.279,4.182-8.817,9.467-11.719,14.093-2.815,4.487-7.722,14.1-12.467,23.4-5.352,10.49-10.887,21.338-13.433,24.863-2.34,3.24-9.64,11.349-17.358,19.283-8.757,9-15.362,15.039-17.669,16.152-5.288,2.553-70.651,28.721-78.837,31.869-5.914,2.275-9.112,7.6-11.683,11.878-.675,1.123-1.312,2.183-1.934,3.079-1.4,2.009-3.627,7.009-5.68,12.739-1.648,4.6-3.372,10.277-3.265,12.408.2,3.971,4.173,15.75,7.232,19.191a89.66,89.66,0,0,0,7.494,7.123c5.3,4.533,6.755,4.79,7.261,4.79" transform="translate(-778.67 -862.407)" fill="#fff"/>
        <path id="Tracé_1859" data-name="Tracé 1859" d="M1046.832,1781.659a.577.577,0,0,0,.413-.173c2.223-2.255,7.994-5.035,9.776-5.391l1.454-.285c19.845-3.877,54.1-10.694,60.523-12.786,8.138-2.65,25.169-11.285,28.926-14.666,3.694-3.324,32-30.509,32.289-30.784a.58.58,0,0,0-.8-.837c-.286.274-28.582,27.446-32.262,30.759s-20.467,11.806-28.509,14.425c-4.718,1.536-26.164,6.064-60.386,12.75l-1.459.286c-1.945.389-7.975,3.28-10.375,5.714a.58.58,0,0,0,.413.987" transform="translate(-1018.655 -1495.332)" fill="#fff"/>
        <path id="Tracé_1860" data-name="Tracé 1860" d="M1416.576,1840.452a.58.58,0,0,0,.267-1.1c-.073-.038-7.386-3.851-10.624-8.017a.58.58,0,0,0-.916.712c3.4,4.368,10.7,8.176,11.007,8.335a.579.579,0,0,0,.266.065" transform="translate(-1301.68 -1595.109)" fill="#fff"/>
        <path id="Tracé_1861" data-name="Tracé 1861" d="M1383.97,2415.168a.58.58,0,0,0,.383-1.016c-.151-.134-15.226-13.395-20.01-17.964-4.907-4.687-8.8-7.657-27.9-18.331-15.26-8.529-31.636-10.954-37.969-11.6l-.292-.03a.58.58,0,0,0-.128,1.153l.3.031c6.261.639,22.45,3.036,37.521,11.459,18.981,10.609,22.836,13.543,27.668,18.158,4.8,4.585,19.894,17.863,20.045,18a.579.579,0,0,0,.383.145" transform="translate(-1255.201 -2061.247)" fill="#fff"/>
        <path id="Tracé_1862" data-name="Tracé 1862" d="M1757.586,2365.245a.58.58,0,0,0,.475-.913c-2.639-3.77-8.587-7.982-8.839-8.159a.58.58,0,0,0-.668.948c.06.042,6.035,4.274,8.556,7.876a.579.579,0,0,0,.476.248" transform="translate(-1686.915 -2052.4)" fill="#fff"/>
        <path id="Tracé_1863" data-name="Tracé 1863" d="M1345.878,2629.739a.577.577,0,0,0,.341-.111c.473-.343,11.62-8.439,14.775-11.223,3.193-2.817,13.044-17.95,13.462-18.593a.58.58,0,0,0-.973-.632c-.1.156-10.182,15.642-13.257,18.355-2.9,2.555-13.008,9.932-14.5,11.02-7.479-.951-17.205-4.841-24.08-7.954a137.421,137.421,0,0,1-17.389-9.161c-4.547-3.177-37.848-23.6-40.956-25.117a.58.58,0,0,0-.509,1.042c3.094,1.51,36.268,21.858,40.8,25.025a138.5,138.5,0,0,0,17.575,9.267c7.018,3.178,16.992,7.159,24.646,8.077.023,0,.046,0,.069,0" transform="translate(-1240.679 -2252.928)" fill="#fff"/>
        <path id="Tracé_1864" data-name="Tracé 1864" d="M1453.841,2946.05a.58.58,0,0,0,.284-1.086c-4.775-2.672-7.621-5.988-8.458-9.856-1.248-5.767,2.45-10.875,2.488-10.926a.58.58,0,0,0-.933-.689c-.166.224-4.043,5.564-2.69,11.848.907,4.212,3.944,7.791,9.027,10.635a.579.579,0,0,0,.283.074" transform="translate(-1343.981 -2546.487)" fill="#fff"/>
        <path id="Tracé_1865" data-name="Tracé 1865" d="M868.5,2978.225a.58.58,0,0,0,.193-1.127c-.381-.134-3.767-1.266-5.341.11a.58.58,0,1,0,.764.873c.9-.79,3.392-.168,4.193.111a.582.582,0,0,0,.191.032" transform="translate(-683.74 -2592.897)" fill="#fff"/>
        <path id="Tracé_1866" data-name="Tracé 1866" d="M815.851,3079.872c5.22,0,16.06-1.691,19.474-3.061a100.456,100.456,0,0,0,11.017-6.154c2.478-1.5,4.619-2.8,5.783-3.374,3.124-1.533,12.969-14.173,13.387-14.71a.58.58,0,1,0-.916-.712c-2.8,3.6-10.587,13.205-12.982,14.38-1.21.594-3.371,1.906-5.873,3.424a102.081,102.081,0,0,1-10.847,6.069c-4.151,1.667-18.941,3.625-21.1,2.795a2.4,2.4,0,0,1-1.481-1.259,3.73,3.73,0,0,0-2.46-1.921l-.229-.076a7.067,7.067,0,0,1-2.027-.845,6.709,6.709,0,0,1-1.236-1.76c-.11-.186-.231-.388-.363-.609a5.9,5.9,0,0,0-.972-1.041c-1-.936-2.5-2.351-2.084-3.5a7.824,7.824,0,0,1,1.146-1.97c.549-.747,1.171-1.594.4-2.368-.792-.792-3.762-4.421-2.7-6.4a18.66,18.66,0,0,1,4.129-4.951c2.953-2.451,6.111-3.261,9.386-2.408a.58.58,0,0,0,.292-1.123,11.387,11.387,0,0,0-10.419,2.638,19.581,19.581,0,0,0-4.41,5.293c-1.659,3.082,2.852,7.725,2.9,7.771a.137.137,0,0,1,.016.018,3.54,3.54,0,0,1-.528.843,8.782,8.782,0,0,0-1.3,2.261c-.678,1.865,1.162,3.594,2.379,4.74a6.469,6.469,0,0,1,.772.792c.132.219.251.421.36.6,1.307,2.2,1.416,2.29,3.895,3.115l.228.076a2.631,2.631,0,0,1,1.823,1.4,3.5,3.5,0,0,0,2.068,1.76,8.02,8.02,0,0,0,2.474.26" transform="translate(-672.209 -2655.1)" fill="#fff"/>
        <path id="Tracé_1867" data-name="Tracé 1867" d="M1548.673,2827.021a.58.58,0,0,0,.113-1.149c-.6-.12-1.782-.2-3.415-.3-3.578-.232-8.985-.583-12.559-1.731-1.414-.455-3.349-1.138-5.59-1.928-6.142-2.167-13.786-4.865-18.181-5.552a116.31,116.31,0,0,0-11.809-.83,47.948,47.948,0,0,1-6.083-.407,6.8,6.8,0,0,0-1.889-.542,10.222,10.222,0,0,1-4.37-1.639,19.2,19.2,0,0,1-1.892-1.808,7.623,7.623,0,0,0-2.529-2c-.814-.362-1.536-1.851-2.173-3.165a12.464,12.464,0,0,0-1.542-2.654,6.991,6.991,0,0,1-2.1-6.024,8.257,8.257,0,0,0-.11-1.282c-.237-1.855-.634-4.958,1.129-5.984.278-.162.51-.3.712-.42,1.179-.7,1.179-.7,3.479-1.07.812-.129,1.923-.306,3.45-.572,1.773-.308,8.032-.209,14.25.226,7.147.5,12.314,1.289,13.484,2.058a.58.58,0,1,0,.637-.969c-1.871-1.23-9.6-1.935-14.04-2.246-6.4-.448-12.648-.54-14.529-.212-1.519.265-2.626.441-3.434.57-2.425.387-2.52.4-3.89,1.219-.2.118-.427.254-.7.414-2.428,1.412-1.952,5.134-1.7,7.133a8.781,8.781,0,0,1,.1,1.071,8.119,8.119,0,0,0,2.381,6.852,11.814,11.814,0,0,1,1.371,2.4c.759,1.566,1.544,3.184,2.745,3.719a6.547,6.547,0,0,1,2.156,1.739,20.151,20.151,0,0,0,2,1.909,11.112,11.112,0,0,0,4.873,1.878,6.9,6.9,0,0,1,1.536.408c.514.308,2.131.4,6.624.565a115.464,115.464,0,0,1,11.674.817c4.289.67,12.2,3.461,17.974,5.5,2.249.793,4.191,1.479,5.621,1.939,3.71,1.192,9.2,1.549,12.838,1.785,1.529.1,2.736.178,3.263.283a.539.539,0,0,0,.114.012" transform="translate(-1442.542 -2427.459)" fill="#fff"/>
        <path id="Tracé_1868" data-name="Tracé 1868" d="M243.919,611.982a.58.58,0,0,0,.283-1.087c-3.6-2.006-13.234-7.6-14.55-9.352a72.6,72.6,0,0,1-4.755-9.692c-2.2-5.2-3.52-9.252-3.52-10.846,0-4.883.723-13.352,2.715-16.671a.58.58,0,0,0-.995-.6c-2.278,3.8-2.88,12.955-2.88,17.268,0,4.1,6.778,18.927,8.508,21.234,1.7,2.271,13.566,8.919,14.914,9.669a.578.578,0,0,0,.282.073" transform="translate(23.703 -490.834)" fill="#fff"/>
        <path id="Tracé_1869" data-name="Tracé 1869" d="M315.083,427.622c3.183,0,12.569-6.351,15.67-11.277a8.054,8.054,0,0,0,1.033-6.32,12.747,12.747,0,0,0-5.891-7.542,3.945,3.945,0,0,0-3.133-.427c-3.233.866-5.766,5.3-5.873,5.49a.58.58,0,0,0,1.01.57c.024-.042,2.4-4.2,5.164-4.94a2.788,2.788,0,0,1,2.241.306,11.719,11.719,0,0,1,5.354,6.816,6.83,6.83,0,0,1-.887,5.429c-3.234,5.136-12.592,10.891-14.759,10.733-2.183-.156-3-2.491-3.035-2.59a.58.58,0,0,0-1.1.368c.043.129,1.089,3.167,4.052,3.379.049,0,.1.005.153.005" transform="translate(-75.508 -350.106)" fill="#fff"/>
        <path id="Tracé_1870" data-name="Tracé 1870" d="M371.8,462.623a.58.58,0,0,0,.081-1.154c-.359-.051-.453-.2-.487-.425-.2-1.291,1.735-4.134,2.706-4.6.552-.263,1.091-.077,2,.275a7.883,7.883,0,0,0,2.975.68,1.484,1.484,0,0,0,1.506-1.275c.441-1.958-1.386-6.328-2.621-6.915a.58.58,0,0,0-.5,1.047c.634.326,2.354,4.093,1.983,5.631-.079.327-.2.352-.37.352a6.719,6.719,0,0,1-2.555-.6,3.442,3.442,0,0,0-2.916-.24c-1.375.656-3.636,3.97-3.353,5.819a1.613,1.613,0,0,0,1.47,1.4.575.575,0,0,0,.083.006" transform="translate(-131.773 -391.265)" fill="#fff"/>
        <path id="Tracé_1871" data-name="Tracé 1871" d="M258.745,100.51a.578.578,0,0,0,.281-.073c7.932-4.408,10.688-9.028,15.254-16.681,1.428-2.393,3.046-5.105,5.054-8.186,2.466-3.783,3.516-9.177,3.207-16.49A117.087,117.087,0,0,0,280.3,42.517c-.446-2.365-.8-4.233-.875-5.346-.425-6.161-9.357-18-10.374-19.333-1.385-1.811-6.6-5.809-12.133-9.3-4.139-2.612-11.99-7.158-18.061-8.262-5.682-1.033-13.924,1.012-19.838,2.909A81.14,81.14,0,0,0,203.945,9.5c-4.234,2.694-8.1,15.083-8.261,15.61a.58.58,0,0,0,.671.739,68.617,68.617,0,0,1,20.709-1.018c5.84.613,9.582,1.819,10.568,2.434,3.694,2.305,5.4,4.4,6.081,7.466a26.312,26.312,0,0,1,.4,2.7c.315,2.775.671,5.92,3.314,8.415,1.909,1.8,2.631,5.85,3.158,8.806.445,2.5.708,3.82,1.379,4.3a7.113,7.113,0,0,0,7.338.032.58.58,0,1,0-.576-1.007,5.987,5.987,0,0,1-6.088.032c-.323-.262-.677-2.245-.911-3.558-.586-3.288-1.316-7.379-3.5-9.445-2.334-2.2-2.651-5-2.958-7.7a27.131,27.131,0,0,0-.417-2.817c-.748-3.365-2.66-5.74-6.6-8.2-1.381-.862-5.624-2.033-11.061-2.6a69.864,69.864,0,0,0-20.089.843c.987-2.945,4.224-11.974,7.472-14.041,4.495-2.86,24.29-10.837,34.084-9.056,10.034,1.825,27.069,13.972,29.48,17.124,3.612,4.724,9.812,13.979,10.138,18.708.081,1.181.439,3.079.893,5.481a116.157,116.157,0,0,1,2.22,16.4c.294,6.965-.722,12.283-3.02,15.807-2.021,3.1-3.645,5.823-5.079,8.225-4.466,7.487-7.162,12.006-14.821,16.262a.58.58,0,0,0,.282,1.087" transform="translate(-11.226 0.001)" fill="#fff"/>
        <path id="Tracé_1872" data-name="Tracé 1872" d="M34.934,229.721a10.649,10.649,0,0,0,1.719-.138c4.926-.8,8.388-5.088,11.394-9.6,5.969-8.953,3.892-31.144,2.895-41.808-.08-.85-.151-1.617-.21-2.286-2.493-28.367-8.623-34.479-15.113-40.95q-.446-.444-.894-.893a30.436,30.436,0,0,0-14.2-7.629,35.068,35.068,0,0,0-7.694-1.085.58.58,0,0,0,0,1.16,34.624,34.624,0,0,1,7.446,1.059A29.269,29.269,0,0,1,33.9,134.865q.449.452.9.9c6.336,6.318,12.321,12.284,14.777,40.23.059.671.131,1.44.211,2.293A205.557,205.557,0,0,1,50.94,199.5c-.1,9.485-1.4,16.162-3.858,19.845-3.913,5.869-6.988,8.5-10.616,9.1-3.825.625-8.472-1.232-14.209-5.676-6.667-5.164-9.122-9.947-10.008-13.049a10.872,10.872,0,0,1-.335-5.518.58.58,0,0,0-1.111-.333,11.686,11.686,0,0,0,.3,6.073c.919,3.292,3.476,8.349,10.441,13.745,5.277,4.088,9.586,6.042,13.387,6.042" transform="translate(243.109 -109.179)" fill="#fff"/>
        <path id="Tracé_1873" data-name="Tracé 1873" d="M701.218,842.128a.58.58,0,0,0,.575-.506,50.366,50.366,0,0,0-.8-15.226.58.58,0,0,0-1.132.251,50.163,50.163,0,0,1,.781,14.827.58.58,0,0,0,.5.649.569.569,0,0,0,.075,0" transform="translate(-495.693 -719.488)" fill="#fff"/>
        <path id="Tracé_1874" data-name="Tracé 1874" d="M1554.757,2441.38a.59.59,0,0,0,.135-.017.58.58,0,0,0,.429-.7c-2.128-8.892-6.474-12.832-6.657-13a.58.58,0,0,0-.771.867c.057.051,4.267,3.9,6.3,12.4a.58.58,0,0,0,.564.446" transform="translate(-1458.23 -2114.647)" fill="#fff"/>
        <path id="Tracé_1875" data-name="Tracé 1875" d="M1714.556,2376.406a.58.58,0,0,0,.548-.771,19.948,19.948,0,0,0-7.431-9.323.58.58,0,0,0-.621.98,19.1,19.1,0,0,1,6.957,8.725.58.58,0,0,0,.548.388" transform="translate(-1638.533 -2061.247)" fill="#fff"/>
        <path id="Tracé_1876" data-name="Tracé 1876" d="M1289.871,3086.422c4.951,0,16.526-2.04,17.07-2.136a.58.58,0,1,0-.2-1.142c-.147.026-14.677,2.588-18.083,2.05a.58.58,0,1,0-.181,1.145,9.325,9.325,0,0,0,1.4.084" transform="translate(-1176.84 -2685.759)" fill="#fff"/>
        <path id="Tracé_1877" data-name="Tracé 1877" d="M516.185,275.747c4.747,0,11.449-.895,14.857-2.662,5.051-2.619,22.159-18.981,22.885-19.676a.58.58,0,1,0-.8-.838c-.177.169-17.712,16.941-22.616,19.484-2.173,1.127-5.976,1.987-10.434,2.361-4.284.359-7.391.114-8.247-.314-1.644-.822-2.62-3.9-3.565-6.885-.2-.632-.408-1.286-.621-1.919-.833-2.471-1.258-6.693-1.634-10.417a46.505,46.505,0,0,0-1.163-7.856,18.967,18.967,0,0,0-1.108-2.536,12.857,12.857,0,0,1-1.476-8.59,64.615,64.615,0,0,0-.041-13.384c-.043-.491-.08-.916-.106-1.269-.663-9.309,5.469-28.679,5.531-28.874a.58.58,0,0,0-1.105-.352c-.256.8-6.261,19.777-5.583,29.308.026.362.063.791.107,1.288a63.577,63.577,0,0,1,.044,13.151,13.987,13.987,0,0,0,1.591,9.24,17.777,17.777,0,0,1,1.046,2.385A46.438,46.438,0,0,1,504.854,255c.382,3.786.814,8.076,1.689,10.672.21.622.415,1.271.614,1.9,1.064,3.359,2.069,6.531,4.152,7.572a13.37,13.37,0,0,0,4.876.607" transform="translate(-322.081 -166.92)" fill="#fff"/>
      </g>
    </g>
  </g>
</svg>
