<svg xmlns="http://www.w3.org/2000/svg" width="384.537" height="515" viewBox="0 0 384.537 515">
  <g id="chakras" transform="translate(-352 -4837)">
    <path id="Soustraction_1" data-name="Soustraction 1" d="M9177.225,1051.875h0l-4.354-1.247-12.116-4.635-3.055-1.895-10.571-1.537-46.724-1.34-24.918-9.149-8.209-3.221h-2.213l-27.163-5.715-3.153,1.331-9.059,1.93L9000,1029.9l-15.356,1.862-3.777,1.477-4.013,2.566-3.85,2.928-3.581,2.29-4.281,1.177-5.9-.413-3.632-1.637-.608-4.031,1.436-7.375.959-3V1022.2l2.889-4.8,4.86-5.118,5.2-4.451-12.534-4.208L8934,994.083l-23.585-10.7-9.592-5.018-1.728.43-1.253-.741-1.055-.625-2.388.625-3.01-1.135-3.341-2.649-2.513-3.418-.843-.91-2.269-.511-3.795-3.353-2.038-3.451-1.2-3.237-.666-.836-2.159-1.832-1.519-3.1L8869.4,949l-.4-5.763.516-6.908,2-10.6,2.12-5.861,1.844-2.937,21.616-28.389,22.874-32.606,17.355-22.373,2.561-5.129,4.279-12.978,6.112-20.441,10.382-35.94,5.609-24.92,3.857-13.154,2.54-5.989,2.629-4.874,2.688-3.648,6.705-4.05,9.021-3.269,12.069-3.543,7.029-1.526,13.314-5.9,5.726-1.723,4.4-1.853-.205-1.279s-.006-.016-.017-.042c-.343-.86-.437-1.127-.457-1.2-.045-.177-1.466-4.92-1.479-4.962l-.713-4.828.234-6.948,2.431-8.129,3.042-5.786.885-.748-1.6-4.755-.482-5.52-4.83-3.936-2.526-3.151-3.718-10.607-.271-6.246,1.923-1.618-.642-7.707v-14.6l.943-8.631,1.542-4.744,3.713-5.1,6.353-6.492,6.079-4.677,6.5-3.093,7.11-1.839h7.932l14.046,2.02,11.467,4.224,6.843,4.164,4.6,6.056,2.9,6.82,2.487,10.626,1.191,10.883-.7,9.762-.757,4.14,1.205,4.6-.448,6.564-2.236,5.508-2.821,3.481-2.744,1.351h-1.948l-4.1,13.12,1.556,1.142,6.049,13.839.757,10.261-1.937,6.955-1.4,2.134,4.635,2.06,28.022,9.016,21.293,8.29,5.275,3.425,3.295,4.751,4.224,10.41,2.808,11.838,2.909,18.906,2.127,13.284,5.445,22.264,8.348,28.893,4.313,11.624,8.1,16.217,4.091,6.186,6.119,11.989,4.625,9.174,3.79,6.936,9.74,17.42,2.907,3.451,5.548,9.855,3.691,6.662,2.94,5.322,2.9,8.02,2.849,12.481.386,5.269-3.61,19.35-1.287,2.025-2.754,1.512-1.69.316-1.145,4.354-7.149,3.975-6.061,4.28-6.7,3.244h-2.459l-2.176-1.73-4.906,2.57-20.942,7.361-20.506,5.582-10.893,2.266-2.108.6,3.43.931,5.692,3.272,7.132,6.086,5.1,4.47,1.846,2.025,1.537,2.926v3.128l-.859,2.4,2.594,2.345,1.382,3.736-1,3.5-.967,3.941-4.9,7.549-1.749.483ZM9142.894,783.95h0l-1.2.657-2.834,19.363-3.815,28.93,1.071,49.847.469,19.031,1.621,4.361,4.2,12.107,3.16,5.807,1.818.808,9.825-1.683,28.8-4.3,18.574-1.823,5.146.388V907.1l-2.484-2.561-5.157-4.379-7.7-6.476L9190,889.243l-13.572-19.329-9.811-15.783-3.521-8.41-6.4-19.7-8.772-27.084-5.029-14.991Zm-145.918-12.393h0l-9.439,27.179-18.952,49.051-8.376,14.181-11.333,16.261-5.745,5.513-15.477,10.073-3.8,2.192-1.846,3.091-2.271,8.136.388,4.1,69.578,11.429h2.087l1.243-1.059,1.574-2.322,2.779-6.207,3.211-8.564,4.426-52.594-.339-8.81-2.515-25.721-2.909-27.073-2.285-18.855Z" transform="translate(-8516.454 4299.673)" fill="#3b8671"/>
    <g id="lines" transform="translate(352 4857)">
      <path id="Tracé_2044" data-name="Tracé 2044" d="M392.315,2824.468a.639.639,0,0,1-.135-.014c-.742-.157-74.354-15.8-90.259-19.693-7.1-1.74-22.107-7.334-40.132-14.963-16.13-6.828-30.2-13.393-34.224-15.966a.651.651,0,0,1,.7-1.1c8.4,5.376,58.495,26.973,73.964,30.761,15.219,3.727,83.408,18.236,89.752,19.585,3.393-6.387,5.54-26.982,5.873-30.357-4.317-1.883-39.5-17.359-60.033-30.375-19.608-12.432-67.607-26.691-68.09-26.833a.651.651,0,0,1,.369-1.249c.121.036,12.268,3.634,26.692,8.73,13.329,4.709,31.388,11.7,41.726,18.252,21.7,13.759,59.9,30.3,60.287,30.469a.651.651,0,0,1,.39.657c-.094,1.024-2.356,25.163-6.325,31.777a.651.651,0,0,1-.558.316" transform="translate(-195.517 -2352.273)" fill="#fff"/>
      <path id="Tracé_2045" data-name="Tracé 2045" d="M436.379,2727.552a.648.648,0,0,1-.349-.1c-2.488-1.584-7.168-1.137-7.215-1.132a.651.651,0,0,1-.13-1.3c.21-.021,5.179-.494,8.044,1.329a.651.651,0,0,1-.35,1.2" transform="translate(-368.295 -2344.284)" fill="#fff"/>
      <path id="Tracé_2046" data-name="Tracé 2046" d="M424.787,2698.179a.647.647,0,0,1-.373-.118c-2.251-1.576-7.911-1.362-7.967-1.359a.651.651,0,0,1-.054-1.3c.25-.011,6.157-.234,8.768,1.594a.651.651,0,0,1-.374,1.184" transform="translate(-357.688 -2318.849)" fill="#fff"/>
      <path id="Tracé_2047" data-name="Tracé 2047" d="M427.494,2667.976a.649.649,0,0,1-.461-.191c-3.021-3.033-10.655-4.469-10.732-4.483a.651.651,0,0,1,.236-1.281c.33.061,8.113,1.527,11.418,4.845a.651.651,0,0,1-.461,1.11" transform="translate(-357.687 -2290.135)" fill="#fff"/>
      <path id="Tracé_2048" data-name="Tracé 2048" d="M438.216,2498.551c-2.243,0-26.5-3.976-53.318-8.406-9.108-1.5-16.3-2.693-17.9-2.921a.651.651,0,0,1,.184-1.289c1.612.23,8.812,1.42,17.927,2.926,20.222,3.34,50.783,8.389,53.105,8.389.286,0,1.889-.425,5.318-8.818,1.854-4.537,3.31-9.139,3.324-9.185a.651.651,0,0,1,1.242.392c-.015.046-1.484,4.693-3.358,9.28-3.528,8.635-5.414,9.634-6.526,9.634" transform="translate(-315.249 -2132.511)" fill="#fff"/>
      <path id="Tracé_2049" data-name="Tracé 2049" d="M624.887,3256.344h-.193c-3.462-.035-6.3-.985-7.6-2.542-2.5-3,.634-12.762,1.286-14.685-.93-2.8,1.034-6.7,5.844-11.608a72.967,72.967,0,0,1,7.541-6.6.651.651,0,0,1,.775,1.046c-4.211,3.123-14.73,12.249-12.865,16.912a.65.65,0,0,1,.01.455c-1.061,3.053-3.416,11.454-1.591,13.644,1.04,1.248,3.574,2.042,6.613,2.073h.182a13.332,13.332,0,0,0,7.814-2.174c4.03-3.082,10.774-8.239,15.04-8.5,4.23-.259,31.324-3.6,39.129-5.111,7.757-1.5,13.505-3.084,13.563-3.1a.651.651,0,0,1,.347,1.255c-.058.016-5.852,1.613-13.663,3.124-7.837,1.516-35.047,4.872-39.3,5.132-3.87.237-10.417,5.244-14.329,8.235a14.653,14.653,0,0,1-8.608,2.442" transform="translate(-530.068 -2770.849)" fill="#fff"/>
      <path id="Tracé_2050" data-name="Tracé 2050" d="M1530.606,3218.6c-2.207,0-14.882-4.539-17.61-6.523-2.323-1.689-13.962-2.875-21.284-2.981-1.081-.016-2.823-.022-5.027-.029-11.189-.039-32.015-.11-35.807-1.585-4.378-1.7-30.254-11.63-30.514-11.73a.651.651,0,1,1,.466-1.216c.261.1,26.139,10.028,30.52,11.732,3.566,1.387,25.026,1.461,35.339,1.5,2.209.008,3.953.014,5.042.03,5.622.082,18.976,1.009,22.031,3.23,2.664,1.938,15.12,6.274,16.845,6.274,1.5,0,2.341-2.033,2.349-2.053a.651.651,0,0,1,.09-.156,13.788,13.788,0,0,0,2.112-3.5.671.671,0,0,1,.12-.213c2.4-2.834,1.869-4.718,1.845-4.8a.632.632,0,0,1,.054-.517,5.91,5.91,0,0,0-.142-6.384,9.864,9.864,0,0,0-2.375-2.609.651.651,0,0,1-.227-.776c2.409-5.931-1.757-9.285-5.1-11.981a27.667,27.667,0,0,1-2.136-1.834c-2.724-2.724-9.667-8.724-13.746-9.887-3.344-.953-10.435,2.117-14.672,3.952-.776.336-1.509.654-2.129.909-2.781,1.145-17.962.7-46.411-1.348l-1.136-.082c-6.951-.5-22.021-8.592-22.659-8.936a.651.651,0,1,1,.618-1.146c.154.083,15.461,8.307,22.133,8.783l1.137.082c34.69,2.5,44.065,2.165,45.821,1.442.61-.251,1.337-.566,2.108-.9,4.681-2.027,11.754-5.091,15.546-4.009,4.17,1.189,10.99,6.9,14.31,10.219.536.536,1.263,1.121,2.032,1.74a20.637,20.637,0,0,1,5.038,5.167,8.688,8.688,0,0,1,.633,7.859,11.307,11.307,0,0,1,2.328,2.673,7.2,7.2,0,0,1,.287,7.485c.128.767.2,2.9-2.085,5.646a15.539,15.539,0,0,1-2.221,3.693c-.22.5-1.35,2.779-3.519,2.779" transform="translate(-1221.582 -2723.598)" fill="#fff"/>
      <path id="Tracé_2051" data-name="Tracé 2051" d="M1642.415,3415.486a21.054,21.054,0,0,1-8.19-1.843,30.389,30.389,0,0,1-6.143-3.5.651.651,0,0,1,.8-1.029c.1.074,9.664,7.368,17.833,4.334a.651.651,0,0,1,.453,1.221,13.584,13.584,0,0,1-4.751.816" transform="translate(-1400.427 -2932.754)" fill="#fff"/>
      <path id="Tracé_2052" data-name="Tracé 2052" d="M1309.8,3052.238a.652.652,0,0,1-.63-.487c-.425-1.629,1.645-6.559,2.829-9.174l-12.811,4.654a.651.651,0,1,1-.445-1.224l14.284-5.189a.651.651,0,0,1,.81.893c-1.6,3.338-3.708,8.559-3.407,9.712a.652.652,0,0,1-.63.815" transform="translate(-1116.944 -2615.991)" fill="#fff"/>
      <path id="Tracé_2053" data-name="Tracé 2053" d="M1420.6,2809.737a.651.651,0,0,1-.191-1.273c3.269-1.006,40-16.15,43.489-17.693,1.331-.589,32.885-14.46,58.26-17.77a.651.651,0,1,1,.169,1.291c-25.191,3.286-56.578,17.084-57.9,17.669-3.494,1.546-40.343,16.734-43.633,17.747a.653.653,0,0,1-.192.029" transform="translate(-1221.582 -2385.616)" fill="#fff"/>
      <path id="Tracé_2054" data-name="Tracé 2054" d="M2199.5,2751.565a.649.649,0,0,1-.4-.141c-3.531-2.8-10.389-3.547-10.458-3.554a.651.651,0,0,1,.135-1.295c.3.031,7.3.793,11.131,3.829a.651.651,0,0,1-.4,1.161" transform="translate(-1882.391 -2362.884)" fill="#fff"/>
      <path id="Tracé_2055" data-name="Tracé 2055" d="M2227.34,2677.247a.651.651,0,0,1-.595-.912c.076-.171,1.956-4.233,10.738-7.244a.651.651,0,1,1,.422,1.232c-8.168,2.8-9.954,6.506-9.971,6.543a.655.655,0,0,1-.594.381" transform="translate(-1915.627 -2296.196)" fill="#fff"/>
      <path id="Tracé_2056" data-name="Tracé 2056" d="M2262.5,2736.189a.651.651,0,0,1-.527-.268c-1.422-1.956-6.251-1.718-7.992-1.462a.651.651,0,0,1-.19-1.288c.287-.043,7.059-1.008,9.236,1.984a.651.651,0,0,1-.526,1.034" transform="translate(-1938.468 -2351.198)" fill="#fff"/>
      <path id="Tracé_2057" data-name="Tracé 2057" d="M1928.925,2489.915c-.078,0-.147,0-.207-.006-1.174-.078-3.152-1.366-6.754-11.6-1.924-5.466-3.414-10.974-3.429-11.029a.651.651,0,1,1,1.257-.339c.015.055,1.494,5.521,3.4,10.942,3.552,10.091,5.3,10.707,5.611,10.727,1.159.078,7.54-.923,14.926-2.081,15.563-2.44,39.083-6.128,47.849-5.3a.651.651,0,0,1-.122,1.3c-8.6-.812-32.026,2.861-47.525,5.291-8.454,1.326-13.469,2.1-15.007,2.1" transform="translate(-1650.501 -2121.902)" fill="#fff"/>
      <path id="Tracé_2058" data-name="Tracé 2058" d="M2389.038,2651.994a1.858,1.858,0,0,1-1.549-.659c-1.107-1.41.352-4.907,3.246-10.472.246-.472.458-.879.621-1.206,1.157-2.314,3.121-15.8,2.887-18.6a9.174,9.174,0,0,0-3.68-6.424,5.44,5.44,0,0,1-1.487-2.388c-.018,1.456-.078,2.9-.181,4.136-.2,2.43.844,5.992,1.767,9.135.147.5.291.99.425,1.46,1.089,3.812.419,8.406-1.594,10.922a1.536,1.536,0,0,1-1.277.6c-2.288-.046-5.877-4.667-9.664-9.812-.575-.781-1.071-1.455-1.4-1.861-2.332-2.915-.683-20.22-.131-23.134.679-3.589,5.409-16.781,7.411-22.287a.651.651,0,0,1,1.224.445c-1.991,5.476-6.694,18.588-7.355,22.084a98.432,98.432,0,0,0-1,11.743c-.261,8.251.6,10,.873,10.335.341.427.821,1.078,1.428,1.9,1.269,1.723,3.006,4.083,4.689,6.012,2.557,2.931,3.616,3.263,3.953,3.27a.255.255,0,0,0,.235-.11c1.741-2.177,2.325-6.369,1.359-9.751-.134-.468-.276-.954-.423-1.451-.955-3.252-2.038-6.938-1.815-9.61a63.215,63.215,0,0,0,0-9.605c-.017-.173-.028-.3-.033-.379a.671.671,0,0,1,.556-.808c.185-.026.628-.015.762.646.018.088.042.216.073.378.96,5.1,1.829,6.666,2.388,7.086a10.494,10.494,0,0,1,4.2,7.357c.257,3.085-1.729,16.714-3.02,19.3-.168.336-.383.748-.631,1.225-.787,1.513-1.866,3.587-2.619,5.453-1.187,2.941-.806,3.554-.759,3.614.341.435,2.5.245,8.233-3.577,2.2-1.47,6.1-9.548,7.373-13.364,1.211-3.634,4.388-15.077,4.42-15.192a.651.651,0,1,1,1.254.348c-.032.115-3.218,11.59-4.439,15.255-1.125,3.376-5.165,12.222-7.886,14.036a42.35,42.35,0,0,1-5.1,2.969,8.717,8.717,0,0,1-3.33.987" transform="translate(-2044.03 -2220.416)" fill="#fff"/>
      <path id="Tracé_2059" data-name="Tracé 2059" d="M2496.391,2929.4a2.053,2.053,0,0,1-.654-.091,9.84,9.84,0,0,1-2.952-1.428.651.651,0,0,1,.827-1.005,9.193,9.193,0,0,0,2.544,1.2c.525.178,2.911-.4,6.574-2.241,3.349-1.684,6.184-3.644,7.221-4.992,1.611-2.094,2.977-7.41,4.075-11.682.522-2.031,1.015-3.949,1.483-5.355a.651.651,0,1,1,1.235.412c-.454,1.362-.942,3.259-1.458,5.267-1.186,4.615-2.531,9.846-4.3,12.152-1.393,1.81-4.874,3.957-7.668,5.361-1.208.607-4.946,2.4-6.924,2.4" transform="translate(-2144.347 -2497.771)" fill="#fff"/>
      <path id="Tracé_2060" data-name="Tracé 2060" d="M2616.8,2864.3a.651.651,0,0,1-.228-1.261c2.551-.954,6.771-3.005,7.238-4.447.767-2.368,5.9-19.477,6.383-21.664a.651.651,0,1,1,1.271.282c-.491,2.208-5.646,19.405-6.415,21.782-.812,2.507-7.285,4.991-8.021,5.266a.649.649,0,0,1-.228.041" transform="translate(-2250.682 -2440.179)" fill="#fff"/>
      <path id="Tracé_2061" data-name="Tracé 2061" d="M1925.461,1243.405a.651.651,0,0,1-.159-1.282c1.126-.285,4.2-1.411,4.908-3.172.91-2.276,3.107-14.967,3.651-19.04.484-3.633-2.95-21.371-7.782-29.1-2.027-3.244-3.819-6.641-5.551-9.926-2.4-4.546-4.661-8.84-6.935-11.4-3.132-3.523-14.238-25-20.873-37.836-1.825-3.53-3.267-6.318-4.071-7.819-.75-1.4-1.636-2.88-2.661-4.592-4.054-6.77-9.607-16.042-15.107-33.917-8.291-26.944-14-50.544-15.284-63.129a163.3,163.3,0,0,0-4.747-25.946c-2.836-10.048-6.362-16.564-10.2-18.844-8.088-4.809-31.94-12.488-36.6-13.967a241.228,241.228,0,0,0,.822,34.647c1.731,17.337,6.4,40.323,18.829,51.368a.651.651,0,1,1-.865.973c-5.645-5.018-10.208-12.781-13.562-23.074a140.161,140.161,0,0,1-5.7-29.157,239.66,239.66,0,0,1-.774-35.675.651.651,0,0,1,.843-.577c1.164.363,28.609,8.951,37.677,14.342,4.186,2.489,7.814,9.086,10.784,19.61a164.646,164.646,0,0,1,4.789,26.167c1.272,12.5,6.966,36.011,15.233,62.878,5.453,17.723,10.959,26.917,14.979,33.63,1.034,1.727,1.927,3.218,2.692,4.646.808,1.509,2.252,4.3,4.08,7.836,6.174,11.941,17.666,34.167,20.69,37.569,2.378,2.676,4.679,7.038,7.114,11.656,1.721,3.264,3.5,6.64,5.5,9.843,2.967,4.747,5.064,12.394,6.049,16.529,1.379,5.785,2.186,11.435,1.919,13.435-.484,3.633-2.721,16.824-3.733,19.352-1.1,2.738-5.607,3.9-5.8,3.951a.653.653,0,0,1-.159.02" transform="translate(-1550.666 -827.536)" fill="#fff"/>
      <path id="Tracé_2062" data-name="Tracé 2062" d="M2002.127,1527.409a.652.652,0,0,1-.594-.916c.811-1.825.308-7,.039-9.786-.035-.354-.066-.679-.092-.965-.018-.2-.277-.859-2.29-2.715-1.468-1.354-3.5-3.013-5.648-4.769-4.441-3.628-9.475-7.74-12.351-11.366-4.127-5.2-19.956-28.556-22.965-34.824-1.586-3.305-6.891-20.136-12.02-36.412-4.576-14.52-8.9-28.234-10.389-31.789-3.206-7.645-4.9-37.111-4.972-38.362a.651.651,0,0,1,1.3-.073c.017.3,1.753,30.492,4.872,37.932,1.514,3.61,5.845,17.352,10.43,31.9,5.116,16.233,10.406,33.019,11.952,36.24,2.9,6.041,18.814,29.538,22.811,34.578,2.789,3.516,7.764,7.581,12.155,11.167,5.43,4.436,8.269,6.822,8.411,8.375.026.284.057.606.091.958.3,3.1.806,8.3-.144,10.441a.651.651,0,0,1-.6.387" transform="translate(-1661.11 -1165.553)" fill="#fff"/>
      <path id="Tracé_2063" data-name="Tracé 2063" d="M2241.724,2016.128a.651.651,0,0,1-.247-1.254c.323-.132,7.961-3.223,12.9-2.251a.651.651,0,0,1-.251,1.277c-4.558-.9-12.081,2.148-12.156,2.179a.649.649,0,0,1-.246.049" transform="translate(-1928 -1731.303)" fill="#fff"/>
      <path id="Tracé_2064" data-name="Tracé 2064" d="M154.959,2598.564a4.3,4.3,0,0,1-2.668-1.344c-4.47-4-6.982-14.435-8.081-20.3-.744-3.966-.041-19.428-.01-20.084a.651.651,0,1,1,1.3.06c-.007.159-.726,15.966-.01,19.785.861,4.591,3.331,15.687,7.67,19.569.945.845,1.717,1.179,2.118.915,1.12-.736.989-4.976.276-7.115-.651-1.952-.366-9.839-.214-13.14.235-5.081.712-11.315,1.133-12.861.8-2.925,6.028-7.119,8.611-6.913,2.528.206,2.943,3.511,3.771,10.094q.126,1,.267,2.1c.9,6.98,3.735,10.177,5.428,12.087q.168.19.323.365c.314.359.487.308.544.291.737-.219,1.846-2.477,2.259-5.369.261-1.827-.674-14.785-1.5-26.218-.712-9.878-1.328-18.409-1.214-20a.651.651,0,0,1,1.3.093c-.107,1.5.534,10.4,1.214,19.818.87,12.06,1.769,24.53,1.488,26.5-.283,1.983-1.312,5.88-3.178,6.433a1.765,1.765,0,0,1-1.894-.682l-.317-.359c-1.793-2.022-4.793-5.406-5.745-12.784q-.143-1.107-.267-2.107c-.693-5.512-1.112-8.839-2.586-8.959-1.843-.153-6.563,3.444-7.249,5.958-.77,2.825-1.854,22.506-.941,25.247.609,1.828,1.287,7.246-.8,8.615a1.845,1.845,0,0,1-1.033.312" transform="translate(-123.771 -2176.464)" fill="#fff"/>
      <path id="Tracé_2065" data-name="Tracé 2065" d="M89.065,2778.244c-2.55,0-5.073-1.229-7.525-3.67a28.537,28.537,0,0,1-4.974-7.061c-1.51-3.021-4.215-26.028-4.329-27.006a.651.651,0,0,1,1.293-.151c.772,6.6,3.031,24.236,4.2,26.574.982,1.966,6.236,11.674,13.191,9.754a.651.651,0,0,1,.346,1.255,8.263,8.263,0,0,1-2.2.3" transform="translate(-62.142 -2357.041)" fill="#fff"/>
      <path id="Tracé_2066" data-name="Tracé 2066" d="M40.94,2770.791a.655.655,0,0,1-.126-.012c-5.659-1.111-9.138-7.805-10.3-11.586-.994-3.23-2.322-16.427-2.322-18.761a.651.651,0,1,1,1.3,0c0,2.241,1.324,15.324,2.264,18.378,1.078,3.5,4.252,9.7,9.307,10.691a.651.651,0,0,1-.125,1.29" transform="translate(-24.253 -2357.042)" fill="#fff"/>
      <path id="Tracé_2067" data-name="Tracé 2067" d="M6.88,1240.792a.646.646,0,0,1-.355-.106c-.269-.176-6.589-4.453-6.525-16.323.033-6.213,1.678-20.955,6.547-26.867,5.972-7.25,14.429-18.8,24.221-32.177l1.105-1.51c4.578-6.253,7.833-11.085,10.705-15.349,3.605-5.352,6.719-9.974,11.527-16.168,1.91-2.46,3.7-4.717,5.287-6.708,5.837-7.341,9.693-12.191,11.777-17.5,2.755-7.012,18.471-60.621,20.4-68.579.291-1.2.679-3.006,1.171-5.293,2.826-13.149,8.707-40.509,16.511-47.222,8.364-7.193,33.912-12.474,35-12.7a.651.651,0,0,1,.776.718c-.052.418-5.217,41.927-6.9,50.012-.248,1.191-2.211,6.934-4.7,14.206-3.047,8.912-6.838,20-8.278,25.163-2.442,8.754-22.4,59.639-23.978,63.378-2,4.752-13.961,24.179-21.025,32.411-4.91,5.723-18.322,13.851-23.86,17.079l-.022.013c-2.107,1.228-5,9.975-3.79,14.812a.651.651,0,1,1-1.263.316,19.914,19.914,0,0,1,.64-9.391c.365-1.309,1.716-5.671,3.757-6.862l.022-.013c5.481-3.2,18.747-11.23,23.528-16.8,7-8.157,18.836-27.374,20.813-32.069,2.2-5.219,21.6-54.883,23.924-63.222,1.449-5.2,5.248-16.307,8.3-25.234,2.373-6.942,4.423-12.938,4.655-14.05,1.534-7.368,6-42.843,6.769-49-4.659,1.015-26.263,5.979-33.517,12.217-3.193,2.747-6.48,9.717-9.768,20.718-2.764,9.247-4.9,19.2-6.319,25.79-.494,2.3-.883,4.11-1.178,5.326-1.933,7.974-17.69,61.714-20.454,68.748-2.155,5.486-6.06,10.4-11.97,17.83-1.581,1.988-3.372,4.242-5.278,6.7-4.781,6.159-7.883,10.764-11.476,16.1-2.879,4.273-6.142,9.117-10.735,15.39l-1.105,1.51c-9.8,13.392-18.271,24.958-24.267,32.236-4.6,5.587-6.219,20.226-6.25,26.046a21.85,21.85,0,0,0,2.949,11.838,11.754,11.754,0,0,0,2.989,3.39.651.651,0,0,1-.36,1.194" transform="translate(0 -838.182)" fill="#fff"/>
      <path id="Tracé_2068" data-name="Tracé 2068" d="M356.088,2357.563a.651.651,0,0,1-.623-.84,25.076,25.076,0,0,1,3.452-6.74c.877-1.24,2.483-3.321,3.384-3.321a.651.651,0,0,1,.107,1.293c-.774.412-4.384,4.81-5.7,9.145a.651.651,0,0,1-.623.462m6.213-9.6h0Z" transform="translate(-305.783 -2018.84)" fill="#fff"/>
      <path id="Tracé_2069" data-name="Tracé 2069" d="M574.946,1996.915a.648.648,0,0,1-.437-.169c-3.794-3.438-12-6.361-12.085-6.39a.651.651,0,1,1,.433-1.228c.347.122,8.537,3.038,12.526,6.653a.651.651,0,0,1-.437,1.134" transform="translate(-483.48 -1711.221)" fill="#fff"/>
      <path id="Tracé_2070" data-name="Tracé 2070" d="M1086.045,998.794c-2.454,0-4.766-.057-6.788-.106-1.928-.047-3.593-.088-4.705-.056-.425.012-.843.019-1.249.019-13.43,0-16.78-6.723-21.367-15.925-.663-1.329-1.348-2.7-2.1-4.131-5.7-10.85-7.887-37.18-8.281-42.558l-11.8,5.2a.651.651,0,1,1-.525-1.192l12.647-5.569a.651.651,0,0,1,.912.553c.02.312,2.1,31.351,8.2,42.963.756,1.44,1.445,2.82,2.11,4.156,4.679,9.385,7.77,15.586,21.413,15.185,1.148-.034,2.829.008,4.775.056a123.16,123.16,0,0,0,18.629-.55c7.457-.987,12.088-3.145,13.765-6.414,4.994-9.738,9.814-30.409,11.108-36.882,1.458-7.291,3.427-18.471,3.446-18.583a.651.651,0,0,1,.855-.5l11.02,3.841a.651.651,0,0,1-.429,1.229l-10.3-3.589c-.469,2.643-2.078,11.654-3.319,17.859-1.3,6.52-6.165,27.351-11.226,37.221-1.909,3.723-6.735,6.049-14.752,7.111a93.421,93.421,0,0,1-12.044.668" transform="translate(-885.118 -803.883)" fill="#fff"/>
      <path id="Tracé_2071" data-name="Tracé 2071" d="M1120.027,478a.651.651,0,0,1-.16-1.282c.117-.03,11.775-3.033,14.557-6.742,2.839-3.785,4.032-19.9,3.814-21.421a12.6,12.6,0,0,0-1.148-2.269c-1.873-3.3-5.333-9.391-5.263-16.687-1.193-.854-5.677-4.161-6.817-6.44a65.882,65.882,0,0,1-3.458-9.216c-1.543-5.338-1.565-8.539-.068-9.787,1.762-1.468,3.518-2.047,5.081-1.674,1.643.392,2.99,1.782,4,4.131a.651.651,0,1,1-1.2.516c-.843-1.952-1.89-3.089-3.112-3.381-1.449-.346-2.945.575-3.945,1.408-.472.394-1.371,2,.486,8.425a65.512,65.512,0,0,0,3.372,9c.948,1.9,5.144,5.086,6.68,6.155a.651.651,0,0,1,.279.551c-.177,7.089,3.247,13.121,5.087,16.361a10.227,10.227,0,0,1,1.305,2.727,66.373,66.373,0,0,1-.768,10.3c-.58,4.284-1.623,9.859-3.293,12.085-3.056,4.075-14.78,7.1-15.277,7.222a.653.653,0,0,1-.161.02" transform="translate(-963.002 -346.158)" fill="#fff"/>
      <path id="Tracé_2072" data-name="Tracé 2072" d="M1162.378,467.448a3.963,3.963,0,0,1-3.781-2.341,8.472,8.472,0,0,1-.712-3.068l-.009-.112a4.363,4.363,0,0,0-1.257-2.6,1.372,1.372,0,0,1-.278-1.118c.256-1.5,2.873-3.206,3.395-3.532a.651.651,0,0,1,.69,1.1c-1.061.664-2.685,1.965-2.8,2.647-.01.059,0,.071.011.086a5.674,5.674,0,0,1,1.538,3.308l.009.118c.136,1.805.615,4.2,3.195,4.2a.651.651,0,1,1,0,1.3" transform="translate(-994.784 -391.076)" fill="#fff"/>
      <path id="Tracé_2073" data-name="Tracé 2073" d="M1671.5,467.448a.651.651,0,0,1,0-1.3c2.58,0,3.059-2.4,3.195-4.2l.009-.118a5.671,5.671,0,0,1,1.538-3.308c.012-.015.021-.027.011-.086-.116-.682-1.74-1.983-2.8-2.647a.651.651,0,0,1,.69-1.1c.522.326,3.139,2.03,3.4,3.532a1.373,1.373,0,0,1-.278,1.118,4.361,4.361,0,0,0-1.257,2.6l-.009.112a8.473,8.473,0,0,1-.712,3.068,3.962,3.962,0,0,1-3.781,2.341" transform="translate(-1437.433 -391.076)" fill="#fff"/>
      <path id="Tracé_2074" data-name="Tracé 2074" d="M1218.894,60.23a.651.651,0,0,1-.643-.757c2.823-17.191-1.073-35.837-6.469-43.931-2.729-4.094-8.328-7.8-15.764-10.422a70.09,70.09,0,0,0-23.8-3.808c-18.352.274-30.17,17.225-32.352,20.62-4.418,6.873-2.2,35.485-2.174,35.773a.651.651,0,0,1-1.3.1c-.1-1.195-2.276-29.342,2.377-36.58A54.84,54.84,0,0,1,1150.9,8.021c6.754-5.206,13.919-7.9,21.3-8.011a71.411,71.411,0,0,1,24.253,3.883c7.7,2.719,13.529,6.6,16.414,10.928,2.989,4.484,5.339,11.444,6.616,19.6a81.987,81.987,0,0,1,.054,25.266.652.652,0,0,1-.642.546" transform="translate(-977.132 -0.002)" fill="#fff"/>
      <path id="Tracé_2075" data-name="Tracé 2075" d="M1257.175,211.48a.651.651,0,1,1,0-1.3c5.282,0,7.468-5.812,8.162-8.31,1.618-5.822.847-12.959-1.557-14.407-1.307-.788-3.619,1.6-4.325,2.494a.651.651,0,0,1-1.162-.361c-.591-9.3-2.5-27.832-5.509-31.4-3.609-4.286-19.328-5.12-28.719-5.618l-1.089-.058c-11.138-.6-23.418,3.805-27.453,5.252l-.349.125c-.293.1-1.8,1.268-2.733,13.924-.5,6.762-.576,13.459-.577,13.526a.651.651,0,1,1-1.3-.014c0-.067.08-6.805.581-13.607.923-12.536,2.4-14.63,3.594-15.055l.348-.125c4.1-1.469,16.563-5.939,27.962-5.327l1.088.058c10.224.542,25.673,1.361,29.646,6.079,3.522,4.182,5.273,24.764,5.706,30.63,1.215-1.187,3.238-2.681,4.966-1.64,1.494.9,2.526,3.164,2.9,6.375a25.637,25.637,0,0,1-.764,9.5c-1.636,5.887-5.069,9.264-9.417,9.264" transform="translate(-1024.244 -130.044)" fill="#fff"/>
      <path id="Tracé_2076" data-name="Tracé 2076" d="M1279.282,613.2c-8.546,0-24.085-16.253-24.757-16.96a.651.651,0,0,1,.944-.9c.164.172,16.468,17.237,24.258,16.535,7.682-.693,21.86-13.78,24.666-18.628,2.638-4.557,6.987-19.016,7.031-19.161a.651.651,0,1,1,1.247.374c-.18.6-4.437,14.752-7.151,19.44-1.5,2.584-5.987,7.264-10.679,11.128-3.459,2.848-10.006,7.694-15,8.144-.183.017-.371.025-.562.025" transform="translate(-1079.117 -493.494)" fill="#fff"/>
      <path id="Tracé_2077" data-name="Tracé 2077" d="M1860.437,3104.041a.651.651,0,0,1-.107-1.293c.318-.053,32.06-5.4,54.894-11.879,22.8-6.469,30.156-10.281,30.227-10.319a.651.651,0,0,1,.607,1.152c-.3.157-7.543,3.913-30.479,10.42-22.9,6.5-54.715,11.857-55.034,11.911a.654.654,0,0,1-.108.009" transform="translate(-1599.979 -2650.14)" fill="#fff"/>
      <path id="Tracé_2078" data-name="Tracé 2078" d="M968.8,2687.86a.651.651,0,0,1-.553-.306c-8.033-12.863-57.708-22.875-58.209-22.974a.651.651,0,1,1,.254-1.277c.126.025,12.778,2.558,26.277,6.681,18.235,5.569,29.265,11.249,32.782,16.881a.651.651,0,0,1-.552,1" transform="translate(-782.459 -2291.236)" fill="#fff"/>
      <path id="Tracé_2079" data-name="Tracé 2079" d="M1450.547,2677.973a.651.651,0,0,1-.38-1.18,168.068,168.068,0,0,1,20.331-12.022,135.372,135.372,0,0,1,20.071-8.268,74.451,74.451,0,0,1,22-3.77.651.651,0,1,1,0,1.3c-14.7,0-30.661,6.466-41.464,11.89a166.791,166.791,0,0,0-20.174,11.925.648.648,0,0,1-.379.123" transform="translate(-1247.35 -2282.154)" fill="#fff"/>
      <path id="Tracé_2080" data-name="Tracé 2080" d="M1179.965,698.5a.651.651,0,0,1-.6-.39,34.011,34.011,0,0,1-1.508-24.52,30.549,30.549,0,0,1,5.037-9.7.651.651,0,0,1,.993.843,29.877,29.877,0,0,0-4.808,9.309,32.734,32.734,0,0,0,1.478,23.543.651.651,0,0,1-.6.913" transform="translate(-1011.938 -570.948)" fill="#fff"/>
      <path id="Tracé_2081" data-name="Tracé 2081" d="M1617.811,758.178a.661.661,0,0,1-.1-.007,19,19,0,0,1-11.588-5.978,24.306,24.306,0,0,1-5.243-10.034,41.42,41.42,0,0,1-1.283-13.524.651.651,0,0,1,1.3.125,40.879,40.879,0,0,0,1.251,13.086c2.431,8.776,7.733,13.835,15.76,15.038a.651.651,0,0,1-.1,1.3" transform="translate(-1376.049 -626.34)" fill="#fff"/>
      <path id="Tracé_2082" data-name="Tracé 2082" d="M1250.966,958.581a.656.656,0,0,1-.163-.021c-6.289-1.62-13.36-.013-13.431,0a.651.651,0,0,1-.3-1.268c.3-.07,7.445-1.7,14.051,0a.651.651,0,0,1-.162,1.282" transform="translate(-1063.828 -822.902)" fill="#fff"/>
      <path id="Tracé_2083" data-name="Tracé 2083" d="M1489.475,947.088a.651.651,0,0,1-.346-1.2c.292-.183,7.222-4.448,13.66-1.919a.651.651,0,0,1-.476,1.212c-5.833-2.291-12.427,1.769-12.492,1.81a.648.648,0,0,1-.345.1" transform="translate(-1280.839 -811.41)" fill="#fff"/>
      <path id="Tracé_2084" data-name="Tracé 2084" d="M1638.49,699.78a.651.651,0,0,1-.553-.994c4.484-7.24,2.912-16.094.8-22.246a55.2,55.2,0,0,0-5.787-11.863.651.651,0,0,1,1.074-.736,55.449,55.449,0,0,1,5.934,12.147,37.108,37.108,0,0,1,2.173,11.5,21.682,21.682,0,0,1-3.092,11.888.651.651,0,0,1-.554.308" transform="translate(-1404.736 -570.947)" fill="#fff"/>
      <path id="Tracé_2085" data-name="Tracé 2085" d="M904.272,1372.876a.651.651,0,0,1-.65-.633c-.016-.554-.039-1.119-.064-1.718a59.831,59.831,0,0,1,1-15.179.651.651,0,0,1,1.28.241,58.694,58.694,0,0,0-.983,14.883c.025.6.049,1.173.064,1.736a.651.651,0,0,1-.632.669h-.019" transform="translate(-777.244 -1165.552)" fill="#fff"/>
      <path id="Tracé_2086" data-name="Tracé 2086" d="M992.706,1675.828a181.406,181.406,0,0,1-26.729-2.049,201.218,201.218,0,0,1-45.871-12.384.651.651,0,0,1-.386-.663c.037-.362,3.724-36.366,4.27-53.851.312-9.976-7.786-78.249-7.868-78.938a.651.651,0,0,1,1.293-.154c.334,2.815,8.191,69.059,7.876,79.132-.513,16.428-3.786,49.118-4.227,53.465A202.505,202.505,0,0,0,966.2,1672.5c24.072,3.586,59.173,4.093,89.925-13.783-.244-4.955-2.661-54.555-2.2-67.586.5-14.062,5.936-47.776,6.941-50.187a.651.651,0,1,1,1.2.5c-.967,2.321-6.36,36.262-6.841,49.732-.486,13.6,2.188,67.329,2.215,67.87a.651.651,0,0,1-.321.594,119.184,119.184,0,0,1-46.9,15.2,152.1,152.1,0,0,1-17.527.988" transform="translate(-788.137 -1313.868)" fill="#fff"/>
    </g>
    <g id="chakra1" transform="translate(502.547 -95.453)">
      <path id="bg" d="M16,0A16,16,0,1,0,32,16,16.018,16.018,0,0,0,16,0" transform="translate(31 5372)" fill="#a02525" stroke="#fff" stroke-width="2"/>
      <g id="Groupe_2702" data-name="Groupe 2702" transform="translate(37.503 5379.547)">
        <g id="Polygone_1" data-name="Polygone 1" transform="translate(19 21.5) rotate(180)" fill="none">
          <path d="M9.5,0,19,21.5H0Z" stroke="none"/>
          <path d="M 9.5 4.948482513427734 L 3.070260047912598 19.5 L 15.9297399520874 19.5 L 9.5 4.948482513427734 M 9.5 0 L 19 21.5 L 0 21.5 L 9.5 0 Z" stroke="none" fill="#fff"/>
        </g>
        <path id="Tracé_2925" data-name="Tracé 2925" d="M-6957,4786.2h18.693" transform="translate(6957.034 -4773.556)" fill="none" stroke="#fff" stroke-width="2"/>
      </g>
    </g>
    <g id="chakra8" transform="translate(88 -480)">
      <path id="bg-2" data-name="bg" d="M16,0A16,16,0,1,0,32,16,16.018,16.018,0,0,0,16,0" transform="translate(478 5404) rotate(180)" fill="#597fb2" stroke="#fff" stroke-width="2"/>
      <g id="Groupe_2712" data-name="Groupe 2712" transform="translate(471.5 5396.6) rotate(180)">
        <g id="Polygone_1-2" data-name="Polygone 1" transform="translate(19 21.5) rotate(180)" fill="none">
          <path d="M9.5,0,19,21.5H0Z" stroke="none"/>
          <path d="M 9.5 4.948482513427734 L 3.070260047912598 19.5 L 15.9297399520874 19.5 L 9.5 4.948482513427734 M 9.5 0 L 19 21.5 L 0 21.5 L 9.5 0 Z" stroke="none" fill="#fff"/>
        </g>
        <path id="Tracé_2925-2" data-name="Tracé 2925" d="M0,0H18.847" transform="translate(0.1 12.721)" fill="none" stroke="#fff" stroke-width="2"/>
      </g>
    </g>
    <g id="chakra9" transform="translate(30 -534)">
      <path id="bg-3" data-name="bg" d="M16,0A16,16,0,1,0,32,16,16.018,16.018,0,0,0,16,0" transform="translate(536 5404) rotate(180)" fill="#8c59b2" stroke="#fff" stroke-width="2"/>
      <g id="Groupe_2713" data-name="Groupe 2713" transform="translate(529.5 5396.6) rotate(180)">
        <g id="Polygone_1-3" data-name="Polygone 1" transform="translate(19 21.5) rotate(180)" fill="none">
          <path d="M9.5,0,19,21.5H0Z" stroke="none"/>
          <path d="M 9.5 4.948482513427734 L 3.070260047912598 19.5 L 15.9297399520874 19.5 L 9.5 4.948482513427734 M 9.5 0 L 19 21.5 L 0 21.5 L 9.5 0 Z" stroke="none" fill="#fff"/>
        </g>
        <path id="Tracé_2925-3" data-name="Tracé 2925" d="M0,0H18.847" transform="translate(0.1 12.721)" fill="none" stroke="#fff" stroke-width="2"/>
      </g>
    </g>
    <g id="chakra4" transform="translate(326 -262)">
      <path id="bg-4" data-name="bg" d="M16,0A16,16,0,1,0,32,16,16.018,16.018,0,0,0,16,0" transform="translate(208 5372)" fill="#6da749" stroke="#fff" stroke-width="2"/>
      <g id="Groupe_2706" data-name="Groupe 2706" transform="translate(214.5 5379.4)">
        <g id="Polygone_1-4" data-name="Polygone 1" transform="translate(19 21.5) rotate(180)" fill="none">
          <path d="M9.5,0,19,21.5H0Z" stroke="none"/>
          <path d="M 9.5 4.948482513427734 L 3.070260047912598 19.5 L 15.9297399520874 19.5 L 9.5 4.948482513427734 M 9.5 0 L 19 21.5 L 0 21.5 L 9.5 0 Z" stroke="none" fill="#fff"/>
        </g>
      </g>
    </g>
    <g id="chakra6" transform="translate(207 -371)">
      <path id="bg-5" data-name="bg" d="M16,0A16,16,0,1,0,32,16,16.018,16.018,0,0,0,16,0" transform="translate(327 5372)" fill="#35a07b" stroke="#fff" stroke-width="2"/>
      <g id="Groupe_2709" data-name="Groupe 2709" transform="translate(333.5 5379.4)">
        <g id="Polygone_1-5" data-name="Polygone 1" transform="translate(19 21.5) rotate(180)" fill="none">
          <path d="M9.5,0,19,21.5H0Z" stroke="none"/>
          <path d="M 9.5 4.948482513427734 L 3.070260047912598 19.5 L 15.9297399520874 19.5 L 9.5 4.948482513427734 M 9.5 0 L 19 21.5 L 0 21.5 L 9.5 0 Z" stroke="none" fill="#fff"/>
        </g>
      </g>
    </g>
    <g id="chakra7" transform="translate(148 -425)">
      <path id="bg-6" data-name="bg" d="M16,0A16,16,0,1,0,32,16,16.018,16.018,0,0,0,16,0" transform="translate(386 5372)" fill="#59b2b2" stroke="#fff" stroke-width="2"/>
      <g id="Groupe_2711" data-name="Groupe 2711" transform="translate(408.756 5386.933) rotate(180)">
        <g id="Polygone_1-6" data-name="Polygone 1" transform="translate(13.511 14.933) rotate(180)" fill="none">
          <path d="M6.756,0l6.756,14.933H0Z" stroke="none"/>
          <path d="M 6.755555629730225 3.639284133911133 L 2.324912071228027 13.43333625793457 L 11.18619918823242 13.43333625793457 L 6.755555629730225 3.639284133911133 M 6.755555629730225 -2.86102294921875e-06 L 13.51111602783203 14.93333625793457 L -4.76837158203125e-06 14.93333625793457 L 6.755555629730225 -2.86102294921875e-06 Z" stroke="none" fill="#fff"/>
        </g>
        <path id="Tracé_2925-4" data-name="Tracé 2925" d="M0,0H13.276" transform="translate(0.071 8.903)" fill="none" stroke="#fff" stroke-width="1.5"/>
      </g>
      <g id="Groupe_2710" data-name="Groupe 2710" transform="translate(395.244 5389.778)">
        <g id="Polygone_1-7" data-name="Polygone 1" transform="translate(13.511 14.222) rotate(180)" fill="none">
          <path d="M6.756,0l6.756,14.222H0Z" stroke="none"/>
          <path d="M 6.755555629730225 3.496051788330078 L 2.37312126159668 12.72222137451172 L 11.13798904418945 12.72222137451172 L 6.755555629730225 3.496051788330078 M 6.755555629730225 9.5367431640625e-07 L 13.51111602783203 14.22222137451172 L -4.76837158203125e-06 14.22222137451172 L 6.755555629730225 9.5367431640625e-07 Z" stroke="none" fill="#fff"/>
        </g>
      </g>
    </g>
    <g id="chakra2" transform="translate(444 -153)">
      <path id="bg-7" data-name="bg" d="M16,0A16,16,0,1,0,32,16,16.018,16.018,0,0,0,16,0" transform="translate(90 5372)" fill="#ad7a27" stroke="#fff" stroke-width="2"/>
      <g id="Groupe_2704" data-name="Groupe 2704" transform="translate(115.5 5396.6) rotate(180)">
        <g id="Polygone_1-8" data-name="Polygone 1" transform="translate(19 21.5) rotate(180)" fill="none">
          <path d="M9.5,0,19,21.5H0Z" stroke="none"/>
          <path d="M 9.5 4.948482513427734 L 3.070260047912598 19.5 L 15.9297399520874 19.5 L 9.5 4.948482513427734 M 9.5 0 L 19 21.5 L 0 21.5 L 9.5 0 Z" stroke="none" fill="#fff"/>
        </g>
      </g>
    </g>
    <g id="chakra3" transform="translate(385 -208)">
      <path id="bg-8" data-name="bg" d="M16,0A16,16,0,1,0,32,16,16.018,16.018,0,0,0,16,0" transform="translate(149 5372)" fill="#959a21" stroke="#fff" stroke-width="2"/>
      <g id="Groupe_2705" data-name="Groupe 2705" transform="translate(174.5 5396.6) rotate(180)">
        <g id="Polygone_1-9" data-name="Polygone 1" transform="translate(19 21.5) rotate(180)" fill="none">
          <path d="M9.5,0,19,21.5H0Z" stroke="none"/>
          <path d="M 9.5 4.948482513427734 L 3.070260047912598 19.5 L 15.9297399520874 19.5 L 9.5 4.948482513427734 M 9.5 0 L 19 21.5 L 0 21.5 L 9.5 0 Z" stroke="none" fill="#fff"/>
        </g>
      </g>
    </g>
    <g id="chakra5" transform="translate(267 -316)">
      <path id="circle" d="M16,0A16,16,0,1,0,32,16,16.018,16.018,0,0,0,16,0" transform="translate(267 5372)" fill="#488920" stroke="#fff" stroke-width="2"/>
      <g id="Groupe_2707" data-name="Groupe 2707" transform="translate(276.244 5389.778)">
        <g id="bg-9" data-name="bg" transform="translate(13.511 14.222) rotate(180)" fill="none">
          <path d="M6.756,0l6.756,14.222H0Z" stroke="none"/>
          <path d="M 6.755555629730225 3.496051788330078 L 2.37312126159668 12.72222137451172 L 11.13798904418945 12.72222137451172 L 6.755555629730225 3.496051788330078 M 6.755555629730225 9.5367431640625e-07 L 13.51111602783203 14.22222137451172 L -4.76837158203125e-06 14.22222137451172 L 6.755555629730225 9.5367431640625e-07 Z" stroke="none" fill="#fff"/>
        </g>
      </g>
      <g id="Groupe_2708" data-name="Groupe 2708" transform="translate(276.244 5372)">
        <g id="Polygone_3" data-name="Polygone 3" transform="translate(13.395 15.622) rotate(180)" fill="none">
          <path d="M6.7,0l6.7,11.547H0Z" stroke="none"/>
          <path d="M 6.697417736053467 2.989590644836426 L 2.604122161865234 10.04655838012695 L 10.79071235656738 10.04655838012695 L 6.697417736053467 2.989590644836426 M 6.697417736053467 -1.9073486328125e-06 L 13.39483737945557 11.54655838012695 L -1.9073486328125e-06 11.54655838012695 L 6.697417736053467 -1.9073486328125e-06 Z" stroke="none" fill="#fff"/>
        </g>
        <g id="Tracé_2927" data-name="Tracé 2927" transform="translate(0)" fill="none">
          <path d="M6.756,0l6.756,11.666H0Z" stroke="none"/>
          <path d="M 6.755555629730225 2.993327140808105 L 2.601933479309082 10.16628074645996 L 10.90917778015137 10.16628074645996 L 6.755555629730225 2.993327140808105 M 6.755555629730225 0 L 13.51111602783203 11.66628074645996 L -4.76837158203125e-06 11.66628074645996 L 6.755555629730225 0 Z" stroke="none" fill="#fff"/>
        </g>
      </g>
    </g>
  </g>
</svg>
