<svg xmlns="http://www.w3.org/2000/svg" width="175.096" height="175.095" viewBox="0 0 175.096 175.095">
  <g id="chakra5" transform="translate(1 1)">
    <path id="circle" d="M86.547,0A86.548,86.548,0,1,0,173.1,86.548,86.646,86.646,0,0,0,86.547,0" transform="translate(0 0)" fill="#488920" stroke="#fff" stroke-width="2"/>
    <g id="Groupe_2707" data-name="Groupe 2707" transform="translate(50.005 92.164)">
      <g id="bg" transform="translate(73.085 76.931) rotate(180)" fill="none">
        <path d="M36.542,0,73.085,76.931H0Z" stroke="none"/>
        <path d="M 36.54246520996094 3.496025085449219 L 2.373115539550781 75.43131256103516 L 70.71181488037109 75.43131256103516 L 36.54246520996094 3.496025085449219 M 36.54246520996094 0 L 73.08493041992188 76.93131256103516 L 0 76.93131256103516 L 36.54246520996094 0 Z" stroke="none" fill="#fff"/>
      </g>
    </g>
    <g id="Groupe_2708" data-name="Groupe 2708" transform="translate(50.005 4)">
      <g id="Polygone_3" data-name="Polygone 3" transform="translate(72.456 84.502) rotate(180)" fill="none">
        <path d="M36.228,0,72.456,62.458H0Z" stroke="none"/>
        <path d="M 36.22795867919922 2.989578247070312 L 2.6041259765625 60.95800399780273 L 69.85183715820312 60.95800399780273 L 36.22795867919922 2.989578247070312 M 36.22795867919922 3.814697265625e-06 L 72.45596313476562 62.45800399780273 L 0 62.45800399780273 L 36.22795867919922 3.814697265625e-06 Z" stroke="none" fill="#fff"/>
      </g>
      <g id="Tracé_2927" data-name="Tracé 2927" transform="translate(0)" fill="none">
        <path d="M36.542,0,73.085,63.106H0Z" stroke="none"/>
        <path d="M 36.54246520996094 2.993316650390625 L 2.601936340332031 61.60562515258789 L 70.48299407958984 61.60562515258789 L 36.54246520996094 2.993316650390625 M 36.54246520996094 3.814697265625e-06 L 73.08493041992188 63.10562515258789 L 0 63.10562515258789 L 36.54246520996094 3.814697265625e-06 Z" stroke="none" fill="#fff"/>
      </g>
    </g>
  </g>
</svg>
