<svg xmlns="http://www.w3.org/2000/svg" xmlns:xlink="http://www.w3.org/1999/xlink" width="100.001" height="100" viewBox="0 0 100.001 100">
  <defs>
    <clipPath id="clip-path">
      <rect id="Rectangle_1322" data-name="Rectangle 1322" width="100" height="100.001" fill="none"/>
    </clipPath>
  </defs>
  <g id="corner-top-left" transform="translate(100.001) rotate(90)">
    <g id="Groupe_2628" data-name="Groupe 2628" clip-path="url(#clip-path)">
      <path id="Tracé_1592" data-name="Tracé 1592" d="M159.355,413.517a16.4,16.4,0,0,1-.7-5.122c.235-7.181,5.031-13.756,12.524-17.18a21.189,21.189,0,0,0,.431,5.14c-4.831,2.8-7.782,7.35-7.9,12.172a11.918,11.918,0,0,0,.46,3.453c-1.536.557-3.155,1.074-4.814,1.536" transform="translate(-131.659 -324.658)" fill="#fff"/>
      <path id="Tracé_1593" data-name="Tracé 1593" d="M266.963,434.12c-.386-.312-.763-.62-1.13-.92-1-.822-1.911-1.548-2.775-2.219,4.353-3.123,7.435-6.849,8.914-10.779.164-.432.311-.879.436-1.326a18.759,18.759,0,0,1,4.725,1.481c-.143.492-.294.957-.467,1.422a27.847,27.847,0,0,1-9.7,12.341" transform="translate(-218.303 -347.613)" fill="#fff"/>
      <path id="Tracé_1594" data-name="Tracé 1594" d="M248.814,329.011a23.741,23.741,0,0,1-3.042-5.64c-2.525-6.839-1.164-14.034,3.548-18.777,1.394-1.413,2.808-2.859,4.207-4.3,1.363,1.405,2.779,2.851,4.208,4.3a16.479,16.479,0,0,1,4.367,8.036,29.066,29.066,0,0,0-5.458-1.106,11.308,11.308,0,0,0-2.413-3.65l-.022-.02-.138-.145-.543-.553-.7.711c-3.4,3.437-4.3,8.774-2.366,13.929a18.848,18.848,0,0,0,1.783,3.52,24.367,24.367,0,0,1-3.434,3.7" transform="translate(-202.922 -249.205)" fill="#fff"/>
      <path id="Tracé_1595" data-name="Tracé 1595" d="M211.241,481.517c-.586-.472-1.154-.937-1.7-1.386-4.01-3.306-6.491-5.052-8.546-6.02-.017-.252-.023-.5-.018-.733a10.8,10.8,0,0,1,.907-4.076c3.255,1.208,6.636,3.686,11.025,7.289.8.656,1.734,1.42,2.741,2.206a31.983,31.983,0,0,1-4.411,2.72" transform="translate(-166.784 -389.46)" fill="#fff"/>
      <path id="Tracé_1596" data-name="Tracé 1596" d="M198.193,534.732a11.138,11.138,0,0,1-7.8-3.281c1.944-.6,3.818-1.255,5.573-1.958a5.494,5.494,0,0,0,1.091.376,6.08,6.08,0,0,0,1.329.141c3.966,0,8.873-3.5,12.233-6.155a47.362,47.362,0,0,0,4.4,2.72c-4.983,4.044-10.851,8.157-16.666,8.157h-.161Z" transform="translate(-158.001 -434.732)" fill="#fff"/>
      <path id="Tracé_1597" data-name="Tracé 1597" d="M304.539,390.5c-3.188-5.2-9.527-8.439-16.556-8.443h-.094c-.579,0-1.174.024-1.773.072a11.753,11.753,0,0,1,.265-4.757c.5-.028,1.017-.042,1.523-.042h.071a26.25,26.25,0,0,1,13.512,3.654,21.2,21.2,0,0,1,8.429,9.1c-.494-.034-.957-.05-1.413-.05-.155,0-.309,0-.461.006a16.266,16.266,0,0,0-3.5.459" transform="translate(-237.334 -313.134)" fill="#fff"/>
      <path id="Tracé_1598" data-name="Tracé 1598" d="M317.648,517.924a17.755,17.755,0,0,1-8.216-2.331c1.382-.9,2.836-1.948,4.446-3.211a10.367,10.367,0,0,0,3.741.818,6.117,6.117,0,0,0,1.326-.14c2.366-.53,4.416-2.7,6.092-6.448a14.159,14.159,0,0,0,.737-2.632,6.872,6.872,0,0,1,2.051-.376l.2,0a16.327,16.327,0,0,1,2.873.34,18.2,18.2,0,0,1-1.074,4.289c-.005.013-.039.086-.047.1l-.067.162c-2.3,5.172-5.512,8.252-9.553,9.157a11.472,11.472,0,0,1-2.346.271Z" transform="translate(-256.788 -417.923)" fill="#fff"/>
      <path id="Tracé_1599" data-name="Tracé 1599" d="M317.872,496.253c-1.677-.707-3.287-1.475-4.782-2.282a43.986,43.986,0,0,1-6.051-3.914,33.738,33.738,0,0,0,3.427-3.485,39.552,39.552,0,0,0,5.178,3.31,51.9,51.9,0,0,0,5.147,2.4,10.826,10.826,0,0,1-2.918,3.976" transform="translate(-254.802 -403.792)" fill="#fff"/>
      <path id="Tracé_1600" data-name="Tracé 1600" d="M82.654,164.49c-2.8-4.829-7.35-7.782-12.174-7.9-.078,0-.157,0-.236,0a12.033,12.033,0,0,0-3.215.461c-.557-1.536-1.074-3.155-1.535-4.813a16.62,16.62,0,0,1,4.682-.7c.147,0,.292,0,.439.006,7.182.235,13.757,5.031,17.18,12.524-.275-.011-.551-.017-.82-.017a21.32,21.32,0,0,0-4.32.447" transform="translate(-54.351 -125.749)" fill="#fff"/>
      <path id="Tracé_1601" data-name="Tracé 1601" d="M5.457,386.14c.073-1.83.15-3.67.231-5.472a107.427,107.427,0,0,1,3.2-22.3,24.653,24.653,0,0,0,4.294,2.4,96.145,96.145,0,0,0-2.323,13.842l-.052.545.391-.384a47.382,47.382,0,0,0,4.545-5.106,28.591,28.591,0,0,0,4.19-7.393l.078.008s.294-1.1.42-1.561c.014-.046.053-.191.053-.191s.088-.484.1-.545l.012-.074c.022-.125.043-.25.062-.374l.024-.151c.013-.076.025-.153.036-.231l.029-.2c.017-.121.032-.239.046-.356l.018-.156c.009-.081.017-.162.024-.243,0-.054.01-.111.015-.168.008-.1.016-.2.022-.3l.006-.138c0-.091.008-.184.01-.274l0-.089c0-.121,0-.241,0-.363v-.031l0-.064c0-.084-.007-.169-.011-.256l0-.06a9.04,9.04,0,0,0-.52-2.472l-.016-.037-.107-.307-.257-.73-.069-.012a19.34,19.34,0,0,0-1.173-2.116c.482-1.074.983-2.094,1.489-3.033.34-.633.694-1.251,1.05-1.839,4.158,5.795,5.022,9.319,3.85,15.647l-.012.045-.007.035c-.009.05-.018.1-.031.149a28.718,28.718,0,0,1-3.3,7.624c-.043.073-.087.145-.133.217l-.131.21.241.241.089-.055a29,29,0,0,1,7.965-3.5c.048-.013.1-.022.149-.031l.062-.011a18.9,18.9,0,0,0-.628,4.25c-.01.3-.012.6,0,.9a25.948,25.948,0,0,0-5.18,2.617,43.319,43.319,0,0,0-7.377,6.137l-.382.392.543-.054a81.262,81.262,0,0,0,23.609-5.525c1.187.815,2.61,1.9,4.346,3.305-9.057,4.288-20.5,6.774-34.01,7.391-1.818.084-3.659.161-5.472.232" transform="translate(-4.529 -287.068)" fill="#fff"/>
      <path id="Tracé_1602" data-name="Tracé 1602" d="M93.072,270.01c-.494-.143-.96-.3-1.422-.466a27.852,27.852,0,0,1-12.341-9.7c.313-.385.621-.764.92-1.13.818-1,1.546-1.909,2.219-2.776,3.124,4.353,6.848,7.434,10.779,8.914.432.164.878.311,1.326.436a18.829,18.829,0,0,1-1.481,4.725" transform="translate(-65.816 -212.394)" fill="#fff"/>
      <path id="Tracé_1603" data-name="Tracé 1603" d="M135.082,254.986a29.116,29.116,0,0,0,1.106-5.458,11.3,11.3,0,0,0,3.649-2.413l.717-.7-.71-.7a12.062,12.062,0,0,0-8.568-3.369,15.214,15.214,0,0,0-5.361,1,18.785,18.785,0,0,0-3.52,1.782,24.347,24.347,0,0,1-3.7-3.434,23.771,23.771,0,0,1,5.639-3.043,19.69,19.69,0,0,1,6.831-1.248,16.785,16.785,0,0,1,11.945,4.8c1.427,1.408,2.874,2.823,4.3,4.208-1.455,1.413-2.9,2.828-4.3,4.207l-.011.007-.011.012a16.412,16.412,0,0,1-8.013,4.347" transform="translate(-98.506 -197.018)" fill="#fff"/>
      <path id="Tracé_1604" data-name="Tracé 1604" d="M49.41,208.536a32.167,32.167,0,0,1-2.72-4.412c.472-.586.937-1.153,1.386-1.7,3.3-4.012,5.053-6.492,6.019-8.546.191-.012.381-.019.566-.019l.167,0a10.768,10.768,0,0,1,4.075.907c-1.208,3.254-3.687,6.635-7.288,11.025-.661.8-1.427,1.741-2.207,2.74" transform="translate(-38.747 -160.879)" fill="#fff"/>
      <path id="Tracé_1605" data-name="Tracé 1605" d="M8.158,207.9C4.07,202.866-.075,196.938,0,191.074a11.148,11.148,0,0,1,3.279-7.8c.6,1.947,1.257,3.82,1.96,5.572a5.554,5.554,0,0,0-.376,1.092c-.929,4.14,2.978,9.714,6.013,13.562a47.2,47.2,0,0,0-2.72,4.4" transform="translate(-0.001 -152.093)" fill="#fff"/>
      <path id="Tracé_1606" data-name="Tracé 1606" d="M133.468,302.787c.046-.663.06-1.277.045-1.873a16.353,16.353,0,0,0-.46-3.5c5.2-3.187,8.439-9.525,8.443-16.555v-.094c0-.575-.023-1.171-.073-1.772a12.51,12.51,0,0,1,1.781-.129,11.19,11.19,0,0,1,2.976.394c.029.507.043,1.019.043,1.523v.072a26.244,26.244,0,0,1-3.655,13.511,21.2,21.2,0,0,1-9.1,8.429" transform="translate(-110.417 -231.417)" fill="#fff"/>
      <path id="Tracé_1607" data-name="Tracé 1607" d="M13.982,323.774A18.127,18.127,0,0,1,9.693,322.7l-.035-.016c-.036-.017-.052-.024-.068-.03l-.139-.058c-5.185-2.3-8.274-5.516-9.18-9.563A11.509,11.509,0,0,1,0,310.687a17.6,17.6,0,0,1,2.331-8.376c.9,1.381,1.947,2.837,3.211,4.446a8.756,8.756,0,0,0-.678,5.067c.529,2.368,2.7,4.417,6.448,6.092a14.2,14.2,0,0,0,2.632.739,6.873,6.873,0,0,1,.375,2.05,15.144,15.144,0,0,1-.336,3.07" transform="translate(0 -250.879)" fill="#fff"/>
      <path id="Tracé_1608" data-name="Tracé 1608" d="M48.29,313.675a10.794,10.794,0,0,1-3.975-2.918c.708-1.68,1.476-3.289,2.282-4.781a43.784,43.784,0,0,1,3.915-6.05A33.677,33.677,0,0,0,54,303.351a39.429,39.429,0,0,0-3.311,5.178,51.72,51.72,0,0,0-2.4,5.146" transform="translate(-36.776 -248.899)" fill="#fff"/>
      <path id="Tracé_1609" data-name="Tracé 1609" d="M368.924,464.5a1.416,1.416,0,0,0-.148-.031l-.036-.007-.045-.011a24.629,24.629,0,0,0-4.522-.479c-3.708,0-6.729,1.174-11.125,4.326.589.358,1.206.712,1.838,1.052.942.507,1.962,1.008,3.033,1.488a19.315,19.315,0,0,1,2.117-1.173l.012-.069,1.073-.38a9.119,9.119,0,0,1,2.483-.521l.049,0c.087,0,.172-.009.255-.011l.074,0H364c.076,0,.153,0,.228,0l.23,0c.088,0,.178,0,.268.01l.136.007.3.02.167.015.249.026.149.017c.118.014.235.029.357.046l.171.026.257.038.1.016c.14.023.281.046.423.071l.072.013c.1.017.531.095.545.1l.228.064c.454.122.9.244,1.4.381l.122.079,0,.026a28.588,28.588,0,0,1,7.393,4.191,47.189,47.189,0,0,1,5.106,4.544l.382.392-.545-.054a96.159,96.159,0,0,1-13.842-2.32,24.689,24.689,0,0,1-2.4,4.293,107.3,107.3,0,0,0,22.3,3.2c1.757.081,3.5.154,5.189.221,0,0-11.89-15.978-24.06-19.6" transform="translate(-292.984 -385.038)" fill="#fff"/>
      <path id="Tracé_1610" data-name="Tracé 1610" d="M5.526,0c.066,1.7.141,3.444.219,5.189C6.364,18.7,8.851,30.144,13.138,39.2c1.409-1.736,2.491-3.159,3.3-4.345a81.353,81.353,0,0,1-5.525-23.608l-.052-.545.39.382A43.3,43.3,0,0,1,17.4,18.475a25.977,25.977,0,0,1,2.607,5.165c.128,0,.257-.005.384-.005.175,0,.347,0,.52.009a18.978,18.978,0,0,1,4.252.628l-.014-.071a.758.758,0,0,0-.03-.14C19.636,10.1,5.526,0,5.526,0" transform="translate(-4.586)" fill="#fff"/>
    </g>
  </g>
</svg>
