<svg xmlns="http://www.w3.org/2000/svg" xmlns:xlink="http://www.w3.org/1999/xlink" width="80" height="80" viewBox="0 0 80 80">
  <defs>
    <clipPath id="clip-path">
      <rect id="Rectangle_1412" data-name="Rectangle 1412" width="80" height="57" transform="translate(0 0.469)" fill="none"/>
    </clipPath>
  </defs>
  <g id="Groupe_2696" data-name="Groupe 2696" transform="translate(-54 -3492)">
    <rect id="Rectangle_1413" data-name="Rectangle 1413" width="80" height="80" transform="translate(54 3492)" fill="none"/>
    <g id="Groupe_2695" data-name="Groupe 2695" transform="translate(54 3503.531)">
      <g id="Groupe_2695-2" data-name="Groupe 2695" transform="translate(0 0)" clip-path="url(#clip-path)">
        <path id="Tracé_2306" data-name="Tracé 2306" d="M79.068,26.753a2.622,2.622,0,0,1-1.811,1.5,3.2,3.2,0,0,0,2.607-2.861,3.35,3.35,0,0,0-2.293-3.453,8.588,8.588,0,0,0-1.375-.226l-.736-.089-1.477-.165-.673.091a18.85,18.85,0,0,1-4.446.352,5.528,5.528,0,0,0-.645.1l-2.078.061-5.014.214-5.7.026c-.732,0-1.454-.037-2.181-.084l-1.358-.142-3.938-.212c-.573-.035-1.139-.135-1.713-.133l-3.868.119-2.938-.037-3.884.13-2.649.112-2.98.193-2.885.07a6.408,6.408,0,0,1-2.668-.168,1.03,1.03,0,0,0-.377.03,13.954,13.954,0,0,1-1.995.186c-1.24-.063-2.482-.252-3.728-.336l-3.628-.133-1.983-.1-1.335,0c-.976-.051-1.946-.165-2.922-.179-1.151-.019-2.3.044-3.453.07l-1.293.03-.322.007a4.6,4.6,0,0,0-.645.047A3.187,3.187,0,0,0,.167,25.931a3.139,3.139,0,0,0,2.785,2.132c.75.012,1.153.11,1.752.142l1.82.061c.878.051,1.759.158,2.624.161l4-.047a19.615,19.615,0,0,0,3.006-.044,13.613,13.613,0,0,1,2.9-.17,45.771,45.771,0,0,1,9.143.158,74.95,74.95,0,0,1,14.974.037l.3-.037a40.22,40.22,0,0,1,5.35-.3l3.2-.019c.534-.012,1.065-.142,1.594-.135.718.021,1.431.114,2.146.161.645.044,1.3.137,1.939.154a46.382,46.382,0,0,1,13.85.04,1.946,1.946,0,0,1,.543.175,3.742,3.742,0,0,0,.692-.184,1.268,1.268,0,0,1,.545.033c.4.061.8.158,1.2.191a2.386,2.386,0,0,0,1.8-.242,1.639,1.639,0,0,0,.273-.38l-.473-.1-.6-.112.04-.151.5-.049.543-.058a1.189,1.189,0,0,0-1.1-.753,2.85,2.85,0,0,0-.711.315,2.642,2.642,0,0,0-.6-.254c-.2-.044-.433.063-.648.049a5.751,5.751,0,0,1-1.89-.221c-.419-.165-.99-.044-1.428-.182a12.562,12.562,0,0,0-2.524-.478,15.47,15.47,0,0,1-3.467-.3,10.147,10.147,0,0,0-2.859-.154,2.237,2.237,0,0,0-1.289-.282.625.625,0,0,0-.326-.165l-.485-.068.937-.2a7.827,7.827,0,0,0-1.4-.133l-.753-.009c-.294.009-.685.151-.864.044-.711-.426-1.433-.042-2.055.037s-1.109-.079-1.671-.012c-.771.093-1.573,0-2.356.054-.343.023-.592.051-.823-.205a.638.638,0,0,0-.471-.063,1.055,1.055,0,0,0-.35.186c-.506-.137-.995-.424-1.391-.345-.972.168-1.936-.1-2.927.142a13.085,13.085,0,0,1-2.75.156c-.7.019-1.405.009-2.106-.019l-4.008-.191c-1.111-.023-2.228.035-3.346.047l-.806-.063-3.467-.063-.107-.021-3.954-.457c-.608-.054-1.235-.054-1.852-.086-1.156-.061-2.309-.182-3.472-.182-1.6,0-3.195.068-4.788.119l-1.8.107-4.122.156q-1.692.259-3.4.361l-1.71.065-.212,0H3.215l-.026.007-.014,0c.112,1.209.03.336.056.606l-.107.014c.1.026.03.014.056.012h0s.051-.037.009-.016c0,.033,0,.012,0,.012l.026.792.186-.009.375-.019.753-.044,1.505-.091,3.006-.144c1.382-.037,2.768.061,4.152.126l1.792.193,4.043.189c.329.021.655.068.981.117a24.905,24.905,0,0,1,4.74.517l1.887-.1,2.71-.023c.687,0,1.382.012,2.067-.03l3.2-.261,2.859-.091a8.214,8.214,0,0,0,1.822,0,5.166,5.166,0,0,1,1.974-.1c.333.037.806.238.972.1.583-.44,1.223-.054,1.827-.184a9.221,9.221,0,0,1,1.88,0c1.042,0,2.078-.061,3.118-.03s2.048.126,3.071.205L55.2,26.3a1.887,1.887,0,0,1,.862-.142,90.734,90.734,0,0,0,15.083-.932q1.419-.283,2.854-.5l-.1.009a2.611,2.611,0,0,1-.762-.2l.014-.231a33.588,33.588,0,0,1,3.407-.9,1.919,1.919,0,0,1,2.169,1.629l.007.068a2.079,2.079,0,0,1-1.85,2.288,2.191,2.191,0,0,1-.247.012l-.009.2a2.575,2.575,0,0,0,2.465-.841" transform="translate(0.001 28.542)" fill="#fff"/>
        <path id="Tracé_2307" data-name="Tracé 2307" d="M79.061,44.4a2.937,2.937,0,0,1-.662,4.1,3.157,3.157,0,0,1-.424.256,3.157,3.157,0,0,0,1.708-3.63,3.2,3.2,0,0,0-2.246-2.279,4.226,4.226,0,0,0-.9-.126l-3.106-.189-6.212-.359-1.419.086-2.1.165-.494.035-.065.033-.168.054c-.2.061-.718.156-.72.042l.147-.13c.07-.063-.037-.077.014-.154l.245-.382.417-.678.578-1.035a27.089,27.089,0,0,0,3.043-10.87,28.329,28.329,0,0,0-2.044-12.571A36.467,36.467,0,0,0,62.389,12.4c-.569-.853-1.1-1.736-1.734-2.552A26.68,26.68,0,0,0,53.994,3.9a23.178,23.178,0,0,0-3.428-1.918,27.373,27.373,0,0,0-8.643-1.9A26.592,26.592,0,0,0,35.234.4a27.038,27.038,0,0,0-8.274,3.078,26.14,26.14,0,0,0-4.833,3.6,28.207,28.207,0,0,0-4.271,5.166,26.011,26.011,0,0,0-2.833,5.8c-.676,1.92-.988,3.887-1.561,5.786a2.707,2.707,0,0,0-.063.844c-.021,1.5.03,3,.149,4.467a27.27,27.27,0,0,0,1.61,8.2,25.046,25.046,0,0,0,1.792,3.7l.508.844.27.389.207.282c.033.1-.4-.014-.534,0-.214-.014-.4.028-.617.007l-2.647-.107-3.076-.084-7.275.065-.876.028A3.23,3.23,0,0,0,3.2,48.905l1.363-.012,5.448-.035c1.153,0,2.307.107,3.46.144l3.835.07,2.773.114,4.248.084a3.516,3.516,0,0,0,2.7-6.322,19.956,19.956,0,0,1-1.827-1.7,12.079,12.079,0,0,1-1.184-1.328l-.848-1.163-1.512-2.379A14.2,14.2,0,0,1,19.7,31.231a18.572,18.572,0,0,1,3.908-16.477A19.67,19.67,0,0,1,35.271,6.748,18.917,18.917,0,0,1,49.189,8.754l.529.21A18.867,18.867,0,0,1,57.466,15.6a22.193,22.193,0,0,1,2.642,5.592,15.094,15.094,0,0,1,.825,7.179,25.34,25.34,0,0,1-.692,3.684,19.467,19.467,0,0,1-3.616,8.351l-.725.906-1.174,1.233-1.314,1.317a5.639,5.639,0,0,0-.8,1.146,2.023,2.023,0,0,0,.324,2.614,4.955,4.955,0,0,0,2.691.853L59,48.556l2.321.112L65.978,49a7.6,7.6,0,0,1,1.125.182c.492-.04.979-.093,1.463-.179a5.407,5.407,0,0,1,1.149.033l2.528.191a10.069,10.069,0,0,0,3.8-.235,2.567,2.567,0,0,0,.576-.38l-1-.1L74.343,48.4l.082-.151,1.042-.047,1.146-.058a3.253,3.253,0,0,0-2.307-.746,10.177,10.177,0,0,0-1.494.31,10.106,10.106,0,0,0-1.263-.256c-.415-.044-.909.058-1.361.044a25.5,25.5,0,0,1-3.975-.228c-.881-.168-2.074-.049-3.006-.191-1.68-.261-3.6-.394-5.185-.487l-.967-.037-1.223-.012a1.051,1.051,0,0,1-1.079-.415.9.9,0,0,1,.228-1.153c.366-.275.764-.524,1.146-.764a7.167,7.167,0,0,0,1.75-1.55,23.475,23.475,0,0,0,1.929-2.589,7.194,7.194,0,0,0,1.652-2.325,2.008,2.008,0,0,0,.454-.59,9.475,9.475,0,0,0,.489-.972c-.2.669-.426,1.351-.687,1.995a15.425,15.425,0,0,0,1.368-2.852c.175-.543.4-1.077.524-1.629.177-.645.217-1.531.4-1.915a9.172,9.172,0,0,0,.389-4.623,27.738,27.738,0,0,0-.308-3.754,25.947,25.947,0,0,0-1.438-5.11,5.016,5.016,0,0,1-.566-1.776,3.2,3.2,0,0,0-.41-.993,3.808,3.808,0,0,0-.566-.58,9.939,9.939,0,0,0-1.487-2.819,21.037,21.037,0,0,0-4.837-4.576,38.829,38.829,0,0,0-5.471-2.959,31.937,31.937,0,0,0-4.548-1.4,22.966,22.966,0,0,0-16.2,2.235l-1.615.881A25.62,25.62,0,0,0,20.98,11.45l-.168.179a24.016,24.016,0,0,0-4.726,7.752,23.054,23.054,0,0,0-1.044,4.185,23.7,23.7,0,0,0-.058,8.069,24.314,24.314,0,0,0,4.451,10.211,20.657,20.657,0,0,0,1.342,1.617l.347.38.126.11.217.191.044.03c.1.086.443.221.3.424a1.806,1.806,0,0,1-.566.107l-.079.026-.443.028-.892.056-1.787.1-3.584.137q-3.6.1-7.221.047a8.4,8.4,0,0,1-1.158-.089L4.62,44.948l-.741-.026-.366,0h-.27l-.044,0-.021.007.054.778-.014,0c-.068.033-.023.026-.044.014l.082.706.4-.012.792-.021,1.584-.044,6.336-.13,4.437.035,7.156.121a12.723,12.723,0,0,0,2.148-.021l-2.819-3.227A30.445,30.445,0,0,1,20.852,40.1c-.422-.627-.492-.795-.678-1.093l-.471-.862a22.03,22.03,0,0,1-1.484-3.619,15.568,15.568,0,0,1-.424-1.845A18,18,0,0,1,17.93,23.7a20.335,20.335,0,0,1,.7-3.481,21.483,21.483,0,0,1,2.123-4.656,24.546,24.546,0,0,1,2.279-3.188,23.552,23.552,0,0,1,4.4-4.222A21.05,21.05,0,0,1,32.3,5.618c1.093-.464,2.379-.555,3.381-.948a10.631,10.631,0,0,1,3.786-.487c.65-.037,1.566.263,1.878.147,1.165-.433,2.363.21,3.533.266a14.646,14.646,0,0,1,3.493,1.074A20.5,20.5,0,0,1,53.7,8.563a21.34,21.34,0,0,1,4.178,4.246,24.029,24.029,0,0,1,2.866,5.145,4.308,4.308,0,0,1,.743,1.477,25.783,25.783,0,0,1,.962,12.634,24.623,24.623,0,0,1-1.939,6.114c-.247.48-.471.974-.746,1.438a22.847,22.847,0,0,1-1.445,2.144c-1.2,1.487-2.556,3.032-3.658,4.274.107.144.722.091,1.233.077l1.522-.049,2.927-.1,6.858-.485-.207.009a10.616,10.616,0,0,1-1.605-.205l.03-.231c2.363-.338,4.737-.662,7.172-.89,1.216-.112,2.451-.2,3.707-.256l.534-.009a2.13,2.13,0,0,1,1.936,1.741,2.158,2.158,0,0,1-1.745,2.5,2.245,2.245,0,0,1-.375.033l-.019.2a2.61,2.61,0,0,0,2.44-3.929" transform="translate(0.003 0.001)" fill="#fff"/>
      </g>
    </g>
  </g>
</svg>
