<svg xmlns="http://www.w3.org/2000/svg" width="1532.613" height="980.962" viewBox="0 0 1532.613 980.962">
  <g id="map" transform="translate(12268 1030.03)">
    <g id="suisse" transform="translate(-12268 -1030.03)">
      <path id="Tracé_2904" data-name="Tracé 2904" d="M893.865,0,889.6,3.661l-7.109-2.186L880.91,6.562l4.426,1.852-.1,2.787-5.306,2.677-3-3.989-7.1,2.295-3.388,5.027-3.552-3.273-7.983,1.8L842.394,33.768l1.8,5.792-11.425,6.775-6.01,6.994,6.125,7.327-4.863,4.311,1.912,3.934,4.918.765,3.934,5.251,8.191.759,1.863,4.1,20.545.383-.224-7.868,12.294-4.863,4.808,5.355,8.748-6.885,2.9,3.06-4.59,7.7,1.093,20.982-6.5,4.644-4.262-7.376L870.315,86.5l-6.5.055-1.1,8.251-10.158.279-.765,3.442-6.666,3.273,3.77,8.584,6.338-.989,1.53,3.442-21.146,7.431-10.436-5.847L820.7,120.1l-18.851-2.841-10.442-8.633-.492-9.726-10.595-.273L776.5,94.911l-8.469,5.579-7.7-8.967-12.349,13.059-7.163-.437-5.24,8.251-8.961-.874-1.59,9.18L719.4,124.69l-9.076-3.77-14.584,6.721-18.911-3.989-4.918,6.557-11.032-1.421-.333-10.819-6.114-7.814-18.96,2.4-1.426-2.295-5.131-1.749-1.53,9.507-8.038,7.546-37.97,11.311-14.753-14.649,13-.219,4.7-5.573-4.7-5.409,1.53-3.989-4.918-.383-4.7-2.677L562.47,114.2l-1.923.044-.322.721-16.769-.383-2.24,5.579L520.779,133.1l.273,12.136,3.442,9.611-10.6,8.8-13.988-8.906-4.1,6.174,10.218,6.994-3.989,5.082-5.2.6-8.682,12.464-6.508,1.579-15.13-5.464-7.6-.109-11.037,3.06-12.294,7.431-6.174-9.447-10.382,2.459-9.562-3.934,6.77-21.752,3.721-3.169-12.136,1.967-12.507-7.486-17.867,7.7-16.993-7.6-14.1,4.863,6.617,19.616-11.912,4.153-3.5,9.617-6.06,1.038-.164,9.453-8.906.546-.607,10.218-6.77,3.388-.382,5.027-3.115.929-.437,6.12,8.633-3.716,3.983,2.677,12.19-2.35,11.311-.328,10.431-6.338,5.524,2.076.322,2.683,4.923.541.541,7.327,3.442,1.415L368,239.216l-11.524,1.2.382,5.027-6.508,9.234-15.075,2.191-3.12,3.054,3.12,6.289-1.53,8.682,3.218,5.9L310.85,302.654l-1.147,7.6-10.873,6.01,3.114,1.749,1.475,2.623-15.354,15.135L264.346,347.3l.437,9.289L251.4,360.3l3.005,4.759-6.278,3.765,8.245,7.546-6.885,7.043-11.578,3.934-9.076,14.316-37.041,14.644-6.557.82-3.989-1.311-12.95,12.4-7.764,9.562,10,17.977-1.262,18.523L158.84,498.7l9.557,8.032-5.956,13.442-14.261,5.3-4.038,9.18-5.082.82.219,3.552h-3.716l-.929,2.841-25.135,12.9L89.556,577.059,51.745,611.264l14.644,15.245-27.326,37.7.06,8.2,3.989,2.951-7.65,13.382,4.644,2.951,5.295.388,18.8,16.059h3.874L71.41,714.1l-5.24,5.464-7.928,11.693L51.963,750.98l-4.207,1.912,7.377,19.4L47.1,776.551l-16.556-2.836-11.365,9.344L5.464,788.627l-.825,6.611L2.18,797.424l9.234,7.1L0,827.859l4.918,1.53,6.448-6.611,11.584,1.2,2.836,3.393,6.071-8.147,13.824-.055,4.262,4.808,9.453,1.147,16.939-11.912.929-8.305,9.994-8.633,23.774-11.529,5.956-6.775,1.858-4.748-.661-5.743-3.546,1.858-.71-5.191-9.458,8.305-10.1-15.19-6.617-12.95,10.764-26.555,29.561-22.621,20.714-1.579,35.9-20.55,60.268-.437,45.516,11.966-5.3,24.916L275.11,716.72l1.153,11.8,3.71,3.393,4.267-.279-.437,6.5,9.18,2.787.759,5.573,11.8,5.792.88,11.529-9.453,12.846-7.814,1.306-.6,12.677-3.278,3.278,3.546,10.327-7.376,12.841,1.918,9.18,6.666,3.388,12.24-.164,15.518,3.229-5.519,13.819,3.109,10.436-6.551,10.764,6.284,4.918L325.6,861.517l5.568.328-.869,4.377,4.535,1.421,4.584,11.141,6.781,5.464-.109,6.721,7.6,1.262,6.065,11.141-4.371,4.918,6.224,3.12,4.267,8.464-1.585,5.136,2.727,6.617-.224.044,17.223,21.1,2.022,8.8,6.5-.771,7.868-7.65,6.726-.164,8.852,8.961L426.8,945.664l16.338-.437,9.344-14.207,9.01,6.612,5.032-3.661,12.95,8.524,9.89-8.36,6.338-.273,6.83-7.814,8.628-1.421.825-6.885,9.835-7.213,13.168,3.339,1.967-13.065,9.671-1.038,4.535,7.273,21.638-.115,18.359,11.371.382,7.808,8.136,4.262,6.234-8.688,14.48,8.961,15.081-1.311,4.207,3.989,6.994-.268.159-14.261,2.847-13.338,5.3-3.442,5.185-8.032,26.5,1.257,3.12-8.032H694.7l.164-9.721,7.7-6.453-5.628-11.639,5.628-16.119,25.135-5.191.929-9.4,11.475-2.344.7-13.83,5.524-8.3-4.918-4.486-4.049-16.993-9.065-5.3-.492-6.169-10.272-5.633,19.616-19.889,4.584,2.732,15.523-2.623,8.251-11.311v-4.371l13.824-6.01.6-9.234,5.409.383,10.764-7.1.6-9.835-8.633-4.371,6.393-8.633,6.611-.328,13-12.9,11.365.164,14.54-6.77,8.251,10.158-3.88,9.453,5.076,15.135-3.765,4.48,3.989,12.294-3.175,2.131.825,11.474-12.786,17,9.453,17.1-4.1,3.333,1.038,4.262,5.9,1.038,1.688,6.393,22.19,6.939,1.415,9.13,9.622,7.535,2.24,9.945,10.267,4.262L890.587,823l6,4.481.716,5.792,12.179-.328,3.065,5.573,7.376-.437,1.2,4.863,11.092,3.115,10.158-8.578,10.988,9.453,14.146-.874,10.764,11.365.492,6.065-7.426,5.9.164,4.863-5.3,7.54h-2.841l-6.726,16.665,15.141.546,12.786,13.223,7.814.492-.164,14.1,6.715,4.7,6.885,21.856,3.776,4.268-.279,2.289-10.595,4.1,1.038,4.8-.88,5.792,13.666-4.863,6.06,5.3,6.939-5.191,2.9,3.606-2.727,5.027,3.765,2.459,9.343-.656,8.53-18.851-.929-6.994,8.027-4.481.055-8.742-11.141-12.731-8.415-.656-1.536-15.409-8.464-6.612,12.731-9.562-8.087-24.861,25.517-10.983,3.77-11.037-5.852-13.769,16.72-8.415,12.573-17.376,10.436-1.366,4.426-8.961-.88-9.065,16.775-12.409-.213-15.846,11.638-13.606-.382-7.377,6.169-8.032-.984-15.021-6.333-1.426-1.639-7.917,3.224-2.459-2.787-4.541.984-11.256-10.764-9.234.1-6.994,10.5-7.049-1.645-10.436,3.065-6.551,27.484-6.617,3.115,3.224-1.262,5.792,6.617,8.141,7.644,3.721,8.529-15.737,9.174-3.557-1.2,10.6,1.967,4.535-3.666,27.818,4.7,13.928-3.115,6.448,11.688,5.9,13.119,26.173,15.573,8.742,11.087.109,7.655,3.934,13.928-8.032,4.48,4.426,7.983.109,4.366-9.07-3.328-5.9,4.043-4.153-2.076-3.989,5.464-4.748,13.769,7.644,18.2-13.223,12.4.328,12.567-9.453,5.956,6.721,2.513-4.311,9.016-1.1,5.568,10.218,7.6,3.06-5.792,13.223,6.939,5.191-3.278,8.852,1.585,4.814,20.108,8.9,1.912,9.234-5.245,8.251,10.218,5.579,3.224-3.557,16.119,1.148,13.168-11.2,1.475-7.377-6.939-14.043-12.731-10.546-4.049-10.71,1.311-9.562,7.054-3.442-.328-8.305,4.1-3.388,6.5-.328,1.754-11.256-2.3-3.273-3.327.049-1.535-6.174-5.464-2.022-8.573,5.142-8.032.432-.71-3.77-5.683-.437-1.043-5.846-5.677-.82-.279-2.951,5.142-8.688-4.1-5.459.169-17.381,3.661-4.535-3.06-8.633,4.639-2.295,9.4-11.529-2.186-3.005,5.9-1.639.984-16.939,8.633,3.77,22.506-10.655,7.054,4.59,8.573-8.579,6.726,11.425-5.3,8.027,1.634,10.873,2.137,1.262,5.519-3.557,6.551,4.7,1.863,8.742,5.245,2.131,4.972-3.278,5.131,4.808,4.377-6.721,15.294,6.229,6.344-4.317,12.13,10.6,1.142-5.136,5.2-.656,6.284-35.516-13.884-12.453-16.5.923-6.071-22.621,11.748-14.37-5.513-9.835,14.589-11.141-.661-9.076-6.333-5.956,2.732-5.847,5.737-1.585,7.644-28.413-2.235-13.545,7.207-14.7.437-11.584-11.851-7.6-9.24-.71-1.251-3.442,1.8-5.792-12.731-12.786-5.191,5.027-8.906.219-6.776,18.359-6.393,2.459,2.9,11.092-7.049,2.4-18.687-5.464.437,7.486-4.207,8.087.82,16.829-11.972-.273-8.737,7.868-16.556.382-5.688,4.043-6.333-9.781-10.819-.164-.164-6.994-11.966-13.223h-9.726l-3.715-5.847h-15.135l-18.96-9.89V422.481l-2.9-2.732,7.376-11.311-.268-6.83-6.338-4.093,2.349-4.1-6.393-2.951-7.267,4.972-18.966-12.95-22.179-.82-10.715-10.054-12.671.492-4.049,4.808-9.835-5.683-15.245,6.617-7.376-7.71-19.447,6.726-4.863-6.453,17.048-14.862-4.1-25.517-8.737-15.9L1208.7,269.6l6.229-6.939,1.585-8.2,9.4-7.213,4.918-17.813,13.114-10.163,14.37-.546-2.24-11.748-7.327-6.83-1.743-15.463,4.808-7.1-12.294-1.852-4.7-7.819-4.863,4.48-9.775-17.365-23.337,9.114-7.431-8.032-11.8-4.262-6.016-10.764L1158,126.438l-3.442-9.562L1119.8,90.43,1101.117,81.8l-16.392-11.043-19.671.874-8.141-6.5-23.556,1.2-16.933,5.355-12.95,7.376-9.726.929-7.486-4.043L984.4,64.421l-5.191-.71.382-8.2,6.01-.382.1-4.262-8.027.219L967.9,42.4l-2.126,9.617-5.3,6.284-.443,6.666-3.77.219-13-8.852-20.326-.6-5.519,5.24-3.661-4.317,6.393-4.043-1.912-4.371,12.89-2.022-.814-10.491,9.89-7.978-5.142-7.1-9.119,3.716-4.65-2.732.437-9.07-4.038-4.754-7.923.492-3.114-2.076-8.633-.273Z" transform="translate(0)" fill="#468c7b"/>
      <g id="Groupe_2701" data-name="Groupe 2701" transform="translate(63.327 226.213)">
        <path id="Tracé_2905" data-name="Tracé 2905" d="M11.59,270.744l8.087-42.838L34.1,192.826l41.363-45.734,30.653-5.191,30.653-22.84,11.638,4.808,12.786-6.83,12.076,5.9,14.644-2.4,56.99,22.239.219,3.77,27.43,12.513,1.858,19.124L235.616,176.6l3.114-14.534L193.215,150.1l-60.269.437-35.9,20.545-20.709,1.585L46.779,195.285,36.014,221.841l4.481,8.743L34.7,241.019l-9.671,7.6L22.19,263.968Z" transform="translate(-11.59 296.261)" fill="#465c8c" fill-rule="evenodd"/>
        <path id="Tracé_2907" data-name="Tracé 2907" d="M46.012,181.129l-3.552-7.65L148.845,73.05,180.755,76l-5.3,13.605L80.872,171.13Z" transform="translate(126.215 99.887)" fill="#465c8c" fill-rule="evenodd"/>
        <path id="Tracé_2908" data-name="Tracé 2908" d="M80.915,108.153,70.26,99.3,119.327,61.49l-13,33.659Z" transform="translate(250.316 48.283)" fill="#465c8c" fill-rule="evenodd"/>
        <path id="Tracé_2909" data-name="Tracé 2909" d="M74.934,102.458l-7.7-5.9L92.091,77.05l5.3,6.5Z" transform="translate(236.79 117.744)" fill="#465c8c" fill-rule="evenodd"/>
        <path id="Tracé_2910" data-name="Tracé 2910" d="M149.616,141.041l-39.888-24.37-5.519-16.228,1.475-4.043,40.27,29.888,15.518.71,5.136,10.71Z" transform="translate(401.871 204.123)" fill="#465c8c" fill-rule="evenodd"/>
        <path id="Tracé_2911" data-name="Tracé 2911" d="M121.38,125.523,152.416,95.58l21.037,4.808Z" transform="translate(478.519 200.463)" fill="#465c8c" fill-rule="evenodd"/>
        <path id="Tracé_2912" data-name="Tracé 2912" d="M138.77,103.316,155.326,82.99l-.492,15.081Z" transform="translate(556.149 144.26)" fill="#465c8c" fill-rule="evenodd"/>
        <path id="Tracé_2913" data-name="Tracé 2913" d="M247.664,142.62l-5.683-1.421-9.453-26.446-28.358,8.469-22.239-8.469,8.961-11.365h-23.6l-12.294,13.223-8.524-1.858L148.382,98.2l6.612,3.77-7.1-19.343,12.731,2.841L184.773,66.56l.437,10.382-9.89,13.715L198,92.514l4.754,13.715,37.319-1.858Z" transform="translate(590.522 70.916)" fill="#465c8c" fill-rule="evenodd"/>
        <path id="Tracé_2914" data-name="Tracé 2914" d="M177.366,111.006,162.23,95.87l3.825-10.382L154.69,60.9l19.835-3.77-1.858,26.5Z" transform="translate(627.216 28.82)" fill="#465c8c" fill-rule="evenodd"/>
        <path id="Tracé_2915" data-name="Tracé 2915" d="M161.378,87.162l-16.993-6.174L134.44,57.82l24.1,17.977Z" transform="translate(536.819 31.9)" fill="#465c8c" fill-rule="evenodd"/>
        <path id="Tracé_2916" data-name="Tracé 2916" d="M146.473,76.8l-7.1-31.691,12.294,28.358Z" transform="translate(558.827 -24.838)" fill="#465c8c" fill-rule="evenodd"/>
        <path id="Tracé_2917" data-name="Tracé 2917" d="M150.664,74.2,142.14,54.37l7.6,1.421Z" transform="translate(571.192 16.499)" fill="#465c8c" fill-rule="evenodd"/>
        <path id="Tracé_2918" data-name="Tracé 2918" d="M266.355,121.722l-17.048-7.6H217.179L180.3,88.172,159.97,43.75l8.524-2.35L193.082,82,220.02,97.133l29.287.492,8.087,8.961,43.494-2.35-1.421,8.032-27.921,2.787Z" transform="translate(650.787 -41.4)" fill="#465c8c" fill-rule="evenodd"/>
        <path id="Tracé_2919" data-name="Tracé 2919" d="M222.416,72.392,195.97,60.59l62.4,4.754-1.421,7.049Z" transform="translate(811.493 44.265)" fill="#465c8c" fill-rule="evenodd"/>
        <path id="Tracé_2906" data-name="Tracé 2906" d="M20.541,203.576l-4.481-8.742,10.764-26.555,29.561-22.621,20.709-1.585,35.9-20.545,60.269-.437,45.516,11.966-3.115,14.534-12.458-.546-43.549-10.108-34.041,4.207L91.573,166.529,83.1,165.6l-9.726,11.092-10.873-4.7-3.77-9.671-17.485,3.77Z" transform="translate(8.364 323.269)" fill="#465c8c" fill-rule="evenodd"/>
      </g>
    </g>
    <path id="Soustraction_3" data-name="Soustraction 3" d="M52.22,155.437h0c-.131-.187-13.239-18.908-26.109-40.792A347.586,347.586,0,0,1,8.159,80.515C2.745,68.318,0,58.8,0,52.22A52.234,52.234,0,0,1,100.337,31.893a51.892,51.892,0,0,1,4.1,20.326c0,6.578-2.745,16.1-8.159,28.295A347.581,347.581,0,0,1,78.33,114.644c-12.869,21.883-25.979,40.606-26.11,40.792Zm.165-144.762a38.418,38.418,0,0,0-15.375,3.183,39.329,39.329,0,0,0-12.556,8.679A40.437,40.437,0,0,0,15.989,35.41a41.582,41.582,0,0,0,0,31.529,40.437,40.437,0,0,0,8.465,12.873,39.329,39.329,0,0,0,12.556,8.679,38.729,38.729,0,0,0,30.75,0,39.329,39.329,0,0,0,12.556-8.679A40.437,40.437,0,0,0,88.78,66.939a41.582,41.582,0,0,0,0-31.529,40.437,40.437,0,0,0-8.465-12.873A39.329,39.329,0,0,0,67.76,13.858,38.418,38.418,0,0,0,52.384,10.675Z" transform="translate(-12024.885 -762.675)" fill="#fee9af"/>
    <g id="rune1" transform="translate(-12189.623 -1262.891)">
      <path id="Tracé_2324" data-name="Tracé 2324" d="M88.911,13.473a2.331,2.331,0,0,1-.286-.1,4.576,4.576,0,0,1-.777-.41,5.26,5.26,0,0,1-1.1-.945,4.538,4.538,0,0,1-.554-.79,3.907,3.907,0,0,1-.414-1.086,3.614,3.614,0,0,1-.034-1.373,3.92,3.92,0,0,1,.536-1.4c.061-.114.139-.211.211-.318a3.424,3.424,0,0,1,.233-.3l.123-.148.015-.019c-.026.026.053-.057.05-.053l.028-.029L87,6.441l.113-.115.057-.058c.02-.02.056-.049.083-.073.117-.1.239-.206.361-.295s.24-.162.364-.241.261-.139.395-.207.279-.114.421-.169a4.826,4.826,0,0,1,1.822-.243,6.064,6.064,0,0,1,1.815.393,7.343,7.343,0,0,1,1.667.9,7.5,7.5,0,0,1,1.442,1.347,7,7,0,0,1,1.084,1.808,5.8,5.8,0,0,1,.417,2.253v.038c0-.012,0,.059,0,.062l0,.058-.006.116-.006.117,0,.058-.007.071c-.019.191-.037.388-.066.563a8.659,8.659,0,0,1-.231,1.084,7.978,7.978,0,0,1-.934,2.1c-.1.17-.222.328-.336.491s-.244.317-.38.465a7.4,7.4,0,0,1-.873.843,8,8,0,0,1-1.006.7,8.342,8.342,0,0,1-1.1.535,9.151,9.151,0,0,1-1.163.375,10.851,10.851,0,0,1-1.192.217,12.592,12.592,0,0,1-2.393.058l-.3-.021-.295-.031-.148-.016-.074-.008-.037,0c-.028,0,.01,0-.071-.009l-.268-.04-.269-.04-.316-.061-.32-.065-.3-.077a10.347,10.347,0,0,1-2.38-.927,8.916,8.916,0,0,1-2.119-1.621,8.282,8.282,0,0,1-1.53-2.267,8.736,8.736,0,0,1-.573-5.4c.05-.225.1-.45.169-.671.032-.111.063-.222.1-.331l.057-.164.028-.082.014-.041c.009-.025,0,0,.024-.066l.105-.266c.019-.047.032-.083.056-.139l.069-.159c.046-.1.093-.216.14-.313l.142-.295A12.456,12.456,0,0,1,80.656,4.36a11.728,11.728,0,0,1,1.88-1.88,11.288,11.288,0,0,1,2.28-1.4A11.768,11.768,0,0,1,86.06.592,12.086,12.086,0,0,1,87.344.256,12.709,12.709,0,0,1,89.938,0c.429,0,.855.022,1.276.06l.315.032.157.016.179.025.278.04.139.02.167.031.334.064.165.033L93.1.358c.207.051.415.094.618.157s.408.115.608.186.4.134.6.213A14.309,14.309,0,0,1,102.214,7.2a12.087,12.087,0,0,1,.968,2.2c.061.193.121.385.17.583s.1.4.138.6c.023.1.037.2.054.3l.024.153.012.076.011.088,0,.031c.016.173.036.3.046.551l.015.336v.295c0,.2-.008.387-.019.575s-.025.375-.043.558-.039.365-.064.544a17.562,17.562,0,0,1-.41,2.062c-.176.658-.369,1.3-.6,1.906-.108.308-.234.6-.349.9s-.247.584-.382.864a23.751,23.751,0,0,1-7.566,9.158,26.074,26.074,0,0,1-2.834,1.781c-.34.181-.606.31-.783.4l-.269.136L88.767,28.07l.9-.473a22.492,22.492,0,0,0,2.409-1.548,21.1,21.1,0,0,0,3.262-2.992,20.581,20.581,0,0,0,3.14-4.784,18.078,18.078,0,0,0,1.12-3.046,14.012,14.012,0,0,0,.334-1.634c.02-.138.039-.275.05-.411s.029-.274.034-.407.016-.27.015-.4l0-.2-.006-.156c0-.077-.02-.279-.034-.435l0-.031c-.007-.059.006.046,0,.027l-.007-.047-.015-.093c-.011-.062-.016-.124-.031-.188a6.813,6.813,0,0,0-.192-.768,8.5,8.5,0,0,0-.665-1.553,10.781,10.781,0,0,0-5.421-4.78c-.146-.062-.3-.113-.445-.165s-.3-.1-.453-.145c-.3-.092-.623-.168-.9-.226L91.759,3.6l-.138-.022-.277-.045-.069-.011-.034-.006c.006,0-.063-.01,0,0L91.123,3.5l-.244-.029c-.325-.036-.65-.056-.974-.065a9.346,9.346,0,0,0-1.914.151,8.787,8.787,0,0,0-.923.222,8.407,8.407,0,0,0-.886.33,7.97,7.97,0,0,0-1.632.959A8.477,8.477,0,0,0,83.167,6.4a9.243,9.243,0,0,0-1.079,1.626l-.111.219c-.039.074-.065.139-.1.208l-.048.1c-.015.031-.036.085-.054.126l-.111.264c.017-.042,0,0,0,0l-.01.026-.02.053-.04.106c-.029.07-.05.142-.073.214-.049.142-.085.289-.123.435a5.659,5.659,0,0,0,.271,3.5,5.286,5.286,0,0,0,.935,1.47,5.971,5.971,0,0,0,1.377,1.11,7.462,7.462,0,0,0,1.693.707l.224.064.213.049c.073.016.138.034.216.051l.267.047.267.047c-.058-.009,0,0,0,0l.03,0,.06.008.121.016.241.032.239.022a8.215,8.215,0,0,0,3.569-.369,5.056,5.056,0,0,0,2.525-1.921,5.886,5.886,0,0,0,.973-2.964,3.4,3.4,0,0,0-.2-1.316,4.657,4.657,0,0,0-.677-1.214,5.284,5.284,0,0,0-2.115-1.643,3.253,3.253,0,0,0-2.175-.2c-.075.029-.15.056-.226.081s-.141.07-.213.1l-.2.123c-.059.04-.1.079-.156.114a.338.338,0,0,0-.042.031l-.059.056-.117.111-.058.055-.029.028.023-.024-.01.012-.082.093a1.735,1.735,0,0,0-.154.186A2.082,2.082,0,0,0,88,8.431a2.528,2.528,0,0,0-.436,1.464,4.347,4.347,0,0,0,.3,1.437,10.067,10.067,0,0,0,.511,1.147c.162.317.3.565.393.734l.145.26" transform="translate(127.956 520.261)" fill="#fee9af"/>
      <path id="Tracé_2325" data-name="Tracé 2325" d="M131.083,125.108a2.315,2.315,0,0,1,.215-.214,4.576,4.576,0,0,1,.708-.521,5.251,5.251,0,0,1,1.328-.575,4.537,4.537,0,0,1,.952-.154,3.907,3.907,0,0,1,1.158.1,3.615,3.615,0,0,1,1.251.566,3.93,3.93,0,0,1,1.028,1.093c.076.105.129.217.195.328a3.386,3.386,0,0,1,.171.342l.08.175.01.022c-.012-.035.028.073.026.068l.014.038.027.075.055.152.028.076c.009.027.02.072.03.106.038.148.081.306.108.453s.042.286.058.432.012.3.015.446-.019.3-.031.452a4.817,4.817,0,0,1-.575,1.745,6.047,6.047,0,0,1-1.144,1.463,7.34,7.34,0,0,1-1.534,1.11,7.506,7.506,0,0,1-1.841.712,6.99,6.99,0,0,1-2.1.189,5.8,5.8,0,0,1-2.21-.605l-.034-.016-.055-.029-.051-.028-.1-.056-.1-.056-.051-.028-.061-.037c-.164-.1-.333-.2-.478-.305a8.646,8.646,0,0,1-.875-.68,7.987,7.987,0,0,1-1.485-1.756c-.109-.165-.2-.342-.3-.516s-.179-.358-.253-.545a7.371,7.371,0,0,1-.379-1.153,8.043,8.043,0,0,1-.192-1.21,8.342,8.342,0,0,1,0-1.226,9.126,9.126,0,0,1,.169-1.21,10.855,10.855,0,0,1,.324-1.168,12.625,12.625,0,0,1,.99-2.18l.148-.259.156-.252.078-.126.039-.063.02-.032c.015-.023-.006.007.039-.06l.153-.224.153-.224.193-.257.2-.26.2-.24a10.34,10.34,0,0,1,1.871-1.739,8.914,8.914,0,0,1,2.382-1.2,8.29,8.29,0,0,1,2.707-.39,8.737,8.737,0,0,1,5.113,1.837c.18.143.361.287.53.444.086.077.173.153.253.236l.123.122.061.061.031.031c.019.019,0,0,.049.051l.194.211c.034.038.061.065.1.111l.113.131c.073.087.154.178.22.262l.2.256a12.467,12.467,0,0,1,1.381,2.236,11.752,11.752,0,0,1,.874,2.511,11.264,11.264,0,0,1,.267,2.662,11.687,11.687,0,0,1-.1,1.333,12.1,12.1,0,0,1-.257,1.3,12.724,12.724,0,0,1-.9,2.447c-.19.385-.392.76-.61,1.123l-.166.27-.083.135-.1.15-.157.232-.078.116-.1.137-.2.273-.1.135-.1.124c-.136.164-.265.333-.41.488s-.282.317-.432.466-.3.3-.452.445a14.307,14.307,0,0,1-8.833,3.825,12.1,12.1,0,0,1-2.4-.084c-.2-.03-.4-.058-.6-.1s-.4-.086-.6-.135c-.1-.023-.2-.055-.3-.084l-.148-.045-.074-.023-.084-.029-.029-.011c-.163-.061-.285-.1-.516-.2l-.309-.133-.265-.129c-.178-.084-.345-.175-.51-.268s-.326-.186-.484-.282-.312-.194-.462-.294a17.612,17.612,0,0,1-1.678-1.267c-.515-.445-1.006-.9-1.456-1.367-.23-.231-.442-.473-.659-.706s-.418-.476-.611-.72a23.749,23.749,0,0,1-4.951-10.8,26.1,26.1,0,0,1-.37-3.326c-.015-.385-.015-.68-.021-.879s-.005-.3-.005-.3l3.588-.01s.012.354.033,1.017a22.507,22.507,0,0,0,.345,2.843,21.079,21.079,0,0,0,1.274,4.239,20.571,20.571,0,0,0,2.939,4.909,18.076,18.076,0,0,0,2.254,2.335,13.948,13.948,0,0,0,1.326,1.012c.115.078.23.155.348.224s.234.145.352.208.236.133.353.188l.175.087.143.063c.068.038.26.1.406.159l.029.011-.025-.009.045.013.09.027c.06.018.119.04.182.054a6.8,6.8,0,0,0,.775.162,8.528,8.528,0,0,0,1.687.077,10.778,10.778,0,0,0,6.663-2.8c.119-.1.23-.217.342-.329s.22-.229.328-.345c.215-.233.423-.488.595-.712l.068-.086.081-.115.161-.229.04-.058.02-.029c0,.005.036-.052,0,0l.066-.1.133-.207c.174-.277.333-.561.482-.849a9.328,9.328,0,0,0,.7-1.789,8.814,8.814,0,0,0,.2-.928,8.439,8.439,0,0,0,.089-.941,8,8,0,0,0-.153-1.887,8.486,8.486,0,0,0-.6-1.824,9.258,9.258,0,0,0-.994-1.679l-.149-.2c-.05-.067-.1-.119-.145-.18l-.071-.088c-.021-.028-.06-.069-.09-.1l-.19-.215c.031.034,0,0,0,0l-.02-.02-.039-.041-.078-.082c-.05-.056-.106-.107-.161-.158-.107-.106-.223-.2-.338-.3a5.657,5.657,0,0,0-3.269-1.28,5.28,5.28,0,0,0-1.731.2,5.97,5.97,0,0,0-1.6.757,7.477,7.477,0,0,0-1.374,1.216l-.155.174-.137.17c-.047.058-.091.109-.14.173l-.158.22-.158.22c.033-.049,0,0,0,0l-.017.025-.033.051-.067.1-.134.2-.124.206a8.209,8.209,0,0,0-1.222,3.374,5.055,5.055,0,0,0,.63,3.109,5.886,5.886,0,0,0,2.244,2.166,3.4,3.4,0,0,0,1.272.392,4.666,4.666,0,0,0,1.388-.081,5.286,5.286,0,0,0,2.4-1.189,3.254,3.254,0,0,0,1.128-1.87c.007-.08.015-.16.025-.239s0-.158,0-.236-.015-.156-.023-.234-.026-.126-.034-.19a.327.327,0,0,0-.009-.052l-.025-.077-.05-.153-.024-.076-.012-.038c-.006-.017.029.078.012.031l-.006-.014-.049-.114a1.748,1.748,0,0,0-.1-.219,2.124,2.124,0,0,0-.11-.2,2.528,2.528,0,0,0-1.128-1.029,4.35,4.35,0,0,0-1.425-.354,10.185,10.185,0,0,0-1.255-.04c-.355.008-.639.023-.832.034l-.3.017" transform="translate(101.013 434.358)" fill="#fee9af"/>
      <path id="Tracé_2326" data-name="Tracé 2326" d="M19.462,108.668a2.306,2.306,0,0,1,.032.3,4.561,4.561,0,0,1-.036.878,5.248,5.248,0,0,1-.382,1.4,4.523,4.523,0,0,1-.475.84,3.908,3.908,0,0,1-.8.841,3.609,3.609,0,0,1-1.224.621,3.923,3.923,0,0,1-1.5.119c-.13-.006-.251-.035-.378-.053a3.437,3.437,0,0,1-.373-.08l-.186-.047-.023-.006c.035.012-.074-.024-.07-.022l-.038-.013-.076-.026-.152-.052-.077-.026c-.026-.009-.068-.029-.1-.043-.14-.063-.289-.128-.421-.2s-.249-.146-.373-.225-.238-.176-.357-.267-.223-.2-.333-.307a4.823,4.823,0,0,1-1-1.54,6.058,6.058,0,0,1-.425-1.807,7.342,7.342,0,0,1,.094-1.891,7.5,7.5,0,0,1,.6-1.882,6.991,6.991,0,0,1,1.166-1.757,5.8,5.8,0,0,1,1.855-1.345l.034-.016c-.012,0,.054-.024.057-.024l.054-.022.108-.044.108-.044.054-.022.067-.024c.18-.065.366-.133.537-.182a8.567,8.567,0,0,1,1.078-.258,7.982,7.982,0,0,1,2.3-.06c.2.018.391.059.587.092s.391.084.583.144a7.387,7.387,0,0,1,1.137.426,8.046,8.046,0,0,1,1.064.608,8.327,8.327,0,0,1,.958.766,9.118,9.118,0,0,1,.839.889,10.871,10.871,0,0,1,.709.983,12.613,12.613,0,0,1,1.081,2.136l.109.277.1.28.049.14.025.07.012.035c.009.026,0-.01.022.068l.079.259.079.26.08.312.079.317.061.307a10.347,10.347,0,0,1,.186,2.547,8.909,8.909,0,0,1-.553,2.61,8.285,8.285,0,0,1-1.389,2.356,8.738,8.738,0,0,1-4.632,2.84c-.225.051-.45.1-.678.136-.114.019-.227.039-.342.05l-.172.02-.086.01-.043,0c-.027,0,0,0-.071.006l-.286.02c-.051,0-.089.007-.149.009l-.173.006c-.114,0-.235.009-.342.008l-.327,0a12.455,12.455,0,0,1-2.608-.322,11.727,11.727,0,0,1-2.506-.889,11.289,11.289,0,0,1-2.244-1.457,11.8,11.8,0,0,1-.976-.913,12.105,12.105,0,0,1-.855-1.015,12.694,12.694,0,0,1-1.347-2.232c-.182-.389-.348-.781-.494-1.178l-.106-.3-.053-.149-.054-.172-.083-.268-.042-.134-.044-.164-.086-.328-.041-.163-.034-.156c-.043-.208-.093-.415-.124-.625s-.072-.419-.093-.629-.051-.42-.064-.631A14.308,14.308,0,0,1,8.08,99.354a12.093,12.093,0,0,1,1.565-1.818c.148-.137.3-.275.453-.4s.316-.257.479-.38c.08-.063.167-.12.251-.179l.128-.087.064-.043.075-.048.026-.016c.149-.089.255-.161.478-.278l.3-.158.266-.126c.177-.086.353-.159.528-.23s.349-.138.523-.2.346-.122.519-.176a17.636,17.636,0,0,1,2.038-.516c.67-.124,1.329-.224,1.977-.28.324-.035.645-.049.964-.072s.633-.029.944-.026a23.76,23.76,0,0,1,11.522,2.893A26.126,26.126,0,0,1,34,99c.31.229.54.414.7.534l.239.184L32.7,102.523l-.814-.611a22.519,22.519,0,0,0-2.434-1.51,21.1,21.1,0,0,0-4.1-1.658,20.59,20.59,0,0,0-5.669-.778,18.074,18.074,0,0,0-3.232.3,13.922,13.922,0,0,0-1.619.4c-.133.041-.265.083-.393.131s-.26.092-.382.145-.251.1-.367.158l-.177.082-.138.072c-.072.029-.243.138-.378.218l-.027.016c-.051.032.039-.025.023-.014l-.039.027-.078.053c-.052.036-.105.068-.156.109a6.772,6.772,0,0,0-.611.5,8.5,8.5,0,0,0-1.116,1.268,10.778,10.778,0,0,0-1.985,6.949c.007.158.025.315.042.472s.041.315.064.472c.048.313.116.635.183.909l.025.108.039.135.078.269.02.067.01.034c0-.006.018.061,0,0l.039.116.078.233c.107.309.229.611.36.907a9.342,9.342,0,0,0,.959,1.663,8.841,8.841,0,0,0,.6.738,8.367,8.367,0,0,0,.679.658,7.977,7.977,0,0,0,1.567,1.061,8.5,8.5,0,0,0,1.8.675,9.266,9.266,0,0,0,1.932.275l.246.006c.083,0,.153,0,.23,0h.113c.035,0,.092,0,.137-.005l.286-.014c-.045,0,0,0,0,0l.028,0,.056-.005.113-.01c.075,0,.15-.016.224-.026.15-.017.3-.048.445-.076a5.657,5.657,0,0,0,3.044-1.749,5.285,5.285,0,0,0,.925-1.476,5.965,5.965,0,0,0,.41-1.721,7.466,7.466,0,0,0-.09-1.832l-.039-.229-.047-.213c-.016-.073-.028-.139-.047-.217l-.073-.262-.073-.261c.017.057,0,0,0,0l-.01-.029-.019-.058-.038-.115-.075-.231-.083-.226a8.211,8.211,0,0,0-1.868-3.064,5.056,5.056,0,0,0-2.82-1.454,5.889,5.889,0,0,0-3.094.4,3.4,3.4,0,0,0-1.1.747,4.655,4.655,0,0,0-.805,1.134,5.281,5.281,0,0,0-.574,2.616,3.254,3.254,0,0,0,.754,2.05c.058.056.115.112.171.169s.124.1.184.148l.2.128c.062.036.115.058.17.092a.346.346,0,0,0,.046.025l.076.029.15.057.075.029.037.014-.032-.011.015,0,.119.034a1.788,1.788,0,0,0,.234.059,2.131,2.131,0,0,0,.226.041,2.53,2.53,0,0,0,1.509-.236,4.354,4.354,0,0,0,1.167-.89,10.145,10.145,0,0,0,.816-.954c.216-.282.381-.513.494-.67l.173-.243" transform="translate(181.919 450.208)" fill="#fee9af"/>
      <path id="Tracé_2327" data-name="Tracé 2327" d="M75.293,85.386s12.448,3.241,18.271-3.77c2.3-.156,1.66,3.882,1.66,3.882s-8.2,10.058-4.834,18.053c-1.318,2.064-4.751-1.559-4.751-1.559s-4.448-11.626-12.023-13.2a2.385,2.385,0,0,0,1.677-3.408" transform="translate(131.319 459.641)" fill="#fee9af"/>
    </g>
  </g>
</svg>
