<svg xmlns="http://www.w3.org/2000/svg" width="307.757" height="307.757" viewBox="0 0 307.757 307.757">
  <g id="ring2" transform="translate(0)">
    <path id="Tracé_2364" data-name="Tracé 2364" d="M776.5,452.051l.1-.083c.069-.057.138-.114.2-.175l.084-.082c.066-.067.132-.134.194-.2l.07-.086c.061-.073.12-.147.176-.225.025-.034.048-.069.07-.1.052-.075.1-.15.146-.228.026-.043.049-.089.073-.135.039-.072.078-.144.111-.217.027-.054.048-.109.071-.164s.06-.138.085-.21.039-.12.057-.181.044-.142.062-.214l.042-.185c.016-.075.032-.15.043-.226.005-.026.012-.051.015-.077a141.958,141.958,0,0,0,1.262-14.211c0-.061,0-.121,0-.181l0-.188c0-.084-.012-.166-.02-.248l-.017-.157c-.013-.087-.027-.171-.044-.255-.01-.049-.019-.1-.031-.146-.019-.082-.042-.164-.065-.244l-.047-.151c-.025-.075-.053-.148-.082-.22-.021-.055-.042-.109-.066-.161s-.062-.131-.095-.194l-.09-.169c-.034-.06-.07-.116-.107-.173s-.07-.11-.108-.164-.084-.113-.128-.168-.075-.1-.115-.143-.109-.117-.165-.174c-.03-.03-.057-.063-.087-.092l-.507-.479-.111.114q-2.917,2.6-5.924,4.982l-.084,1.484h0q-.266,4.281-.8,8.541a122.223,122.223,0,0,1-12.785,8.275q2.277,3.02,4.4,6.244a126.552,126.552,0,0,0,14.134-8.857Z" transform="translate(-484.319 -275.643)" fill="#468a7a"/>
    <path id="Tracé_2365" data-name="Tracé 2365" d="M746.1,527.977a122.731,122.731,0,0,1-14.683,6.685,3.666,3.666,0,0,0-2.357,2.118,121.287,121.287,0,0,1-5.171,11.145,3.673,3.673,0,0,0-.13,3.088l.246.615q3.743-.646,7.511-1.54l.055-.108-.01-.025q2.179-4.276,4.037-8.706A127.089,127.089,0,0,0,749.913,535q-1.817-3.608-3.816-7.026" transform="translate(-462.335 -337.401)" fill="#468a7a"/>
    <path id="Tracé_2366" data-name="Tracé 2366" d="M731.877,377.212a117.537,117.537,0,0,0-2.2-22.693q.7-.86,1.383-1.739-3.282-1.774-6.61-3.3-.969,1.286-1.965,2.531a3.128,3.128,0,0,0-.691,2.612v.006l.219,1.071v0l.035.169a110.322,110.322,0,0,1-.261,43.956v0a2.647,2.647,0,0,0-.052.366l0,.08a2.9,2.9,0,0,0,0,.295l.005.079c.009.1.023.2.041.3l.011.053a3.521,3.521,0,0,0,.955,1.732,114.106,114.106,0,0,1,9.665,14.306q3.507-1.469,6.989-3.2a118.4,118.4,0,0,0-9.723-13.947,117.583,117.583,0,0,0,2.2-22.692" transform="translate(-461.218 -223.334)" fill="#468a7a"/>
    <path id="Tracé_2367" data-name="Tracé 2367" d="M679.12,518.292q1.033-.4,2.065-.817-1.959-3.176-4.081-6.157-1.482.631-2.967,1.213a3.128,3.128,0,0,0-1.9,1.918l0,.006-.343,1.036v0l-.056.164A108.325,108.325,0,0,1,663,535.141a109.52,109.52,0,0,1-13.365,18.382l0,0a2.6,2.6,0,0,0-.229.293l-.042.068a2.893,2.893,0,0,0-.148.254l-.036.073a3.039,3.039,0,0,0-.116.283l-.018.052a3.521,3.521,0,0,0-.044,1.98,115.626,115.626,0,0,1,1.2,17.236q3.775.476,7.652.724a120.252,120.252,0,0,0-1.425-16.949,116.7,116.7,0,0,0,22.7-39.25" transform="translate(-414.661 -326.755)" fill="#468a7a"/>
    <path id="Tracé_2368" data-name="Tracé 2368" d="M717.948,579.36l.011-.006c.105-.059.206-.123.306-.192l.04-.027c.09-.062.176-.129.26-.2l.07-.058c.073-.064.145-.13.214-.2l.089-.089q.091-.1.178-.2c.032-.038.065-.076.1-.116.053-.068.1-.139.153-.209l.09-.131c.048-.075.093-.153.137-.232.02-.035.043-.069.062-.106a140.811,140.811,0,0,0,6.009-12.948l.026-.074c.027-.069.051-.14.073-.209s.043-.128.061-.193l.047-.193c.016-.071.033-.142.046-.213l.027-.181c.01-.075.02-.149.026-.224s.007-.122.009-.183.007-.147.006-.22-.005-.128-.009-.193-.006-.138-.014-.207-.018-.131-.029-.2-.02-.132-.034-.2-.029-.127-.045-.189-.035-.136-.056-.2-.038-.114-.06-.171-.052-.141-.082-.209l-.026-.066-.575-1.259q-3.539,1.615-7.1,2.985-.909,2.18-1.893,4.328h0q-1.154,2.513-2.409,4.978-5.184,1.322-10.331,2.18c-1.033.174-2.068.332-3.1.478l-.078.011-.014,0-.018,0c-.124.018-.245.042-.366.071l-.092.025c-.094.027-.188.055-.28.088l-.112.042c-.084.033-.166.068-.248.107l-.109.053c-.082.043-.162.089-.242.137l-.086.054q-.13.085-.252.181c-.017.014-.036.026-.053.04a3.344,3.344,0,0,0-.268.242l-.013.012a3.445,3.445,0,0,0-.476.6,121.851,121.851,0,0,1-7.084,10.047c-.031.041-.057.085-.087.126-.042.058-.085.114-.123.174a3.54,3.54,0,0,0-.434,1.009l-.023.113c-.018.082-.036.163-.049.246-.007.051-.011.1-.017.157-.008.07-.016.14-.02.211,0,.055,0,.109,0,.164,0,.073,0,.144,0,.216l.013.157c.007.078.014.153.025.23l.008.064.206,1.291q3.691-.115,7.441-.46l.192-.251v0q2.912-3.821,5.537-7.849,5.24-.673,10.544-1.806,1.646-.352,3.292-.748a3.954,3.954,0,0,0,1.014-.4" transform="translate(-440.734 -357.907)" fill="#468a7a"/>
    <path id="Tracé_2369" data-name="Tracé 2369" d="M762.818,518.439a135.692,135.692,0,0,0-9.743-17.015q-3.346,2.224-6.753,4.2a130.66,130.66,0,0,1,8.707,15.807,145.991,145.991,0,0,1-28.4,49.132q-1.224.107-2.443.191.156,4.089.07,8.268,1.614-.077,3.237-.194a4.535,4.535,0,0,0,2.8-.918,3.735,3.735,0,0,0,.806-.716h0A153.744,153.744,0,0,0,762.1,524.672h0q.46-1.332.9-2.672l-.012,0a4.832,4.832,0,0,0-.176-3.558" transform="translate(-462.784 -320.433)" fill="#468a7a"/>
    <path id="Tracé_2370" data-name="Tracé 2370" d="M695.863,641.188l.106-.016.131-.02c.088-.014.177-.03.263-.05l.113-.03c.091-.024.182-.049.27-.079l.1-.039c.089-.032.178-.067.264-.106.038-.016.076-.036.114-.054.081-.039.161-.079.24-.124.044-.025.087-.053.13-.08.07-.042.14-.086.207-.132.049-.034.1-.071.143-.107s.12-.091.178-.14.094-.084.14-.127.11-.1.16-.154l.13-.138c.051-.058.1-.115.15-.175l.051-.06a141.662,141.662,0,0,0,8.222-11.662c.033-.053.061-.106.09-.159l.092-.163c.039-.074.073-.149.108-.224l.065-.145c.032-.081.061-.162.088-.243.016-.047.034-.094.048-.141.025-.082.046-.163.066-.245l.035-.153c.016-.077.028-.154.04-.232l.023-.174c.007-.072.012-.143.015-.215l.007-.192c0-.069,0-.135-.005-.2s0-.13-.012-.2-.018-.14-.027-.21-.017-.121-.028-.182c-.015-.078-.035-.154-.056-.231-.01-.042-.017-.083-.029-.124l-.2-.67-.153.043q-3.827.79-7.623,1.343l-.818,1.243,0,0q-2.378,3.571-4.982,6.984a123.453,123.453,0,0,1-15.212.752q.455,3.754.681,7.611a127.915,127.915,0,0,0,16.669-.58" transform="translate(-433.601 -398.633)" fill="#468a7a"/>
    <path id="Tracé_2371" data-name="Tracé 2371" d="M632.229,691.292a124.115,124.115,0,0,1-16.061-1.548,3.671,3.671,0,0,0-3.1.661,121.992,121.992,0,0,1-10.047,7.084,3.669,3.669,0,0,0-1.652,2.613l-.094.656q3.566,1.306,7.279,2.409l.1-.067,0-.026q4.022-2.62,7.842-5.534a128.836,128.836,0,0,0,15.523,1.743q.225-4.033.207-7.991" transform="translate(-384.241 -440.715)" fill="#468a7a"/>
    <path id="Tracé_2372" data-name="Tracé 2372" d="M571.17,733.085q1.6.515,3.227.992a4,4,0,0,0,1.08.156h.012c.122,0,.241,0,.362-.013l.048,0c.109-.009.217-.025.325-.042l.089-.016c.095-.019.19-.041.284-.066l.121-.032c.085-.026.171-.055.254-.085.048-.017.1-.033.141-.052.081-.032.159-.069.237-.106l.143-.068c.079-.041.157-.086.234-.132.036-.021.073-.039.108-.06a142,142,0,0,0,11.66-8.221l.06-.051c.057-.047.112-.1.168-.145s.1-.09.148-.137l.137-.144c.049-.053.1-.107.147-.161l.114-.144c.045-.06.092-.12.134-.181s.066-.1.1-.154.079-.123.114-.187.06-.113.088-.171.063-.123.091-.186.051-.123.073-.186.049-.124.07-.188.038-.124.054-.187.038-.135.054-.2.023-.118.033-.178.026-.148.034-.222l.01-.07.131-1.377q-3.872-.371-7.644-.962-1.875,1.436-3.8,2.807l0,0q-2.254,1.6-4.571,3.113-5.152-1.438-10.042-3.259h0q-1.473-.547-2.923-1.129l-.072-.03-.013-.005-.017-.006a3.719,3.719,0,0,0-.353-.12l-.092-.025c-.094-.024-.19-.047-.285-.064l-.12-.02c-.089-.013-.178-.024-.267-.03l-.121-.01c-.092,0-.185,0-.277,0l-.1,0c-.1.007-.206.017-.308.032-.022,0-.045,0-.066.008a3.341,3.341,0,0,0-.353.077l-.016,0a3.4,3.4,0,0,0-.71.28,120.99,120.99,0,0,1-11.144,5.172c-.048.019-.091.044-.138.065-.065.029-.131.057-.193.09a3.525,3.525,0,0,0-.878.657l-.077.087c-.056.061-.113.123-.165.188-.033.042-.062.086-.093.128s-.084.113-.124.172-.056.094-.083.142-.073.124-.106.188l-.067.143c-.033.069-.064.14-.092.212l-.027.059-.465,1.22q3.253,1.744,6.675,3.315l.29-.121,0-.005q4.43-1.857,8.713-4.04,4.877,2.029,10.041,3.69Z" transform="translate(-348.566 -460.177)" fill="#468a7a"/>
    <path id="Tracé_2373" data-name="Tracé 2373" d="M595.194,680.541a132.8,132.8,0,0,1-.361,18.035A146.016,146.016,0,0,1,545.7,726.981q-1.116-.519-2.216-1.055-1.91,3.624-4.082,7.2,1.437.739,2.9,1.45a4.553,4.553,0,0,0,2.888.6,3.773,3.773,0,0,0,1.058-.217h0a153.745,153.745,0,0,0,53.087-30.04l0,0q1.062-.921,2.108-1.862l-.009-.009a4.815,4.815,0,0,0,1.622-3.164,137.341,137.341,0,0,0,.073-19.6q-4.008.247-7.945.248" transform="translate(-344.704 -434.738)" fill="#468a7a"/>
    <path id="Tracé_2374" data-name="Tracé 2374" d="M537.578,763.19l.124.048c.084.032.167.062.253.088l.113.031c.091.024.182.049.274.067l.11.018c.093.017.187.031.282.041.042,0,.083.006.125.009.09.007.18.012.27.012.052,0,.1,0,.154,0,.081,0,.163,0,.244-.012.06,0,.119-.013.177-.02.075-.01.151-.019.225-.033s.123-.026.185-.04.145-.034.217-.054l.181-.055c.073-.024.146-.049.217-.077l.075-.026a140.952,140.952,0,0,0,12.95-6.01c.055-.029.1-.062.156-.093l.162-.1c.07-.045.138-.093.2-.141l.128-.094c.069-.053.134-.109.2-.166.037-.033.076-.065.112-.1.062-.058.121-.118.178-.179l.107-.115c.053-.059.1-.12.151-.181l.106-.139c.042-.06.081-.119.12-.179l.1-.163c.034-.059.065-.118.1-.179s.061-.115.087-.174.056-.13.081-.2.047-.114.066-.173c.026-.075.046-.152.068-.228.011-.041.026-.08.036-.122l.161-.68-.153-.039q-3.712-1.221-7.279-2.635l-1.328.67v0q-3.843,1.909-7.8,3.57a121.747,121.747,0,0,1-13.551-6.949q-1.479,3.482-3.212,6.932a126.348,126.348,0,0,0,14.729,7.829Z" transform="translate(-334.061 -478.254)" fill="#468a7a"/>
    <path id="Tracé_2375" data-name="Tracé 2375" d="M462.341,770.336a122.865,122.865,0,0,1-13.121-9.388,3.669,3.669,0,0,0-3.013-.985,122.266,122.266,0,0,1-12.248,1.089,3.674,3.674,0,0,0-2.743,1.433l-.41.521q2.436,2.916,5.093,5.733l.122-.007.015-.021q4.795-.25,9.56-.852a127.822,127.822,0,0,0,12.559,9.29q2.218-3.374,4.185-6.813" transform="translate(-275.306 -485.629)" fill="#468a7a"/>
    <path id="Tracé_2376" data-name="Tracé 2376" d="M527.484,669.731a117.223,117.223,0,0,0,18.522-13.281q1.1.171,2.2.324-.109-3.734-.45-7.38c-1.064-.128-2.126-.273-3.177-.43a3.138,3.138,0,0,0-2.611.714l0,0-.818.728h0l-.13.114a108.891,108.891,0,0,1-38.126,21.746h0a2.866,2.866,0,0,0-.343.139l-.072.038c-.087.045-.172.093-.254.147l-.067.045a2.986,2.986,0,0,0-.242.186l-.042.037a3.514,3.514,0,0,0-1.023,1.691,114.169,114.169,0,0,1-7.577,15.515q3.024,2.305,6.257,4.462a118.255,118.255,0,0,0,7.235-15.385,116.106,116.106,0,0,0,20.728-9.418" transform="translate(-315.218 -414.691)" fill="#468a7a"/>
    <path id="Tracé_2377" data-name="Tracé 2377" d="M391.673,779.411a3.947,3.947,0,0,0,.855.675l.01.007c.1.062.21.117.319.17l.044.021c.1.047.2.086.3.125l.084.032c.093.031.185.059.279.085l.122.034c.086.02.174.038.261.053.049.009.1.019.148.025.085.013.171.02.258.027l.157.012c.09,0,.179,0,.269,0,.041,0,.082,0,.123,0a141.779,141.779,0,0,0,14.208-1.262c.026,0,.051-.01.077-.015.073-.011.146-.027.218-.042s.132-.027.2-.044l.191-.055c.07-.022.14-.042.208-.066l.171-.068c.07-.029.14-.057.207-.089s.109-.056.162-.084.131-.067.194-.1.108-.068.162-.1.116-.075.172-.115.105-.082.156-.124.105-.083.156-.128.094-.088.141-.133.1-.1.147-.149.08-.091.119-.138.1-.115.141-.175l.044-.056.8-1.126q-3.165-2.263-6.13-4.666-2.343.3-4.7.522v0q-2.752.257-5.515.4Q392.7,769.029,389.38,765q-1-1.215-1.968-2.442l-.047-.061-.009-.011-.012-.014c-.078-.1-.16-.19-.246-.28l-.068-.068c-.07-.068-.142-.136-.215-.2l-.094-.076c-.07-.056-.141-.109-.216-.16l-.1-.068c-.078-.05-.158-.095-.239-.139l-.09-.049c-.093-.047-.187-.088-.283-.126l-.062-.026c-.113-.042-.227-.078-.344-.109l-.017-.005a3.463,3.463,0,0,0-.755-.113,122.469,122.469,0,0,1-12.248-1.087c-.052-.008-.1-.008-.152-.013-.071-.007-.142-.017-.213-.019a3.533,3.533,0,0,0-1.09.131l-.109.037c-.08.026-.159.05-.237.08-.049.02-.1.043-.144.065-.065.028-.13.056-.192.087s-.1.055-.144.082-.125.071-.184.11l-.131.09c-.062.044-.125.089-.186.137l-.052.038-1.012.827q1.949,3.135,4.13,6.2l.312.041.005,0q4.765.6,9.567.852,3.21,4.194,6.846,8.22h0q1.127,1.244,2.293,2.475" transform="translate(-235.501 -485.634)" fill="#468a7a"/>
    <path id="Tracé_2378" data-name="Tracé 2378" d="M398.731,780.779a130.908,130.908,0,0,1-9.353,15.432,147.454,147.454,0,0,1-56.72,0q-.707-1.007-1.393-2.019-3.463,2.186-7.128,4.2.877,1.358,1.792,2.706a4.549,4.549,0,0,0,2.2,1.964,3.773,3.773,0,0,0,1.025.34h0a155.171,155.171,0,0,0,60.942.558v0q1.383-.265,2.762-.555l0-.012a4.831,4.831,0,0,0,2.994-1.928,135.522,135.522,0,0,0,9.885-16.934q-3.6-1.789-7.008-3.757" transform="translate(-207.139 -498.953)" fill="#468a7a"/>
    <path id="Tracé_2379" data-name="Tracé 2379" d="M348.1,776.5l.083.1c.057.069.115.138.175.2l.083.084c.066.066.133.132.2.194l.087.071c.073.061.147.119.224.175.033.024.069.048.1.07.075.051.15.1.228.146.044.026.09.048.136.073.071.038.143.077.217.112.055.025.109.047.164.071s.139.059.211.084.12.039.18.058.142.044.213.061l.186.042c.075.015.15.031.226.043.025.005.051.011.077.014a141.628,141.628,0,0,0,14.211,1.262c.062,0,.122,0,.182,0l.188,0c.083,0,.165-.012.248-.02l.157-.017c.086-.012.17-.027.256-.044.048-.01.1-.018.145-.03.083-.02.164-.043.244-.066l.151-.046c.075-.025.148-.053.22-.082.054-.022.109-.043.162-.067s.13-.062.194-.1l.169-.089c.059-.034.116-.07.174-.107s.109-.07.163-.108.112-.084.167-.128.1-.075.143-.116.117-.108.173-.165c.031-.03.064-.056.093-.086l.479-.507-.114-.111q-2.6-2.916-4.982-5.924l-1.484-.084v0q-4.282-.266-8.541-.8a122.229,122.229,0,0,1-8.275-12.785q-3.02,2.279-6.244,4.4a126.7,126.7,0,0,0,8.858,14.134Z" transform="translate(-216.746 -484.318)" fill="#468a7a"/>
    <path id="Tracé_2380" data-name="Tracé 2380" d="M282.77,746.1a122.648,122.648,0,0,1-6.685-14.683,3.668,3.668,0,0,0-2.118-2.356,121.475,121.475,0,0,1-11.144-5.171,3.674,3.674,0,0,0-3.088-.13l-.616.245q.647,3.742,1.54,7.511l.108.055.025-.01q4.276,2.18,8.706,4.036a126.882,126.882,0,0,0,6.246,14.32q3.608-1.817,7.026-3.816" transform="translate(-165.589 -462.335)" fill="#468a7a"/>
    <path id="Tracé_2381" data-name="Tracé 2381" d="M333.093,729.675a118.074,118.074,0,0,0,45.385,0q.86.7,1.739,1.382,1.775-3.282,3.3-6.609-1.284-.969-2.531-1.965a3.13,3.13,0,0,0-2.613-.691h-.005l-1.07.219h0l-.169.035a110.3,110.3,0,0,1-43.956-.261h0a2.658,2.658,0,0,0-.367-.051l-.081,0c-.1,0-.2,0-.293,0l-.08.006a2.894,2.894,0,0,0-.3.041l-.055.01a3.519,3.519,0,0,0-1.731.955,114.165,114.165,0,0,1-14.306,9.666q1.471,3.507,3.2,6.988a118.5,118.5,0,0,0,13.947-9.723" transform="translate(-201.906 -461.217)" fill="#468a7a"/>
    <path id="Tracé_2382" data-name="Tracé 2382" d="M218.3,716.932a3.929,3.929,0,0,0,.4,1.014l.006.01c.058.106.123.207.191.307l.027.04c.062.09.129.176.2.26l.058.069c.064.074.131.144.2.214l.089.09c.065.061.132.12.2.177.038.033.076.066.116.1.069.054.139.1.21.153l.13.09c.075.049.153.093.232.136.036.021.069.044.106.064a140.819,140.819,0,0,0,12.948,6.008l.074.026c.069.027.139.051.209.073s.129.042.193.061l.192.047c.072.016.143.034.214.046l.182.027c.074.009.149.021.224.026s.122.007.183.009.146.007.219.005.127,0,.192-.009.138-.006.206-.014.132-.018.2-.029.133-.02.2-.034.125-.03.188-.046.136-.035.2-.055.114-.038.171-.059.141-.052.209-.082l.067-.026,1.259-.575q-1.616-3.539-2.985-7.1-2.181-.907-4.328-1.892l0,0q-2.514-1.154-4.979-2.409-1.321-5.184-2.181-10.331h0c-.174-1.033-.332-2.068-.479-3.1l-.01-.077,0-.014,0-.018q-.027-.185-.071-.366l-.025-.093c-.027-.094-.055-.188-.088-.279l-.042-.113c-.033-.083-.068-.166-.107-.247l-.052-.11c-.042-.082-.088-.162-.137-.241l-.053-.087c-.057-.085-.118-.17-.182-.251-.013-.018-.026-.036-.041-.053a3.169,3.169,0,0,0-.241-.267.077.077,0,0,0-.012-.012,3.455,3.455,0,0,0-.6-.476,122.029,122.029,0,0,1-10.048-7.084c-.04-.032-.083-.057-.125-.087-.058-.042-.114-.086-.174-.123a3.541,3.541,0,0,0-1.009-.433l-.113-.024c-.082-.017-.163-.036-.245-.049-.052-.007-.105-.01-.158-.017-.069-.008-.14-.017-.21-.021-.055,0-.109,0-.165,0-.072,0-.144,0-.215,0l-.158.013c-.077.006-.153.015-.231.025l-.063.008-1.29.206q.115,3.69.462,7.44l.25.191h.006q3.82,2.913,7.848,5.538.674,5.238,1.807,10.543h0q.352,1.644.748,3.292" transform="translate(-132.397 -440.732)" fill="#468a7a"/>
    <path id="Tracé_2383" data-name="Tracé 2383" d="M209.621,746.319a130.663,130.663,0,0,1-15.807,8.707,146.025,146.025,0,0,1-49.131-28.4q-.107-1.225-.191-2.444-4.089.157-8.268.071.077,1.613.192,3.237a4.544,4.544,0,0,0,.919,2.8,3.72,3.72,0,0,0,.716.806h0a153.771,153.771,0,0,0,52.52,31.011v0q1.332.46,2.671.9l0-.012a4.833,4.833,0,0,0,3.558-.176,135.6,135.6,0,0,0,17.015-9.744q-2.225-3.346-4.2-6.753" transform="translate(-87.053 -462.782)" fill="#468a7a"/>
    <path id="Tracé_2384" data-name="Tracé 2384" d="M179.519,695.967l.019.13c.015.089.029.177.05.263l.03.114c.024.091.048.181.079.27l.039.1c.033.09.067.178.105.265.017.038.036.076.055.113.039.082.079.162.124.24.025.044.053.087.08.131.043.07.086.139.132.206.034.048.071.1.106.143s.091.12.14.178.084.094.127.141.1.109.154.16l.139.131c.057.051.115.1.174.149l.06.052A141.817,141.817,0,0,0,192.8,706.98c.052.033.105.06.158.089l.163.092c.074.039.149.073.225.107l.144.065c.082.032.162.061.244.088.048.016.094.034.142.048.081.024.162.046.244.066l.153.035c.077.017.155.029.232.039l.173.023c.073.008.144.012.216.015l.191.007c.069,0,.135,0,.2-.005s.13-.005.195-.012.14-.017.21-.027.121-.016.182-.028c.078-.015.154-.036.231-.056.042-.011.083-.017.124-.03l.67-.2-.043-.152q-.792-3.827-1.343-7.624l-1.242-.818,0,0q-3.571-2.379-6.984-4.981a123.478,123.478,0,0,1-.751-15.213q-3.754.455-7.611.682a127.973,127.973,0,0,0,.579,16.669Z" transform="translate(-114.302 -433.599)" fill="#468a7a"/>
    <path id="Tracé_2385" data-name="Tracé 2385" d="M137.39,632.228a124.156,124.156,0,0,1,1.548-16.061,3.674,3.674,0,0,0-.661-3.1,122.115,122.115,0,0,1-7.085-10.047,3.67,3.67,0,0,0-2.613-1.652l-.656-.093q-1.3,3.567-2.409,7.278l.066.1.026,0q2.62,4.021,5.533,7.842a128.736,128.736,0,0,0-1.742,15.523q4.033.224,7.991.206" transform="translate(-80.21 -384.241)" fill="#468a7a"/>
    <path id="Tracé_2386" data-name="Tracé 2386" d="M201.756,669.7a116.031,116.031,0,0,0,20.729,9.418q.4,1.034.816,2.066,3.176-1.959,6.157-4.082-.631-1.48-1.213-2.965a3.131,3.131,0,0,0-1.918-1.9h-.006l-1.036-.344h0l-.163-.055a108.955,108.955,0,0,1-37.867-22.2l0,0a2.475,2.475,0,0,0-.292-.229l-.069-.042a2.857,2.857,0,0,0-.254-.148l-.073-.035a2.922,2.922,0,0,0-.283-.117l-.052-.017a3.52,3.52,0,0,0-1.98-.044,115.728,115.728,0,0,1-17.236,1.2q-.477,3.775-.725,7.652a120.1,120.1,0,0,0,16.95-1.424A117.247,117.247,0,0,0,201.756,669.7" transform="translate(-106.265 -414.661)" fill="#468a7a"/>
    <path id="Tracé_2387" data-name="Tracé 2387" d="M115.094,548.2q3.734-.109,7.38-.449.192-1.6.43-3.178a3.146,3.146,0,0,0-.715-2.612l0,0-.728-.818v0l-.114-.13a108.9,108.9,0,0,1-21.747-38.126v0a2.8,2.8,0,0,0-.139-.343l-.038-.071a2.8,2.8,0,0,0-.147-.254l-.045-.067a3.017,3.017,0,0,0-.186-.243L99,501.864a3.522,3.522,0,0,0-1.692-1.024A114.183,114.183,0,0,1,81.8,493.264q-2.3,3.024-4.461,6.256a118.237,118.237,0,0,0,15.386,7.236,116.1,116.1,0,0,0,9.417,20.727,117.27,117.27,0,0,0,13.281,18.522q-.172,1.1-.323,2.2" transform="translate(-49.42 -315.218)" fill="#468a7a"/>
    <path id="Tracé_2388" data-name="Tracé 2388" d="M93.381,575.9c.009.109.024.216.042.324l.016.089c.018.1.042.19.066.284l.034.122c.025.085.055.17.085.254.017.047.033.095.052.141.032.081.069.159.105.237l.069.143c.041.08.086.157.133.234.021.036.039.073.06.108a141.971,141.971,0,0,0,8.222,11.66l.051.059c.047.058.095.113.145.167s.091.1.138.149l.144.138c.055.049.107.1.162.145l.144.114c.06.045.12.093.181.135s.1.066.154.1.123.08.188.115.113.06.171.089.123.062.186.09.123.051.186.074.124.049.188.07.124.037.187.055.135.038.2.053.118.024.178.034.148.025.222.034l.07.01,1.377.13q.371-3.871.962-7.643-1.436-1.875-2.806-3.8l0,0q-1.6-2.253-3.113-4.57,1.438-5.153,3.259-10.044.547-1.474,1.13-2.922L106,562.2l.005-.013.006-.017c.045-.117.086-.234.119-.353l.025-.093c.025-.093.047-.19.064-.285l.02-.119c.013-.088.024-.178.031-.267l.009-.12c0-.092,0-.185,0-.277l0-.1c-.006-.1-.017-.205-.031-.308,0-.022-.005-.045-.009-.066a3.367,3.367,0,0,0-.077-.352.074.074,0,0,0,0-.017,3.4,3.4,0,0,0-.279-.71,121.222,121.222,0,0,1-5.172-11.145c-.019-.047-.044-.091-.065-.137-.03-.066-.056-.131-.09-.193a3.533,3.533,0,0,0-.658-.879l-.086-.077c-.062-.056-.124-.112-.189-.164-.041-.032-.086-.062-.128-.093s-.113-.085-.172-.123-.094-.057-.142-.084-.124-.073-.188-.106l-.143-.067c-.07-.033-.14-.064-.212-.093l-.06-.026-1.22-.465q-1.744,3.252-3.316,6.675l.122.29.005,0q1.857,4.431,4.04,8.714Q96.174,566,94.512,571.17q-.515,1.6-.992,3.227a3.982,3.982,0,0,0-.157,1.08v.013c0,.12,0,.24.014.361Z" transform="translate(-59.663 -348.566)" fill="#468a7a"/>
    <path id="Tracé_2389" data-name="Tracé 2389" d="M75.1,603.138q-.247-4.008-.248-7.945a132.611,132.611,0,0,1-18.035-.362,146.007,146.007,0,0,1-28.4-49.13q.519-1.115,1.055-2.215-3.623-1.91-7.2-4.082-.739,1.438-1.45,2.9a4.56,4.56,0,0,0-.6,2.888,3.745,3.745,0,0,0,.219,1.057h0A153.711,153.711,0,0,0,50.473,599.34l0,0q.922,1.063,1.862,2.108l.009-.007a4.82,4.82,0,0,0,3.165,1.621,137.433,137.433,0,0,0,19.594.073" transform="translate(-12.899 -344.703)" fill="#468a7a"/>
    <path id="Tracé_2390" data-name="Tracé 2390" d="M70.539,522.748a126.22,126.22,0,0,0-7.829,14.729l-.04.1-.048.123c-.032.084-.062.168-.088.253l-.031.113c-.025.091-.048.181-.067.274l-.019.11c-.016.095-.031.188-.04.283,0,.042-.006.083-.008.125-.008.091-.013.18-.013.27,0,.05,0,.1.005.154,0,.081,0,.163.011.244,0,.06.013.119.02.178.01.075.019.15.033.224s.026.125.041.185.033.146.052.217l.057.182c.023.073.048.146.076.217l.027.075a140.948,140.948,0,0,0,6.01,12.95c.029.055.062.1.093.156l.1.162c.046.071.093.138.141.2l.094.129c.053.069.109.134.166.2.034.038.065.076.1.111.058.063.118.121.178.179l.116.107c.058.053.12.1.181.15l.139.107c.059.043.119.082.179.119l.162.1c.06.035.119.066.18.1s.115.061.175.088.131.056.2.081.114.046.171.066c.076.026.153.047.229.069.042.01.081.025.122.036l.68.161.039-.154q1.221-3.713,2.635-7.279l-.67-1.328h0q-1.909-3.843-3.569-7.8a121.851,121.851,0,0,1,6.948-13.551q-3.48-1.48-6.931-3.213" transform="translate(-39.849 -334.06)" fill="#468a7a"/>
    <path id="Tracé_2391" data-name="Tracé 2391" d="M61.185,449.217a3.671,3.671,0,0,0,.985-3.012,122.09,122.09,0,0,1-1.089-12.248,3.674,3.674,0,0,0-1.433-2.743l-.521-.411q-2.915,2.437-5.733,5.094l.007.122.021.016q.249,4.793.853,9.56a127.5,127.5,0,0,0-9.291,12.559q3.375,2.218,6.813,4.185a122.859,122.859,0,0,1,9.389-13.121" transform="translate(-28.747 -275.303)" fill="#468a7a"/>
    <path id="Tracé_2392" data-name="Tracé 2392" d="M36.47,409.111c0,.026.01.051.015.077.011.073.027.145.042.217s.027.134.044.2l.056.19c.021.07.042.14.066.208l.068.17c.029.07.056.14.088.208s.056.109.084.163.067.13.1.192.068.109.1.163.075.116.116.172.082.105.123.156.084.106.128.156.088.094.133.14.1.1.149.148.091.079.137.118.116.1.175.141l.056.045,1.127.8q2.263-3.165,4.666-6.131-.3-2.342-.522-4.695h0q-.258-2.753-.4-5.515,3.83-3.736,7.854-7.059,1.215-1,2.441-1.966l.061-.048.012-.009.014-.013c.1-.077.191-.159.28-.245l.068-.068c.068-.07.136-.141.2-.215l.076-.093c.056-.07.11-.143.16-.217l.069-.1c.049-.078.095-.158.139-.24l.049-.09c.046-.093.088-.188.126-.283.008-.021.019-.042.026-.061a3.563,3.563,0,0,0,.11-.344c0-.006,0-.011.006-.017a3.48,3.48,0,0,0,.113-.756,122.061,122.061,0,0,1,1.088-12.248c.006-.051.007-.1.012-.152.007-.071.017-.141.019-.212a3.538,3.538,0,0,0-.132-1.089l-.036-.11c-.026-.079-.051-.159-.08-.237-.02-.048-.043-.1-.065-.144-.028-.065-.056-.13-.088-.193s-.053-.095-.081-.143c-.036-.063-.072-.125-.11-.186l-.09-.13c-.044-.063-.089-.125-.138-.186l-.038-.051-.826-1.013q-3.135,1.949-6.206,4.13l-.04.312,0,0q-.6,4.766-.853,9.567-4.193,3.211-8.219,6.846h0Q37.71,390.5,36.48,391.67a3.969,3.969,0,0,0-.676.855l-.006.011c-.062.1-.117.21-.17.319l-.02.043c-.047.1-.087.2-.125.3l-.031.084c-.032.092-.06.186-.086.279l-.033.122c-.02.087-.038.174-.053.262-.009.049-.019.1-.026.148-.013.086-.021.171-.028.258l-.012.157c-.005.089,0,.179,0,.269,0,.041,0,.082,0,.123a142.116,142.116,0,0,0,1.262,14.208" transform="translate(-22.5 -235.499)" fill="#468a7a"/>
    <path id="Tracé_2393" data-name="Tracé 2393" d="M25.931,398.73A131.03,131.03,0,0,1,10.5,389.377a147.429,147.429,0,0,1,0-56.719q1.007-.708,2.018-1.393-2.186-3.465-4.2-7.128-1.359.876-2.706,1.792a4.551,4.551,0,0,0-1.964,2.2,3.784,3.784,0,0,0-.34,1.025h0A155.163,155.163,0,0,0,2.749,390.1h0q.267,1.383.556,2.762l.012,0a4.833,4.833,0,0,0,1.928,2.995,135.8,135.8,0,0,0,16.934,9.885q1.788-3.6,3.757-7.008" transform="translate(0 -207.138)" fill="#468a7a"/>
    <path id="Tracé_2394" data-name="Tracé 2394" d="M38.074,348.094l-.1.083c-.07.058-.138.115-.2.176l-.084.082c-.066.066-.132.134-.195.2l-.07.086c-.061.073-.119.147-.175.225-.025.033-.048.069-.07.1-.051.075-.1.15-.146.228-.026.043-.049.09-.073.135-.039.073-.078.144-.112.218-.026.054-.047.109-.071.164s-.058.139-.083.21-.04.121-.058.182-.043.142-.062.213l-.042.186c-.016.075-.031.15-.043.226-.005.026-.011.051-.014.077A141.724,141.724,0,0,0,35.208,365.1c0,.061,0,.121,0,.181l0,.187c0,.084.011.166.02.248l.017.158c.012.087.027.171.044.256.01.048.019.1.03.145.02.082.043.163.066.243l.047.151c.024.075.052.148.081.22.022.055.042.108.066.161s.063.13.1.194l.09.169c.034.06.071.116.107.173s.07.11.108.164.085.112.129.167.075.1.116.143.108.117.164.173c.03.03.056.064.087.093l.507.48.111-.114q2.917-2.6,5.924-4.981l.084-1.485h0q.266-4.282.8-8.541A122.342,122.342,0,0,1,56.7,345.413q-2.279-3.02-4.4-6.244a126.793,126.793,0,0,0-14.135,8.858Z" transform="translate(-22.499 -216.744)" fill="#468a7a"/>
    <path id="Tracé_2395" data-name="Tracé 2395" d="M59.723,282.768a122.413,122.413,0,0,1,14.684-6.685,3.674,3.674,0,0,0,2.356-2.118,120.593,120.593,0,0,1,5.171-11.145,3.673,3.673,0,0,0,.13-3.089l-.245-.616q-3.743.648-7.511,1.54l-.055.108.01.025q-2.179,4.276-4.036,8.706a127,127,0,0,0-14.319,6.247q1.816,3.606,3.816,7.027" transform="translate(-35.728 -165.587)" fill="#468a7a"/>
    <path id="Tracé_2396" data-name="Tracé 2396" d="M89.46,355.785a117.481,117.481,0,0,0,2.2,22.694q-.7.86-1.382,1.738,3.283,1.775,6.609,3.3.969-1.286,1.964-2.531a3.129,3.129,0,0,0,.692-2.613v-.005l-.22-1.07v0l-.034-.17a110.3,110.3,0,0,1,.261-43.955v0a2.707,2.707,0,0,0,.051-.366l0-.08c0-.1,0-.2,0-.295l-.006-.08a3.038,3.038,0,0,0-.041-.3l-.01-.055a3.518,3.518,0,0,0-.955-1.732,114.115,114.115,0,0,1-9.665-14.306q-3.507,1.47-6.988,3.2a118.736,118.736,0,0,0,9.723,13.948,117.51,117.51,0,0,0-2.2,22.691" transform="translate(-52.361 -201.906)" fill="#468a7a"/>
    <path id="Tracé_2397" data-name="Tracé 2397" d="M116.3,222.484q-1.035.4-2.066.816,1.96,3.175,4.082,6.157,1.481-.631,2.965-1.214a3.125,3.125,0,0,0,1.9-1.918l0-.005.343-1.036v0l.055-.164a108.926,108.926,0,0,1,22.2-37.867l0,0a2.363,2.363,0,0,0,.228-.292l.043-.069c.053-.083.1-.167.147-.254l.036-.073a2.694,2.694,0,0,0,.116-.283l.019-.052a3.522,3.522,0,0,0,.043-1.979,115.734,115.734,0,0,1-1.2-17.236q-3.775-.477-7.652-.724A119.993,119.993,0,0,0,139,183.233a116.617,116.617,0,0,0-22.7,39.25" transform="translate(-73.001 -106.263)" fill="#468a7a"/>
    <path id="Tracé_2398" data-name="Tracé 2398" d="M70.392,218.7l-.011.007c-.105.059-.207.123-.306.191l-.04.027c-.09.062-.176.129-.26.2l-.069.058c-.074.064-.145.13-.214.2l-.09.089c-.061.065-.12.132-.177.2-.033.039-.066.076-.1.115-.054.068-.1.14-.153.21l-.089.13c-.049.076-.094.154-.138.233-.02.035-.044.069-.063.105a140.844,140.844,0,0,0-6.008,12.948l-.026.075c-.027.068-.05.139-.073.209s-.043.129-.061.194l-.046.193c-.017.071-.034.143-.046.214l-.027.181c-.011.074-.021.15-.026.225s-.007.122-.009.183-.007.146-.006.219.006.128.009.192.006.138.013.206.018.131.029.2.019.133.034.2.029.126.045.188.035.136.056.2.038.113.059.17.052.142.081.21l.027.066L63.286,238q3.539-1.615,7.1-2.985.909-2.181,1.892-4.329h0q1.154-2.512,2.409-4.978,5.183-1.322,10.331-2.181c1.033-.173,2.067-.332,3.1-.478l.077-.01.014,0,.018,0c.123-.018.245-.043.366-.072l.092-.024c.093-.027.188-.055.279-.088l.112-.042c.085-.033.167-.068.247-.108l.11-.052c.082-.043.162-.089.241-.137l.086-.054c.086-.057.17-.118.251-.182.018-.013.036-.026.053-.04a3.373,3.373,0,0,0,.267-.242l.013-.012a3.475,3.475,0,0,0,.476-.6,122.008,122.008,0,0,1,7.083-10.048c.032-.041.058-.084.087-.125.042-.058.085-.114.123-.175a3.552,3.552,0,0,0,.434-1.009l.022-.114c.018-.081.036-.163.049-.245.007-.051.012-.1.017-.157.008-.07.016-.14.02-.21s0-.11,0-.165c0-.072,0-.144,0-.215l-.013-.158c-.006-.077-.015-.153-.026-.23l-.008-.064-.205-1.29q-3.691.115-7.44.461l-.192.25v.005q-2.913,3.82-5.537,7.848Q80,216.417,74.7,217.551q-1.644.351-3.292.748a3.946,3.946,0,0,0-1.014.4" transform="translate(-39.849 -132.397)" fill="#468a7a"/>
    <path id="Tracé_2399" data-name="Tracé 2399" d="M20.634,196.8a135.805,135.805,0,0,0,9.744,17.015q3.346-2.225,6.753-4.2a130.626,130.626,0,0,1-8.707-15.806,145.977,145.977,0,0,1,28.4-49.131q1.224-.107,2.443-.192-.156-4.088-.07-8.267-1.614.077-3.237.194a4.539,4.539,0,0,0-2.8.917,3.69,3.69,0,0,0-.806.716h0A153.737,153.737,0,0,0,21.347,190.57h0q-.461,1.332-.9,2.671l.011,0a4.835,4.835,0,0,0,.176,3.558" transform="translate(-12.91 -87.053)" fill="#468a7a"/>
    <path id="Tracé_2400" data-name="Tracé 2400" d="M105.156,179.5l-.106.017-.131.02c-.088.014-.177.029-.263.05l-.114.03c-.091.024-.182.049-.27.079l-.1.038c-.09.033-.178.067-.265.106-.038.017-.076.035-.113.055-.081.039-.161.079-.24.124-.044.025-.087.053-.131.081-.07.042-.14.085-.207.132-.048.034-.1.071-.144.106s-.119.09-.177.14-.095.083-.141.127-.109.1-.161.154l-.13.139c-.052.057-.1.115-.151.175l-.051.06A141.656,141.656,0,0,0,94.036,192.8c-.032.052-.059.105-.089.158l-.092.164c-.038.075-.073.149-.107.225l-.064.144c-.033.081-.061.162-.09.244-.016.048-.033.094-.047.141q-.036.122-.066.244l-.035.153c-.017.078-.028.155-.039.232l-.023.173c-.008.073-.012.144-.016.215l-.008.192c0,.068,0,.135.006.2s.006.13.012.2.017.139.027.21.017.121.028.181c.016.078.036.156.056.232.01.041.017.082.03.124l.2.67.152-.043q3.827-.792,7.623-1.343l.817-1.243,0,0q2.38-3.57,4.982-6.985a123.6,123.6,0,0,1,15.212-.75q-.455-3.755-.682-7.612a128.1,128.1,0,0,0-16.669.579" transform="translate(-59.661 -114.301)" fill="#468a7a"/>
    <path id="Tracé_2401" data-name="Tracé 2401" d="M165.587,137.389a124.148,124.148,0,0,1,16.06,1.547,3.669,3.669,0,0,0,3.1-.661,122.08,122.08,0,0,1,10.046-7.084,3.673,3.673,0,0,0,1.652-2.613l.093-.657q-3.567-1.3-7.279-2.408l-.1.066,0,.026q-4.021,2.621-7.842,5.534a128.664,128.664,0,0,0-15.522-1.743q-.226,4.033-.206,7.991" transform="translate(-105.816 -80.209)" fill="#468a7a"/>
    <path id="Tracé_2402" data-name="Tracé 2402" d="M197.132,93.519a3.993,3.993,0,0,0-1.08-.156h-.012c-.121,0-.241,0-.362.013l-.048,0c-.109.009-.216.025-.324.042l-.089.016c-.1.019-.191.042-.285.066l-.122.033c-.086.026-.169.055-.254.085-.047.017-.094.033-.142.052-.079.032-.158.068-.237.105l-.141.068c-.081.042-.158.086-.235.133-.036.021-.072.039-.108.06a141.74,141.74,0,0,0-11.66,8.222l-.059.051c-.058.045-.113.1-.167.145s-.1.091-.15.138l-.136.143c-.049.054-.1.106-.146.162l-.114.144c-.045.06-.092.12-.134.181s-.066.1-.1.154-.079.123-.114.187-.06.113-.088.171-.062.123-.09.187-.051.123-.074.186-.05.125-.07.188-.038.124-.055.186-.038.135-.053.2-.024.118-.034.178-.025.149-.034.223l-.01.07-.13,1.378q3.871.37,7.643.961,1.876-1.435,3.8-2.806l0,0q2.254-1.6,4.57-3.114,5.152,1.438,10.043,3.259l-5.975-10.327q-1.6-.515-3.227-.992" transform="translate(-115.205 -59.663)" fill="#468a7a"/>
    <path id="Tracé_2403" data-name="Tracé 2403" d="M144.034,74.85a132.6,132.6,0,0,1,.361-18.034,146.013,146.013,0,0,1,49.131-28.4q1.117.519,2.216,1.055,1.91-3.623,4.082-7.2-1.437-.74-2.9-1.45a4.558,4.558,0,0,0-2.889-.6,3.815,3.815,0,0,0-1.057.218h0a153.672,153.672,0,0,0-53.087,30.04l0,0q-1.063.922-2.108,1.863l.009.009a4.809,4.809,0,0,0-1.622,3.164,137.33,137.33,0,0,0-.073,19.594q4.009-.247,7.946-.249" transform="translate(-86.766 -12.898)" fill="#468a7a"/>
    <path id="Tracé_2404" data-name="Tracé 2404" d="M256.037,62.671l-.124-.049c-.083-.032-.167-.061-.252-.087l-.114-.031c-.09-.025-.181-.049-.274-.067l-.109-.019c-.1-.016-.188-.031-.283-.04-.042,0-.083-.006-.125-.009-.091-.007-.18-.012-.27-.012-.052,0-.1,0-.154,0-.082,0-.164,0-.246.012-.058,0-.118.013-.176.019-.075.011-.15.02-.225.034s-.123.026-.185.04-.146.033-.218.053l-.181.056c-.073.025-.146.049-.217.076l-.075.027a140.987,140.987,0,0,0-12.95,6.01c-.055.029-.1.062-.156.092l-.162.1c-.07.045-.138.093-.2.142l-.129.093c-.068.053-.134.109-.2.166-.038.033-.076.064-.112.1-.062.058-.12.118-.178.179l-.107.116c-.053.058-.1.12-.15.182l-.107.138c-.043.06-.081.119-.119.179l-.1.162c-.035.06-.065.119-.1.18s-.062.114-.089.174-.054.13-.08.2-.046.113-.067.171c-.026.076-.046.153-.067.229-.012.041-.027.08-.036.122l-.162.68.154.038q3.713,1.221,7.279,2.636l1.329-.67v0q3.843-1.909,7.8-3.569a121.734,121.734,0,0,1,13.551,6.948q1.479-3.481,3.214-6.932a126.616,126.616,0,0,0-14.73-7.828Z" transform="translate(-151.798 -39.849)" fill="#468a7a"/>
    <path id="Tracé_2405" data-name="Tracé 2405" d="M334.452,51.794a122.845,122.845,0,0,1,13.12,9.389,3.668,3.668,0,0,0,3.012.984,122.288,122.288,0,0,1,12.249-1.088,3.677,3.677,0,0,0,2.743-1.433l.41-.521q-2.437-2.915-5.094-5.733l-.122.007-.016.021q-4.793.251-9.56.853a127.812,127.812,0,0,0-12.559-9.291q-2.218,3.376-4.184,6.814" transform="translate(-213.729 -28.744)" fill="#468a7a"/>
    <path id="Tracé_2406" data-name="Tracé 2406" d="M227.869,102.137a117.218,117.218,0,0,0-18.522,13.281q-1.1-.171-2.2-.324.109,3.734.449,7.379,1.6.192,3.179.43a3.136,3.136,0,0,0,2.61-.714l.005,0,.818-.728h0l.13-.114a108.9,108.9,0,0,1,38.126-21.747h0a2.639,2.639,0,0,0,.343-.139l.071-.038a2.8,2.8,0,0,0,.254-.147l.067-.045a2.8,2.8,0,0,0,.242-.186l.042-.036a3.523,3.523,0,0,0,1.023-1.691A114.112,114.112,0,0,1,262.089,81.8q-3.026-2.3-6.258-4.461A118.278,118.278,0,0,0,248.6,92.719a116.071,116.071,0,0,0-20.728,9.418" transform="translate(-132.377 -49.42)" fill="#468a7a"/>
    <path id="Tracé_2407" data-name="Tracé 2407" d="M241.889,106.028q1.474.547,2.923,1.129l.072.029.013.007.018.006q.174.069.353.119l.093.025c.094.025.189.047.285.065l.119.02c.089.013.177.023.267.03l.12.009c.092,0,.185,0,.278,0l.1,0c.1-.006.206-.017.308-.032.022,0,.045,0,.066-.008a3.345,3.345,0,0,0,.354-.078l.016,0a3.427,3.427,0,0,0,.709-.279,121.22,121.22,0,0,1,11.145-5.172c.047-.019.091-.044.138-.065.065-.029.13-.056.192-.09a3.5,3.5,0,0,0,.878-.656l.077-.087c.056-.061.113-.123.165-.188.033-.04.062-.085.093-.128s.084-.114.123-.172.056-.094.083-.141c.036-.063.073-.124.106-.188l.067-.144c.033-.069.064-.139.093-.211l.026-.059.465-1.22q-3.253-1.745-6.675-3.316l-.29.122v.005q-4.431,1.857-8.713,4.039-4.876-2.027-10.041-3.69Z" transform="translate(-150.76 -60.853)" fill="#468a7a"/>
    <path id="Tracé_2408" data-name="Tracé 2408" d="M382.589,36.478a3.956,3.956,0,0,0-.855-.676l-.01-.007c-.105-.062-.21-.117-.319-.17l-.043-.021c-.1-.047-.2-.086-.3-.125l-.085-.031c-.091-.031-.184-.06-.278-.085l-.122-.033c-.087-.02-.175-.038-.262-.053-.05-.01-.1-.019-.149-.026-.085-.013-.171-.02-.257-.028l-.157-.012c-.09,0-.179,0-.27,0-.041,0-.082,0-.123,0a141.707,141.707,0,0,0-14.208,1.262c-.026,0-.051.01-.077.014-.073.012-.145.027-.217.043s-.133.027-.2.043l-.19.055c-.07.022-.14.042-.208.067l-.17.067c-.07.029-.139.056-.207.088s-.108.056-.163.084-.13.067-.193.1-.108.068-.162.1-.116.075-.171.116-.1.082-.156.123-.105.083-.155.128-.094.088-.141.133-.1.1-.147.149-.08.091-.119.138-.1.115-.141.175l-.045.056-.8,1.127q3.166,2.263,6.132,4.666,2.342-.3,4.694-.522v0q2.752-.258,5.514-.4,3.736,3.83,7.06,7.853h0c.668.81,1.324,1.621,1.966,2.441l.048.061.009.012.012.014q.117.146.245.279l.068.069c.07.067.142.136.217.2l.092.077c.07.056.143.109.217.16l.1.068c.078.049.158.095.239.139l.09.049c.092.047.188.088.283.126.021.009.041.019.062.026a3.478,3.478,0,0,0,.344.11l.015,0a3.49,3.49,0,0,0,.756.113A122.494,122.494,0,0,1,401.9,55.919c.051.007.1.008.152.013.071.008.141.016.211.019a3.556,3.556,0,0,0,1.09-.131l.11-.037c.08-.027.159-.05.237-.08.048-.02.1-.043.144-.065.065-.029.13-.056.192-.088s.1-.054.143-.082.125-.072.186-.11l.129-.09c.064-.044.126-.09.186-.138l.051-.039,1.014-.826q-1.95-3.134-4.13-6.2l-.313-.04,0,0q-4.766-.6-9.567-.853-3.211-4.194-6.846-8.22c-.751-.829-1.516-1.657-2.294-2.475" transform="translate(-231.003 -22.499)" fill="#468a7a"/>
    <path id="Tracé_2409" data-name="Tracé 2409" d="M309.42,25.93A131.118,131.118,0,0,1,318.774,10.5a147.4,147.4,0,0,1,56.72,0q.707,1.006,1.392,2.019,3.464-2.186,7.128-4.2-.877-1.359-1.792-2.705a4.554,4.554,0,0,0-2.2-1.964A3.775,3.775,0,0,0,379,3.307h0a155.17,155.17,0,0,0-60.942-.559v0q-1.383.267-2.761.556l0,.012A4.829,4.829,0,0,0,312.3,5.24a135.772,135.772,0,0,0-9.885,16.934q3.6,1.788,7.007,3.756" transform="translate(-193.256)" fill="#468a7a"/>
    <path id="Tracé_2410" data-name="Tracé 2410" d="M452.051,38.072l-.082-.1c-.058-.069-.115-.138-.176-.2l-.083-.084c-.066-.066-.134-.132-.2-.195l-.085-.07c-.074-.061-.148-.119-.225-.175-.034-.025-.069-.048-.1-.07-.074-.051-.149-.1-.227-.146-.044-.026-.09-.048-.135-.073-.072-.039-.144-.078-.218-.112-.054-.024-.109-.046-.164-.07s-.138-.059-.21-.084-.121-.039-.181-.057-.142-.044-.214-.062l-.185-.042c-.075-.015-.15-.031-.226-.043-.026,0-.051-.011-.077-.015a141.631,141.631,0,0,0-14.21-1.261c-.061,0-.122,0-.182,0l-.187,0c-.084,0-.166.012-.248.019l-.157.017c-.087.012-.17.027-.255.044-.049.01-.1.019-.146.03-.083.02-.163.043-.243.066l-.151.047c-.075.024-.147.053-.22.082-.055.021-.108.043-.161.066s-.131.062-.194.095l-.169.09c-.06.034-.116.07-.173.107s-.11.07-.163.107-.113.084-.168.129-.1.075-.142.115c-.061.052-.117.109-.174.165-.03.03-.062.056-.092.087l-.48.507.115.111q2.6,2.916,4.981,5.923l1.485.084v0q4.282.266,8.541.8a122.494,122.494,0,0,1,8.276,12.785q3.02-2.277,6.243-4.4a126.551,126.551,0,0,0-8.858-14.135Z" transform="translate(-275.644 -22.498)" fill="#468a7a"/>
    <path id="Tracé_2411" data-name="Tracé 2411" d="M527.977,59.722A122.411,122.411,0,0,1,534.662,74.4a3.669,3.669,0,0,0,2.118,2.356,121.042,121.042,0,0,1,11.145,5.171,3.673,3.673,0,0,0,3.089.13l.615-.246q-.646-3.743-1.539-7.511l-.109-.055-.023.01q-4.276-2.179-8.707-4.036A126.812,126.812,0,0,0,535,55.906q-3.608,1.817-7.027,3.816" transform="translate(-337.401 -35.727)" fill="#468a7a"/>
    <path id="Tracé_2412" data-name="Tracé 2412" d="M399.9,91.659a118.093,118.093,0,0,0-45.385,0q-.86-.7-1.739-1.382-1.774,3.282-3.3,6.609,1.286.969,2.531,1.964a3.128,3.128,0,0,0,2.612.691h.006l1.07-.22h0l.169-.035a110.322,110.322,0,0,1,43.956.261h0a2.712,2.712,0,0,0,.367.051l.079,0a2.853,2.853,0,0,0,.294,0l.08-.006a2.946,2.946,0,0,0,.3-.04l.054-.01a3.524,3.524,0,0,0,1.732-.956,114.2,114.2,0,0,1,14.306-9.666q-1.471-3.506-3.2-6.988A118.566,118.566,0,0,0,399.9,91.659" transform="translate(-223.334 -52.361)" fill="#468a7a"/>
    <path id="Tracé_2413" data-name="Tracé 2413" d="M579.36,70.39l-.006-.011c-.06-.105-.123-.207-.192-.306l-.026-.04c-.063-.089-.129-.175-.2-.259l-.058-.07c-.064-.073-.13-.145-.2-.214l-.089-.089c-.065-.061-.132-.12-.2-.178-.038-.033-.075-.066-.116-.1-.068-.053-.139-.1-.209-.152l-.13-.09c-.076-.048-.154-.093-.232-.138-.035-.019-.069-.043-.106-.062a140.761,140.761,0,0,0-12.948-6.009l-.073-.026c-.069-.027-.14-.051-.21-.073s-.128-.043-.193-.061l-.193-.047c-.072-.016-.143-.033-.214-.046l-.182-.027c-.075-.01-.149-.021-.224-.026s-.122-.006-.183-.009-.146-.007-.219-.006-.128.005-.193.01-.138.006-.206.014-.132.018-.2.029-.132.02-.2.034-.126.03-.188.046-.135.035-.2.055-.114.038-.17.06-.142.052-.21.081l-.066.027-1.259.575q1.615,3.54,2.985,7.1,2.181.907,4.329,1.892l0,0q2.513,1.154,4.978,2.409,1.322,5.183,2.18,10.331L580.511,74.7q-.352-1.644-.749-3.292a3.94,3.94,0,0,0-.4-1.014" transform="translate(-357.907 -39.847)" fill="#468a7a"/>
    <path id="Tracé_2414" data-name="Tracé 2414" d="M505.624,37.13a130.6,130.6,0,0,1,15.806-8.706,146.019,146.019,0,0,1,49.131,28.4q.107,1.226.192,2.444,4.087-.156,8.267-.071-.078-1.613-.193-3.236a4.541,4.541,0,0,0-.918-2.8,3.728,3.728,0,0,0-.715-.807,153.757,153.757,0,0,0-52.52-31.011v0q-1.333-.46-2.671-.9l0,.013a4.825,4.825,0,0,0-3.557.176,135.606,135.606,0,0,0-17.016,9.743q2.225,3.346,4.2,6.753" transform="translate(-320.434 -12.91)" fill="#468a7a"/>
    <path id="Tracé_2415" data-name="Tracé 2415" d="M641.173,105.049l-.02-.131c-.014-.088-.03-.177-.05-.264l-.029-.114c-.024-.091-.05-.182-.079-.271l-.039-.1c-.033-.089-.067-.177-.106-.264-.016-.038-.036-.076-.054-.113-.039-.082-.08-.162-.124-.24-.026-.044-.053-.086-.081-.131-.043-.069-.085-.139-.132-.206-.033-.049-.07-.1-.106-.144s-.091-.119-.141-.177-.084-.095-.127-.141-.1-.109-.154-.161l-.139-.13c-.057-.051-.114-.1-.174-.149l-.06-.051A142,142,0,0,0,627.9,94.035c-.052-.033-.105-.059-.158-.088l-.163-.093c-.075-.039-.149-.074-.225-.107l-.144-.065c-.081-.032-.163-.061-.244-.089-.047-.016-.094-.034-.141-.047-.081-.025-.162-.046-.244-.066l-.153-.035c-.077-.017-.155-.028-.232-.04l-.173-.022c-.072-.008-.144-.012-.216-.015l-.191-.008c-.069,0-.136,0-.2.006s-.13.006-.195.012-.14.017-.211.027-.121.017-.181.028c-.079.016-.156.036-.232.056-.042.01-.083.017-.123.029l-.671.2.044.152q.791,3.827,1.343,7.624l1.242.818v0q3.569,2.379,6.983,4.981a123.251,123.251,0,0,1,.751,15.212q3.756-.454,7.613-.682a128.04,128.04,0,0,0-.581-16.669Z" transform="translate(-398.633 -59.66)" fill="#468a7a"/>
    <path id="Tracé_2416" data-name="Tracé 2416" d="M691.293,165.584a124.233,124.233,0,0,1-1.547,16.061,3.668,3.668,0,0,0,.66,3.1,121.97,121.97,0,0,1,7.084,10.048,3.669,3.669,0,0,0,2.613,1.652l.656.094q1.3-3.567,2.408-7.279l-.066-.1-.026,0q-2.62-4.021-5.534-7.842a128.837,128.837,0,0,0,1.743-15.523q-4.033-.226-7.992-.207" transform="translate(-440.716 -105.815)" fill="#468a7a"/>
    <path id="Tracé_2417" data-name="Tracé 2417" d="M539.022,125.719a116.1,116.1,0,0,0-20.73-9.418q-.4-1.034-.816-2.065-3.176,1.958-6.157,4.082.631,1.481,1.213,2.966a3.126,3.126,0,0,0,1.918,1.9l.005,0,1.036.344h0l.164.056a108.924,108.924,0,0,1,37.867,22.2l0,0a2.514,2.514,0,0,0,.292.229l.069.042c.084.053.167.1.255.148l.073.035c.093.043.186.083.283.117l.053.018a3.515,3.515,0,0,0,1.979.044,115.786,115.786,0,0,1,17.237-1.2q.477-3.775.724-7.652A119.975,119.975,0,0,0,557.543,139a117.214,117.214,0,0,0-18.521-13.28" transform="translate(-326.756 -73.002)" fill="#468a7a"/>
    <path id="Tracé_2418" data-name="Tracé 2418" d="M606.13,96.545l-5.975,10.328c.174,1.033.332,2.068.478,3.1l.01.077,0,.014,0,.018a3.671,3.671,0,0,0,.072.366l.024.093c.026.093.055.187.087.279l.042.112c.032.084.068.166.106.247l.052.109c.042.082.089.162.138.241l.053.086c.057.086.117.17.182.252.013.018.026.036.04.054a3.529,3.529,0,0,0,.242.267l.012.013a3.478,3.478,0,0,0,.6.476,121.969,121.969,0,0,1,10.048,7.084c.04.031.084.057.125.087.058.042.114.084.174.123a3.556,3.556,0,0,0,1.009.433l.113.023c.082.018.164.036.246.049.052.008.1.01.158.017.07.008.14.016.21.021.055,0,.109,0,.165,0,.072,0,.144,0,.215,0l.158-.013c.077-.007.154-.015.23-.026l.064-.007,1.289-.206q-.113-3.691-.46-7.441l-.251-.191h-.005q-3.82-2.912-7.848-5.537-.673-5.239-1.807-10.545" transform="translate(-383.526 -61.697)" fill="#468a7a"/>
    <path id="Tracé_2419" data-name="Tracé 2419" d="M680.3,136.086q.247,4.008.248,7.945a132.544,132.544,0,0,1,18.034.362,145.983,145.983,0,0,1,28.406,49.13q-.518,1.116-1.054,2.216,3.622,1.91,7.2,4.082.74-1.439,1.451-2.9a4.563,4.563,0,0,0,.6-2.889,3.807,3.807,0,0,0-.219-1.058,153.71,153.71,0,0,0-30.041-53.087h0q-.923-1.064-1.862-2.109l-.01.009a4.816,4.816,0,0,0-3.164-1.622,137.284,137.284,0,0,0-19.595-.073" transform="translate(-434.74 -86.764)" fill="#468a7a"/>
    <path id="Tracé_2420" data-name="Tracé 2420" d="M763.191,256.036l.049-.124c.032-.084.061-.167.087-.253l.031-.114c.025-.091.049-.181.068-.274l.018-.11c.017-.094.031-.188.04-.282,0-.042.006-.084.009-.126.006-.09.011-.18.012-.27,0-.051,0-.1,0-.154,0-.081,0-.163-.011-.244-.005-.059-.014-.118-.021-.177-.01-.075-.019-.15-.034-.225s-.025-.123-.04-.185-.033-.145-.052-.217l-.057-.181c-.024-.073-.048-.146-.075-.217l-.027-.075a140.71,140.71,0,0,0-6.01-12.951c-.028-.054-.061-.1-.092-.156l-.1-.161c-.045-.071-.093-.138-.142-.2l-.093-.129c-.052-.068-.109-.134-.166-.2-.032-.037-.064-.075-.1-.11-.058-.062-.118-.121-.178-.179l-.116-.107c-.059-.053-.12-.1-.182-.151l-.139-.106c-.058-.042-.119-.082-.179-.12l-.163-.1c-.059-.034-.118-.065-.179-.1s-.116-.061-.175-.088-.129-.055-.195-.08-.113-.047-.172-.066c-.076-.027-.153-.046-.229-.068-.041-.011-.08-.027-.122-.036l-.68-.162-.039.154q-1.221,3.712-2.635,7.279l.67,1.328,0,0q1.908,3.843,3.569,7.8a121.848,121.848,0,0,1-6.948,13.552q3.48,1.479,6.932,3.212a126.209,126.209,0,0,0,7.828-14.73Z" transform="translate(-478.256 -151.797)" fill="#468a7a"/>
    <path id="Tracé_2421" data-name="Tracé 2421" d="M760.949,347.57a3.669,3.669,0,0,0-.984,3.013,122.367,122.367,0,0,1,1.089,12.248,3.672,3.672,0,0,0,1.433,2.742l.52.411q2.916-2.436,5.733-5.093l-.006-.122-.021-.016q-.251-4.793-.853-9.56a127.555,127.555,0,0,0,9.29-12.559q-3.375-2.218-6.812-4.185a122.835,122.835,0,0,1-9.389,13.121" transform="translate(-485.63 -213.728)" fill="#468a7a"/>
    <path id="Tracé_2422" data-name="Tracé 2422" d="M669.731,227.868a117.1,117.1,0,0,0-13.28-18.522q.171-1.1.323-2.2-3.733.108-7.379.449-.191,1.6-.429,3.178a3.137,3.137,0,0,0,.714,2.61l0,0,.728.819h0l.115.13a109.547,109.547,0,0,1,12.5,17.407,108.4,108.4,0,0,1,9.246,20.719v0a2.623,2.623,0,0,0,.139.343l.038.072c.045.087.094.171.147.254l.045.067c.059.083.12.164.186.241l.036.042a3.52,3.52,0,0,0,1.692,1.023,114.169,114.169,0,0,1,15.515,7.577q2.3-3.024,4.462-6.257A118.151,118.151,0,0,0,679.15,248.6a116.067,116.067,0,0,0-9.418-20.728" transform="translate(-414.692 -132.376)" fill="#468a7a"/>
    <path id="Tracé_2423" data-name="Tracé 2423" d="M721.63,209.255l-.029.072-.006.013-.005.017a3.631,3.631,0,0,0-.12.352l-.026.093c-.024.094-.045.19-.064.286l-.019.119c-.013.088-.023.176-.03.266l-.009.12c0,.093,0,.186,0,.278l0,.1c.005.1.017.206.031.308,0,.022,0,.044.009.066a3.352,3.352,0,0,0,.077.352c0,.005,0,.012,0,.016a3.485,3.485,0,0,0,.28.71,121.016,121.016,0,0,1,5.172,11.144c.02.047.044.091.065.137.03.065.057.131.09.193a3.526,3.526,0,0,0,.656.879l.087.077c.061.056.123.113.188.165.041.031.086.062.127.092.058.042.114.084.173.123s.095.057.141.084c.062.036.124.073.189.106l.143.067c.07.033.14.064.212.092l.058.026,1.22.465q1.746-3.252,3.316-6.674l-.121-.29-.005,0q-1.857-4.429-4.04-8.713,2.028-4.877,3.69-10.041.516-1.6.993-3.228a3.953,3.953,0,0,0,.156-1.079v-.012c0-.121,0-.24-.013-.361l0-.048c-.009-.109-.024-.217-.043-.325l-.015-.09c-.019-.1-.041-.19-.066-.284l-.033-.122q-.04-.128-.086-.254c-.017-.047-.033-.095-.051-.141-.033-.08-.069-.158-.106-.236l-.069-.142c-.041-.08-.086-.157-.133-.234-.022-.036-.038-.073-.061-.108a141.405,141.405,0,0,0-8.221-11.66l-.052-.06c-.047-.057-.095-.113-.144-.167s-.091-.1-.138-.15l-.143-.137c-.054-.049-.107-.1-.162-.146l-.143-.114c-.06-.045-.12-.092-.182-.135s-.1-.065-.154-.1-.123-.079-.187-.115-.114-.059-.171-.088-.123-.063-.187-.09-.123-.051-.185-.075-.125-.049-.188-.069-.125-.038-.186-.055-.135-.037-.2-.053-.117-.023-.178-.033-.148-.026-.222-.034l-.07-.012-1.377-.129q-.371,3.871-.961,7.643,1.435,1.874,2.806,3.8l0,0q1.6,2.253,3.114,4.57-1.438,5.152-3.259,10.043-.548,1.473-1.129,2.923" transform="translate(-460.178 -115.204)" fill="#468a7a"/>
    <path id="Tracé_2424" data-name="Tracé 2424" d="M779.4,365.072c-.011-.073-.026-.146-.042-.218s-.027-.133-.044-.2l-.055-.191c-.021-.07-.043-.14-.067-.208l-.068-.17c-.029-.069-.056-.14-.088-.208s-.055-.109-.084-.162-.067-.13-.1-.193-.069-.108-.1-.162-.075-.117-.115-.172-.082-.105-.124-.156-.083-.105-.128-.155-.088-.095-.133-.141-.1-.1-.149-.148-.09-.079-.137-.118-.115-.1-.175-.141l-.057-.044-1.126-.8q-2.263,3.165-4.666,6.13.3,2.343.523,4.695h0q.258,2.753.4,5.515-3.829,3.735-7.853,7.059h0q-1.216,1-2.441,1.967l-.061.048-.011.009-.014.012c-.1.078-.191.16-.281.246l-.068.068c-.068.07-.136.141-.2.216l-.076.093c-.057.07-.11.143-.16.217l-.069.1c-.049.078-.095.158-.139.24l-.048.09c-.047.093-.088.187-.126.283-.008.021-.018.041-.027.061-.042.113-.078.227-.109.344,0,.005,0,.011-.005.016a3.487,3.487,0,0,0-.113.756,122.27,122.27,0,0,1-1.087,12.249c-.008.051-.008.1-.013.152-.007.071-.016.142-.019.213a3.53,3.53,0,0,0,.131,1.089l.037.11c.026.08.051.159.08.236.02.049.043.1.065.145.029.064.056.13.088.192s.053.1.08.144.072.124.11.185l.09.13c.044.063.088.125.138.186l.038.051.825,1.014q3.136-1.95,6.206-4.13l.04-.313,0,0q.6-4.766.854-9.568,4.193-3.21,8.219-6.846c.829-.751,1.657-1.515,2.475-2.294a3.928,3.928,0,0,0,.676-.855l.007-.01c.061-.1.117-.21.169-.318l.022-.044c.046-.1.086-.2.124-.3l.031-.084c.031-.093.06-.186.086-.28l.032-.121q.031-.13.054-.262c.008-.05.018-.1.025-.149.012-.085.02-.172.027-.258l.012-.157c.005-.09.005-.18,0-.269,0-.041,0-.082,0-.123a141.913,141.913,0,0,0-1.262-14.208c0-.026-.009-.051-.015-.077" transform="translate(-485.633 -231.004)" fill="#468a7a"/>
    <path id="Tracé_2425" data-name="Tracé 2425" d="M803.964,318.052h0q-.267-1.384-.556-2.762l-.013,0a4.826,4.826,0,0,0-1.927-2.995,135.522,135.522,0,0,0-16.933-9.886q-1.789,3.6-3.757,7.008a130.948,130.948,0,0,1,15.431,9.353,147.428,147.428,0,0,1,0,56.72q-1.006.707-2.02,1.393,2.187,3.464,4.2,7.128,1.359-.877,2.7-1.792a4.554,4.554,0,0,0,1.966-2.2,3.805,3.805,0,0,0,.338-1.025h0a155.175,155.175,0,0,0,.56-60.941" transform="translate(-498.955 -193.254)" fill="#468a7a"/>
  </g>
</svg>
