<svg id="ring4" xmlns="http://www.w3.org/2000/svg" width="311.759" height="311.757" viewBox="0 0 311.759 311.757">
  <path id="Tracé_2426" data-name="Tracé 2426" d="M709.834,439.242l-14.2-.63a99.517,99.517,0,0,1-1.2,11.656c.706-.408,1.4-.829,2.1-1.259a103.614,103.614,0,0,0,13.3-9.766" transform="translate(-440.514 -278.235)" fill="#468c7b"/>
  <path id="Tracé_2427" data-name="Tracé 2427" d="M805.554,460.872a149.09,149.09,0,0,0,1.8-17.393l-14.2-.63A129.727,129.727,0,0,1,804.045,458.3q.765,1.271,1.509,2.569" transform="translate(-503.14 -280.923)" fill="#468c7b"/>
  <path id="Tracé_2428" data-name="Tracé 2428" d="M722.661,606.593q-5.156,1.825-10.3,3.183-1.82.481-3.634.9-.188-1.852-.427-3.681-.268-2.06-.6-4.086-.3-1.8-.643-3.572,1.745-.472,3.489-1,1.219-.369,2.438-.767-.68-3.16-1.509-6.223a129.632,129.632,0,0,1-16.03,23.6q1.375-.157,2.756-.346,5.086-.7,10.249-1.847,1.825-.408,3.657-.872.182,1.882.306,3.786.143,2.143.218,4.317.066,1.929.078,3.878-1.906.409-3.8.759-1.327.245-2.647.462-.049,3.369-.271,6.793a148.9,148.9,0,0,0,19.473-26.313q-1.4.529-2.8,1.025" transform="translate(-441.156 -375.124)" fill="#468c7b"/>
  <path id="Tracé_2429" data-name="Tracé 2429" d="M681.569,487.692q-.81-1.391-1.654-2.743,1.487-.571,2.971-1.2,1.671-.705,3.333-1.478,1.475-.687,2.945-1.428.91,1.371,1.784,2.784,2.472,3.992,4.643,8.313.587,1.173,1.153,2.368.684-1.853,1.3-3.728A117.751,117.751,0,0,0,703,468.944q-2.422,1.826-4.9,3.487.712.945,1.408,1.912,1,1.382,1.962,2.813-1.447.935-2.907,1.818-1.644.992-3.3,1.917-1.473.822-2.956,1.586-.892-1.411-1.817-2.779-2.617-3.866-5.492-7.376c-.518-.635-1.046-1.261-1.576-1.878a98.437,98.437,0,0,1-6.1,21.007q2.679-.812,5.357-1.795-.546-.992-1.11-1.964" transform="translate(-429.661 -297.476)" fill="#468c7b"/>
  <path id="Tracé_2430" data-name="Tracé 2430" d="M780.974,483.217q-4.2,3.509-8.552,6.574-1.54,1.086-3.095,2.115-.819-1.674-1.678-3.308-.967-1.839-1.986-3.624-.9-1.585-1.844-3.126,1.469-1.049,2.921-2.153,1.015-.77,2.019-1.567-1.736-2.726-3.58-5.31a128.641,128.641,0,0,1-5.407,23.639q-.681,2.049-1.425,4.073,1.235-.622,2.465-1.281,4.529-2.42,8.975-5.295,1.571-1.018,3.128-2.092.822,1.7,1.6,3.448.878,1.964,1.7,3.979.732,1.789,1.417,3.616-1.647,1.047-3.308,2.036-1.157.692-2.322,1.353,1.118,3.183,2.093,6.476a147.518,147.518,0,0,0,9.144-31.487q-1.127.983-2.266,1.935" transform="translate(-481.062 -299.934)" fill="#468c7b"/>
  <path id="Tracé_2431" data-name="Tracé 2431" d="M630.979,578.225q-.275-1.588-.6-3.151,1.6-.021,3.205-.1,1.812-.083,3.643-.234,1.624-.132,3.26-.319.376,1.6.7,3.233.93,4.605,1.465,9.414.146,1.3.261,2.622a118.744,118.744,0,0,0,14.685-21.624q-2.906.869-5.8,1.566c.225.754.445,1.517.654,2.282q.454,1.644.859,3.32-1.681.376-3.358.7-1.887.36-3.764.651-1.667.256-3.324.46-.344-1.633-.735-3.239-1.108-4.537-2.58-8.833-.4-1.164-.823-2.31a99.742,99.742,0,0,1-13.047,17.628q2.8.16,5.655.164-.166-1.122-.359-2.231" transform="translate(-396.904 -356.928)" fill="#468c7b"/>
  <path id="Tracé_2432" data-name="Tracé 2432" d="M627.827,707.569q-5.466-.065-10.765-.563-1.874-.176-3.723-.4.462-1.8.869-3.6.457-2.026.842-4.043.342-1.791.627-3.574,1.8.156,3.618.263,1.271.073,2.552.122.451-3.2.73-6.361A129.752,129.752,0,0,1,599.4,706.038q1.344.327,2.706.625,5.016,1.095,10.26,1.8,1.854.245,3.734.44-.478,1.828-1.017,3.66-.6,2.062-1.284,4.129-.6,1.835-1.266,3.669-1.932-.273-3.835-.6-1.33-.228-2.644-.478-1.211,3.148-2.6,6.285A148.6,148.6,0,0,0,630.8,707.571q-1.493.015-2.977,0" transform="translate(-380.229 -437.326)" fill="#468c7b"/>
  <path id="Tracé_2433" data-name="Tracé 2433" d="M450.057,725.664a107.848,107.848,0,0,1-10.632-9.643l.552,12.424a119.184,119.184,0,0,0,12.163-1.167q-1.055-.8-2.082-1.613" transform="translate(-278.751 -454.21)" fill="#468c7b"/>
  <path id="Tracé_2434" data-name="Tracé 2434" d="M453.77,778.379q.894-1.069,1.757-2.15a129.987,129.987,0,0,1-13.274,1.272l.551,12.423a127.941,127.941,0,0,0,10.966-11.546" transform="translate(-280.545 -492.403)" fill="#468c7b"/>
  <path id="Tracé_2435" data-name="Tracé 2435" d="M463.511,689.49q.822-1.384,1.591-2.781,1.224,1.02,2.494,2.011,1.429,1.114,2.916,2.189,1.319.953,2.682,1.875-.752,1.465-1.56,2.915-2.28,4.1-5,8.107-.737,1.085-1.505,2.161,3.384-.533,6.732-1.263,2.39-.523,4.758-1.142a117.614,117.614,0,0,0,13.707-4.507q-2.775-1.221-5.432-2.573-.476,1.082-.98,2.161-.721,1.545-1.5,3.084-1.523-.807-3.006-1.651-1.669-.951-3.284-1.949-1.435-.886-2.826-1.808.8-1.466,1.541-2.94,2.1-4.169,3.76-8.391c.3-.762.591-1.527.87-2.29a98.579,98.579,0,0,1-21.323,4.92q2.021,1.943,4.187,3.8.6-.963,1.174-1.928" transform="translate(-290.63 -433.071)" fill="#468c7b"/>
  <path id="Tracé_2436" data-name="Tracé 2436" d="M484.04,761.238q-3.655.795-7.351,1.38,1.146.773,2.32,1.527,4.323,2.774,9,5.252,1.654.875,3.35,1.711-1.085,1.548-2.228,3.079-1.286,1.724-2.644,3.425-1.2,1.512-2.466,3-1.717-.926-3.389-1.894-1.167-.675-2.313-1.369-2.23,2.528-4.626,4.986a147.712,147.712,0,0,0,31.94-7.373q-1.41-.505-2.8-1.034-5.113-1.953-9.913-4.26-1.7-.817-3.354-1.671,1.062-1.532,2.069-3.078,1.133-1.742,2.2-3.5.943-1.563,1.83-3.135,1.632.771,3.3,1.5,1.168.511,2.354,1,1.533-2.845,2.889-5.716a128.463,128.463,0,0,1-14.974,4.924q-2.586.679-5.2,1.248" transform="translate(-300.488 -478.979)" fill="#468c7b"/>
  <path id="Tracé_2437" data-name="Tracé 2437" d="M555.132,647.556q.287-1.585.523-3.162,1.5.53,3.04,1.016,1.73.546,3.5,1.036,1.569.435,3.169.824-.2,1.633-.452,3.277-.714,4.643-1.867,9.342-.314,1.272-.658,2.55A118.89,118.89,0,0,0,583.626,647.2q-3.029-.187-5.991-.531-.073,1.181-.172,2.368-.142,1.7-.338,3.413-1.708-.227-3.392-.5-1.9-.312-3.759-.686-1.654-.332-3.28-.711.24-1.653.426-3.3.524-4.641.624-9.182.028-1.232.026-2.453a99.483,99.483,0,0,1-18.313,12.046q2.568,1.12,5.246,2.107c.152-.738.3-1.478.43-2.215" transform="translate(-348.549 -403.206)" fill="#468c7b"/>
  <path id="Tracé_2438" data-name="Tracé 2438" d="M426.309,518.254a91.835,91.835,0,0,0,91.931-90.439l.014-1.5h63.935c0,.84-.006,1.682-.021,2.522A155.745,155.745,0,0,1,426.309,582.189Zm1.983,29.992a122.242,122.242,0,0,0,24.115-2.781q2.462-.539,4.9-1.175a121.118,121.118,0,0,0,21.888-8.059,108.977,108.977,0,0,1-16.15-7.02q-1.077,2.6-2.316,5.19-1.661-.925-3.269-1.9,2.081-4.23,3.722-8.51a106.93,106.93,0,0,0,23.005,9.689l.442-.24a122.43,122.43,0,0,0,29.32-22.327,110.5,110.5,0,0,1-17.591-.993q-.112,2.816-.377,5.674-1.88-.29-3.728-.643.488-4.689.549-9.28A108.426,108.426,0,0,0,517.755,507l.333-.378a122.079,122.079,0,0,0,19.823-31.064h0a109.581,109.581,0,0,1-16.847,5.133q.865,2.681,1.6,5.455-1.866.375-3.721.679-1.158-4.571-2.685-8.9a107.4,107.4,0,0,0,23.8-7.547l.5-1.31q.823-2.2,1.563-4.435a121.505,121.505,0,0,0,5.91-30.737,109.7,109.7,0,0,1-14.011,10.676q1.747,2.211,3.4,4.555-1.618,1-3.252,1.929-2.677-3.88-5.613-7.4a107.941,107.941,0,0,0,19.691-15.359l-26.087-.416a96.05,96.05,0,0,1-2.706,21.224,95.024,95.024,0,0,1-7.349,20.033,99.581,99.581,0,0,0,15.952-4.8q-1.3-2.493-2.707-4.869,1.694-.7,3.38-1.463,2.41,3.974,4.517,8.272a101.643,101.643,0,0,1-23.2,6.751,96.416,96.416,0,0,1-18.1,23.155,100.784,100.784,0,0,0,16.646.992q-.352-2.79-.846-5.511,1.833-.069,3.681-.2.875,4.565,1.362,9.332a102.615,102.615,0,0,1-24.128-1.66,95.928,95.928,0,0,1-24.945,15.479,99.028,99.028,0,0,0,15.259,6.689q.629-2.739,1.1-5.464,1.743.568,3.525,1.079-.75,4.586-1.935,9.228a101.132,101.132,0,0,1-22.037-9.908,95.369,95.369,0,0,1-28.746,5.833,101.255,101.255,0,0,0,12,11.577q1.543-2.351,2.932-4.738,1.435,1.138,2.927,2.237-2.295,4.042-5.022,7.978A104.2,104.2,0,0,1,427.9,523.937Zm.062,3.918.387,24.309a132.891,132.891,0,0,0,17.938-18.01q4.335,2.849,9.028,5.41-1.294,1.691-2.658,3.359-2.831-1.59-5.532-3.292A136.038,136.038,0,0,1,433.5,578.1a151.514,151.514,0,0,0,45.627-9.271,131.093,131.093,0,0,0,12.045-25.588q5.057,1.166,10.344,1.933-.624,2.035-1.32,4.072-3.207-.508-6.333-1.162a133.656,133.656,0,0,1-8.235,18.164,152.073,152.073,0,0,0,39.544-24.532,132.708,132.708,0,0,0,2.437-28.152q5.147-.649,10.374-1.748.116,2.125.165,4.276-3.185.626-6.342,1.09a135.008,135.008,0,0,1-1.442,19.873A152.505,152.505,0,0,0,559,500.414a131.757,131.757,0,0,0-7.426-27.287q4.6-2.4,9.127-5.246.845,1.955,1.636,3.959-2.769,1.7-5.574,3.227a133.954,133.954,0,0,1,5.506,19.17,151.391,151.391,0,0,0,15.978-65.468l-26.087-.416a125.656,125.656,0,0,1,16.283,22.005q-4.115,3.522-8.39,6.607-1-1.846-2.047-3.637,2.512-1.866,4.972-3.889a122.939,122.939,0,0,0-11.041-15.306,125.421,125.421,0,0,1-6.1,31.728q-.763,2.3-1.614,4.578l-.515,1.354a125.1,125.1,0,0,1,7.612,26.3q-5.085,1.869-10.161,3.271-.3-2.077-.656-4.12,3-.874,6.014-1.914a122.732,122.732,0,0,0-5.025-18.193A126,126,0,0,1,521.035,509.2l-.344.389a126.091,126.091,0,0,1-1.928,27.3q-5.413,0-10.663-.433.439-2.051.8-4.095,3.121.217,6.3.279a123.9,123.9,0,0,0,1.557-18.806,126.317,126.317,0,0,1-30.259,23.041l-.457.248a124.63,124.63,0,0,1-11.266,24.96q-5.084-1.872-9.862-4.1,1.125-1.774,2.178-3.562,2.855,1.283,5.82,2.444a122.287,122.287,0,0,0,7.977-17.11,124.966,124.966,0,0,1-22.6,8.319q-2.516.66-5.058,1.213a126.146,126.146,0,0,1-24.887,2.872" transform="translate(-270.431 -270.432)" fill="#468c7b"/>
  <path id="Tracé_2439" data-name="Tracé 2439" d="M393.155,709.833l.63-14.2a99.906,99.906,0,0,1-11.656-1.2c.409.7.829,1.4,1.259,2.1a103.5,103.5,0,0,0,9.766,13.3" transform="translate(-242.405 -440.514)" fill="#468c7b"/>
  <path id="Tracé_2440" data-name="Tracé 2440" d="M360.479,805.552a149.2,149.2,0,0,0,17.393,1.8l.63-14.2a129.777,129.777,0,0,1-15.454,10.892q-1.27.765-2.569,1.509" transform="translate(-228.671 -503.139)" fill="#468c7b"/>
  <path id="Tracé_2441" data-name="Tracé 2441" d="M175.708,722.661q-1.826-5.156-3.183-10.3-.481-1.82-.9-3.634,1.854-.188,3.682-.426,2.059-.27,4.086-.6,1.8-.3,3.572-.642.472,1.743,1,3.488.369,1.22.767,2.438,3.159-.68,6.223-1.509a129.642,129.642,0,0,1-23.6-16.029q.157,1.374.346,2.755.7,5.086,1.848,10.25.408,1.825.872,3.657-1.881.18-3.786.306-2.145.142-4.317.217-1.929.067-3.879.078-.408-1.905-.758-3.8-.245-1.325-.461-2.646-3.37-.05-6.794-.271a148.9,148.9,0,0,0,26.313,19.472q-.529-1.4-1.025-2.8" transform="translate(-95.419 -441.156)" fill="#468c7b"/>
  <path id="Tracé_2442" data-name="Tracé 2442" d="M320.916,681.567q1.392-.807,2.743-1.653.571,1.487,1.2,2.972.7,1.67,1.478,3.333.687,1.476,1.428,2.945-1.37.91-2.784,1.784-3.992,2.471-8.314,4.642-1.173.589-2.368,1.154,1.852.683,3.727,1.3A117.762,117.762,0,0,0,339.665,703q-1.827-2.422-3.488-4.9-.944.714-1.91,1.409-1.384,1-2.813,1.961-.937-1.447-1.819-2.907-.993-1.644-1.917-3.3-.821-1.473-1.586-2.956,1.411-.891,2.779-1.817,3.865-2.616,7.376-5.491c.635-.518,1.261-1.046,1.877-1.575a98.4,98.4,0,0,1-21.007-6.1q.813,2.679,1.795,5.358.992-.547,1.964-1.111" transform="translate(-199.375 -429.66)" fill="#468c7b"/>
  <path id="Tracé_2443" data-name="Tracé 2443" d="M300.092,780.974q-3.507-4.2-6.574-8.553-1.085-1.539-2.114-3.094,1.675-.819,3.308-1.678,1.84-.966,3.624-1.986,1.586-.9,3.126-1.843,1.049,1.469,2.153,2.92.77,1.016,1.568,2.02,2.725-1.734,5.31-3.579a128.629,128.629,0,0,1-23.64-5.409q-2.047-.678-4.073-1.423.624,1.235,1.282,2.464,2.421,4.53,5.3,8.975,1.019,1.571,2.092,3.128-1.7.822-3.447,1.6-1.964.877-3.979,1.7-1.789.731-3.616,1.416-1.046-1.648-2.036-3.308-.691-1.158-1.353-2.323-3.183,1.118-6.477,2.094a147.622,147.622,0,0,0,31.488,9.143q-.983-1.128-1.936-2.266" transform="translate(-171.617 -481.061)" fill="#468c7b"/>
  <path id="Tracé_2444" data-name="Tracé 2444" d="M227.5,630.978q1.588-.275,3.151-.6.021,1.6.1,3.206.083,1.812.233,3.642.133,1.625.319,3.26-1.6.376-3.233.7-4.6.928-9.414,1.465-1.3.144-2.622.261A118.765,118.765,0,0,0,237.652,657.6q-.868-2.905-1.565-5.8-1.133.338-2.282.655-1.644.454-3.32.859-.375-1.681-.7-3.358-.36-1.886-.65-3.764-.257-1.668-.461-3.324,1.634-.345,3.24-.736,4.536-1.107,8.832-2.58,1.164-.4,2.309-.823a99.747,99.747,0,0,1-17.628-13.046q-.161,2.8-.163,5.655,1.121-.167,2.23-.359" transform="translate(-137.039 -396.903)" fill="#468c7b"/>
  <path id="Tracé_2445" data-name="Tracé 2445" d="M82.313,627.824q.066-5.466.563-10.764.176-1.875.4-3.724,1.805.463,3.6.87,2.027.456,4.044.841,1.791.341,3.574.627-.157,1.8-.263,3.618-.073,1.27-.121,2.552,3.2.451,6.361.729a129.715,129.715,0,0,1-16.634-23.182c-.219.9-.425,1.8-.625,2.706q-1.1,5.017-1.8,10.261-.246,1.854-.441,3.734-1.828-.478-3.66-1.016-2.063-.606-4.129-1.285-1.835-.6-3.669-1.266.273-1.932.6-3.835.228-1.331.479-2.644-3.148-1.211-6.286-2.6a148.616,148.616,0,0,0,18,27.358q-.015-1.494,0-2.978" transform="translate(-40.799 -380.226)" fill="#468c7b"/>
  <path id="Tracé_2446" data-name="Tracé 2446" d="M105.4,450.058a107.85,107.85,0,0,1,9.644-10.632l-12.423.551a119.05,119.05,0,0,0,1.166,12.163q.8-1.055,1.613-2.083" transform="translate(-65.1 -278.751)" fill="#468c7b"/>
  <path id="Tracé_2447" data-name="Tracé 2447" d="M50.48,453.769q1.07.9,2.15,1.757a129.983,129.983,0,0,1-1.273-13.274l-12.423.551A127.973,127.973,0,0,0,50.48,453.769" transform="translate(-24.698 -280.544)" fill="#468c7b"/>
  <path id="Tracé_2448" data-name="Tracé 2448" d="M122.757,463.511q1.384.823,2.783,1.591-1.02,1.224-2.011,2.494-1.115,1.43-2.19,2.916-.954,1.32-1.875,2.683-1.463-.754-2.914-1.56-4.1-2.282-8.107-5-1.086-.736-2.162-1.505.533,3.384,1.263,6.731.523,2.391,1.142,4.758a117.506,117.506,0,0,0,4.507,13.706q1.223-2.774,2.574-5.432-1.082-.476-2.161-.979-1.546-.722-3.084-1.5.807-1.522,1.651-3,.951-1.668,1.949-3.285.887-1.434,1.808-2.826,1.466.8,2.941,1.541,4.169,2.1,8.391,3.759c.762.3,1.527.592,2.29.871a98.614,98.614,0,0,1-4.921-21.323q-1.943,2.022-3.8,4.187.962.6,1.928,1.173" transform="translate(-67.419 -290.63)" fill="#468c7b"/>
  <path id="Tracé_2449" data-name="Tracé 2449" d="M44.073,484.039q-.8-3.656-1.38-7.352-.774,1.147-1.527,2.319-2.774,4.324-5.253,9-.875,1.654-1.711,3.351-1.549-1.087-3.079-2.228-1.724-1.287-3.425-2.644-1.512-1.205-3-2.466.927-1.717,1.895-3.388.675-1.167,1.369-2.312-2.528-2.231-4.987-4.627a147.742,147.742,0,0,0,7.373,31.941c.337-.941.679-1.872,1.034-2.8q1.953-5.111,4.26-9.912.816-1.7,1.672-3.354,1.531,1.063,3.078,2.07,1.741,1.133,3.5,2.2,1.561.942,3.134,1.83-.771,1.632-1.5,3.3-.51,1.168-1,2.354,2.844,1.533,5.715,2.89a128.568,128.568,0,0,1-4.923-14.974q-.679-2.586-1.247-5.2" transform="translate(-14.574 -300.488)" fill="#468c7b"/>
  <path id="Tracé_2450" data-name="Tracé 2450" d="M158.534,555.13q1.585.289,3.163.524-.531,1.5-1.016,3.04-.547,1.729-1.037,3.5-.434,1.571-.823,3.171-1.634-.2-3.277-.452-4.643-.715-9.341-1.868c-.848-.209-1.7-.428-2.55-.658a118.875,118.875,0,0,0,15.239,21.237q.186-3.029.531-5.991-1.181-.072-2.368-.171-1.7-.142-3.413-.339.227-1.708.5-3.391.312-1.9.686-3.759.332-1.655.711-3.28,1.653.239,3.3.425,4.64.524,9.182.624,1.231.028,2.453.026a99.448,99.448,0,0,1-12.047-18.313q-1.118,2.57-2.107,5.245,1.108.229,2.215.43" transform="translate(-91.126 -348.548)" fill="#468c7b"/>
  <path id="Tracé_2451" data-name="Tracé 2451" d="M63.936,426.31a91.836,91.836,0,0,0,90.439,91.93l1.5.013v63.936c-.84,0-1.681-.006-2.523-.021A155.746,155.746,0,0,1,0,426.31Zm-29.993,1.982a122.29,122.29,0,0,0,2.782,24.116q.539,2.459,1.176,4.9A121.114,121.114,0,0,0,45.959,479.2a109.027,109.027,0,0,1,7.021-16.151q-2.6-1.078-5.19-2.316.925-1.661,1.9-3.27,4.229,2.081,8.51,3.723a106.937,106.937,0,0,0-9.689,23l.24.442a122.419,122.419,0,0,0,22.326,29.319,110.482,110.482,0,0,1,.993-17.59q-2.817-.113-5.674-.378.29-1.88.643-3.727,4.689.487,9.28.548a108.388,108.388,0,0,0-1.126,24.952l.378.332a122.055,122.055,0,0,0,31.064,19.823,109.583,109.583,0,0,1-5.132-16.848q-2.681.866-5.455,1.6-.374-1.865-.679-3.72,4.57-1.159,8.9-2.684a107.372,107.372,0,0,0,7.547,23.8l1.31.5q2.2.824,4.435,1.564a121.472,121.472,0,0,0,30.737,5.91,109.706,109.706,0,0,1-10.677-14.011q-2.212,1.747-4.555,3.4-1-1.617-1.929-3.251,3.879-2.677,7.4-5.614a107.918,107.918,0,0,0,15.36,19.691l.416-26.086a96,96,0,0,1-21.224-2.706,94.989,94.989,0,0,1-20.034-7.348,99.58,99.58,0,0,0,4.8,15.952q2.492-1.3,4.869-2.706.7,1.693,1.463,3.381-3.974,2.409-8.273,4.516a101.668,101.668,0,0,1-6.751-23.2,96.4,96.4,0,0,1-23.154-18.1,100.67,100.67,0,0,0-.991,16.646q2.789-.351,5.511-.846.068,1.834.2,3.682-4.566.875-9.332,1.362a102.652,102.652,0,0,1,1.66-24.128,95.926,95.926,0,0,1-15.48-24.945,99.269,99.269,0,0,0-6.688,15.259q2.739.63,5.464,1.1-.568,1.742-1.079,3.525-4.588-.75-9.229-1.935a101.128,101.128,0,0,1,9.909-22.037,95.388,95.388,0,0,1-5.834-28.747,101.369,101.369,0,0,0-11.576,12q2.351,1.543,4.739,2.932-1.139,1.434-2.238,2.927-4.042-2.3-7.978-5.022A104.232,104.232,0,0,1,58.252,427.9Zm-3.918.062-24.309.387A132.858,132.858,0,0,0,23.728,446.68q-2.849,4.334-5.41,9.028-1.691-1.294-3.359-2.658,1.59-2.83,3.292-5.533A135.859,135.859,0,0,1,4.088,433.5a151.515,151.515,0,0,0,9.271,45.627,131.207,131.207,0,0,0,25.588,12.044q-1.165,5.056-1.932,10.344-2.035-.624-4.072-1.321.507-3.207,1.162-6.332a133.663,133.663,0,0,1-18.163-8.237A152.059,152.059,0,0,0,40.471,525.17a132.737,132.737,0,0,0,28.152,2.437q.648,5.147,1.747,10.374-2.125.117-4.276.165-.627-3.185-1.089-6.342a134.991,134.991,0,0,1-19.874-1.441A152.52,152.52,0,0,0,81.775,559a131.708,131.708,0,0,0,27.287-7.426q2.4,4.6,5.246,9.127-1.955.846-3.959,1.637-1.7-2.77-3.227-5.574a134.146,134.146,0,0,1-19.17,5.507,151.362,151.362,0,0,0,65.467,15.977l.416-26.086a125.551,125.551,0,0,1-22,16.282q-3.522-4.115-6.607-8.389,1.846-1,3.637-2.047,1.866,2.511,3.889,4.971a123,123,0,0,0,15.306-11.04,125.419,125.419,0,0,1-31.728-6.1q-2.3-.763-4.579-1.614l-1.353-.515a125.073,125.073,0,0,1-26.3,7.612q-1.868-5.084-3.272-10.161,2.078-.3,4.121-.656.874,3,1.914,6.014a122.8,122.8,0,0,0,18.194-5.026,126.019,126.019,0,0,1-32.062-20.459l-.39-.343a126.13,126.13,0,0,1-27.3-1.928q0-5.415.433-10.663,2.052.438,4.095.8-.216,3.121-.278,6.3a123.791,123.791,0,0,0,18.805,1.558,126.341,126.341,0,0,1-23.041-30.259l-.248-.456A124.6,124.6,0,0,1,20.1,474.783q1.873-5.084,4.1-9.862,1.773,1.126,3.561,2.179-1.283,2.853-2.444,5.82A122.4,122.4,0,0,0,42.43,480.9a125.077,125.077,0,0,1-8.319-22.6q-.66-2.514-1.214-5.057a126.206,126.206,0,0,1-2.872-24.888" transform="translate(0 -270.431)" fill="#468c7b"/>
  <path id="Tracé_2452" data-name="Tracé 2452" d="M116.064,393.155l14.2.63a99.838,99.838,0,0,1,1.2-11.656c-.7.409-1.4.829-2.1,1.26a103.52,103.52,0,0,0-13.3,9.766" transform="translate(-73.626 -242.405)" fill="#468c7b"/>
  <path id="Tracé_2453" data-name="Tracé 2453" d="M22.435,360.479a148.973,148.973,0,0,0-1.8,17.393l14.2.63a129.685,129.685,0,0,1-10.893-15.454c-.509-.847-1.014-1.7-1.508-2.569" transform="translate(-13.091 -228.671)" fill="#468c7b"/>
  <path id="Tracé_2454" data-name="Tracé 2454" d="M77.885,175.707q5.156-1.824,10.3-3.182,1.82-.48,3.635-.9.187,1.853.426,3.681.269,2.061.6,4.086.3,1.8.642,3.572-1.743.471-3.488,1-1.219.369-2.438.766.679,3.159,1.508,6.224a129.665,129.665,0,0,1,16.03-23.6q-1.374.158-2.755.346-5.087.7-10.249,1.848-1.826.406-3.658.871-.181-1.881-.306-3.785-.142-2.143-.217-4.317-.066-1.93-.079-3.879,1.907-.409,3.8-.759c.884-.162,1.765-.317,2.646-.46q.049-3.371.271-6.794a148.925,148.925,0,0,0-19.473,26.313q1.4-.529,2.8-1.025" transform="translate(-47.632 -95.419)" fill="#468c7b"/>
  <path id="Tracé_2455" data-name="Tracé 2455" d="M126.508,320.916q.807,1.391,1.653,2.744-1.487.57-2.972,1.195-1.67.705-3.333,1.478-1.476.687-2.946,1.428-.909-1.37-1.783-2.784-2.471-3.993-4.643-8.313-.587-1.173-1.152-2.368-.684,1.852-1.3,3.727a117.748,117.748,0,0,0-4.95,21.641q2.423-1.826,4.9-3.488-.713-.944-1.409-1.91-1-1.383-1.961-2.813,1.446-.937,2.907-1.819,1.644-.993,3.3-1.917,1.474-.82,2.957-1.586.891,1.412,1.816,2.78,2.616,3.864,5.492,7.375c.518.635,1.045,1.261,1.575,1.878a98.443,98.443,0,0,1,6.1-21.008q-2.679.814-5.358,1.8.547.991,1.111,1.964" transform="translate(-66.657 -199.375)" fill="#468c7b"/>
  <path id="Tracé_2456" data-name="Tracé 2456" d="M28.462,300.091q4.2-3.509,8.552-6.575,1.541-1.084,3.1-2.114.819,1.674,1.678,3.308.966,1.839,1.985,3.625.9,1.585,1.844,3.126-1.47,1.049-2.921,2.152-1.015.771-2.019,1.568,1.734,2.726,3.58,5.31a128.625,128.625,0,0,1,5.407-23.639q.68-2.048,1.424-4.073-1.236.624-2.464,1.281-4.531,2.421-8.975,5.3-1.57,1.016-3.128,2.091-.822-1.7-1.6-3.447-.878-1.965-1.7-3.979-.732-1.789-1.415-3.617,1.647-1.046,3.307-2.036,1.158-.691,2.323-1.353-1.119-3.184-2.093-6.477A147.565,147.565,0,0,0,26.2,302.027q1.128-.985,2.266-1.936" transform="translate(-16.617 -171.617)" fill="#468c7b"/>
  <path id="Tracé_2457" data-name="Tracé 2457" d="M166.26,227.5q.274,1.588.6,3.152-1.6.021-3.2.1-1.813.084-3.642.234-1.625.133-3.26.319-.377-1.6-.7-3.232-.929-4.607-1.465-9.415-.145-1.3-.261-2.621a118.77,118.77,0,0,0-14.685,21.623q2.907-.87,5.805-1.566-.338-1.133-.655-2.282-.454-1.644-.86-3.319,1.683-.375,3.358-.7,1.888-.361,3.764-.651,1.667-.257,3.325-.46.344,1.633.736,3.239,1.107,4.535,2.579,8.832.4,1.164.823,2.31a99.7,99.7,0,0,1,13.047-17.628q-2.8-.16-5.655-.163.167,1.121.359,2.23" transform="translate(-88.577 -137.039)" fill="#468c7b"/>
  <path id="Tracé_2458" data-name="Tracé 2458" d="M170.3,82.314q5.467.065,10.764.563,1.874.174,3.723.4-.462,1.8-.868,3.6-.456,2.026-.842,4.043-.341,1.791-.627,3.574-1.8-.157-3.618-.263-1.271-.072-2.552-.121-.451,3.2-.73,6.361a129.725,129.725,0,0,1,23.182-16.634q-1.345-.327-2.706-.625-5.016-1.1-10.26-1.8-1.854-.246-3.734-.441.479-1.828,1.016-3.659.605-2.063,1.285-4.13.6-1.835,1.266-3.669,1.931.274,3.835.6,1.329.227,2.644.478,1.21-3.147,2.6-6.285a148.6,148.6,0,0,0-27.358,17.995q1.494-.014,2.978,0" transform="translate(-106.143 -40.799)" fill="#468c7b"/>
  <path id="Tracé_2459" data-name="Tracé 2459" d="M380.5,105.4a107.9,107.9,0,0,1,10.632,9.643l-.552-12.423a119.075,119.075,0,0,0-12.163,1.167q1.055.8,2.083,1.613" transform="translate(-240.052 -65.099)" fill="#468c7b"/>
  <path id="Tracé_2460" data-name="Tracé 2460" d="M375.82,50.481q-.894,1.068-1.757,2.15a129.789,129.789,0,0,1,13.274-1.274l-.551-12.423A127.79,127.79,0,0,0,375.82,50.481" transform="translate(-237.288 -24.698)" fill="#468c7b"/>
  <path id="Tracé_2461" data-name="Tracé 2461" d="M333.282,122.756q-.822,1.384-1.59,2.783-1.225-1.021-2.494-2.012-1.43-1.115-2.917-2.189-1.319-.953-2.683-1.876.752-1.464,1.561-2.914,2.281-4.1,5-8.107.737-1.087,1.505-2.162-3.383.533-6.731,1.263-2.39.523-4.759,1.142a117.688,117.688,0,0,0-13.706,4.507q2.775,1.221,5.432,2.574.477-1.083.981-2.162.721-1.545,1.5-3.084,1.523.807,3,1.651,1.669.952,3.285,1.949,1.434.886,2.826,1.808-.8,1.466-1.541,2.94-2.1,4.17-3.76,8.391c-.3.761-.59,1.527-.87,2.29a98.567,98.567,0,0,1,21.323-4.92q-2.022-1.943-4.187-3.8-.6.963-1.174,1.928" transform="translate(-194.406 -67.418)" fill="#468c7b"/>
  <path id="Tracé_2462" data-name="Tracé 2462" d="M313.167,44.073q3.655-.795,7.351-1.38-1.146-.774-2.32-1.527-4.322-2.774-9-5.252-1.654-.875-3.351-1.712,1.086-1.549,2.228-3.079,1.287-1.723,2.644-3.425,1.2-1.511,2.466-3,1.717.926,3.389,1.895,1.167.674,2.312,1.369,2.23-2.528,4.627-4.986a147.711,147.711,0,0,0-31.94,7.373q1.41.505,2.8,1.034,5.112,1.953,9.912,4.261,1.7.816,3.354,1.671-1.062,1.531-2.069,3.077-1.134,1.741-2.2,3.5-.943,1.563-1.83,3.134-1.633-.771-3.3-1.5-1.168-.511-2.354-1-1.532,2.845-2.889,5.715a128.648,128.648,0,0,1,14.974-4.923q2.586-.678,5.2-1.248" transform="translate(-184.961 -14.575)" fill="#468c7b"/>
  <path id="Tracé_2463" data-name="Tracé 2463" d="M238.21,158.534q-.289,1.585-.524,3.163-1.5-.53-3.04-1.016-1.73-.546-3.5-1.037-1.571-.434-3.171-.823.2-1.635.452-3.278.715-4.643,1.867-9.341c.21-.848.428-1.7.659-2.55a118.79,118.79,0,0,0-21.237,15.239q3.028.185,5.99.53.073-1.181.172-2.368.141-1.7.337-3.413,1.709.228,3.392.5,1.9.312,3.76.686,1.654.331,3.28.711-.24,1.654-.426,3.3-.524,4.641-.624,9.182-.028,1.231-.025,2.453a99.464,99.464,0,0,1,18.313-12.047q-2.569-1.119-5.245-2.108-.229,1.109-.43,2.216" transform="translate(-133.034 -91.126)" fill="#468c7b"/>
  <path id="Tracé_2464" data-name="Tracé 2464" d="M155.878,63.935a91.838,91.838,0,0,0-91.931,90.439l-.012,1.5H0c0-.841.007-1.682.02-2.523A155.744,155.744,0,0,1,155.878,0ZM153.9,33.943a122.3,122.3,0,0,0-24.115,2.782q-2.462.539-4.9,1.176a121.08,121.08,0,0,0-21.888,8.058,109.071,109.071,0,0,1,16.15,7.02q1.078-2.6,2.316-5.19,1.661.925,3.269,1.9-2.081,4.229-3.722,8.51A106.987,106.987,0,0,0,98,48.509l-.442.239A122.4,122.4,0,0,0,68.24,71.076a110.489,110.489,0,0,1,17.59.993q.113-2.816.377-5.673,1.88.29,3.728.643-.488,4.689-.55,9.28a108.426,108.426,0,0,0-24.951-1.126l-.333.378a122.087,122.087,0,0,0-19.823,31.064h0A109.568,109.568,0,0,1,61.126,101.5q-.865-2.683-1.6-5.455,1.865-.375,3.72-.68,1.159,4.57,2.685,8.9a107.451,107.451,0,0,0-23.8,7.547l-.5,1.31q-.824,2.2-1.563,4.436a121.483,121.483,0,0,0-5.91,30.736A109.694,109.694,0,0,1,48.17,137.618q-1.747-2.211-3.4-4.556,1.618-1,3.252-1.928,2.677,3.878,5.613,7.4A107.869,107.869,0,0,0,33.943,153.9l26.087.415a96.037,96.037,0,0,1,2.705-21.224,94.978,94.978,0,0,1,7.349-20.034,99.616,99.616,0,0,0-15.952,4.8q1.3,2.493,2.707,4.869-1.694.7-3.381,1.463-2.409-3.975-4.516-8.273a101.68,101.68,0,0,1,23.2-6.751,96.433,96.433,0,0,1,18.1-23.154A100.788,100.788,0,0,0,73.6,85.018q.352,2.789.846,5.51-1.832.07-3.681.2Q69.888,86.166,69.4,81.4a102.593,102.593,0,0,1,24.128,1.66,95.922,95.922,0,0,1,24.945-15.48,99.183,99.183,0,0,0-15.259-6.687q-.63,2.739-1.1,5.462-1.742-.567-3.525-1.078.75-4.587,1.935-9.228a101.107,101.107,0,0,1,22.037,9.908,95.36,95.36,0,0,1,28.747-5.834,101.514,101.514,0,0,0-12-11.577q-1.543,2.351-2.932,4.738-1.436-1.138-2.927-2.238,2.294-4.042,5.021-7.978a104.163,104.163,0,0,1,15.816,15.182Zm-.063-3.918-.388-24.309a132.909,132.909,0,0,0-17.938,18.01q-4.335-2.849-9.028-5.409,1.294-1.691,2.658-3.359,2.831,1.589,5.533,3.291A135.963,135.963,0,0,1,148.689,4.087a151.522,151.522,0,0,0-45.627,9.271A131.18,131.18,0,0,0,91.018,38.946q-5.057-1.164-10.344-1.933.624-2.034,1.321-4.072,3.206.508,6.331,1.162A133.577,133.577,0,0,1,96.563,15.94,152.045,152.045,0,0,0,57.018,40.471a132.729,132.729,0,0,0-2.437,28.153q-5.147.647-10.374,1.747-.116-2.123-.164-4.275,3.184-.627,6.342-1.089a135.106,135.106,0,0,1,1.442-19.874,152.525,152.525,0,0,0-28.64,36.643,131.76,131.76,0,0,0,7.427,27.286q-4.6,2.4-9.127,5.246-.846-1.955-1.636-3.959,2.769-1.7,5.574-3.227a133.874,133.874,0,0,1-5.507-19.17A151.371,151.371,0,0,0,3.939,153.418l26.086.416a125.59,125.59,0,0,1-16.282-22q4.115-3.521,8.389-6.607,1,1.846,2.047,3.637-2.511,1.866-4.972,3.889a122.948,122.948,0,0,0,11.041,15.306,125.441,125.441,0,0,1,6.1-31.727q.763-2.305,1.614-4.579l.516-1.352a125.08,125.08,0,0,1-7.612-26.3q5.084-1.869,10.161-3.272.3,2.077.656,4.12-3.005.874-6.015,1.914a122.946,122.946,0,0,0,5.025,18.194h0A126.021,126.021,0,0,1,61.154,72.988l.344-.39a126.085,126.085,0,0,1,1.928-27.3q5.413,0,10.663.433-.438,2.052-.8,4.1-3.121-.217-6.3-.279a123.793,123.793,0,0,0-1.558,18.806A126.345,126.345,0,0,1,95.683,45.309l.457-.248A124.633,124.633,0,0,1,107.405,20.1q5.084,1.872,9.862,4.1-1.125,1.773-2.179,3.561-2.854-1.282-5.82-2.444a122.362,122.362,0,0,0-7.977,17.109,125.016,125.016,0,0,1,22.6-8.318q2.516-.661,5.058-1.214a126.148,126.148,0,0,1,24.888-2.872" fill="#468c7b"/>
  <path id="Tracé_2465" data-name="Tracé 2465" d="M439.243,116.062l-.631,14.2a100,100,0,0,1,11.656,1.2q-.614-1.056-1.259-2.1a103.667,103.667,0,0,0-9.766-13.3" transform="translate(-278.235 -73.624)" fill="#468c7b"/>
  <path id="Tracé_2466" data-name="Tracé 2466" d="M460.872,22.435a149.115,149.115,0,0,0-17.393-1.8l-.63,14.2A129.7,129.7,0,0,1,458.3,23.943c.848-.509,1.7-1.015,2.569-1.508" transform="translate(-280.923 -13.091)" fill="#468c7b"/>
  <path id="Tracé_2467" data-name="Tracé 2467" d="M606.594,77.884q1.826,5.154,3.183,10.3.48,1.82.9,3.634-1.854.188-3.683.426-2.059.27-4.085.6-1.8.3-3.572.642-.471-1.743-1-3.488-.369-1.219-.768-2.438-3.159.68-6.223,1.508a129.619,129.619,0,0,1,23.6,16.03q-.157-1.374-.346-2.756-.7-5.085-1.848-10.249-.406-1.825-.872-3.657,1.882-.182,3.786-.306,2.144-.144,4.317-.217,1.93-.066,3.879-.078.409,1.906.758,3.8.245,1.326.461,2.646,3.371.05,6.793.271A149.011,149.011,0,0,0,605.57,75.086q.529,1.4,1.024,2.8" transform="translate(-375.125 -47.631)" fill="#468c7b"/>
  <path id="Tracé_2468" data-name="Tracé 2468" d="M487.692,126.508q-1.392.808-2.743,1.653-.571-1.487-1.2-2.971-.7-1.671-1.478-3.333-.687-1.476-1.429-2.945,1.371-.911,2.784-1.784,3.992-2.471,8.314-4.643,1.172-.588,2.368-1.153-1.852-.684-3.727-1.3a117.672,117.672,0,0,0-21.642-4.95q1.827,2.421,3.488,4.9.944-.715,1.91-1.409,1.384-1,2.813-1.962.936,1.448,1.819,2.907.993,1.644,1.917,3.3.82,1.474,1.586,2.956-1.412.891-2.78,1.817-3.864,2.617-7.376,5.492c-.634.518-1.26,1.045-1.877,1.575a98.415,98.415,0,0,1,21.007,6.1q-.813-2.679-1.8-5.357-.992.547-1.963,1.11" transform="translate(-297.476 -66.658)" fill="#468c7b"/>
  <path id="Tracé_2469" data-name="Tracé 2469" d="M483.216,28.462q3.509,4.2,6.575,8.553,1.085,1.538,2.114,3.094-1.675.821-3.308,1.678-1.838.968-3.624,1.985-1.586.9-3.126,1.844-1.048-1.469-2.153-2.921-.771-1.015-1.567-2.019-2.726,1.735-5.31,3.58a128.572,128.572,0,0,1,23.639,5.407q2.048.678,4.073,1.423-.624-1.235-1.282-2.464-2.42-4.53-5.295-8.975-1.018-1.57-2.092-3.128,1.7-.823,3.447-1.6,1.965-.878,3.979-1.7,1.79-.731,3.616-1.416,1.048,1.647,2.037,3.308.689,1.157,1.353,2.322,3.183-1.118,6.477-2.093a147.517,147.517,0,0,0-31.488-9.144q.983,1.129,1.935,2.267" transform="translate(-299.933 -16.617)" fill="#468c7b"/>
  <path id="Tracé_2470" data-name="Tracé 2470" d="M578.227,166.262q-1.588.275-3.151.6-.021-1.6-.1-3.206-.083-1.812-.234-3.642-.132-1.623-.319-3.259,1.6-.377,3.233-.7,4.606-.928,9.414-1.464,1.3-.146,2.621-.261a118.742,118.742,0,0,0-21.623-14.684q.869,2.9,1.566,5.8c.754-.225,1.516-.444,2.282-.654q1.645-.454,3.32-.86.374,1.682.695,3.358.36,1.886.651,3.764.256,1.668.46,3.325-1.633.344-3.239.735-4.535,1.108-8.833,2.58-1.163.4-2.309.823a99.719,99.719,0,0,1,17.627,13.047q.161-2.8.164-5.655-1.121.166-2.23.359" transform="translate(-356.929 -88.579)" fill="#468c7b"/>
  <path id="Tracé_2471" data-name="Tracé 2471" d="M707.57,170.3q-.066,5.465-.563,10.765-.174,1.873-.4,3.723-1.806-.463-3.6-.87-2.026-.456-4.043-.841-1.792-.342-3.574-.627.157-1.8.263-3.618.073-1.271.121-2.553-3.2-.45-6.36-.729a129.764,129.764,0,0,1,16.633,23.182q.328-1.345.625-2.706,1.1-5.017,1.8-10.261.246-1.854.441-3.734,1.828.478,3.66,1.016,2.062.606,4.129,1.285,1.834.6,3.669,1.265-.274,1.932-.6,3.835-.228,1.331-.479,2.645,3.148,1.21,6.285,2.6a148.642,148.642,0,0,0-17.995-27.359q.014,1.494,0,2.979" transform="translate(-437.327 -106.142)" fill="#468c7b"/>
  <path id="Tracé_2472" data-name="Tracé 2472" d="M725.666,380.5a107.946,107.946,0,0,1-9.643,10.632l12.422-.551a118.63,118.63,0,0,0-1.166-12.163q-.8,1.055-1.613,2.083" transform="translate(-454.212 -240.053)" fill="#468c7b"/>
  <path id="Tracé_2473" data-name="Tracé 2473" d="M778.38,375.82q-1.069-.893-2.15-1.758a130.086,130.086,0,0,1,1.273,13.275l12.423-.552A128.072,128.072,0,0,0,778.38,375.82" transform="translate(-492.404 -237.288)" fill="#468c7b"/>
  <path id="Tracé_2474" data-name="Tracé 2474" d="M689.492,333.283q-1.384-.821-2.782-1.591,1.02-1.224,2.011-2.494,1.116-1.43,2.19-2.916.952-1.319,1.875-2.682,1.463.752,2.914,1.56,4.1,2.28,8.107,5,1.086.737,2.162,1.505-.533-3.384-1.263-6.731-.522-2.391-1.142-4.758a117.642,117.642,0,0,0-4.507-13.706q-1.222,2.774-2.573,5.431,1.082.477,2.161.98,1.545.721,3.084,1.5-.808,1.523-1.652,3.006-.951,1.669-1.948,3.284-.887,1.434-1.808,2.826-1.466-.8-2.941-1.542-4.169-2.1-8.391-3.759c-.761-.3-1.527-.591-2.29-.87a98.583,98.583,0,0,1,4.92,21.323q1.944-2.021,3.8-4.187-.962-.6-1.928-1.174" transform="translate(-433.072 -194.407)" fill="#468c7b"/>
  <path id="Tracé_2475" data-name="Tracé 2475" d="M761.239,313.165q.8,3.656,1.38,7.352.775-1.146,1.527-2.32,2.774-4.323,5.253-9,.874-1.655,1.711-3.351,1.549,1.085,3.078,2.228,1.724,1.286,3.426,2.644,1.511,1.2,3,2.466-.928,1.717-1.9,3.389-.674,1.167-1.368,2.312,2.528,2.231,4.986,4.626a147.719,147.719,0,0,0-7.373-31.941q-.505,1.411-1.035,2.8-1.953,5.111-4.26,9.912-.815,1.7-1.671,3.355-1.531-1.064-3.078-2.07-1.74-1.134-3.5-2.2-1.561-.943-3.134-1.83.771-1.633,1.5-3.3.511-1.167,1-2.354-2.845-1.532-5.716-2.889a128.464,128.464,0,0,1,4.924,14.974q.678,2.585,1.247,5.2" transform="translate(-478.979 -184.96)" fill="#468c7b"/>
  <path id="Tracé_2476" data-name="Tracé 2476" d="M647.558,238.209q-1.585-.288-3.162-.524.529-1.5,1.016-3.04.546-1.729,1.037-3.5.434-1.57.824-3.17,1.634.2,3.277.452,4.643.715,9.341,1.867c.848.21,1.7.427,2.55.659A118.876,118.876,0,0,0,647.2,209.715q-.186,3.03-.531,5.991,1.18.072,2.368.172,1.7.141,3.413.337-.228,1.708-.5,3.392-.312,1.9-.686,3.76-.332,1.654-.711,3.279-1.653-.239-3.3-.425-4.64-.523-9.182-.624-1.231-.028-2.452-.025a99.457,99.457,0,0,1,12.046,18.312q1.118-2.568,2.107-5.245-1.109-.23-2.215-.43" transform="translate(-403.208 -133.033)" fill="#468c7b"/>
  <path id="Tracé_2477" data-name="Tracé 2477" d="M518.254,155.879a91.836,91.836,0,0,0-90.44-91.931l-1.5-.013V0c.841,0,1.682.006,2.523.021A155.748,155.748,0,0,1,582.189,155.879Zm29.992-1.983a122.251,122.251,0,0,0-2.782-24.115q-.539-2.461-1.176-4.9a121.1,121.1,0,0,0-8.058-21.889,109.032,109.032,0,0,1-7.021,16.151q2.6,1.078,5.19,2.316-.925,1.661-1.9,3.27-4.229-2.081-8.511-3.722A106.915,106.915,0,0,0,533.68,98l-.24-.442a122.406,122.406,0,0,0-22.326-29.32,110.546,110.546,0,0,1-.993,17.591q2.816.112,5.674.377-.291,1.88-.643,3.728-4.689-.488-9.279-.549A108.4,108.4,0,0,0,507,64.435l-.379-.333a122.034,122.034,0,0,0-31.063-19.822h0a109.561,109.561,0,0,1,5.132,16.847q2.682-.865,5.455-1.6.374,1.864.68,3.72-4.57,1.159-8.9,2.685a107.413,107.413,0,0,0-7.547-23.8l-1.31-.5q-2.2-.824-4.435-1.563a121.5,121.5,0,0,0-30.738-5.91A109.651,109.651,0,0,1,444.571,48.17q2.213-1.747,4.555-3.4,1,1.617,1.929,3.251-3.879,2.677-7.4,5.614a107.935,107.935,0,0,0-15.36-19.691l-.415,26.087A95.991,95.991,0,0,1,449.1,62.735a95,95,0,0,1,20.034,7.349,99.547,99.547,0,0,0-4.8-15.952q-2.493,1.3-4.869,2.707-.7-1.693-1.463-3.381,3.974-2.409,8.273-4.516a101.605,101.605,0,0,1,6.75,23.2,96.421,96.421,0,0,1,23.155,18.1,100.746,100.746,0,0,0,.991-16.646q-2.788.351-5.51.846-.069-1.833-.2-3.682,4.567-.875,9.332-1.362a102.677,102.677,0,0,1-1.66,24.128,95.946,95.946,0,0,1,15.48,24.946,99.209,99.209,0,0,0,6.687-15.259q-2.738-.63-5.463-1.1.568-1.742,1.078-3.525,4.588.751,9.228,1.935a101.117,101.117,0,0,1-9.908,22.038,95.357,95.357,0,0,1,5.834,28.746,101.351,101.351,0,0,0,11.577-12q-2.351-1.544-4.739-2.932,1.138-1.434,2.238-2.927,4.041,2.3,7.978,5.022a104.228,104.228,0,0,1-15.182,15.816Zm3.918-.063,24.309-.387a132.942,132.942,0,0,0-18.011-17.939q2.849-4.334,5.41-9.027,1.691,1.293,3.359,2.658-1.589,2.83-3.291,5.532A135.8,135.8,0,0,1,578.1,148.69a151.53,151.53,0,0,0-9.271-45.628,131.185,131.185,0,0,0-25.588-12.044q1.166-5.057,1.933-10.344,2.035.623,4.072,1.32-.507,3.207-1.162,6.332a133.655,133.655,0,0,1,18.164,8.237,152.008,152.008,0,0,0-24.532-39.545,132.7,132.7,0,0,0-28.152-2.437q-.648-5.147-1.747-10.374,2.125-.117,4.276-.165.628,3.185,1.089,6.343a135.007,135.007,0,0,1,19.874,1.442,152.491,152.491,0,0,0-36.643-28.639,131.779,131.779,0,0,0-27.287,7.426q-2.4-4.6-5.246-9.127,1.955-.846,3.959-1.636,1.7,2.769,3.228,5.574a133.8,133.8,0,0,1,19.171-5.507A151.4,151.4,0,0,0,428.77,3.939l-.416,26.086A125.623,125.623,0,0,1,450.36,13.743q3.522,4.115,6.607,8.39-1.846,1-3.637,2.047-1.866-2.511-3.889-4.972a122.98,122.98,0,0,0-15.305,11.041,125.436,125.436,0,0,1,31.727,6.1q2.306.763,4.579,1.613l1.352.516a125.024,125.024,0,0,1,26.3-7.613q1.868,5.084,3.271,10.162-2.076.294-4.12.655-.873-3-1.914-6.014a122.8,122.8,0,0,0-18.195,5.026A126,126,0,0,1,509.2,61.154l.391.343a126.107,126.107,0,0,1,27.3,1.929q0,5.413-.433,10.663-2.054-.439-4.1-.8.217-3.12.278-6.3a123.781,123.781,0,0,0-18.805-1.557,126.35,126.35,0,0,1,23.041,30.259l.248.456a124.623,124.623,0,0,1,24.959,11.266q-1.872,5.084-4.1,9.861-1.773-1.124-3.561-2.177,1.282-2.855,2.443-5.821a122.284,122.284,0,0,0-17.109-7.976,125.028,125.028,0,0,1,8.32,22.6q.66,2.515,1.213,5.059a126.161,126.161,0,0,1,2.872,24.887" transform="translate(-270.431)" fill="#468c7b"/>
</svg>
