<svg xmlns="http://www.w3.org/2000/svg" width="315.49" height="311.757" viewBox="0 0 315.49 311.757">
  <g id="ring3" transform="translate(0 0)">
    <path id="Tracé_2478" data-name="Tracé 2478" d="M715.756,505.2a58.675,58.675,0,0,1-10.315,5.1l-1.577.62a21.619,21.619,0,0,1,3.8,7.535,13.342,13.342,0,0,1-.507,7.907,13.606,13.606,0,0,1-7.3,7.939c-3.413,1.637-7.761,2.5-13.036,3.1-5.308.607-11.183.969-16.607,2.342a30.921,30.921,0,0,0-7.753,3.011,25.523,25.523,0,0,0-11.691,14.86,36.825,36.825,0,0,0-1.268,9.87c3.744.712,7.384,1.625,10.708,2.344q.822.178,1.61.335a30.333,30.333,0,0,1-.115-8.022,12.356,12.356,0,0,1,2.844-6.264,13.319,13.319,0,0,1,8.4-4.589c3.5-.657,7.815-.669,13.2-.925a65.638,65.638,0,0,0,8.538-.88,34.744,34.744,0,0,0,8.868-2.77,27.194,27.194,0,0,0,8.225-6.006,30.243,30.243,0,0,0,6.245-10.395,29.613,29.613,0,0,0,1.709-14.059,28.226,28.226,0,0,0-3.973-11.06" transform="translate(-412.01 -320.476)" fill="#468c7b"/>
    <path id="Tracé_2479" data-name="Tracé 2479" d="M516.269,729.937a21.622,21.622,0,0,1-1.928,8.219,13.331,13.331,0,0,1-5.463,5.738,13.606,13.606,0,0,1-10.692,1.4c-3.666-.935-7.553-3.067-11.988-5.987-4.459-2.942-9.2-6.437-14.228-8.869a31.016,31.016,0,0,0-7.865-2.676,25.484,25.484,0,0,0-18.492,3.858,36.9,36.9,0,0,0-7.331,6.751c2.4,2.943,4.6,5.975,6.679,8.668q.521.67,1.031,1.309a30.4,30.4,0,0,1,5.078-6.227,12.364,12.364,0,0,1,6.209-2.97,13.314,13.314,0,0,1,9.378,1.891c3.1,1.746,6.414,4.512,10.7,7.77a65.546,65.546,0,0,0,7.112,4.809,34.723,34.723,0,0,0,8.58,3.567,27.2,27.2,0,0,0,10.162.673,30.249,30.249,0,0,0,11.456-3.957A29.6,29.6,0,0,0,525,744.23a28.248,28.248,0,0,0,4.057-11.024,59.162,59.162,0,0,1-11.166-2.728Z" transform="translate(-278.024 -461.404)" fill="#468c7b"/>
    <path id="Tracé_2480" data-name="Tracé 2480" d="M623.234,638.3l-1.684.04a21.564,21.564,0,0,1,.979,8.372,13.324,13.324,0,0,1-3.177,7.242,13.6,13.6,0,0,1-9.569,4.957c-3.766.371-8.144-.306-13.311-1.533-5.2-1.238-10.845-2.9-16.413-3.452a30.971,30.971,0,0,0-8.315.194,24.574,24.574,0,0,0-8.293,3.038l-.014.01h0a24.468,24.468,0,0,0-7.744,6.939,36.917,36.917,0,0,0-4.553,8.839c3.234,1.934,6.322,4.03,9.242,5.868.477.3.945.591,1.408.871a30.443,30.443,0,0,1,2.629-7.587,12.346,12.346,0,0,1,4.808-4.922h0l.015-.01a13.311,13.311,0,0,1,9.46-1.452c3.512.573,7.574,2.032,12.72,3.624a66,66,0,0,0,8.327,2.08,34.825,34.825,0,0,0,9.277.421,27.2,27.2,0,0,0,9.771-2.832,30.2,30.2,0,0,0,9.408-7.616,29.59,29.59,0,0,0,6.407-12.594,28.254,28.254,0,0,0,.068-11.738,59.386,59.386,0,0,1-11.448,1.241" transform="translate(-349.616 -404.123)" fill="#468c7b"/>
    <path id="Tracé_2481" data-name="Tracé 2481" d="M45.883,453.812a21.55,21.55,0,0,1-7.745-3.329,13.332,13.332,0,0,1-4.691-6.374,13.605,13.605,0,0,1,.487-10.774c1.561-3.448,4.339-6.9,7.991-10.757,3.676-3.876,7.944-7.928,11.217-12.463a30.89,30.89,0,0,0,4.005-7.291,24.552,24.552,0,0,0,1.527-8.722v-.016h0A24.491,24.491,0,0,0,56.54,383.88a36.754,36.754,0,0,0-5.384-8.367c-3.291,1.84-6.649,3.47-9.7,5.081-.5.263-.982.525-1.458.785a30.371,30.371,0,0,1,5.258,6.072,12.337,12.337,0,0,1,1.854,6.634h0v.019a13.3,13.3,0,0,1-3.486,8.923c-2.257,2.752-5.558,5.533-9.516,9.188a65.684,65.684,0,0,0-5.977,6.16,34.73,34.73,0,0,0-5.012,7.824,27.158,27.158,0,0,0-2.439,9.889,30.223,30.223,0,0,0,1.9,11.977A29.6,29.6,0,0,0,30.3,459.922a28.2,28.2,0,0,0,10.143,5.914,59.438,59.438,0,0,1,4.632-10.544Z" transform="translate(-13.096 -238.208)" fill="#468c7b"/>
    <path id="Tracé_2482" data-name="Tracé 2482" d="M10.694,347.841a58.931,58.931,0,0,1,7.961-8.291l1.28-1.128a21.664,21.664,0,0,1-6.143-5.79,13.339,13.339,0,0,1-2.227-7.595,13.613,13.613,0,0,1,4.136-9.946c2.643-2.707,6.43-5.008,11.175-7.394,4.776-2.395,10.167-4.757,14.787-7.906a31,31,0,0,0,6.244-5.482,25.45,25.45,0,0,0,5.881-17.935,36.95,36.95,0,0,0-2.188-9.712c-3.748.6-7.47.987-10.843,1.444q-.841.115-1.648.238a30.549,30.549,0,0,1,2.859,7.507,12.339,12.339,0,0,1-.525,6.86,13.31,13.31,0,0,1-6.318,7.183c-3.06,1.816-7.11,3.307-12.074,5.4a65.59,65.59,0,0,0-7.715,3.764,34.826,34.826,0,0,0-7.373,5.651A27.222,27.222,0,0,0,2.3,313.167,30.247,30.247,0,0,0,0,325.037,29.618,29.618,0,0,0,3.192,338.8a28.305,28.305,0,0,0,7.5,9.042" transform="translate(0 -169.158)" fill="#468c7b"/>
    <path id="Tracé_2483" data-name="Tracé 2483" d="M400.765,750.711a21.6,21.6,0,0,1-4.636,7.05,13.33,13.33,0,0,1-7.1,3.505A13.6,13.6,0,0,1,378.5,758.9c-3.122-2.137-6.036-5.476-9.2-9.74-3.18-4.292-6.442-9.2-10.357-13.2a31.008,31.008,0,0,0-6.5-5.2,25.483,25.483,0,0,0-18.69-2.662,36.946,36.946,0,0,0-9.166,3.843c1.25,3.6,2.278,7.206,3.316,10.443.171.535.343,1.052.515,1.561a30.383,30.383,0,0,1,6.883-4.118,12.346,12.346,0,0,1,6.84-.679,13.32,13.32,0,0,1,8.181,4.968c2.323,2.7,4.5,6.424,7.419,10.952s6.544,9.579,11.862,13.239a27.169,27.169,0,0,0,9.3,4.123,30.194,30.194,0,0,0,12.114.225,29.619,29.619,0,0,0,13.031-5.533,28.219,28.219,0,0,0,7.605-8.962,58.716,58.716,0,0,1-9.568-6.395Z" transform="translate(-205.904 -461.405)" fill="#468c7b"/>
    <path id="Tracé_2484" data-name="Tracé 2484" d="M186.021,661.165a21.6,21.6,0,0,1-8.089,2.426,13.323,13.323,0,0,1-7.7-1.877h0a13.6,13.6,0,0,1-6.541-8.569c-1.017-3.644-1.106-8.075-.79-13.376.324-5.333.985-11.183.569-16.763a30.933,30.933,0,0,0-1.629-8.159,25.507,25.507,0,0,0-12.626-14.084,36.88,36.88,0,0,0-9.512-2.949c-1.345,3.55-2.868,6.967-4.153,10.12-.213.525-.419,1.039-.615,1.548a30.445,30.445,0,0,1,7.935,1.27,12.345,12.345,0,0,1,5.685,3.884,13.32,13.32,0,0,1,3.069,9.07c.042,3.558-.693,7.812-1.371,13.156a65.978,65.978,0,0,0-.614,8.561,34.84,34.84,0,0,0,1.188,9.211,27.208,27.208,0,0,0,4.479,9.138,30.215,30.215,0,0,0,9.136,7.954h0a29.6,29.6,0,0,0,13.541,4.133,28.231,28.231,0,0,0,11.587-1.982,58.953,58.953,0,0,1-3.213-11.039Z" transform="translate(-85.597 -379.224)" fill="#468c7b"/>
    <path id="Tracé_2485" data-name="Tracé 2485" d="M288.089,727.013a21.623,21.623,0,0,1-6.75,5.048,13.33,13.33,0,0,1-7.863.882,13.607,13.607,0,0,1-9.093-5.8c-2.208-3.073-3.816-7.2-5.334-12.292-1.525-5.12-2.907-10.841-5.2-15.939a30.924,30.924,0,0,0-4.307-7.107,24.532,24.532,0,0,0-6.763-5.672l-.015-.007h0a24.5,24.5,0,0,0-9.882-3.257,36.826,36.826,0,0,0-9.94.459c-.058,3.769-.333,7.492-.47,10.94-.022.565-.04,1.115-.051,1.657a30.432,30.432,0,0,1,7.888-1.5,12.347,12.347,0,0,1,6.664,1.716v0l.016.007a13.314,13.314,0,0,1,5.972,7.476c1.253,3.331,2.015,7.578,3.2,12.833a65.826,65.826,0,0,0,2.356,8.254,34.736,34.736,0,0,0,4.28,8.249A27.171,27.171,0,0,0,260.159,740a30.211,30.211,0,0,0,11.324,4.33,29.58,29.58,0,0,0,14.115-.774,28.2,28.2,0,0,0,10.178-5.828,59.879,59.879,0,0,1-6.809-9.283Z" transform="translate(-141.094 -433.077)" fill="#468c7b"/>
    <path id="Tracé_2486" data-name="Tracé 2486" d="M104.134,565.462a13.326,13.326,0,0,1-6.59-4.385,13.606,13.606,0,0,1-3.232-10.285c.284-3.773,1.708-7.97,3.811-12.846,2.12-4.9,4.733-10.179,6.247-15.563a30.972,30.972,0,0,0,1.259-8.215,25.466,25.466,0,0,0-7.016-17.512,36.933,36.933,0,0,0-7.9-6.027c-2.494,2.879-5.109,5.571-7.395,8.086-.378.415-.741.823-1.1,1.226a30.375,30.375,0,0,1,7,3.911,12.335,12.335,0,0,1,4,5.588A13.319,13.319,0,0,1,93,519c-1.177,3.359-3.319,7.1-5.779,11.9a65.7,65.7,0,0,0-3.493,7.842,34.82,34.82,0,0,0-2.019,9.068,27.216,27.216,0,0,0,1.1,10.119,30.224,30.224,0,0,0,5.877,10.586A29.583,29.583,0,0,0,99.992,577a28.249,28.249,0,0,0,11.553,2.093,59.071,59.071,0,0,1,.758-11.479l.254-1.675a21.617,21.617,0,0,1-8.422-.48" transform="translate(-51.779 -311.232)" fill="#468c7b"/>
    <path id="Tracé_2487" data-name="Tracé 2487" d="M24.834,234.7a58.681,58.681,0,0,1,10.315-5.1l1.577-.621a21.59,21.59,0,0,1-3.8-7.535,13.341,13.341,0,0,1,.506-7.907,13.611,13.611,0,0,1,7.3-7.94c3.413-1.637,7.761-2.495,13.036-3.1,5.308-.606,11.183-.968,16.606-2.341a30.912,30.912,0,0,0,7.754-3.011,25.519,25.519,0,0,0,11.691-14.859,36.787,36.787,0,0,0,1.268-9.87c-3.743-.711-7.384-1.625-10.707-2.345q-.822-.178-1.609-.335a30.336,30.336,0,0,1,.114,8.023,12.349,12.349,0,0,1-2.844,6.263,13.322,13.322,0,0,1-8.4,4.589c-3.5.656-7.815.668-13.2.924a65.52,65.52,0,0,0-8.538.88,34.714,34.714,0,0,0-8.868,2.77,27.2,27.2,0,0,0-8.224,6.006,30.246,30.246,0,0,0-6.247,10.395,29.616,29.616,0,0,0-1.708,14.059A28.226,28.226,0,0,0,24.834,234.7" transform="translate(-13.089 -107.673)" fill="#468c7b"/>
    <path id="Tracé_2488" data-name="Tracé 2488" d="M189.079,69.414a21.616,21.616,0,0,1,1.929-8.219,13.321,13.321,0,0,1,5.462-5.737,13.606,13.606,0,0,1,10.692-1.4c3.667.935,7.553,3.067,11.988,5.987,4.458,2.941,9.195,6.436,14.229,8.869a30.962,30.962,0,0,0,7.865,2.676,25.479,25.479,0,0,0,18.491-3.858,36.9,36.9,0,0,0,7.332-6.751c-2.4-2.943-4.6-5.975-6.679-8.669q-.519-.669-1.03-1.308a30.375,30.375,0,0,1-5.079,6.227,12.349,12.349,0,0,1-6.209,2.97,13.314,13.314,0,0,1-9.378-1.89c-3.1-1.746-6.414-4.512-10.7-7.771a65.521,65.521,0,0,0-7.113-4.808,34.706,34.706,0,0,0-8.58-3.568,27.188,27.188,0,0,0-10.163-.672,30.236,30.236,0,0,0-11.455,3.957,29.59,29.59,0,0,0-10.327,9.674,28.255,28.255,0,0,0-4.057,11.024,59.244,59.244,0,0,1,11.165,2.728Z" transform="translate(-111.833 -26.19)" fill="#468c7b"/>
    <path id="Tracé_2489" data-name="Tracé 2489" d="M93.644,140.364l1.684-.04a21.571,21.571,0,0,1-.979-8.371,13.317,13.317,0,0,1,3.178-7.243,13.6,13.6,0,0,1,9.569-4.957c3.764-.372,8.144.305,13.31,1.533,5.2,1.238,10.846,2.9,16.414,3.451a30.913,30.913,0,0,0,8.316-.194,24.556,24.556,0,0,0,8.293-3.038l.014-.01h0a24.472,24.472,0,0,0,7.743-6.939,36.9,36.9,0,0,0,4.553-8.839c-3.234-1.933-6.322-4.029-9.242-5.868q-.716-.452-1.408-.871a30.467,30.467,0,0,1-2.628,7.587,12.345,12.345,0,0,1-4.808,4.921h0l-.015.011a13.314,13.314,0,0,1-9.46,1.451c-3.512-.573-7.574-2.031-12.72-3.622a65.866,65.866,0,0,0-8.327-2.081,34.825,34.825,0,0,0-9.276-.42,27.22,27.22,0,0,0-9.772,2.832,30.224,30.224,0,0,0-9.408,7.616,29.594,29.594,0,0,0-6.408,12.594,28.251,28.251,0,0,0-.068,11.737,59.464,59.464,0,0,1,11.449-1.241" transform="translate(-51.771 -62.788)" fill="#468c7b"/>
    <path id="Tracé_2490" data-name="Tracé 2490" d="M750.966,242.1a21.534,21.534,0,0,1,7.744,3.329,13.32,13.32,0,0,1,4.691,6.375,13.6,13.6,0,0,1-.488,10.774c-1.561,3.448-4.339,6.9-7.99,10.757-3.677,3.876-7.944,7.928-11.218,12.463a30.9,30.9,0,0,0-4,7.291,24.535,24.535,0,0,0-1.527,8.722v.015h0a24.49,24.49,0,0,0,2.134,10.207,36.8,36.8,0,0,0,5.384,8.366c3.291-1.838,6.649-3.469,9.7-5.08.5-.265.982-.525,1.459-.786a30.374,30.374,0,0,1-5.26-6.072,12.341,12.341,0,0,1-1.854-6.637h0v-.018a13.3,13.3,0,0,1,3.485-8.923c2.257-2.752,5.559-5.533,9.515-9.187a65.7,65.7,0,0,0,5.976-6.161,34.708,34.708,0,0,0,5.012-7.823,27.155,27.155,0,0,0,2.438-9.89,30.213,30.213,0,0,0-1.9-11.977,29.587,29.587,0,0,0-7.723-11.856,28.231,28.231,0,0,0-10.143-5.916,59.441,59.441,0,0,1-4.632,10.545Z" transform="translate(-468.263 -145.951)" fill="#468c7b"/>
    <path id="Tracé_2491" data-name="Tracé 2491" d="M766.215,372.984a28.3,28.3,0,0,0-7.5-9.041,59.017,59.017,0,0,1-7.961,8.292l-1.281,1.128a21.655,21.655,0,0,1,6.143,5.789,13.341,13.341,0,0,1,2.227,7.594,13.61,13.61,0,0,1-4.136,9.947c-2.643,2.707-6.43,5.009-11.175,7.394-4.775,2.394-10.167,4.756-14.787,7.906a31.046,31.046,0,0,0-6.244,5.482,25.464,25.464,0,0,0-5.88,17.935,36.936,36.936,0,0,0,2.189,9.71c3.748-.6,7.47-.985,10.843-1.443.561-.077,1.109-.155,1.648-.238a30.52,30.52,0,0,1-2.859-7.509,12.332,12.332,0,0,1,.527-6.859,13.311,13.311,0,0,1,6.317-7.184c3.06-1.815,7.11-3.307,12.074-5.4a65.587,65.587,0,0,0,7.716-3.764,34.715,34.715,0,0,0,7.373-5.651,27.221,27.221,0,0,0,5.658-8.458,30.251,30.251,0,0,0,2.3-11.871,29.623,29.623,0,0,0-3.192-13.762" transform="translate(-453.916 -230.868)" fill="#468c7b"/>
    <path id="Tracé_2492" data-name="Tracé 2492" d="M311.012,22.455a21.593,21.593,0,0,1,4.637-7.051,13.327,13.327,0,0,1,7.1-3.505,13.6,13.6,0,0,1,10.521,2.364c3.122,2.137,6.037,5.477,9.2,9.74,3.18,4.291,6.442,9.2,10.357,13.2a31.02,31.02,0,0,0,6.5,5.2,24.6,24.6,0,0,0,8.306,3,24.444,24.444,0,0,0,10.384-.34,36.877,36.877,0,0,0,9.165-3.843c-1.249-3.6-2.277-7.207-3.316-10.443-.172-.535-.344-1.052-.516-1.562a30.319,30.319,0,0,1-6.883,4.116,12.334,12.334,0,0,1-6.84.68,13.322,13.322,0,0,1-8.182-4.967c-2.323-2.7-4.5-6.424-7.418-10.952s-6.545-9.579-11.863-13.239a27.149,27.149,0,0,0-9.3-4.122A30.172,30.172,0,0,0,320.756.508a29.62,29.62,0,0,0-13.031,5.533A28.223,28.223,0,0,0,300.12,15a58.615,58.615,0,0,1,9.568,6.394Z" transform="translate(-190.382 -0.003)" fill="#468c7b"/>
    <path id="Tracé_2493" data-name="Tracé 2493" d="M582.02,56.007a21.605,21.605,0,0,1,8.088-2.426,13.32,13.32,0,0,1,7.7,1.877h0a13.6,13.6,0,0,1,6.541,8.569c1.017,3.644,1.108,8.076.791,13.376-.324,5.332-.985,11.182-.568,16.763a30.888,30.888,0,0,0,1.628,8.16,25.519,25.519,0,0,0,12.627,14.084,36.852,36.852,0,0,0,9.511,2.949c1.346-3.551,2.87-6.969,4.154-10.12q.319-.787.614-1.548a30.424,30.424,0,0,1-7.935-1.27,12.347,12.347,0,0,1-5.684-3.884,13.317,13.317,0,0,1-3.069-9.07c-.042-3.559.693-7.812,1.372-13.155a66.007,66.007,0,0,0,.612-8.561,34.825,34.825,0,0,0-1.188-9.211,27.2,27.2,0,0,0-4.479-9.138,30.218,30.218,0,0,0-9.136-7.955,29.609,29.609,0,0,0-13.541-4.133A28.232,28.232,0,0,0,578.469,43.3a58.818,58.818,0,0,1,3.212,11.038Z" transform="translate(-366.953 -26.19)" fill="#468c7b"/>
    <path id="Tracé_2494" data-name="Tracé 2494" d="M447.476,17.822a21.608,21.608,0,0,1,6.75-5.047,13.322,13.322,0,0,1,7.862-.883,13.6,13.6,0,0,1,9.093,5.8c2.208,3.072,3.815,7.2,5.334,12.291,1.524,5.119,2.906,10.84,5.2,15.939a30.953,30.953,0,0,0,4.307,7.107,24.546,24.546,0,0,0,6.764,5.672l.015.007h0a24.5,24.5,0,0,0,9.881,3.258,36.825,36.825,0,0,0,9.94-.459c.058-3.769.333-7.492.47-10.94.022-.564.04-1.114.051-1.656a30.432,30.432,0,0,1-7.888,1.5,12.353,12.353,0,0,1-6.664-1.716h0l-.016-.008a13.305,13.305,0,0,1-5.972-7.476c-1.254-3.33-2.015-7.577-3.206-12.832a65.7,65.7,0,0,0-2.356-8.254,34.73,34.73,0,0,0-4.28-8.248,27.175,27.175,0,0,0-7.355-7.047A30.22,30.22,0,0,0,464.082.5a29.573,29.573,0,0,0-14.115.775A28.228,28.228,0,0,0,439.788,7.1a59.761,59.761,0,0,1,6.808,9.283Z" transform="translate(-278.98 0)" fill="#468c7b"/>
    <path id="Tracé_2495" data-name="Tracé 2495" d="M705.033,133.661a13.327,13.327,0,0,1,6.59,4.385,13.611,13.611,0,0,1,3.232,10.285c-.285,3.772-1.708,7.97-3.812,12.847-2.119,4.9-4.734,10.179-6.247,15.563a30.939,30.939,0,0,0-1.259,8.215,25.464,25.464,0,0,0,7.017,17.512,36.965,36.965,0,0,0,7.9,6.028c2.494-2.879,5.108-5.571,7.395-8.086.378-.415.741-.823,1.1-1.226a30.412,30.412,0,0,1-7-3.911,12.346,12.346,0,0,1-4-5.588,13.317,13.317,0,0,1,.221-9.564c1.177-3.36,3.319-7.106,5.779-11.9a65.7,65.7,0,0,0,3.493-7.841,34.8,34.8,0,0,0,2.018-9.067,27.207,27.207,0,0,0-1.1-10.119,30.223,30.223,0,0,0-5.878-10.587,29.59,29.59,0,0,0-11.3-8.488,28.268,28.268,0,0,0-11.553-2.093,59.082,59.082,0,0,1-.758,11.48l-.254,1.675a21.617,21.617,0,0,1,8.422.48" transform="translate(-441.896 -76.134)" fill="#468c7b"/>
  </g>
</svg>
