<svg xmlns="http://www.w3.org/2000/svg" width="307.757" height="307.757" viewBox="0 0 307.757 307.757">
  <g id="ring1" transform="translate(0 0)" opacity="0.996">
    <path id="Tracé_2358" data-name="Tracé 2358" d="M594.609,559.578l-25.38-43.867A103.816,103.816,0,0,0,607.046,477.9a102.616,102.616,0,0,0,13.794-51.588h50.68a154.028,154.028,0,0,1-76.912,133.271m60.838-84.908a131.982,131.982,0,0,0-7.4-13.621q-2.475,1.334-4.972,2.539a128.772,128.772,0,0,1,6.772,12.786,141.223,141.223,0,0,1-22.718,39.313q-.844.077-1.686.144.3,2.848.48,5.745,1.108-.071,2.221-.161a3.111,3.111,0,0,0,1.945-.68,2.259,2.259,0,0,0,.482-.464,146.857,146.857,0,0,0,24.188-41.139l.094-.237.5-1.334-.008,0,.176-.482a3.114,3.114,0,0,0-.076-2.4M622.1,488.838c-.088.011-.176.027-.256.044l-.071.019c-.066.017-.134.036-.195.057l-.084.029c-.058.021-.115.046-.175.073l-.075.035c-.059.03-.117.062-.2.111l-.034.021c-.06.038-.118.081-.179.127l-.034.024a2.5,2.5,0,0,0-.2.177,2.27,2.27,0,0,0-.33.415q-2.636,4.239-5.615,8.251l-.1.149c-.013.021-.027.042-.04.065a2.342,2.342,0,0,0-.274.7l-.018.112c-.009.051-.018.1-.023.152,0,.027-.009.14-.009.143,0,.04-.005.078-.005.118l.005.115c0,.052,0,.1.008.152l.015.111c.009.053.015.106.029.168l.006.038.138.648q2.736-.128,5.5-.384,2.335-3.211,4.463-6.564,5.761-.663,11.605-1.883a2.875,2.875,0,0,0,.721-.262c.074-.04.145-.082.243-.145.061-.042.12-.084.18-.132l.048-.037c.052-.042.1-.086.149-.131l.06-.059c.045-.045.086-.09.148-.161l.044-.051c.036-.044.07-.092.126-.169l.042-.058c.033-.051.063-.1.095-.158l.042-.069q2.657-4.962,4.9-10.13l.023-.058c.018-.047.036-.095.06-.164l.036-.106c.01-.034.019-.069.044-.169.008-.035.017-.07.023-.108l.024-.149c.005-.04.012-.081.016-.127l.01-.178,0-.088-.008-.177c0-.034,0-.068-.007-.1s-.009-.069-.023-.156c-.005-.039-.012-.078-.018-.116l-.032-.131c-.012-.048-.025-.1-.039-.142s-.026-.075-.042-.119-.034-.095-.058-.15l-.016-.04-.285-.635q-2.674,1.018-5.35,1.9-.73,1.637-1.506,3.254l-.1.2q-.958,1.986-1.98,3.941-5.748,1.255-11.434,1.95m7.657-4.259q1.8-3.448,3.378-7,5.861-1.832,11.708-4.314-1.253-2.525-2.6-4.957a121.482,121.482,0,0,1-12.047,4.581,2.5,2.5,0,0,0-1.711,1.409q-1.983,4.578-4.345,8.982a2.494,2.494,0,0,0-.068,2.16l.064.152q2.8-.436,5.617-1.008m-18.624,19.358q.468,2.645.823,5.345a126.353,126.353,0,0,0,13.249-.658l.141-.022c.061-.011.122-.021.178-.035l.087-.022c.063-.017.126-.034.178-.051l.079-.03c.062-.023.124-.046.175-.069l.085-.041c.055-.028.11-.056.152-.079l.1-.064c.046-.029.094-.058.142-.093.023-.015.1-.072.115-.086s.064-.051.1-.081c.02-.017.039-.035.095-.089.035-.033.071-.068.1-.1l.088-.1c.034-.041.069-.082.1-.127l.03-.038q3.358-4.52,6.334-9.31l.082-.145c.013-.023.027-.047.042-.076.025-.05.047-.1.081-.177l.03-.07c.023-.056.042-.112.067-.193l.022-.069c.016-.057.028-.114.049-.21l.014-.062c.009-.053.016-.106.025-.182,0-.032.008-.065.01-.093,0-.051,0-.1.006-.152v-.131c0-.047-.006-.093-.013-.19l-.008-.083c-.006-.05-.015-.1-.028-.175-.007-.032-.011-.063-.019-.1s-.02-.076-.045-.165l-.02-.078-.051-.154q-2.912.513-5.805.889l-.533.827-.125.187q-1.869,2.867-3.882,5.633-6.2.673-12.252.72m31.481-59.06,4.37.644q-.506,3.422-1.19,6.815-2.812,1.694-5.664,3.209l.01,0q-2.584,1.365-5.192,2.584,1.526,2.207,2.972,4.515,5.547-2.512,11-5.662l.648-.342a2.9,2.9,0,0,0,.619-.454c.06-.057.116-.118.193-.207.048-.058.092-.116.133-.171l.04-.057c.038-.054.072-.11.114-.182l.034-.056c.029-.053.056-.108.08-.162l.043-.1c.022-.052.041-.1.074-.2l.023-.068c.019-.058.033-.117.049-.179l.019-.073q1.183-5.574,1.9-11.233a2.772,2.772,0,0,0-2.445-3.123l-9.933-1.041a2.722,2.722,0,0,0-3.061,2.22q-.628,5-1.676,9.939a2.489,2.489,0,0,0,.538,2.092l.1.127q2.566-1.2,5.112-2.536.628-3.14,1.093-6.308m-18.051,12.489a114.44,114.44,0,0,1,7.519,11.764q2.526-.91,5.043-1.948l-.043-.078.013,0a117.468,117.468,0,0,0-7.465-11.421,115.362,115.362,0,0,0,3.492-21.493l25.527,1.712a140.96,140.96,0,0,1-4.268,26.252c-.488.283-.983.559-1.473.834q1.457,2.465,2.826,5.029.974-.524,1.944-1.066a3.091,3.091,0,0,0,1.692-1.911l.048-.148a146.679,146.679,0,0,0,4.756-28.108l.02-.253q.221-3.191.3-6.386L627.78,429.2a110.191,110.191,0,0,1-3.8,26.067l0,.008-.047.234-.008.1c0,.057-.009.114-.009.167l0,.1c0,.056.006.112.012.162l.014.093a1.993,1.993,0,0,0,.045.2l.011.046a2.535,2.535,0,0,0,.381.758c.049.068.1.132.162.2Zm-22.55,41.6a116.36,116.36,0,0,1,1.934,13.791q2.682.22,5.409.321a119.259,119.259,0,0,0-2.042-13.581,115.633,115.633,0,0,0,18.6-32.185c.491-.161.985-.324,1.475-.492q-1.345-2.272-2.775-4.452-1.073.379-2.143.735a2.193,2.193,0,0,0-1.412,1.283l-.005.021a110.11,110.11,0,0,1-18.714,32.362,1.931,1.931,0,0,0-.149.207l-.031.056a1.89,1.89,0,0,0-.1.18l-.023.057c-.028.067-.053.136-.074.2l-.01.039a2.525,2.525,0,0,0,.055,1.456m-3.071,29.739-2.749-3.456q2.617-2.08,5.121-4.3,3.209.4,6.489.626l-.007-.008q2.969.218,5.989.3-.092-2.815-.3-5.586-6.215-.083-12.208-.763l-.691-.109a2.764,2.764,0,0,0-.722-.015,2.54,2.54,0,0,0-.261.043c-.065.013-.128.031-.189.049l-.06.018a1.792,1.792,0,0,0-.168.063l-.064.026c-.052.023-.1.048-.18.09l-.049.026c-.043.027-.084.054-.158.1l-.053.037c-.034.026-.066.052-.125.1l-.086.073q-3.734,3.367-7.737,6.416a2.721,2.721,0,0,0-.385,3.762l5.885,8.071a2.77,2.77,0,0,0,3.928.547q4.528-3.447,8.757-7.263a2.807,2.807,0,0,0,.933-2.178l-.007-.171q-2.938-.313-5.82-.753-2.486,2.192-5.08,4.253m-4.527,22.865a147.509,147.509,0,0,0,27.517-21.808c.057-.058.111-.119.188-.213l.04-.047.064-.085c.045-.061.089-.121.128-.181l.065-.108c.036-.061.07-.123.1-.19l.051-.1c.033-.07.061-.144.1-.239l.021-.058a3.035,3.035,0,0,0,.162-.993,2.771,2.771,0,0,0-.017-.286l0-.046a133.615,133.615,0,0,0-1.062-15.114q-2.807.18-5.58.236a130.391,130.391,0,0,1,.844,14.441,141.966,141.966,0,0,1-20.563,16.845L582.188,522.4a116.532,116.532,0,0,0,16.856-13.809c.514.057,1.03.113,1.547.165q-.277-2.63-.669-5.207-.989-.089-1.97-.193a2.269,2.269,0,0,0-2.01.469l-.086.076a110.9,110.9,0,0,1-16.462,13.661l-.159.106q-1.99,1.344-4.037,2.6Z" transform="translate(-363.763 -272.429)" fill="#488e7d"/>
    <path id="Tracé_2359" data-name="Tracé 2359" d="M213.074,717.861l25.381-43.867a103.124,103.124,0,0,0,103.175,0l25.38,43.867a153.811,153.811,0,0,1-153.935,0m103.967,10.245a132.309,132.309,0,0,0,8.111-13.21q-2.391-1.48-4.681-3.042a129.171,129.171,0,0,1-7.7,12.248,142.806,142.806,0,0,1-45.374.013q-.49-.691-.97-1.388-2.315,1.687-4.734,3.3.617.921,1.254,1.84a3.12,3.12,0,0,0,1.565,1.344,2.311,2.311,0,0,0,.644.183,148.4,148.4,0,0,0,47.677.342l.252-.036,1.407-.229v-.009l.505-.087a3.113,3.113,0,0,0,2.045-1.267m-28.932-21.8c-.054-.07-.112-.137-.168-.2l-.051-.053c-.048-.048-.1-.1-.147-.14l-.069-.058c-.048-.04-.1-.078-.151-.115l-.068-.048c-.055-.036-.112-.07-.2-.115l-.035-.019c-.063-.033-.128-.062-.2-.091l-.038-.017c-.079-.029-.159-.057-.251-.082a2.328,2.328,0,0,0-.526-.077q-4.994-.155-9.958-.718l-.179-.012c-.025,0-.049,0-.076,0a2.322,2.322,0,0,0-.743.115l-.106.04c-.049.017-.1.035-.143.056-.025.01-.125.062-.129.064-.036.018-.07.035-.105.054l-.1.063c-.044.028-.088.055-.128.083l-.089.069c-.042.034-.083.066-.13.108l-.03.023-.492.447q1.483,2.3,3.094,4.566,3.948.408,7.918.569,3.463,4.653,7.44,9.1a2.806,2.806,0,0,0,.588.492c.071.045.143.085.247.139.067.033.134.062.2.09l.057.022c.061.024.125.044.189.063l.08.025c.061.015.121.028.215.046l.065.012c.057.009.114.015.208.024l.072.007c.06,0,.12,0,.184,0h.081q5.618-.179,11.216-.815l.061-.009c.05-.007.1-.017.173-.03l.109-.022.169-.047c.034-.009.069-.02.106-.032l.14-.053c.038-.015.076-.03.119-.051l.159-.081.078-.041.148-.1c.028-.019.057-.036.084-.056s.056-.043.124-.1c.03-.024.061-.048.09-.074l.1-.093c.035-.035.07-.069.1-.1s.052-.061.082-.1.064-.076.1-.125l.026-.033.407-.564q-2.216-1.808-4.317-3.687-1.783.186-3.571.322l-.226.014q-2.2.164-4.4.255-3.962-4.349-7.414-8.922m7.525,4.5q3.886-.171,7.757-.575,4.514,4.167,9.583,7.993,1.562-2.345,3-4.725a122.01,122.01,0,0,1-9.982-8.151,2.493,2.493,0,0,0-2.076-.778q-4.961.565-9.959.725a2.5,2.5,0,0,0-1.907,1.022l-.1.131q1.78,2.206,3.685,4.359m-26.092-6.411q-2.052,1.731-4.211,3.392a125.17,125.17,0,0,0,7.215,11.131l.09.112c.04.047.079.1.118.137l.064.063c.046.046.092.092.134.127l.066.054c.051.042.1.083.148.116l.079.053c.052.034.1.068.145.094l.1.054c.048.026.1.052.152.076.025.012.11.046.132.054.04.016.077.03.121.045.025.009.051.017.123.039.047.013.095.027.136.036l.13.027c.053.009.106.019.163.027l.046.008q5.6.633,11.229.81l.167,0c.027,0,.055,0,.087,0,.056,0,.111-.01.193-.018l.077-.009c.059-.01.117-.022.2-.04l.071-.015c.056-.014.113-.033.206-.062l.06-.02c.051-.019.1-.04.17-.07.03-.013.061-.025.086-.038.045-.022.09-.046.135-.07l.114-.065c.04-.024.077-.049.158-.106l.068-.048c.04-.03.077-.062.136-.114.026-.021.05-.041.077-.066s.056-.054.12-.121l.057-.057.108-.12q-1.9-2.265-3.677-4.578l-.981-.047-.226-.014q-3.415-.179-6.819-.532a121.675,121.675,0,0,1-6.769-10.237m66.916-2.266,1.623,4.107q-3.216,1.274-6.5,2.371-2.87-1.59-5.606-3.307l0,.01q-2.473-1.56-4.829-3.211-1.152,2.424-2.43,4.828,4.944,3.556,10.393,6.707l.62.391a2.865,2.865,0,0,0,.7.31c.08.023.161.042.276.063.073.013.147.023.214.03l.069.006c.066.005.131.007.216.007h.064c.061,0,.122-.005.181-.011l.105-.009c.056-.007.11-.018.208-.034l.07-.014c.059-.013.117-.03.18-.048l.073-.019q5.42-1.757,10.682-3.965a2.769,2.769,0,0,0,1.486-3.676l-4.059-9.126a2.721,2.721,0,0,0-3.45-1.545Q332.1,697.94,327.3,699.5a2.487,2.487,0,0,0-1.545,1.51l-.059.153q2.32,1.625,4.748,3.165,3.033-1.023,6.012-2.2m-19.829-9.413a114.776,114.776,0,0,1-6.446,12.387q2.05,1.734,4.206,3.4l.046-.076.009.009a117.68,117.68,0,0,0,6.173-12.168,114.857,114.857,0,0,0,20.356-7.7l11.274,22.965a140.468,140.468,0,0,1-24.89,9.411c-.487-.282-.974-.572-1.456-.86q-1.41,2.492-2.948,4.957.94.584,1.893,1.154a3.093,3.093,0,0,0,2.5.512l.15-.031a146.027,146.027,0,0,0,26.746-9.916l.23-.109q2.878-1.407,5.693-2.938L342.61,681.445a109.379,109.379,0,0,1-24.456,9.708l-.009,0-.226.076-.087.042c-.052.025-.1.049-.15.076l-.083.051c-.047.03-.094.061-.135.092l-.073.058a1.731,1.731,0,0,0-.154.14l-.033.032a2.546,2.546,0,0,0-.467.708c-.034.076-.064.155-.094.24Zm-47.356,1.295a114.9,114.9,0,0,1-10.957,8.585q1.152,2.432,2.429,4.843a117.979,117.979,0,0,0,10.724-8.576,117.208,117.208,0,0,0,37.214-.01q.577.52,1.163,1.032,1.3-2.3,2.474-4.627-.864-.739-1.706-1.492a2.19,2.19,0,0,0-1.818-.582l-.021.005a111.568,111.568,0,0,1-37.438,0,2.063,2.063,0,0,0-.253-.025h-.064a1.9,1.9,0,0,0-.2.007l-.06.008a2.106,2.106,0,0,0-.213.039l-.039.009a2.536,2.536,0,0,0-1.229.778M242,706.229l1.624-4.108q3.107,1.23,6.278,2.29,1.262,2.977,2.7,5.933l0-.01q1.3,2.678,2.741,5.335,2.393-1.489,4.686-3.06a121.73,121.73,0,0,1-5.449-10.95l-.251-.652a2.757,2.757,0,0,0-.347-.633c-.046-.062-.094-.122-.167-.205-.045-.05-.091-.1-.138-.139l-.045-.043c-.044-.038-.089-.075-.139-.113l-.055-.043c-.046-.033-.092-.062-.169-.111l-.046-.028c-.044-.025-.09-.048-.168-.086l-.059-.028c-.039-.017-.078-.031-.149-.057l-.105-.037q-4.777-1.551-9.415-3.5a2.72,2.72,0,0,0-3.451,1.544l-4.059,9.126a2.769,2.769,0,0,0,1.487,3.676q5.25,2.206,10.674,3.963a2.807,2.807,0,0,0,2.355-.282l.145-.091q-1.2-2.7-2.26-5.416-3.141-1.059-6.224-2.278M219.922,713.7A146.151,146.151,0,0,0,252.6,726.672c.079.02.16.035.279.056l.061.012.106.013c.074.009.149.016.221.021l.126,0c.071,0,.141,0,.217-.006l.115-.008c.077-.008.155-.018.255-.035l.061-.01a3.032,3.032,0,0,0,.942-.357,2.828,2.828,0,0,0,.238-.157l.039-.026a132.321,132.321,0,0,0,12.557-8.492q-1.565-2.339-3-4.71a128.782,128.782,0,0,1-12.083,7.962,140.361,140.361,0,0,1-24.889-9.411l11.273-22.966a114.816,114.816,0,0,0,20.355,7.7c.206.475.416.947.63,1.422q2.136-1.557,4.168-3.189-.419-.9-.818-1.8a2.273,2.273,0,0,0-1.408-1.505l-.11-.035a109.336,109.336,0,0,1-20.017-7.423l-.17-.085q-2.155-1.055-4.265-2.2Z" transform="translate(-136.164 -430.712)" fill="#488e7d"/>
    <path id="Tracé_2360" data-name="Tracé 2360" d="M0,426.306H50.68a103.344,103.344,0,0,0,51.611,89.4L76.91,559.577A153.66,153.66,0,0,1,0,426.306m43.121,95.146a133.44,133.44,0,0,0,15.489.393q.084-2.808.291-5.574a130.234,130.234,0,0,1-14.454-.519,141.223,141.223,0,0,1-22.742-39.3q.356-.771.717-1.534-2.617-1.165-5.218-2.458-.492,1-.97,2.005a3.127,3.127,0,0,0-.382,2.028,2.247,2.247,0,0,0,.162.649A146.733,146.733,0,0,0,39.606,518.63l.157.2.9,1.1.006-.005.33.392a3.106,3.106,0,0,0,2.118,1.133m4.361-35.957c.034-.082.064-.166.088-.244l.02-.07c.018-.067.036-.134.047-.2l.017-.087c.01-.061.017-.121.022-.188l.009-.083c0-.066,0-.133,0-.227v-.041c0-.071-.011-.142-.021-.218l0-.042c-.014-.083-.032-.165-.056-.258a2.242,2.242,0,0,0-.195-.493q-2.359-4.4-4.35-8.978l-.079-.161c-.012-.022-.022-.045-.036-.068a2.32,2.32,0,0,0-.471-.587l-.087-.071c-.04-.033-.079-.065-.12-.1-.022-.016-.117-.077-.12-.079-.034-.022-.066-.044-.1-.064l-.1-.053c-.045-.024-.091-.048-.135-.069l-.1-.042c-.05-.02-.1-.04-.159-.06l-.037-.014-.631-.2q-1.252,2.432-2.412,4.959,1.619,3.623,3.463,7.142-2.3,5.324-4.152,11a2.831,2.831,0,0,0-.131.755c0,.084,0,.167,0,.283,0,.074.013.147.024.222l.009.06c.01.066.025.13.04.195l.021.082c.016.06.035.119.066.208l.023.063c.021.054.044.106.083.193l.031.065c.027.053.057.106.089.161l.039.07q2.974,4.775,6.334,9.3l.039.048c.031.04.065.079.112.135l.075.084c.025.026.05.051.125.123l.081.075.117.094c.032.026.065.05.1.078l.149.1.075.045.157.082.091.044c.032.014.066.027.147.058.036.015.073.029.109.041l.13.038c.048.014.1.027.141.038l.125.023c.048.009.1.017.16.024l.042.007.692.069q.454-2.823,1.023-5.585-1.054-1.449-2.068-2.927l-.127-.187q-1.245-1.822-2.43-3.681,1.778-5.61,4.009-10.885m-.125,8.76q2.094,3.278,4.387,6.422-1.336,5.994-2.106,12.3,2.811.177,5.59.225a122.789,122.789,0,0,1,2.046-12.724,2.5,2.5,0,0,0-.368-2.188q-2.981-4-5.622-8.249a2.493,2.493,0,0,0-1.839-1.135l-.163-.021q-1.017,2.644-1.926,5.371m-7.489-25.789q-2.523-.915-5.04-1.956a124.7,124.7,0,0,0-6.045,11.809l-.052.134c-.021.059-.043.117-.059.17l-.022.088c-.018.063-.034.125-.045.179l-.013.084c-.01.065-.021.13-.027.187l-.006.094c0,.062-.006.124-.007.171l.005.118c0,.055,0,.11.01.17,0,.026.016.12.019.143.006.041.012.082.021.127.006.025.011.052.029.126.012.048.024.1.036.137l.042.126c.019.049.037.1.058.153l.017.045q2.243,5.169,4.913,10.137l.086.143a.817.817,0,0,0,.046.074c.03.047.063.091.112.158l.047.062c.038.047.075.092.134.155l.049.053c.042.043.085.082.158.148l.047.042c.041.035.084.068.145.113.026.019.051.04.076.056.042.028.084.054.129.081s.077.047.113.067.082.042.171.084l.077.034c.047.02.092.035.166.062.03.012.061.022.1.033s.076.021.166.044l.077.02.158.034q1.007-2.782,2.123-5.476l-.45-.873-.1-.2q-1.554-3.048-2.947-6.175a121.328,121.328,0,0,1,5.491-10.974M75.322,525.25l-2.749,3.457q-2.707-2.152-5.3-4.446-.054-3.282.062-6.51l-.008.008q.113-2.919.362-5.789-2.676.216-5.4.314-.6,6.06-.6,12.353l-.029.732a2.851,2.851,0,0,0,.082.762c.02.081.044.161.082.271.026.07.054.139.082.2l.029.063a2.087,2.087,0,0,0,.1.19l.032.056c.031.052.066.1.1.151l.061.086c.033.045.07.087.134.162l.047.054c.04.044.084.086.131.131l.053.053q4.228,3.814,8.763,7.269a2.77,2.77,0,0,0,3.928-.546l5.884-8.071a2.722,2.722,0,0,0-.384-3.761q-4.013-3.055-7.762-6.438a2.491,2.491,0,0,0-2.082-.584l-.162.026q-.249,2.825-.366,5.7,2.4,2.117,4.911,4.11m-1.774-21.892a116.27,116.27,0,0,1-13.957.623q-.472,2.644-.831,5.344l.088,0,0,.013a119.442,119.442,0,0,0,13.629-.746A116.437,116.437,0,0,0,89.331,522.4L75.044,543.624A142.06,142.06,0,0,1,54.48,526.779c0-.566.008-1.128.018-1.692q-2.861.029-5.765-.066-.033,1.1-.05,2.216a3.082,3.082,0,0,0,.8,2.418l.1.115a147.6,147.6,0,0,0,21.919,18.191l.208.145q2.654,1.793,5.382,3.469l19.22-31.3A110.763,110.763,0,0,1,75.662,503.9l-.005-.006-.18-.158-.079-.055c-.048-.033-.095-.067-.14-.093l-.086-.047c-.051-.025-.1-.049-.148-.07l-.087-.034c-.058-.021-.116-.041-.2-.063l-.045-.013a2.541,2.541,0,0,0-.848-.05,2.513,2.513,0,0,0-.255.039ZM48.733,463.051a114.8,114.8,0,0,1-12.906-5.211q-1.532,2.21-2.985,4.522a117.739,117.739,0,0,0,12.781,5.012,115.627,115.627,0,0,0,18.622,32.174q-.16.761-.31,1.525,2.642-.029,5.247-.177.205-1.119.434-2.225a2.193,2.193,0,0,0-.41-1.867l-.015-.016A110.064,110.064,0,0,1,50.472,464.43a1.788,1.788,0,0,0-.105-.232l-.032-.055a1.815,1.815,0,0,0-.109-.173l-.036-.049c-.044-.057-.092-.114-.14-.165l-.028-.029a2.518,2.518,0,0,0-1.288-.677m-24.2-17.531,4.37-.644q.488,3.307,1.15,6.584-1.952,2.578-3.794,5.3l.011,0q-1.674,2.46-3.256,5.037,2.485,1.33,4.989,2.534a121.591,121.591,0,0,1,6.771-10.185l.44-.543a2.783,2.783,0,0,0,.375-.617,2.335,2.335,0,0,0,.094-.247c.021-.062.038-.127.052-.187l.015-.061c.012-.058.021-.116.029-.177l.01-.07c0-.056.008-.112.012-.2v-.055c0-.05,0-.1-.01-.188l0-.064c-.005-.043-.012-.083-.025-.158l-.019-.11q-1.041-4.914-1.671-9.906a2.719,2.719,0,0,0-3.06-2.22l-9.933,1.041a2.77,2.77,0,0,0-2.445,3.124q.711,5.647,1.894,11.224a2.809,2.809,0,0,0,1.42,1.9l.15.081q1.744-2.387,3.568-4.661-.651-3.25-1.133-6.529M7.027,430.143A146.945,146.945,0,0,0,12.1,464.9c.023.078.049.155.091.27l.02.058.042.1c.03.068.061.138.092.2l.06.109c.036.063.072.123.113.187l.064.095c.045.064.093.126.158.2l.039.047a3.035,3.035,0,0,0,.78.639,2.846,2.846,0,0,0,.255.128l.043.02A131.652,131.652,0,0,0,27.485,473.6q1.244-2.523,2.584-4.954a128.61,128.61,0,0,1-12.93-6.5A140.9,140.9,0,0,1,12.871,435.9L38.4,434.187a115.461,115.461,0,0,0,3.493,21.493c-.309.416-.613.833-.918,1.255q2.415,1.073,4.843,2.021.572-.811,1.153-1.607a2.266,2.266,0,0,0,.6-1.972l-.023-.112A109.931,109.931,0,0,1,43.982,434.2l-.01-.191q-.165-2.4-.227-4.806Z" transform="translate(0 -272.429)" fill="#488e7d"/>
    <path id="Tracé_2361" data-name="Tracé 2361" d="M76.911,57.091l25.38,43.867a103.809,103.809,0,0,0-37.816,37.817,102.62,102.62,0,0,0-13.795,51.587H0a154.035,154.035,0,0,1,76.91-133.27M16.073,142a131.914,131.914,0,0,0,7.4,13.621q2.476-1.333,4.972-2.539A128.638,128.638,0,0,1,21.675,140.3a141.213,141.213,0,0,1,22.718-39.313q.844-.078,1.686-.143-.3-2.847-.48-5.745-1.108.07-2.221.16a3.113,3.113,0,0,0-1.946.68,2.285,2.285,0,0,0-.481.464,146.849,146.849,0,0,0-24.188,41.14l-.094.236-.5,1.334.008,0-.175.482A3.11,3.11,0,0,0,16.073,142M49.417,127.83c.088-.01.176-.027.256-.044l.07-.018c.067-.018.133-.036.2-.058l.084-.029c.058-.022.114-.045.175-.073l.075-.035c.059-.029.117-.062.2-.11l.034-.021c.06-.039.118-.081.178-.127l.034-.025a2.452,2.452,0,0,0,.526-.592q2.636-4.239,5.614-8.251l.1-.149c.013-.021.027-.041.041-.065a2.4,2.4,0,0,0,.274-.7l.017-.112c.009-.052.019-.1.024-.153,0-.026.008-.139.008-.143,0-.039.006-.078.006-.118l-.005-.115c0-.052,0-.1-.008-.153l-.015-.111c-.008-.053-.016-.105-.028-.168l-.006-.039-.138-.648q-2.735.129-5.5.385-2.334,3.211-4.463,6.563-5.761.663-11.605,1.883a2.811,2.811,0,0,0-.72.263c-.075.039-.146.081-.244.144-.061.04-.121.084-.18.131l-.047.037a1.938,1.938,0,0,0-.149.132l-.062.058c-.044.044-.086.09-.148.162l-.043.05c-.037.044-.07.092-.126.169l-.041.058c-.034.051-.063.1-.1.158l-.042.069Q31,131,28.759,136.168l-.022.057c-.018.047-.036.095-.06.165l-.036.106c-.01.034-.019.068-.044.169-.008.034-.017.07-.023.108l-.023.148c-.006.04-.013.08-.017.128l-.011.179,0,.088.009.177c0,.034,0,.067.007.1s.009.07.022.155c.006.039.011.078.02.116l.031.131c.012.048.025.1.039.142s.026.075.041.119.035.095.058.15l.016.04.286.634q2.673-1.017,5.35-1.9.73-1.636,1.5-3.254l.1-.2q.958-1.987,1.981-3.941,5.748-1.257,11.434-1.951m-7.657,4.259q-1.8,3.449-3.378,7-5.861,1.832-11.709,4.315,1.253,2.524,2.6,4.956a122.038,122.038,0,0,1,12.046-4.58,2.493,2.493,0,0,0,1.712-1.409q1.983-4.578,4.344-8.982a2.485,2.485,0,0,0,.068-2.16l-.063-.152q-2.8.435-5.617,1.007m18.624-19.358q-.468-2.644-.823-5.345a126.669,126.669,0,0,0-13.249.659l-.141.021c-.061.011-.123.022-.178.034l-.086.023c-.065.016-.127.034-.179.051l-.079.03c-.062.023-.123.047-.175.07l-.085.042c-.056.028-.112.055-.153.079l-.1.064c-.045.029-.092.058-.141.093-.022.016-.1.073-.114.088s-.064.051-.1.082c-.02.017-.039.035-.094.087-.035.035-.071.068-.1.1l-.089.1c-.034.041-.07.082-.1.127l-.03.037q-3.359,4.52-6.336,9.31l-.08.144c-.014.024-.027.048-.043.077-.025.051-.047.1-.08.176l-.031.071c-.022.056-.04.112-.066.194l-.022.07c-.016.056-.028.114-.049.209l-.012.062c-.009.053-.017.107-.025.182,0,.033-.008.065-.01.094,0,.049-.006.1-.007.152v.13c0,.047.005.093.013.191l.007.083c.006.049.016.1.029.174.006.032.01.064.019.1s.02.076.045.164l.02.078.051.155q2.912-.514,5.805-.89l.532-.826.125-.188q1.869-2.866,3.882-5.632,6.2-.673,12.252-.722M28.9,171.792l-4.37-.644q.505-3.422,1.19-6.815,2.812-1.692,5.664-3.208l-.011,0q2.585-1.364,5.192-2.583-1.526-2.207-2.972-4.515-5.548,2.511-11,5.661l-.648.342a2.85,2.85,0,0,0-.619.453c-.06.058-.116.118-.193.208-.049.057-.093.116-.134.171l-.039.057c-.038.054-.072.11-.114.182l-.033.056c-.03.054-.056.108-.08.162l-.043.1c-.023.052-.042.1-.075.2l-.022.067c-.018.057-.034.118-.049.18l-.018.073q-1.183,5.575-1.9,11.232a2.77,2.77,0,0,0,2.444,3.123l9.934,1.042a2.72,2.72,0,0,0,3.06-2.22q.63-5,1.677-9.939a2.491,2.491,0,0,0-.539-2.093l-.1-.127q-2.566,1.2-5.112,2.536-.627,3.14-1.094,6.309M46.955,159.3a114.393,114.393,0,0,1-7.519-11.764q-2.526.91-5.044,1.948l.043.078-.012,0a117.6,117.6,0,0,0,7.465,11.42A115.346,115.346,0,0,0,38.4,182.482l-25.526-1.713a140.964,140.964,0,0,1,4.268-26.252c.489-.282.983-.558,1.472-.833q-1.455-2.465-2.824-5.03-.975.525-1.945,1.066a3.1,3.1,0,0,0-1.692,1.911l-.048.148a146.741,146.741,0,0,0-4.757,28.108l-.019.252q-.22,3.192-.3,6.387l36.719.944a110.22,110.22,0,0,1,3.8-26.067l0-.009.048-.235.007-.1c0-.057.009-.114.009-.167l0-.1c0-.055-.007-.111-.013-.162l-.014-.093a1.8,1.8,0,0,0-.045-.2l-.011-.045a2.551,2.551,0,0,0-.381-.759c-.049-.068-.1-.132-.162-.2ZM69.5,117.7a116.417,116.417,0,0,1-1.935-13.791q-2.681-.22-5.408-.32A119.348,119.348,0,0,0,64.2,117.172a115.622,115.622,0,0,0-18.6,32.185q-.739.24-1.476.492,1.346,2.273,2.775,4.452,1.072-.38,2.144-.734a2.193,2.193,0,0,0,1.411-1.284l.005-.021A110.078,110.078,0,0,1,69.175,119.9a2.034,2.034,0,0,0,.149-.207l.032-.057a1.914,1.914,0,0,0,.1-.181l.024-.056c.027-.067.052-.137.073-.2l.012-.039A2.537,2.537,0,0,0,69.5,117.7m3.071-29.74,2.748,3.457q-2.616,2.081-5.121,4.3-3.207-.394-6.489-.626l.008.008q-2.97-.218-5.989-.3.092,2.816.3,5.586,6.215.084,12.208.763l.69.109a2.8,2.8,0,0,0,.723.016,2.625,2.625,0,0,0,.261-.043c.065-.014.129-.031.188-.049l.06-.018c.057-.018.11-.04.169-.063l.065-.026c.051-.023.1-.049.18-.09l.048-.027c.043-.026.085-.054.158-.1l.054-.036c.034-.026.065-.052.124-.1l.086-.073q3.733-3.365,7.737-6.416a2.722,2.722,0,0,0,.384-3.762L75.286,82.4a2.769,2.769,0,0,0-3.928-.548Q66.831,85.3,62.6,89.115a2.812,2.812,0,0,0-.933,2.179l.007.17q2.938.313,5.82.754,2.487-2.191,5.081-4.254M77.1,65.1A147.5,147.5,0,0,0,49.586,86.908c-.057.058-.111.119-.188.212l-.04.048-.064.085c-.045.06-.089.121-.128.181l-.065.107c-.036.061-.07.123-.1.189l-.05.1c-.034.071-.063.144-.1.238l-.022.058a3.064,3.064,0,0,0-.162.995c0,.092.007.187.018.285l0,.046a133.882,133.882,0,0,0,1.06,15.114q2.808-.18,5.581-.235a130.261,130.261,0,0,1-.845-14.443A142.1,142.1,0,0,1,75.045,73.046L89.333,94.269a116.456,116.456,0,0,0-16.857,13.808c-.514-.057-1.031-.113-1.547-.165q.278,2.63.668,5.208.989.088,1.97.193a2.272,2.272,0,0,0,2.01-.469l.086-.077A110.858,110.858,0,0,1,92.127,99.107L92.286,99q1.992-1.344,4.037-2.6Z" transform="translate(-0.001 -36.484)" fill="#488e7d"/>
    <path id="Tracé_2362" data-name="Tracé 2362" d="M367.009,20.607,341.63,64.474a103.125,103.125,0,0,0-103.175,0l-25.38-43.867a153.811,153.811,0,0,1,153.935,0M263.043,10.362a132.639,132.639,0,0,0-8.111,13.21q2.392,1.481,4.682,3.042a129.188,129.188,0,0,1,7.7-12.248,142.8,142.8,0,0,1,45.374-.014q.492.692.971,1.388,2.313-1.687,4.733-3.3-.617-.923-1.254-1.841a3.108,3.108,0,0,0-1.566-1.343,2.264,2.264,0,0,0-.644-.183,148.327,148.327,0,0,0-47.677-.342L267,8.77,265.592,9v.008l-.505.088a3.11,3.11,0,0,0-2.045,1.266m28.933,21.8a2.49,2.49,0,0,0,.168.2l.051.052c.048.049.1.1.148.14l.068.058c.047.04.1.077.151.115l.067.048c.056.037.113.07.2.117l.036.018c.062.032.129.061.2.091l.038.016c.079.029.16.057.252.082a2.256,2.256,0,0,0,.526.076q4.994.157,9.958.72l.18.011c.025,0,.049,0,.077,0a2.358,2.358,0,0,0,.743-.115l.106-.04c.048-.018.1-.035.143-.056.025-.011.126-.063.128-.065.035-.018.07-.034.105-.055l.1-.062c.044-.027.087-.055.128-.083l.089-.069c.042-.034.083-.066.13-.108l.03-.025.492-.446q-1.484-2.3-3.094-4.567-3.948-.409-7.917-.569-3.464-4.651-7.441-9.1a2.809,2.809,0,0,0-.588-.492,2.776,2.776,0,0,0-.245-.138c-.067-.034-.134-.062-.2-.09l-.057-.024c-.062-.023-.125-.043-.188-.062l-.081-.025c-.061-.015-.121-.027-.214-.047l-.065-.011c-.057-.009-.115-.015-.209-.025l-.072-.007c-.06,0-.12,0-.184,0h-.081q-5.618.179-11.216.815l-.061.009c-.05.006-.1.017-.172.03l-.11.022-.168.046c-.034.01-.069.02-.105.033l-.14.053c-.038.014-.075.03-.118.05l-.16.081-.078.042-.148.1c-.029.018-.057.036-.084.056s-.056.043-.124.1c-.031.024-.061.048-.09.074l-.1.093c-.035.034-.071.069-.1.1s-.053.061-.083.1-.064.077-.1.126l-.027.033-.407.563q2.217,1.81,4.318,3.688,1.783-.186,3.571-.322l.226-.015q2.2-.163,4.4-.255,3.962,4.349,7.415,8.922m-7.525-4.5q-3.885.171-7.757.575-4.515-4.167-9.583-7.993-1.562,2.345-3,4.725a122.029,122.029,0,0,1,9.983,8.152,2.494,2.494,0,0,0,2.076.779q4.961-.567,9.959-.726a2.49,2.49,0,0,0,1.907-1.023l.1-.13q-1.78-2.205-3.685-4.359m26.092,6.411q2.051-1.732,4.21-3.391a125.147,125.147,0,0,0-7.214-11.132l-.09-.112c-.04-.048-.079-.1-.118-.136l-.064-.064c-.046-.046-.092-.092-.133-.127l-.066-.054c-.052-.041-.1-.083-.149-.116l-.078-.053c-.053-.034-.1-.069-.146-.093l-.1-.055c-.048-.025-.1-.051-.153-.076-.023-.012-.109-.046-.131-.053-.039-.016-.077-.031-.121-.045-.024-.009-.051-.016-.124-.038-.047-.014-.094-.027-.136-.037l-.13-.026c-.052-.011-.105-.02-.163-.027l-.047-.007q-5.6-.635-11.229-.811l-.166,0c-.026,0-.054,0-.087,0-.056,0-.111.009-.193.019l-.076.009c-.059.009-.117.02-.2.038l-.07.016c-.058.014-.113.032-.206.062l-.06.021c-.051.018-.1.039-.17.07-.029.012-.06.024-.086.038-.046.022-.09.045-.135.071l-.114.064c-.039.024-.077.049-.158.106l-.068.049c-.04.031-.077.062-.136.113-.026.021-.05.04-.077.067s-.056.055-.12.121l-.057.057-.108.121q1.9,2.263,3.677,4.578l.981.045.226.014q3.414.178,6.819.533a121.7,121.7,0,0,1,6.769,10.237m-66.916,2.267L242,32.238q3.217-1.273,6.5-2.37,2.87,1.59,5.607,3.306l0-.009q2.472,1.559,4.829,3.211,1.152-2.425,2.43-4.829-4.944-3.555-10.394-6.706l-.62-.391a2.9,2.9,0,0,0-.7-.31c-.08-.023-.161-.042-.277-.064-.073-.013-.147-.023-.214-.03l-.07-.006c-.066-.006-.131-.007-.215-.008h-.065c-.061,0-.122.005-.18.012l-.1.01c-.057.007-.111.017-.208.035l-.071.013c-.059.014-.117.031-.18.049l-.072.019q-5.422,1.759-10.683,3.965a2.77,2.77,0,0,0-1.486,3.677l4.058,9.125a2.721,2.721,0,0,0,3.451,1.544q4.648-1.951,9.447-3.506a2.493,2.493,0,0,0,1.546-1.511l.059-.153q-2.321-1.626-4.748-3.166-3.034,1.023-6.012,2.2m19.829,9.412A114.377,114.377,0,0,1,269.9,33.371q-2.051-1.733-4.206-3.4l-.046.075-.008-.009a117.8,117.8,0,0,0-6.175,12.167,114.855,114.855,0,0,0-20.355,7.7L227.838,26.94a140.4,140.4,0,0,1,24.889-9.412c.488.283.975.572,1.457.861q1.41-2.493,2.948-4.957c-.627-.39-1.257-.772-1.894-1.154a3.088,3.088,0,0,0-2.5-.513l-.151.032a146.066,146.066,0,0,0-26.746,9.917l-.23.108q-2.877,1.407-5.693,2.937l17.554,32.265a109.4,109.4,0,0,1,24.457-9.708l.008,0,.227-.076.087-.041c.053-.025.1-.049.15-.076l.082-.051c.048-.03.093-.061.135-.092l.073-.059c.047-.038.092-.079.153-.14l.033-.033a2.537,2.537,0,0,0,.467-.709,2.483,2.483,0,0,0,.094-.241Zm47.356-1.3a114.865,114.865,0,0,1,10.957-8.584q-1.152-2.432-2.429-4.843a118.012,118.012,0,0,0-10.723,8.576,117.2,117.2,0,0,0-37.214.011c-.384-.348-.771-.691-1.162-1.034q-1.3,2.3-2.475,4.629.863.738,1.707,1.491a2.186,2.186,0,0,0,1.817.581l.021,0a111.607,111.607,0,0,1,37.438,0,2.053,2.053,0,0,0,.254.025h.064a1.813,1.813,0,0,0,.2-.008l.06-.008a1.944,1.944,0,0,0,.213-.038l.039-.01a2.526,2.526,0,0,0,1.229-.779M338.079,32.24l-1.623,4.107q-3.108-1.23-6.279-2.29-1.26-2.977-2.7-5.933l0,.01q-1.3-2.677-2.74-5.334-2.394,1.49-4.687,3.059a121.676,121.676,0,0,1,5.449,10.95l.251.652a2.794,2.794,0,0,0,.347.633,2.494,2.494,0,0,0,.167.2,1.919,1.919,0,0,0,.137.139l.045.042c.044.039.089.075.139.113l.054.043c.047.032.094.062.169.111l.047.028c.044.026.089.047.169.086l.058.029c.039.017.078.031.149.057l.105.038q4.777,1.551,9.415,3.5a2.72,2.72,0,0,0,3.451-1.544l4.059-9.126a2.77,2.77,0,0,0-1.487-3.677q-5.25-2.2-10.674-3.963a2.815,2.815,0,0,0-2.356.283l-.144.091q1.2,2.7,2.259,5.416,3.141,1.061,6.224,2.279m22.083-7.476A146.092,146.092,0,0,0,327.486,11.8c-.079-.019-.16-.036-.279-.056l-.062-.012-.1-.012c-.075-.009-.15-.017-.221-.021l-.126,0c-.07,0-.142,0-.216.006l-.116.008c-.077.007-.154.017-.255.034l-.061.011a3.019,3.019,0,0,0-.942.357,2.627,2.627,0,0,0-.238.157l-.038.027a131.991,131.991,0,0,0-12.557,8.491q1.565,2.338,3,4.711a128.859,128.859,0,0,1,12.083-7.963,140.429,140.429,0,0,1,24.89,9.412L340.972,49.907a114.881,114.881,0,0,0-20.356-7.7c-.206-.475-.416-.947-.63-1.421q-2.135,1.557-4.168,3.188.419.9.818,1.8a2.27,2.27,0,0,0,1.408,1.5l.11.036a109.293,109.293,0,0,1,20.017,7.423l.171.086q2.154,1.055,4.264,2.2Z" transform="translate(-136.164)" fill="#488e7d"/>
    <path id="Tracé_2363" data-name="Tracé 2363" d="M671.519,190.361h-50.68a103.348,103.348,0,0,0-51.611-89.4l25.38-43.867a153.664,153.664,0,0,1,76.911,133.27M628.4,95.216a133.841,133.841,0,0,0-15.489-.393q-.085,2.808-.291,5.575a130.141,130.141,0,0,1,14.455.519,141.252,141.252,0,0,1,22.742,39.3c-.237.515-.474,1.025-.718,1.534q2.617,1.164,5.219,2.458.49-.995.969-2.005a3.123,3.123,0,0,0,.383-2.029,2.279,2.279,0,0,0-.163-.649,146.758,146.758,0,0,0-23.592-41.488l-.157-.2-.9-1.1-.007.005-.329-.393a3.105,3.105,0,0,0-2.119-1.133m-4.361,35.957c-.035.083-.065.166-.09.244l-.019.071c-.018.067-.035.134-.047.2l-.016.088c-.01.06-.018.121-.024.187l-.008.083c0,.066,0,.133,0,.228v.04c0,.07.011.143.021.217l.005.041a2.584,2.584,0,0,0,.056.258,2.278,2.278,0,0,0,.2.493q2.361,4.4,4.351,8.978l.079.16c.011.022.023.045.036.068a2.356,2.356,0,0,0,.471.587l.087.071c.039.032.079.066.12.1l.12.078a1.132,1.132,0,0,0,.1.064l.1.054c.045.023.091.048.136.069l.1.043c.05.018.1.038.159.058l.036.015.632.2q1.252-2.434,2.411-4.96-1.618-3.623-3.462-7.141,2.3-5.324,4.151-11a2.825,2.825,0,0,0,.131-.755,2.745,2.745,0,0,0,0-.283c-.005-.074-.013-.146-.025-.222l-.008-.06c-.011-.066-.025-.13-.041-.193l-.02-.084c-.016-.06-.035-.118-.066-.209l-.022-.062c-.021-.054-.045-.106-.083-.193l-.031-.065c-.026-.055-.057-.106-.089-.162l-.039-.07q-2.975-4.777-6.334-9.3l-.038-.048c-.031-.04-.065-.078-.112-.135l-.074-.084-.125-.121c-.026-.025-.051-.05-.081-.075l-.117-.094c-.032-.025-.064-.05-.1-.078l-.15-.1-.075-.046-.157-.081c-.03-.016-.059-.03-.091-.044s-.065-.027-.146-.058c-.037-.015-.073-.029-.109-.041l-.13-.038c-.047-.013-.095-.027-.14-.038s-.079-.015-.125-.023-.1-.016-.159-.025l-.042-.007-.692-.069q-.454,2.824-1.023,5.584,1.054,1.451,2.069,2.927l.126.188q1.245,1.821,2.429,3.682-1.775,5.608-4.008,10.884m.124-8.761q-2.095-3.277-4.388-6.421,1.337-5.994,2.106-12.3-2.81-.174-5.589-.225a123.184,123.184,0,0,1-2.047,12.724,2.5,2.5,0,0,0,.368,2.187q2.981,4.006,5.622,8.249a2.5,2.5,0,0,0,1.839,1.136l.163.02q1.018-2.644,1.926-5.372m7.489,25.79q2.523.914,5.04,1.956a124.989,124.989,0,0,0,6.044-11.808l.052-.135c.021-.057.042-.116.059-.169l.023-.086c.017-.063.033-.126.044-.18l.013-.083c.011-.065.021-.131.027-.187l.006-.095c0-.062.007-.124.008-.171l0-.118c0-.056,0-.11-.01-.17,0-.027-.016-.118-.019-.143-.007-.041-.011-.082-.021-.126-.005-.027-.011-.053-.029-.127-.011-.046-.025-.094-.036-.136l-.042-.126c-.018-.05-.037-.1-.058-.153l-.017-.045q-2.244-5.167-4.913-10.137l-.086-.143a.83.83,0,0,0-.046-.074c-.03-.048-.063-.091-.112-.158l-.047-.062c-.038-.047-.076-.091-.134-.154l-.049-.054c-.041-.042-.084-.081-.156-.147l-.049-.043c-.041-.034-.084-.067-.145-.112-.025-.019-.052-.039-.076-.055-.042-.029-.084-.055-.129-.082s-.077-.046-.113-.066-.082-.042-.171-.084l-.077-.035c-.045-.019-.092-.035-.166-.062-.03-.011-.06-.022-.1-.034s-.076-.02-.166-.043l-.077-.021-.158-.033q-1.007,2.781-2.123,5.476l.451.873.1.2q1.554,3.047,2.946,6.175A121.313,121.313,0,0,1,631.65,148.2M596.2,91.418l2.748-3.457q2.708,2.152,5.3,4.446.054,3.283-.062,6.509l.008-.008q-.112,2.92-.362,5.789,2.676-.217,5.4-.314.6-6.06.6-12.354l.029-.732a2.889,2.889,0,0,0-.083-.762c-.02-.08-.044-.16-.082-.272-.025-.069-.053-.137-.082-.2L609.585,90c-.027-.059-.059-.117-.1-.19l-.032-.056c-.031-.052-.066-.1-.1-.152l-.061-.085c-.034-.046-.07-.088-.134-.164l-.047-.053c-.04-.045-.084-.087-.131-.132l-.053-.053q-4.227-3.815-8.764-7.269a2.769,2.769,0,0,0-3.927.546l-5.884,8.071a2.722,2.722,0,0,0,.384,3.762q4.013,3.055,7.762,6.438a2.494,2.494,0,0,0,2.083.584l.162-.026q.247-2.824.366-5.7-2.4-2.116-4.911-4.111m1.774,21.892a116.5,116.5,0,0,1,13.958-.623q.47-2.643.831-5.343l-.089,0,0-.012a119.013,119.013,0,0,0-13.629.746,116.44,116.44,0,0,0-16.857-13.809l14.287-21.224a142.072,142.072,0,0,1,20.564,16.845c0,.567-.008,1.129-.018,1.693q2.862-.028,5.765.066.034-1.106.051-2.216a3.083,3.083,0,0,0-.8-2.418l-.1-.114A147.611,147.611,0,0,0,600.01,68.707l-.208-.145q-2.654-1.792-5.382-3.468L575.2,96.395a110.761,110.761,0,0,1,20.658,16.373l.006.006.18.158.079.055c.047.033.095.066.14.092l.086.047c.05.025.1.049.148.07l.088.035c.057.021.116.04.2.063l.046.012a2.531,2.531,0,0,0,.848.051c.083-.009.167-.022.255-.039Zm24.815,40.308a114.659,114.659,0,0,1,12.906,5.21q1.532-2.21,2.985-4.521A117.756,117.756,0,0,0,625.9,149.3a115.632,115.632,0,0,0-18.621-32.174q.16-.759.31-1.524-2.642.027-5.246.176-.207,1.119-.434,2.226a2.192,2.192,0,0,0,.409,1.866l.014.016a110.076,110.076,0,0,1,18.72,32.358,1.737,1.737,0,0,0,.1.232l.033.056a1.562,1.562,0,0,0,.109.171l.036.049c.044.057.092.114.139.165l.029.028a2.521,2.521,0,0,0,1.288.677m24.2,17.53-4.369.644q-.488-3.307-1.15-6.584,1.953-2.578,3.794-5.3l-.01,0q1.673-2.46,3.256-5.036-2.486-1.332-4.989-2.535a121.5,121.5,0,0,1-6.772,10.185l-.44.544a2.779,2.779,0,0,0-.376.617c-.031.07-.058.141-.093.247-.021.064-.038.127-.052.188l-.015.061c-.012.057-.02.115-.029.177l-.01.069c-.005.056-.008.112-.012.2v.055c0,.051,0,.1.01.189l0,.064c.005.043.012.083.025.158l.02.11q1.038,4.913,1.669,9.905a2.721,2.721,0,0,0,3.06,2.221l9.934-1.042a2.77,2.77,0,0,0,2.444-3.123q-.711-5.647-1.894-11.224a2.81,2.81,0,0,0-1.42-1.9l-.151-.08q-1.742,2.387-3.567,4.66.65,3.25,1.132,6.529m17.509,15.378a146.979,146.979,0,0,0-5.077-34.756c-.023-.079-.049-.157-.092-.271l-.02-.058-.042-.1c-.03-.069-.061-.137-.093-.2l-.06-.11c-.035-.062-.071-.124-.113-.186l-.064-.095c-.045-.064-.093-.125-.157-.2l-.04-.048a3.041,3.041,0,0,0-.78-.639c-.082-.045-.166-.088-.255-.128l-.042-.019a131.576,131.576,0,0,0-13.625-6.647q-1.245,2.524-2.584,4.954a128.581,128.581,0,0,1,12.93,6.5,140.99,140.99,0,0,1,4.268,26.252l-25.527,1.713a115.375,115.375,0,0,0-3.493-21.493c.31-.415.613-.835.918-1.256q-2.414-1.072-4.842-2.02-.57.81-1.153,1.607a2.267,2.267,0,0,0-.6,1.971l.023.113a109.871,109.871,0,0,1,3.562,21.068l.012.19q.164,2.4.227,4.807Z" transform="translate(-363.763 -36.484)" fill="#488e7d"/>
  </g>
</svg>
