<svg xmlns="http://www.w3.org/2000/svg" width="303.46" height="308.757" viewBox="0 0 303.46 308.757">
  <g id="rune2" transform="translate(-177.808 -669.393)">
    <path id="Soustraction_2" data-name="Soustraction 2" d="M151.984,307.756c-27.348,0-52.637-6.408-75.164-19.046a150.214,150.214,0,0,1-28.254-20.564,159.862,159.862,0,0,1-21.98-25.041,140.555,140.555,0,0,1-15.6-28.767,153.8,153.8,0,0,1-8.832-30.956c-3.641-20.895-2.645-41.3,2.813-57.457a220.647,220.647,0,0,1,9.3-23.621A145.2,145.2,0,0,1,27.453,79.637,164.327,164.327,0,0,1,47.289,56.764,264.934,264.934,0,0,1,76.523,32.535,219.161,219.161,0,0,0,42.91,71.582,166.956,166.956,0,0,0,27.156,100.36,104.757,104.757,0,0,0,19.02,132.2c-1.68,21.13.738,40.074,7.391,57.913C32.5,206.443,42.246,222.01,56.2,237.7a126.82,126.82,0,0,0,94.738,42.077,138.581,138.581,0,0,0,18.121-1.209,110.438,110.438,0,0,0,33.684-10.123,122.309,122.309,0,0,0,25.313-16.525,142.676,142.676,0,0,0,26.4-29.562,120.14,120.14,0,0,0,13.594-26.92,113.8,113.8,0,0,0,6.289-46.379c-1.391-19.594-6.082-37.388-13.941-52.885a117.523,117.523,0,0,0-15.969-23.758,128.693,128.693,0,0,0-23.266-20.862,124.241,124.241,0,0,0-35.34-17.7,115.8,115.8,0,0,0-34.336-4.909c-10.074,0-21.121,1.071-34.758,3.371-1.516-4.017-2.965-7.174-5.109-9.53a12.455,12.455,0,0,0-9.77-4.037,22.535,22.535,0,0,0-2.629.163,20.269,20.269,0,0,1,10.3,5.137,13.9,13.9,0,0,1,4.617,10c0,7.639-2.539,11.675-7.348,11.675-.43,0-.848-.009-1.215-.017h-.074c-.363-.007-.7-.015-1.051-.015-3.594,0-7.074.688-16.258,9.332C80.516,62.253,75.613,65.2,71.273,65.2a11.214,11.214,0,0,1-6.633-2.4c4.227-.592,8.8-3.864,12.887-9.217A39.119,39.119,0,0,0,84.75,38.368a8.588,8.588,0,0,0-1.7-6.687c-1.941-2.737-5.41-5.32-10.023-7.471a50.067,50.067,0,0,0-13.145-4l-.676-.105a62.428,62.428,0,0,0-9.223-.989c-3.859,0-6.594.915-8.605,2.878-2.4,2.34-3.77,6.21-4.191,11.831,0,0-.008-.014-.02-.036a46.286,46.286,0,0,1-2.871-10.719,25.492,25.492,0,0,1,.242-9.127,13.405,13.405,0,0,1,4.8-7.79A27.787,27.787,0,0,1,51.59,1.127,89.718,89.718,0,0,1,67.887,0c3.344,0,6.852.073,10.563.149h.016c4.09.084,8.316.172,12.762.172,3.133,0,6.707-.035,10.844-.075h.219c5.012-.049,10.688-.1,16.684-.1,15.883,0,28.449.394,39.543,1.24,14.8,1.128,26.566,3.1,34.977,5.858a164.8,164.8,0,0,1,24.6,10.5,174.321,174.321,0,0,1,29.2,19.152A151.834,151.834,0,0,1,275,66.13a139.4,139.4,0,0,1,20.105,40.778,163.913,163.913,0,0,1,7.215,43.926,148.7,148.7,0,0,1-3.973,37.523c-4.371,18.444-12.223,36.284-24,54.54a124.429,124.429,0,0,1-17.91,21.378,159.253,159.253,0,0,1-26.969,20.935,154.139,154.139,0,0,1-34.8,15.992,141.62,141.62,0,0,1-41.387,6.549C152.848,307.755,152.414,307.756,151.984,307.756ZM89.395,4.09c-4.051,0-8.836.253-9,.962-.031.142.125.295.461.456.09.048,9.1,4.759,13.184,4.759,3.059,0,5.652-2.375,6.023-3.946a1.188,1.188,0,0,0-.617-1.459C98.43,4.355,93.621,4.09,89.395,4.09Z" transform="translate(178.412 669.893)" fill="#468c7b" stroke="rgba(0,0,0,0)" stroke-miterlimit="10" stroke-width="1"/>
    <path id="Tracé_2330" data-name="Tracé 2330" d="M113.169,35.158s3.892-1.945,8.864-9.3c11.242-1.513,42.881-4.963,72.21,9.3S245.2,72.963,255.86,97.423s12.971,54.913,4.107,85.4-29.619,53.4-55.994,70.048S136.085,273.192,100.412,260,47.3,221.25,39.877,211.575c-12.106-15.783-27.126-45.763-22.917-88.424,4-40.538,32.43-73.292,32.43-73.292s-31.4,42.295-30.7,84.1,14.7,61.832,30.267,80.858,46.7,41.294,83.885,45.4,63.995-9.513,84.317-25.511,34.592-42.807,39.78-65.94-.216-63.778-16.214-84.317S213.268,50.941,187.757,39.7s-60.968-10.377-74.588-4.54" transform="translate(183.714 677.862)" fill="#468c7b"/>
  </g>
</svg>
