<svg xmlns="http://www.w3.org/2000/svg" width="127.841" height="139.761" viewBox="0 0 127.841 139.761">
  <g id="rune1b" transform="translate(0 0)">
    <path id="Tracé_2317" data-name="Tracé 2317" d="M65.382.88c-2.646,7.651-5.563,15.008-8.21,22.621C51.66,17.565,46.1,11.688,40.245,6.1,48.626,4.363,56.856,2.483,65.382.88" transform="translate(62.459 1.365)" fill="#fff" fill-rule="evenodd"/>
    <path id="Tracé_2318" data-name="Tracé 2318" d="M56.81,30.081a22.788,22.788,0,0,1,15.154,6.472C81.217,30.045,89.353,22.43,98.1,15.412c.827,1.493,1.8,2.83,2.718,4.226-8.35,7.056-17.654,13.176-25.109,21.14,4.275,5.693,10.1,14.194,6.969,24.116a26.411,26.411,0,0,0,8.695,3.739c2.5-2.817,6-5.354,9.445-2.743,1,.753,3.813,5.428,3.984,6.714.607,4.359-4.443,10.866-8.96,10.443a17.908,17.908,0,0,1-5.466-1.98,5.913,5.913,0,0,1-1.988-6.217c-2.113-2.039-5.272-3.009-7.7-4.734q-6.63,14.535-25.109,17.17c.293,6.811-1.286,15.322-.51,23.373a40.547,40.547,0,0,1-5.224-.5c1.143-8.013-1.212-15.809-.993-22.876-9.593-3.17-16.733-8.817-20.885-17.412C23.709,71.5,20.749,74.439,18,77.583c1.164,5.6-2.381,12.265-7.944,11.68-4.392-.449-8.932-7.079-5.969-12.433C5.814,73.709,11.5,70.613,15.525,74.1a66.8,66.8,0,0,0,10.443-9.2c-2.863-9.606,1.095-18.92,5.464-24.369A224.656,224.656,0,0,0,12.294,20.381c-.75-.681-2.963-2.029-2.986-2.478-.074-1.666,3.836-2.672,3.718-3.984,6.921,7.59,14.809,14.207,22.146,21.383,4.2-3.267,9.884-6.339,17.144-5.719a48.262,48.262,0,0,0,0-10.443c-4.03-2.782-7.72-7.309-5.949-12.678,1.508-4.65,7.99-5.706,11.438-3.241,1.457,1.059,3.933,4.578,4.226,6.969.485,4.336-2.84,6.839-5.492,8.707a49.176,49.176,0,0,0,.271,11.183M54.067,14.161c2.33-.63,4.058-7.954-.487-6.957-3.619.789-3.933,8.171.487,6.957M41.391,39.286c-1.483,1.069-1.825,3.277-2.988,4.479-1,1.021-2.575,1.289-3.231,1.98-3.085,3.244-5.609,10.249-4.226,16.914.924,4.446,4.3,10.2,6.946,12.433,1.945,1.615,9.156,5.334,11.706,5.721a23.855,23.855,0,0,0,16.149-2.988c3.108-1.881,8.062-8.511,8.96-10.94,2.723-7.3.074-15.47-2.743-19.89-1.115-1.761-1.868-3.838-2.72-4.979-3.182-4.287-11.486-6.64-18.407-5.719-3.568.487-7.528,1.58-9.445,2.988M97.343,78.578c2.889-.837,2.5-7.638-1-7.212-4.226.508-3.4,8.488,1,7.212M7.56,82.064c.921,3.836,7.454,3.205,7.212-1.25-.122-2.223-3.157-3.522-4.713-3.231-2.544.475-3.009,2.345-2.5,4.481" transform="translate(4.876 2.995)" fill="#fff" fill-rule="evenodd"/>
    <path id="Tracé_2319" data-name="Tracé 2319" d="M28.8,49.233c-2.378-1.419-4.494-3.106-7.457-3.968-8.3-8.973-4.226-27.053,8.452-27.615,7.551-.327,15.493,3.437,16.685,9.945,2.233,12.413-5.757,21.87-17.68,21.638M41.5,34.809c.219-1.108.9-1.832,1-2.976.388-5.719-4.542-10.3-10.953-9.955a12.082,12.082,0,0,0-10.685,8.96c-1.457,7.128,3.91,15.677,12.191,14.669,2.695-.329,3.887-2.162,6.7-3.231,1.483-2.22,1.24-4.976,1.751-7.467" transform="translate(26.401 27.361)" fill="#fff" fill-rule="evenodd"/>
    <path id="Tracé_2320" data-name="Tracé 2320" d="M24.435,34.254c-6.752-2.769-4.374-14.049,3.254-13.173,2.914.337,6.653,4.675,5.464,9.445-.7,2.843-4.591,3.716-8.717,3.728m.753-3.473a3.261,3.261,0,0,0,5.221-3.231A3.8,3.8,0,0,0,25.7,25.061c-2.182.827-2.11,4.494-.508,5.719" transform="translate(31.762 32.641)" fill="#fff" fill-rule="evenodd"/>
    <path id="Tracé_2321" data-name="Tracé 2321" d="M42.554,47.185c-3.91,6.449-7.531,13.2-11.683,19.392A135.347,135.347,0,0,1,17.93,48.423c2.718-.983,6.388-.35,9.71-.5C32.6,47.708,37.7,47,42.554,47.185" transform="translate(27.826 73.183)" fill="#fff" fill-rule="evenodd"/>
    <path id="Tracé_2322" data-name="Tracé 2322" d="M0,0C6.217,2.332,12.533,4.553,18.165,7.467c-.217,1.845-2.281,3.134-3.739,4.468A54.224,54.224,0,0,0,10.2,16.417c-2.741.449-5.316,4.216-7.965,4.724C1.24,14.342.051,7.748,0,0" transform="translate(0 0)" fill="#fff" fill-rule="evenodd"/>
  </g>
</svg>
