<svg xmlns="http://www.w3.org/2000/svg" width="124.194" height="126.367" viewBox="0 0 124.194 126.367">
  <g id="rune2" transform="translate(-177.883 -669.393)">
    <path id="Soustraction_2" data-name="Soustraction 2" d="M14107.915,2997.368a60.663,60.663,0,0,1-42.129-16.135,65.184,65.184,0,0,1-8.954-10.2,57.282,57.282,0,0,1-6.354-11.718,62.591,62.591,0,0,1-3.6-12.61c-1.484-8.511-1.078-16.824,1.146-23.406a90.107,90.107,0,0,1,3.786-9.622,59.139,59.139,0,0,1,5.372-9.234,67.049,67.049,0,0,1,8.08-9.317,108.159,108.159,0,0,1,11.909-9.87,89.324,89.324,0,0,0-13.692,15.906,68.116,68.116,0,0,0-6.418,11.723,42.687,42.687,0,0,0-3.313,12.969,53.928,53.928,0,0,0,3.01,23.592,61.479,61.479,0,0,0,12.137,19.386,51.659,51.659,0,0,0,38.592,17.14,56.443,56.443,0,0,0,7.382-.493,45.006,45.006,0,0,0,13.723-4.124,49.791,49.791,0,0,0,10.311-6.732,58.113,58.113,0,0,0,10.756-12.042,48.948,48.948,0,0,0,5.537-10.966,46.373,46.373,0,0,0,2.563-18.893,56.135,56.135,0,0,0-5.68-21.543,47.859,47.859,0,0,0-6.506-9.678,52.342,52.342,0,0,0-9.478-8.5,50.6,50.6,0,0,0-14.4-7.21,47.173,47.173,0,0,0-13.986-2,84.729,84.729,0,0,0-14.159,1.373,11.908,11.908,0,0,0-2.081-3.882,5.074,5.074,0,0,0-3.979-1.644,9.186,9.186,0,0,0-1.071.066,8.258,8.258,0,0,1,4.2,2.093,5.66,5.66,0,0,1,1.881,4.072c0,3.112-1.034,4.756-2.992,4.756-.176,0-.346,0-.5-.007h-.029c-.147,0-.287-.006-.429-.006-1.464,0-2.881.28-6.622,3.8-3.131,2.947-5.128,4.148-6.895,4.148a4.57,4.57,0,0,1-2.7-.979c1.723-.241,3.587-1.574,5.25-3.754a15.923,15.923,0,0,0,2.942-6.2,3.5,3.5,0,0,0-.693-2.724,10.314,10.314,0,0,0-4.084-3.043,20.383,20.383,0,0,0-5.354-1.628l-.276-.043a25.408,25.408,0,0,0-3.756-.4,4.718,4.718,0,0,0-3.506,1.172c-.978.953-1.536,2.53-1.707,4.819,0,0,0-.006-.008-.015a18.859,18.859,0,0,1-1.171-4.366,10.386,10.386,0,0,1,.1-3.718,5.461,5.461,0,0,1,1.957-3.173,11.32,11.32,0,0,1,4.989-2.048,36.569,36.569,0,0,1,6.639-.459c1.362,0,2.791.03,4.3.061h.008c1.665.034,3.388.07,5.2.07,1.275,0,2.731-.014,4.417-.031h.089c2.041-.02,4.354-.042,6.8-.042,6.47,0,11.588.16,16.107.505a63.3,63.3,0,0,1,14.249,2.386,67.168,67.168,0,0,1,10.021,4.275,70.959,70.959,0,0,1,11.9,7.8,61.848,61.848,0,0,1,11.285,11.913,56.76,56.76,0,0,1,8.189,16.611,66.723,66.723,0,0,1,2.939,17.894,60.557,60.557,0,0,1-1.618,15.286,70.737,70.737,0,0,1-9.777,22.217,50.761,50.761,0,0,1-7.3,8.709,64.876,64.876,0,0,1-10.987,8.528,62.777,62.777,0,0,1-14.175,6.515,57.679,57.679,0,0,1-16.858,2.668Zm-25.5-123.7c-1.65,0-3.6.1-3.667.392-.013.058.051.12.188.186.037.02,3.706,1.938,5.371,1.938a2.694,2.694,0,0,0,2.453-1.607.484.484,0,0,0-.251-.594A17.418,17.418,0,0,0,14082.419,2873.667Z" transform="translate(-13867.591 -2202.107)" fill="#fff" stroke="rgba(0,0,0,0)" stroke-miterlimit="10" stroke-width="1"/>
    <path id="Tracé_2330" data-name="Tracé 2330" d="M55.723,28.766s1.585-.792,3.611-3.787c4.58-.616,17.468-2.022,29.415,3.787s20.757,15.4,25.1,25.364,5.284,22.369,1.673,34.787-12.066,21.753-22.81,28.535-27.654,8.279-42.186,2.906-21.636-15.786-24.66-19.728c-4.931-6.429-11.05-18.642-9.335-36.02C18.161,48.1,29.742,34.755,29.742,34.755S16.951,51.984,17.236,69.014s5.989,25.188,12.33,32.938,19.023,16.822,34.171,18.495,26.069-3.875,34.347-10.392,14.091-17.438,16.2-26.861-.088-25.981-6.605-34.347S96.5,35.2,86.107,30.615s-24.836-4.227-30.384-1.849" transform="translate(170.949 658.695)" fill="#fff"/>
  </g>
</svg>
