<svg xmlns="http://www.w3.org/2000/svg" width="135.095" height="125.367" viewBox="0 0 135.095 125.367">
  <g id="rune4" transform="translate(0 -0.001)">
    <path id="Tracé_2350" data-name="Tracé 2350" d="M83.157,148.468a47.97,47.97,0,1,1,47.97-47.97,48.024,48.024,0,0,1-47.97,47.97m0-87.508A39.538,39.538,0,1,0,122.7,100.5,39.583,39.583,0,0,0,83.157,60.959" transform="translate(-15.475 -23.1)" fill="#fff"/>
    <path id="Tracé_2351" data-name="Tracé 2351" d="M106.2,93.99l-3.253-4.22C95.179,79.693,90.338,68.888,88.56,57.658a65.827,65.827,0,0,1,1.6-27.53A75.338,75.338,0,0,1,103.035,3.842L106.2,0,109.47,3.76a74.17,74.17,0,0,1,13.571,26.315,62.816,62.816,0,0,1,1.689,27.617c-1.877,11.255-6.981,22.077-15.17,32.162Zm.184-80.209A70.287,70.287,0,0,0,98.222,32.62c-4.4,16.686-1.652,32.626,8.156,47.462,10.417-14.919,13.3-30.945,8.55-47.712a68.315,68.315,0,0,0-8.542-18.588" transform="translate(-38.604 0)" fill="#fff"/>
    <path id="Tracé_2352" data-name="Tracé 2352" d="M166.991,174.8a76.712,76.712,0,0,1-22.221-3.283,62.816,62.816,0,0,1-24.116-13.565c-8.436-7.683-14.757-17.841-18.787-30.193l-1.653-5.066,5.31-.444c12.682-1.059,24.384.737,34.782,5.336a65.825,65.825,0,0,1,22.258,16.279,75.335,75.335,0,0,1,15.1,25.078l1.508,4.746-4.929.7a55.532,55.532,0,0,1-7.246.407M111.8,130.387c6.881,16.845,18.781,27.957,35.441,33.068a68.205,68.205,0,0,0,20.249,2.909,70.3,70.3,0,0,0-11.4-17.078c-11.631-12.746-26.51-19.086-44.294-18.9" transform="translate(-44.072 -53.633)" fill="#fff"/>
    <path id="Tracé_2353" data-name="Tracé 2353" d="M12.175,174.8a55.613,55.613,0,0,1-7.246-.407L0,173.689l1.507-4.746a75.347,75.347,0,0,1,15.1-25.077A65.816,65.816,0,0,1,38.86,127.586c10.4-4.6,22.1-6.394,34.782-5.336l5.31.443L77.3,127.759c-4.03,12.351-10.351,22.51-18.788,30.193A62.806,62.806,0,0,1,34.4,171.516,76.695,76.695,0,0,1,12.175,174.8m-.507-8.446a68.319,68.319,0,0,0,20.553-2.991c16.5-5.154,28.305-16.234,35.144-32.976-.259,0-.518,0-.776,0-17.552,0-32.24,6.421-43.73,19.136a70.14,70.14,0,0,0-11.19,16.835" transform="translate(0 -53.633)" fill="#fff"/>
  </g>
</svg>
