<svg id="rune3" xmlns="http://www.w3.org/2000/svg" width="160.842" height="125.368" viewBox="0 0 160.842 125.368">
  <path id="Tracé_2354" data-name="Tracé 2354" d="M75.9,165.339l6.214,6.214,24.367-24.368,25.13,25.13,6.214-6.214-31.344-31.342Z" transform="translate(-26.442 -46.947)" fill="#fff"/>
  <path id="Tracé_2355" data-name="Tracé 2355" d="M36.149,76.5,49.674,90.324l6.282-6.143-7.447-7.615L57.275,67.8,74.3,84.741,29.529,129.514l-17.1-17.1L27.391,97.449l7.086,7.086,6.214-6.213-13.3-13.3L0,112.412l29.529,29.529L86.745,84.725,57.259,55.388Z" transform="translate(0 -19.296)" fill="#fff"/>
  <path id="Tracé_2356" data-name="Tracé 2356" d="M113.712,84.725l57.216,57.216,29.528-29.529-27.39-27.39-13.3,13.3,6.214,6.213,7.086-7.087,14.964,14.964-17.1,17.1L126.154,84.74,143.182,67.8l8.766,8.766L144.5,84.18l6.282,6.143L164.307,76.5,143.2,55.387Z" transform="translate(-39.615 -19.296)" fill="#fff"/>
  <path id="Tracé_2357" data-name="Tracé 2357" d="M100.761,22.86l10.434-10.434L121.629,22.86,111.195,33.294ZM111.195,0,88.334,22.86l22.861,22.861,22.86-22.861Z" transform="translate(-30.774)" fill="#fff"/>
</svg>
