<svg xmlns="http://www.w3.org/2000/svg" width="125.203" height="125.368" viewBox="0 0 125.203 125.368">
  <g id="rune1" transform="translate(-186 -520.261)">
    <path id="Tracé_2323" data-name="Tracé 2323" d="M62.6,125.521A62.6,62.6,0,0,1,18.336,18.654a62.6,62.6,0,1,1,88.532,88.532A62.19,62.19,0,0,1,62.6,125.521M62.6,4.2A58.715,58.715,0,1,0,121.316,62.92,58.781,58.781,0,0,0,62.6,4.2" transform="translate(186 520.108)" fill="#fff"/>
    <path id="Tracé_2324" data-name="Tracé 2324" d="M99.916,27.243a4.713,4.713,0,0,1-.578-.2,9.252,9.252,0,0,1-1.572-.829A10.637,10.637,0,0,1,95.552,24.3a9.178,9.178,0,0,1-1.119-1.6,7.9,7.9,0,0,1-.837-2.2,7.308,7.308,0,0,1-.07-2.776A7.927,7.927,0,0,1,94.61,14.9c.124-.231.282-.427.426-.644a6.921,6.921,0,0,1,.471-.612l.248-.3.031-.038c-.053.054.108-.115.1-.108l.056-.058.113-.115.228-.233.115-.117c.04-.041.112-.1.167-.148.236-.2.484-.417.729-.6.241-.163.485-.328.735-.487q.392-.212.8-.419c.279-.116.563-.231.851-.341a9.759,9.759,0,0,1,3.683-.491,12.263,12.263,0,0,1,3.67.795,14.847,14.847,0,0,1,3.37,1.816,15.162,15.162,0,0,1,2.917,2.724,14.148,14.148,0,0,1,2.192,3.657,11.734,11.734,0,0,1,.844,4.556v.076c0-.024,0,.12,0,.125l-.006.118-.013.235-.012.236-.007.118-.014.144c-.038.385-.075.785-.134,1.139a17.509,17.509,0,0,1-.467,2.192,16.132,16.132,0,0,1-1.89,4.25c-.2.343-.448.663-.679.992-.251.315-.493.641-.769.939a14.972,14.972,0,0,1-1.766,1.705,16.181,16.181,0,0,1-2.034,1.414,16.87,16.87,0,0,1-2.231,1.082,18.505,18.505,0,0,1-2.351.758,21.943,21.943,0,0,1-2.411.439,25.462,25.462,0,0,1-4.839.117l-.6-.042-.6-.062-.3-.032-.149-.016-.075-.008c-.056-.007.02.005-.144-.019l-.541-.081-.543-.081-.639-.124-.646-.132-.614-.155a20.923,20.923,0,0,1-4.812-1.874,18.028,18.028,0,0,1-4.285-3.279A16.747,16.747,0,0,1,79.69,29.33,17.665,17.665,0,0,1,78.531,18.4c.1-.455.2-.91.342-1.356.064-.224.127-.449.207-.668l.114-.331.057-.165.029-.083c.019-.05,0,0,.049-.134l.213-.538c.039-.095.064-.169.114-.28l.14-.321c.094-.21.187-.437.283-.632l.288-.6a25.19,25.19,0,0,1,2.856-4.482,23.716,23.716,0,0,1,3.8-3.8,22.826,22.826,0,0,1,4.611-2.83A23.8,23.8,0,0,1,94.151,1.2a24.439,24.439,0,0,1,2.6-.679A25.7,25.7,0,0,1,101.993,0c.868.006,1.729.044,2.581.122l.637.064.318.033.361.051.561.081.28.041.338.062.675.128.334.066.314.074c.418.1.839.191,1.249.317s.826.233,1.23.377.811.272,1.207.431A28.935,28.935,0,0,1,126.816,14.56,24.442,24.442,0,0,1,128.774,19c.123.39.245.778.344,1.179s.195.8.279,1.205c.046.2.074.409.109.614l.048.309.024.154.021.179.007.062c.032.351.072.605.093,1.114l.03.679,0,.6c0,.4-.016.782-.038,1.164s-.051.757-.088,1.129-.078.738-.129,1.1a35.518,35.518,0,0,1-.829,4.17c-.356,1.33-.746,2.622-1.207,3.854-.217.623-.472,1.221-.706,1.821-.26.588-.5,1.181-.773,1.747a48.028,48.028,0,0,1-15.3,18.519,52.724,52.724,0,0,1-5.73,3.6c-.688.366-1.225.627-1.583.812l-.544.275L99.624,56.76l1.823-.955a45.482,45.482,0,0,0,4.872-3.131,42.66,42.66,0,0,0,6.6-6.051,41.618,41.618,0,0,0,6.349-9.673,36.556,36.556,0,0,0,2.266-6.16,28.333,28.333,0,0,0,.675-3.3c.041-.278.08-.557.1-.831s.059-.554.069-.824.033-.546.031-.808l0-.4-.012-.315c.009-.157-.04-.564-.069-.88l-.006-.062c-.014-.12.011.092.006.055l-.015-.094-.03-.188c-.021-.126-.032-.251-.062-.379a13.777,13.777,0,0,0-.387-1.554,17.189,17.189,0,0,0-1.346-3.139A21.8,21.8,0,0,0,109.528,8.4c-.294-.125-.6-.228-.9-.333s-.61-.2-.917-.292c-.614-.185-1.26-.341-1.819-.456l-.217-.048-.28-.045-.56-.092-.14-.023-.07-.011c.012,0-.127-.019.01,0l-.247-.03-.493-.059c-.657-.073-1.314-.113-1.969-.132a18.9,18.9,0,0,0-3.87.306,17.769,17.769,0,0,0-1.867.448A17,17,0,0,0,94.4,8.3a16.115,16.115,0,0,0-3.3,1.939,17.142,17.142,0,0,0-2.8,2.694,18.692,18.692,0,0,0-2.182,3.288l-.224.444c-.078.15-.132.28-.2.421l-.1.207c-.031.063-.073.171-.109.254l-.224.534c.034-.085,0,.007,0,0l-.02.054-.04.107-.08.214c-.058.141-.1.287-.147.433-.1.288-.171.585-.248.88a11.443,11.443,0,0,0,.547,7.079,10.688,10.688,0,0,0,1.891,2.973,12.074,12.074,0,0,0,2.785,2.244A15.09,15.09,0,0,0,93.379,33.5l.453.129.43.1c.147.033.278.069.437.1l.54.1.539.095c-.118-.018,0,0-.008,0l.061.008.122.016.244.032.487.065.484.045a16.612,16.612,0,0,0,7.218-.746,10.224,10.224,0,0,0,5.105-3.885,11.9,11.9,0,0,0,1.968-5.993,6.875,6.875,0,0,0-.407-2.661,9.417,9.417,0,0,0-1.369-2.455,10.685,10.685,0,0,0-4.277-3.323,6.577,6.577,0,0,0-4.4-.406c-.152.058-.3.113-.457.164-.143.072-.286.141-.431.207l-.4.248c-.119.082-.205.159-.316.23a.684.684,0,0,0-.086.062l-.119.113-.236.225-.117.112-.058.056c-.027.026.117-.122.047-.048l-.02.024-.165.188a3.507,3.507,0,0,0-.311.376,4.21,4.21,0,0,0-.27.376,5.112,5.112,0,0,0-.881,2.96,8.79,8.79,0,0,0,.611,2.905,20.353,20.353,0,0,0,1.032,2.319c.328.64.6,1.142.795,1.485l.293.526" transform="translate(148.5 520.261)" fill="#fff"/>
    <path id="Tracé_2325" data-name="Tracé 2325" d="M148.117,134.774a4.683,4.683,0,0,1,.434-.432,9.25,9.25,0,0,1,1.431-1.054,10.617,10.617,0,0,1,2.685-1.162,9.171,9.171,0,0,1,1.925-.312,7.9,7.9,0,0,1,2.341.2,7.31,7.31,0,0,1,2.529,1.145,7.945,7.945,0,0,1,2.079,2.211c.154.213.262.44.394.664a6.845,6.845,0,0,1,.346.691l.162.353.02.045c-.024-.071.057.147.053.138l.028.076.055.152.11.307.056.154c.019.054.041.145.061.215.077.3.164.618.219.916s.084.579.118.874c.014.3.024.6.03.9-.017.3-.037.607-.063.914a9.741,9.741,0,0,1-1.162,3.53,12.228,12.228,0,0,1-2.313,2.958,14.843,14.843,0,0,1-3.1,2.244,15.177,15.177,0,0,1-3.722,1.44,14.135,14.135,0,0,1-4.247.381,11.731,11.731,0,0,1-4.469-1.224l-.068-.033c.021.013-.106-.056-.11-.059l-.1-.057-.206-.114-.206-.114-.1-.057-.124-.075c-.331-.2-.674-.409-.967-.617a17.479,17.479,0,0,1-1.77-1.375,16.149,16.149,0,0,1-3-3.551c-.219-.333-.4-.692-.6-1.043-.174-.364-.363-.723-.511-1.1a14.905,14.905,0,0,1-.766-2.332,16.261,16.261,0,0,1-.388-2.447,16.867,16.867,0,0,1,0-2.48,18.455,18.455,0,0,1,.341-2.447,21.958,21.958,0,0,1,.654-2.362,25.529,25.529,0,0,1,2-4.407l.3-.523.316-.51.159-.255.08-.127.04-.064c.031-.047-.013.015.08-.122l.308-.452.309-.453.39-.521.4-.525.406-.485a20.91,20.91,0,0,1,3.783-3.516,18.025,18.025,0,0,1,4.817-2.43,16.763,16.763,0,0,1,5.475-.789,17.667,17.667,0,0,1,10.34,3.714c.365.29.73.58,1.071.9.174.155.349.31.512.477l.249.247.124.124.062.062c.037.039,0,0,.1.1l.392.426c.068.076.123.131.2.225l.228.265c.148.176.312.359.445.531l.411.518a25.207,25.207,0,0,1,2.792,4.522,23.763,23.763,0,0,1,1.766,5.077,22.78,22.78,0,0,1,.539,5.383,23.64,23.64,0,0,1-.2,2.7,24.484,24.484,0,0,1-.519,2.633,25.73,25.73,0,0,1-1.818,4.948c-.383.778-.793,1.537-1.233,2.27l-.335.545-.168.272-.2.3-.317.47-.159.235-.2.276-.409.551-.205.273-.2.25c-.274.331-.537.673-.829.987s-.57.642-.874.942-.6.613-.914.9a28.931,28.931,0,0,1-17.86,7.734,24.458,24.458,0,0,1-4.849-.17c-.4-.06-.807-.118-1.21-.2s-.805-.173-1.206-.274c-.2-.046-.4-.111-.6-.17l-.3-.09-.149-.046-.17-.058-.059-.022c-.329-.123-.576-.2-1.043-.4l-.625-.269-.536-.261c-.36-.171-.7-.355-1.031-.541s-.66-.376-.978-.571-.631-.392-.934-.6a35.6,35.6,0,0,1-3.393-2.562c-1.042-.9-2.035-1.813-2.944-2.765-.466-.467-.893-.957-1.332-1.428-.416-.49-.846-.963-1.236-1.457a48.024,48.024,0,0,1-10.011-21.836,52.775,52.775,0,0,1-.747-6.726c-.03-.779-.031-1.376-.042-1.778s-.011-.61-.011-.61l7.255-.02s.023.716.067,2.057a45.519,45.519,0,0,0,.7,5.749,42.625,42.625,0,0,0,2.576,8.573,41.6,41.6,0,0,0,5.944,9.926,36.552,36.552,0,0,0,4.559,4.722,28.2,28.2,0,0,0,2.681,2.046c.232.158.466.314.7.454s.473.294.712.42.477.268.714.38l.354.176.289.127c.137.076.525.21.822.321l.059.021c.114.041-.088-.03-.051-.018l.091.027.183.056c.122.035.24.08.369.109a13.745,13.745,0,0,0,1.567.328,17.245,17.245,0,0,0,3.412.155,21.8,21.8,0,0,0,13.473-5.659c.24-.211.465-.438.692-.665s.444-.462.663-.7c.434-.472.856-.986,1.2-1.439l.138-.175.163-.232.326-.464.082-.117.041-.058c-.007.01.073-.106,0,.008l.134-.209.268-.418c.352-.56.674-1.134.975-1.716a18.863,18.863,0,0,0,1.41-3.617,17.821,17.821,0,0,0,.409-1.876,17.075,17.075,0,0,0,.18-1.9,16.164,16.164,0,0,0-.308-3.816,17.157,17.157,0,0,0-1.208-3.689,18.721,18.721,0,0,0-2.01-3.4l-.3-.4c-.1-.136-.2-.24-.292-.363l-.144-.178c-.043-.056-.122-.14-.182-.209l-.383-.434c.062.068-.005,0,0,0l-.04-.041-.079-.082-.157-.165c-.1-.114-.214-.216-.326-.32-.216-.215-.451-.409-.683-.606a11.438,11.438,0,0,0-6.611-2.589,10.678,10.678,0,0,0-3.5.408,12.072,12.072,0,0,0-3.234,1.53,15.12,15.12,0,0,0-2.777,2.46l-.313.352-.277.344c-.094.118-.183.221-.283.349l-.32.445-.32.445c.068-.1,0,0,.006-.007l-.034.051-.068.1-.135.205-.27.41-.252.417A16.6,16.6,0,0,0,140.6,136.1a10.221,10.221,0,0,0,1.275,6.288,11.9,11.9,0,0,0,4.539,4.38,6.872,6.872,0,0,0,2.573.792,9.438,9.438,0,0,0,2.807-.163,10.689,10.689,0,0,0,4.853-2.4,6.58,6.58,0,0,0,2.28-3.782c.015-.162.031-.323.051-.483q0-.24,0-.478-.023-.238-.047-.472c-.021-.143-.053-.254-.07-.384a.66.66,0,0,0-.019-.1l-.05-.156c-.033-.1-.067-.207-.1-.31l-.049-.154-.025-.076c-.012-.035.059.159.023.063l-.012-.029-.1-.231a3.542,3.542,0,0,0-.2-.443,4.31,4.31,0,0,0-.222-.407,5.112,5.112,0,0,0-2.281-2.082,8.8,8.8,0,0,0-2.881-.716,20.6,20.6,0,0,0-2.538-.08c-.719.017-1.292.047-1.683.069l-.6.035" transform="translate(131.093 464.762)" fill="#fff"/>
    <path id="Tracé_2326" data-name="Tracé 2326" d="M33.738,123.342a4.665,4.665,0,0,1,.066.609,9.222,9.222,0,0,1-.073,1.776,10.612,10.612,0,0,1-.773,2.821,9.146,9.146,0,0,1-.961,1.7,7.9,7.9,0,0,1-1.622,1.7A7.3,7.3,0,0,1,27.9,133.2a7.933,7.933,0,0,1-3.026.24c-.263-.012-.507-.071-.765-.108a6.947,6.947,0,0,1-.755-.162l-.377-.1-.047-.012c.071.025-.15-.048-.141-.045l-.076-.027-.153-.053-.308-.106-.156-.053c-.054-.019-.138-.058-.205-.087-.282-.127-.585-.258-.852-.4-.251-.147-.5-.3-.755-.455q-.36-.263-.722-.54c-.225-.2-.451-.409-.674-.622a9.753,9.753,0,0,1-2.027-3.115A12.25,12.25,0,0,1,16,123.9a14.847,14.847,0,0,1,.19-3.823,15.17,15.17,0,0,1,1.206-3.805,14.137,14.137,0,0,1,2.359-3.552A11.733,11.733,0,0,1,23.506,110l.068-.033c-.023.008.11-.048.115-.049l.108-.045.218-.089.218-.089.109-.045.136-.049c.364-.132.741-.27,1.085-.368a17.324,17.324,0,0,1,2.18-.521,16.14,16.14,0,0,1,4.649-.121c.4.036.791.12,1.188.187.393.091.79.169,1.179.291a14.937,14.937,0,0,1,2.3.861,16.265,16.265,0,0,1,2.152,1.229,16.838,16.838,0,0,1,1.936,1.549,18.435,18.435,0,0,1,1.7,1.8,21.984,21.984,0,0,1,1.433,1.988,25.5,25.5,0,0,1,2.187,4.319l.221.56.2.565.1.283.05.142.025.071c.018.054,0-.02.045.138l.16.524.16.525.162.63.159.64.124.621a20.922,20.922,0,0,1,.377,5.151,18.015,18.015,0,0,1-1.118,5.278,16.754,16.754,0,0,1-2.809,4.765,17.67,17.67,0,0,1-9.366,5.744c-.454.1-.909.206-1.371.274-.23.039-.46.078-.692.1l-.348.04-.174.019-.087.009c-.054,0,0,0-.143.013l-.577.04c-.1.006-.179.014-.3.018l-.35.012c-.23.006-.475.018-.692.016l-.662,0a25.186,25.186,0,0,1-5.275-.651,23.714,23.714,0,0,1-5.066-1.8,22.829,22.829,0,0,1-4.538-2.946,23.856,23.856,0,0,1-1.974-1.846,24.484,24.484,0,0,1-1.729-2.052,25.668,25.668,0,0,1-2.723-4.514c-.367-.786-.7-1.58-1-2.383l-.215-.6-.107-.3-.109-.348L6.65,129l-.084-.27-.088-.332-.174-.664-.084-.33-.068-.316c-.087-.421-.188-.839-.251-1.264s-.145-.846-.189-1.272-.1-.849-.13-1.275a28.932,28.932,0,0,1,5.14-18.772,24.454,24.454,0,0,1,3.165-3.677c.3-.278.6-.555.916-.817s.639-.519.968-.769c.161-.127.338-.243.508-.362l.258-.177.129-.088.152-.1.054-.033c.3-.18.515-.326.966-.563l.6-.319.539-.255c.358-.174.714-.322,1.067-.466s.706-.279,1.057-.406.7-.247,1.049-.356a35.664,35.664,0,0,1,4.121-1.044c1.354-.25,2.688-.453,4-.567.655-.072,1.3-.1,1.948-.146.643-.018,1.28-.058,1.909-.054a48.045,48.045,0,0,1,23.3,5.851,52.828,52.828,0,0,1,5.715,3.625c.626.464,1.093.837,1.413,1.08l.483.373-4.523,5.672-1.646-1.235a45.534,45.534,0,0,0-4.921-3.053,42.674,42.674,0,0,0-8.3-3.353A41.635,41.635,0,0,0,34.183,101.7a36.548,36.548,0,0,0-6.536.6,28.152,28.152,0,0,0-3.274.811c-.268.082-.536.167-.794.265s-.525.185-.773.293-.507.2-.743.319l-.359.166-.28.146c-.145.059-.492.278-.765.44l-.054.032c-.1.064.078-.05.047-.029l-.079.054-.157.107c-.1.073-.213.137-.316.219a13.7,13.7,0,0,0-1.236,1.018,17.191,17.191,0,0,0-2.256,2.565A21.794,21.794,0,0,0,12.6,122.763c.014.319.05.637.086.955s.083.636.13.954c.1.634.235,1.284.371,1.838l.05.217.079.272.158.545.04.136.02.068c0-.012.037.123,0-.009l.08.235.158.471c.217.625.463,1.235.728,1.834a18.89,18.89,0,0,0,1.94,3.363,17.878,17.878,0,0,0,1.208,1.493,16.92,16.92,0,0,0,1.373,1.331,16.132,16.132,0,0,0,3.169,2.146,17.183,17.183,0,0,0,3.634,1.366,18.735,18.735,0,0,0,3.907.557l.5.012c.169.006.309,0,.466,0h.229c.07,0,.185-.008.276-.011l.578-.028c-.092.006.007,0,0,0l.057,0,.114-.01.228-.019c.152-.008.3-.032.454-.054.3-.034.6-.1.9-.154a11.439,11.439,0,0,0,6.156-3.537,10.686,10.686,0,0,0,1.871-2.985,12.062,12.062,0,0,0,.829-3.48,15.1,15.1,0,0,0-.182-3.705l-.079-.464-.1-.431c-.033-.147-.057-.281-.1-.439l-.147-.529-.147-.528c.035.115,0,0,0,.009l-.019-.059L41.579,124l-.076-.234-.151-.468-.167-.456a16.6,16.6,0,0,0-3.777-6.2,10.224,10.224,0,0,0-5.7-2.939,11.908,11.908,0,0,0-6.257.8,6.877,6.877,0,0,0-2.227,1.511,9.411,9.411,0,0,0-1.628,2.292,10.679,10.679,0,0,0-1.161,5.289,6.58,6.58,0,0,0,1.524,4.145c.118.113.233.226.345.342q.19.147.372.3l.4.258c.125.073.232.118.344.186a.7.7,0,0,0,.093.051l.153.058.3.115.151.058.075.029c.034.012-.161-.054-.064-.022l.03.008.241.068a3.616,3.616,0,0,0,.472.12,4.309,4.309,0,0,0,.456.082,5.117,5.117,0,0,0,3.051-.477,8.8,8.8,0,0,0,2.361-1.8,20.517,20.517,0,0,0,1.65-1.93c.436-.571.771-1.037,1-1.355l.349-.492" transform="translate(183.363 475.003)" fill="#fff"/>
    <path id="Tracé_2327" data-name="Tracé 2327" d="M77.007,89.244s25.171,6.555,36.946-7.623c4.649-.315,3.356,7.85,3.356,7.85s-16.586,20.338-9.774,36.506c-2.666,4.173-9.607-3.152-9.607-3.152S88.934,99.316,73.616,96.136c5.73-1.485,3.391-6.892,3.391-6.892" transform="translate(150.673 481.097)" fill="#fff"/>
  </g>
</svg>
