<svg xmlns="http://www.w3.org/2000/svg" width="120.841" height="139.759" viewBox="0 0 120.841 139.759">
  <g id="rune3b" transform="translate(0 -0.002)">
    <path id="Tracé_2308" data-name="Tracé 2308" d="M66.831.912a41.066,41.066,0,0,0,4.221,13.413c.775.716,2.159.826,2.982,1.491,5.483,10.747,10.14,22.307,16.133,32.543a16.217,16.217,0,0,0,4.219-2.246c-4.1-12.809,8.71-20.326,18.147-13.658,2.085-.979,5.213.161,7.956-.992-.461,2.437-2.088,3.709-2.985,5.712,3.444,8.052-2.689,15.136-10.7,15.643-2.521,2.536-7.927,1.216-9.918-.992-1.384.543-2.113,1.7-3.227,2.485,5.409,9.4,13.342,19.273,19.867,29.314a41.97,41.97,0,0,0,3.467,4.718c2.256,2.582,4.83,4.754,1.991,7.945,3.714,3.079,1.455,8.514-3.225,9.192-1.239.184-2.743-.446-4.221-.5-12.931-.459-35.006-.484-45.459,0-.556.693-.51,1.965-.484,3.227,3.612,1.249,6.885,2.62,8.44,5.47,3.882,7.168-2.182,15.014-7.713,17.637,1.359,3.745-.948,5.723-1.991,8.44-2.595-2.195-5.338-4.247-6.207-8.2-4.976-1.769-11.644-7.423-9.437-14.152,1.142-3.469,5.118-5.373,8.7-6.951,0-2.014-.749-3.227-.507-5.47-10.673.206-23.867-1.708-35.026-.739-5.192.436-10.8,2.778-14.4,0-1.506.387-2.648,1.142-4.711.981A9.171,9.171,0,0,1,0,99.021C.074,97,4.392,89.959,5.97,88.591A13.162,13.162,0,0,1,8.953,87.1C15.72,76.315,21.981,65.01,28.82,54.314c.171-1.3-2.037-2.23-2.982-3.227C18.682,56.254,7.11,50.929,9.7,40.4c-1.84-1.407-2.447-4-3.732-5.955,1.165.171,5.045-.242,5.725,1.236,6.5-5.735,20.474-.946,17.874,9.934.681.813,2.016.984,2.985,1.494,2.914-3.179,5.169-7.132,7.69-11.172,4.66-7.436,10.14-14.433,14.41-23.1.923-1.881,1.772-4.173,2.985-6.464C59.625,2.584,61.5-1.974,66.831.912m-19.625,38.5c-3.808,6.345-7.545,12.857-11.18,19.128C28.6,71.38,18.364,82.343,12.667,96.049c15.355.023,29.2-1.445,44.46-1.494.168-5.057.658-9.776,1-14.665-7.28-.326-17.66,1.41-23.094,1.494-1.139.025-1.988.329-2.74,0-3.569-1.6.265-6.9,1.988-7.7,2.45-1.116,5.264.143,8.707.252,1.433.048,3.423-.7,4.708-.5,1.017.161,1.843,1.032,2.982,1.239,2.524.472,5.045-.352,7.448,0,.436-2.62.413-5.712.994-8.187a27.981,27.981,0,0,1-6.209-3.482C50.262,60.791,47.6,57.031,48.2,53.32c1.721-.28,2.595.484,4.461.749,1.823,2.827,2.888,6.393,6.722,7.193-.268-13.184-.025-28.042,0-41.225-4.463,5.98-8.223,12.748-12.179,19.37m18.631,19.88a9.152,9.152,0,0,0,4.219-4.234c.823-1.795.342-5.154,3.227-4.463,2.136.51,1.071,4.512.51,6.209a15.915,15.915,0,0,1-7.956,9.691v8.187c3.056-.145,6.819.206,10.673,0,4.973-.255,10.673-2.682,14.165-.994,3.056,1.491,2.743,8.029-.994,7.956-.969-.023-2.011-1.287-2.982-1.494-5.87-1.236-13.9.145-21.1-.495a64.288,64.288,0,0,0,.726,14.407c12.225-.365,25.325.135,35.029-2.727a6.537,6.537,0,0,1,4.224,2.972c.892-.1,1.331-.658,2.5-.5C102.877,83.24,95.286,73.126,88.442,62.017c-4.874-7.922-9.047-16.849-14.917-24.1C70.879,34.628,67.463,31,68.554,27.485a22.2,22.2,0,0,0-2.959-4.466c-.561,11.8-.245,24.659.242,36.268m32.793-15.9c3.324-2.875,8.078-4.318,10.433-8.2-5.605-3.808-13.438,1.178-10.433,8.2m-83.468-5.47c3.688,2.207,6.916,4.851,11.183,6.464.632-6.125-6.865-9.278-11.183-6.464M102.1,47.86c5.623,3.785,14.746-2.35,11.18-8.453-4.027,2.511-7.425,5.664-11.18,8.453M11.935,45.12c1.458,3.347,6.235,6.5,10.917,4.221A106.322,106.322,0,0,0,12.667,42.15c.143,1.382-.732,1.733-.732,2.97m54.144,81.724c3.808-.548,7.5-9.934,3.225-12.421-.872-.51-2.253.071-3.467-.739,0,4.476.413,8.514.242,13.161m-7.688-.245c-.39-3.931-.025-8.585-1.264-11.677-5.939,2.908-4.754,10.477,1.264,11.677" transform="translate(0 0.001)" fill="#fff" fill-rule="evenodd"/>
  </g>
</svg>
