<svg xmlns="http://www.w3.org/2000/svg" width="154.303" height="139.76" viewBox="0 0 154.303 139.76">
  <g id="rune2b" transform="translate(-0.002 -0.001)">
    <path id="Tracé_2309" data-name="Tracé 2309" d="M44.663.169c4.256-.98,8.52,2.458,8.761,6.264.219,3.132-2.253,6.046-4.991,6.264-5.555.453-11.112-10.842-3.77-12.529" transform="translate(64.655 0.001)" fill="#fff" fill-rule="evenodd"/>
    <path id="Tracé_2310" data-name="Tracé 2310" d="M130.61,38.458c.879,1.481,1.983,1.908,3.006,2.752.957,5.372,1.25,10.425,2.011,15.54.612,4.109,2.152,7.625,2.006,11.783-.123,3.243-1.15,7.023-1.764,10.523-1.317,7.931-2.638,13.964-6.267,19.8-2.541,4.112-8,10.158-12.009,13.781-4.678,4.233-8.471,9.345-13.287,12.284-1.618.98-3.382,1.309-4.75,2.006-1.69.833-2.916,2.422-4.531,3.253A47.3,47.3,0,0,1,81,134.438c-5.261.82-11.107,2.078-16.054,2.006-5.9-.1-15.124-1.8-20.043-4.017a78.819,78.819,0,0,1-14.265-8.769c-4.649-3.536-9.52-6.781-12.529-10.523-.931-1.139-1.52-3.07-2.52-4.516-1.4-2-3.353-3.914-5.02-6.267-1.54-2.2-4.084-4.22-4.745-6.262-.687-2.044-.491-4.565-1-6.753-.491-2.044-1.641-3.955-2.008-5.781-.635-3.155-.954-6.838-1.5-10.52C.786,69.575-.243,65.414.053,62.51c.17-1.538,1.247-3.641,1.759-5.5.589-2.068.954-4.22,1.492-5.76,1.008-2.78,3.04-5.177,4.284-8.029,2.08-4.783,3.5-10.093,5.753-14.28,1.715-3.171,4.845-6.45,7.514-9.276A48.066,48.066,0,0,1,41.407,6.89c4.382-1.42,8.738-1.69,14.025-2.507,2.986-.465,6.655-2.41,9.785-2.266,1.546.085,2.206.807,3.5,1,1.962.293,3.847-.255,5.778-.244,8.908.039,20.334,2.484,27.063,5.763,2.034.993,4.089,2.764,6.27,4.014,10.5,6.043,19.089,12.714,22.782,25.806M92.288,120.9c7.974-3.657,16.222-8.849,20.526-15.784,4.508-.964,6.192-6.056,8.278-10.52,5.483-11.739,11.006-31.427,6.259-45.116.049-.967-1.515-.319-1.489-1.247-4.037-7.967-6.586-16.543-12.038-23.311-.885-1.088-2.89-2.384-4.75-4.012-1.69-1.458-3.158-3.3-4.531-4.259-3.6-2.52-9.811-4.259-15.023-5.508A72.282,72.282,0,0,0,73.984,8.883v.759c1.342,9.031-1.327,18.1-1.764,25.806-.517,9.435.463,19.076-.491,28.83,6.483-4.307,11.919-11.809,18.8-16.546,1.417,1.533,4.428,2.51,4.256,5.007-.1,1.319-2.811,3.034-4.256,4.269-2.034,1.736-3.333,3.232-4.5,4.259-3.747,3.181-7.314,5.359-9.52,8.013-3.675,4.392-.638,6.388,2.494,9.52,3.526,3.526,6.8,6.182,10.526,9.276,1.538,1.286,4.48,3.366,4.5,5.519a3.718,3.718,0,0,1-3.5,4c-2.865.072-3.911-3.377-6.509-2.754-2.008-3.376-5.261-6.007-8.029-8.515-1.322-1.216-2.3-3.135-3.767-3.011.561,15.124,1.394,28.948,1.764,43.856,6.581-.784,12.629-3.672,18.3-6.267M47.162,15.149c-4.7,2.628-9.474,4.858-13.779,7.267-9.42,5.3-14.241,15.075-20.287,22.062-.563,8.075-3.428,12.958-4.014,20.542-1.173,15.088,6.169,26.567,10.034,38.093,2.669,3.793,7.216,6.223,10.523,9.775,1.219,1.322,2.08,3.083,3.5,4.261,1.273,1.039,3.178,1.87,4.768,3.009,4.428,3.168,9.818,6.547,15.787,8.016a32.326,32.326,0,0,0,12.017,1c-.494-15.455.123-33.037.247-48.873-4.724,3.467-9.232,9.325-13.537,14.036-.833,1.615-1.222,3.881-3.256,3.757-1.738-.1-4.109-4.994-3.5-7.267.463-1.677,3.256-2.523,4.773-3.757,4.94-4.05,10.276-12.346,14.018-15.543-2.739-2.152-5.845-5.369-9.268-8.512-3.335-3.06-7.519-5.462-9.769-8.273-3.276-4.05-.71-8.2,4.5-6.007-.44-1.005-1.1-2.032,0-2.764,3.4,1.759,5.508,5.663,8.026,8.772,1.839,2.289,3.893,4.77,5.753,6.766.514.55,1.319,1.564,2.008,1.26-1.152-8.3.144-17.068-.494-25.559-.514-6.743-1.345-16.029-1-23.311.072-1.677,1.054-3.731-.242-4.259a46.849,46.849,0,0,0-16.813,5.508" transform="translate(0.001 3.315)" fill="#fff" fill-rule="evenodd"/>
    <path id="Tracé_2311" data-name="Tracé 2311" d="M50.178,3.789c7.584-1.944,9.79,11.49,3.006,12.027-6.167.5-9.713-10.289-3.006-12.027" transform="translate(73.166 5.654)" fill="#fff" fill-rule="evenodd"/>
    <path id="Tracé_2312" data-name="Tracé 2312" d="M58.6,19.752C49.13,22.038,48.618,9.363,55.08,8.483c6.313-.869,9.787,8.859,3.523,11.269" transform="translate(79.789 13.247)" fill="#fff" fill-rule="evenodd"/>
    <path id="Tracé_2313" data-name="Tracé 2313" d="M58.422,14.451c8.98-1.517,8,15.283-1,13.03-2.132-.537-4.845-4.649-3.989-8.772.316-1.628,2.448-3.829,4.991-4.259" transform="translate(83.716 22.559)" fill="#fff" fill-rule="evenodd"/>
    <path id="Tracé_2314" data-name="Tracé 2314" d="M60.635,20.563c2.937-.381,5.7,1.394,6.264,3.757,1.052,4.624-1.741,8.54-4.012,9.029-6.025,1.273-8.983-5.958-6.784-10.034a5.931,5.931,0,0,1,4.531-2.752" transform="translate(87.033 32.235)" fill="#fff" fill-rule="evenodd"/>
    <path id="Tracé_2315" data-name="Tracé 2315" d="M61.712,27.511c8.494-1.432,7.98,12.825-.244,12.786-3.569-.01-8.589-4.148-5.5-9.52.54-.954,3.474-2.875,5.747-3.266" transform="translate(86.442 43.077)" fill="#fff" fill-rule="evenodd"/>
  </g>
</svg>
