<svg xmlns="http://www.w3.org/2000/svg" width="126.996" height="139.763" viewBox="0 0 126.996 139.763">
  <g id="rune4b" transform="translate(0 0)">
    <path id="Tracé_2316" data-name="Tracé 2316" d="M54.858,0c.865,2.028.363,4.023,1.244,5.75.985,1.936,4.116,3.823,6.161,4.312C67.821,11.407,72.977,6.8,73.78,1.647c3.532,3.27,1,8.327-1.042,11.5-1.546,2.429-2.13,3.935-4.917,4.736-.443,4.175.3,7.555.6,11.5,11.338.862,23.6.8,34.312,2.269,1.145,12.75.323,23.846.622,37.191a21.674,21.674,0,0,0,9.451.411C115.1,65.664,123.544,58.814,127,64.922a8.014,8.014,0,0,0-6.383,10.486c1,2.838,3.753,4.032,6.383,5.337-5.6,2.3-13.225.782-13.566-5.139-2.809-.671-6.661-.318-10.073-.409-1,12.208.462,25.5-1.023,37.813-11.757-.16-24.179.812-35.957-.211-.019,4.2-1.143,7.606,0,11.1.462,1.457,1.944,2.56,2.868,3.9,2.066,3.011,3.091,7.787,0,10.9-.259-5.758-7.224-9.381-12.118-6.17-1.946,1.282-2.787,3.741-2.047,7.194-.782.31-1.324-1.075-1.645-1.847-2.408-5.609,1.324-12.662,5.739-13.978.54-3.31,1.4-7.353,1.044-10.884-12.162-1.143-23.717,1.9-34.734.2-.964-1.174.3-2.707,0-4.314-.2-1.073-1.668-2.005-1.847-3.289a46.069,46.069,0,0,1,0-7.806c.443-8.086,0-17.79,1.023-24.651-2.769-.913-6.06.08-9.25,0-1.546,5.248-5.7,10.425-12.94,8.006,4.392-.723,7.323-5.969,6.981-11.1C9.109,64.741,4.7,62.995,0,62.052c5.516-4.093,15.009-1.223,15.409,5.75a55.508,55.508,0,0,0,9.05-1.023c-.339-12.833-.483-27.179.822-39.038,12.742-.563,22.833,1.554,35.135,1.434-1.586-2.528,1.166-6.41.622-10.486-3.129-.038-4.194-.94-5.959-2.456C51.307,13.014,50.3,3.27,54.858,0M32.065,36.157c.08,6.452-.221,14.3-.2,20.347C36.419,46.4,42.9,38.236,55.28,35.959c-7.926-.835-15.991.118-23.215.2M86.5,42.529c2.566,2.218,4.512,5.678,6.178,8.839a40.983,40.983,0,0,1,3.692,11.3C96.816,52.914,95.631,47,94.931,37.6a94.745,94.745,0,0,0-17.88-1.233c2.87,2.617,6.623,3.7,9.453,6.159M74.581,41.3c-.983-.171-1.042.593-2.047.411-8-4.835-17.273-.932-23.213,3.289-2.368,1.687-7.365,4.506-8.428,6.783-.221.462.1.24.2.822.078.413-.1.552-.2.822-.943,2.832-4.616,6.132-4.312,9.453,2.5-2.2,6.661-3.612,10.895-5.347a39.354,39.354,0,0,1,12.518-3.081c12.2-.814,22.555.561,30,5.337-2.469-8.818-9.031-13.554-15.413-18.49M71.311,79.52a47.178,47.178,0,0,0,12.32-3.291c2.431-1.023,8.85-3.61,8.833-6.781,0-1.6-2.311-3.452-3.694-4.525a33.206,33.206,0,0,0-17.678-6.57c9.09,3.241,6.22,18.38.219,21.168M37.6,69.447c4.156,4.957,10.614,7.616,17.678,9.661.28-.673-1.343-1.735-1.845-2.678-2.669-4.875-2.007-12.683,1.645-16.645-7.7,1.354-12.459,5.628-17.478,9.661m18.7,2.88c1.042,2.378,6.239,5.427,10.271,4.514,2.149-.472,6.385-4.725,6.583-7.194.5-6.25-5.136-10.051-10.273-9.451-4.576.542-8.909,6.823-6.581,12.13M39.449,84.445c.881,1.737,1.565,3.734,2.469,5.349,4.352,7.684,9.13,11.667,19.12,12.531a22.925,22.925,0,0,0,18.9-6.783c4.6-4.424,8.55-9.782,10.275-16.023-1.807.5-3.412,1.917-5.358,2.667-2.929,1.145-6.522.934-10.275,1.649a37.828,37.828,0,0,1-6.159,1.023c-1.687-.021-3.49-.782-5.337-1.023-2.005-.272-4.255.08-6.161-.211a32.312,32.312,0,0,1-4.736-1.647,84.272,84.272,0,0,1-16.833-8.417c.622,4.776,2.288,7.283,4.093,10.884m-7.587,21.372c5.68.4,11.639,1.634,17.657,1.021-4.592-1.874-7.283-4.713-9.849-8.826-1.387-2.229-3.372-4.365-4.314-6.583a61.753,61.753,0,0,1-4.535-16.643c-.342,11.045.822,20.556,1.042,31.031m40.273,1.845c8.748-.211,16.795-.1,24.64-.411-.179-7.656.964-15.489-.4-22.6a52.421,52.421,0,0,1-24.238,23.006" transform="translate(0 0)" fill="#fff" fill-rule="evenodd"/>
  </g>
</svg>
