<svg xmlns="http://www.w3.org/2000/svg" width="575" height="55.336" viewBox="0 0 575 55.336">
  <g id="separator-bottom" transform="translate(-4 0)">
    <g id="Groupe_2635" data-name="Groupe 2635" transform="translate(4 0)">
      <path id="Tracé_1615" data-name="Tracé 1615" d="M202.019,0,187.5,14.524,172.981,0H-100V1.07H172.538L206.4,34.932,187.5,53.819v0L168.6,34.936l15.116-15.123,3.026,3.028L174.652,34.936,187.5,47.772v0l12.848-12.835L170.764,5.35H-35.8V6.42H170.321l12.641,12.638L167.087,34.936l20.413,20.4v0l20.413-20.4-15.874-15.87L204.677,6.424H410.8V5.354H204.234L191.281,18.3l-3.026-3.026,14.207-14.2H475V0Zm-3.184,34.928L187.5,46.254v0L176.165,34.936,187.5,23.6ZM-36.894,5.32a.532.532,0,0,0-.535.535.532.532,0,0,0,.535.535.535.535,0,0,0,.535-.535.535.535,0,0,0-.535-.535m-10.567.531a23.5,23.5,0,0,0-8.947,3.06,10.818,10.818,0,0,0-5.174,7.8,11.93,11.93,0,0,0,2.754,8.941,11.993,11.993,0,0,0,8.376,4.066,11.67,11.67,0,0,0,4.706-.509,6.4,6.4,0,0,0,3.717-2.891,5.071,5.071,0,0,0,.062-4.661,14.653,14.653,0,0,0-3-3.621,8.87,8.87,0,0,1-1.468-1.759A2.506,2.506,0,0,1-46.6,14.13c.627-1.429,2.4-1.86,3.882-1.872v-.163c-1.5,0-3.355.389-4.083,1.952a2.76,2.76,0,0,0,.146,2.354,9.268,9.268,0,0,0,1.494,1.834A14.264,14.264,0,0,1-42.269,21.8a4.69,4.69,0,0,1-.1,4.327,5.977,5.977,0,0,1-3.514,2.658,11.313,11.313,0,0,1-4.522.434,11.444,11.444,0,0,1-7.941-3.963A11.233,11.233,0,0,1-60.859,16.8a10.019,10.019,0,0,1,4.9-7.184A22.676,22.676,0,0,1-47.317,6.8a52.178,52.178,0,0,1,9.244-.385l.009-1.07a53.494,53.494,0,0,0-9.4.509m478.913,3.06a23.543,23.543,0,0,0-8.951-3.06,53.424,53.424,0,0,0-9.392-.509l.009,1.07a52.147,52.147,0,0,1,9.24.385A22.652,22.652,0,0,1,431,9.621a10.019,10.019,0,0,1,4.9,7.184,11.23,11.23,0,0,1-2.5,8.455,11.466,11.466,0,0,1-7.946,3.963,11.32,11.32,0,0,1-4.522-.434,5.99,5.99,0,0,1-3.514-2.658,4.7,4.7,0,0,1-.1-4.327,14.282,14.282,0,0,1,2.9-3.569,9.248,9.248,0,0,0,1.489-1.834,2.745,2.745,0,0,0,.146-2.354c-.723-1.562-2.579-1.947-4.083-1.952v.163c1.479.013,3.255.443,3.882,1.872a2.491,2.491,0,0,1-.163,2.148,8.727,8.727,0,0,1-1.468,1.759,14.637,14.637,0,0,0-3,3.621,5.071,5.071,0,0,0,.058,4.661,6.4,6.4,0,0,0,3.717,2.891,11.683,11.683,0,0,0,4.71.509,11.992,11.992,0,0,0,8.371-4.066,11.912,11.912,0,0,0,2.754-8.941,10.812,10.812,0,0,0-5.17-7.8M411.939,5.32a.535.535,0,1,0,.535.535.532.532,0,0,0-.535-.535" transform="translate(100)" fill="#fee9af"/>
    </g>
  </g>
</svg>
