<svg xmlns="http://www.w3.org/2000/svg" xmlns:xlink="http://www.w3.org/1999/xlink" width="224.68" height="33.78" viewBox="0 0 224.68 33.78">
  <defs>
    <clipPath id="clip-path">
      <rect id="Rectangle_1335" data-name="Rectangle 1335" width="56.884" height="33.78" fill="none"/>
    </clipPath>
  </defs>
  <g id="Groupe_2674" data-name="Groupe 2674" transform="translate(-238 -494.72)">
    <g id="Groupe_2675" data-name="Groupe 2675">
      <g id="Groupe_2644" data-name="Groupe 2644" transform="translate(405.797 494.72)">
        <g id="Groupe_2643" data-name="Groupe 2643" transform="translate(0)" clip-path="url(#clip-path)">
          <path id="Tracé_1622" data-name="Tracé 1622" d="M15.261,17.2l7.475,6.2c-.806.554-1.552,1.182-2.3,1.808L13.02,19.06Zm26.363-.624-7.475-6.2c.806-.553,1.552-1.182,2.3-1.808l7.415,6.147Zm15.26-6.721a13.579,13.579,0,0,0-5.445,2.853c-.726-.641-1.485-1.246-2.23-1.864a16.078,16.078,0,0,1,6.576-3.66l1.1-.28ZM33.914.621a14.022,14.022,0,0,1,4.278,1.807A38.364,38.364,0,0,1,42.016,5.44L39.775,7.3l-2-1.659a10.854,10.854,0,0,0-1.85-1.251C31.909,2.261,25.173,2.317,21.13,4.37c-.777-.653-1.546-1.316-2.333-1.957C22.977-.19,29.172-.516,33.914.621m-.485,22.749c-.771.639-1.433,1.4-2.223,2.018a6.754,6.754,0,0,0-5.908.276,31.756,31.756,0,0,0-4.224,3.3,10.564,10.564,0,0,1-1.69-1.152l-.7-.578a51.039,51.039,0,0,1,4.507-3.626,9.5,9.5,0,0,1,10.235-.236m2.325,6.039c.777.653,1.546,1.316,2.333,1.957-4.181,2.6-10.376,2.928-15.118,1.792a14.019,14.019,0,0,1-4.278-1.807,38.339,38.339,0,0,1-3.823-3.012l2.241-1.858,2,1.659a10.873,10.873,0,0,0,1.85,1.251c4.015,2.126,10.751,2.07,14.794.017M31.586,8.115a31.79,31.79,0,0,0,4.224-3.3A10.563,10.563,0,0,1,37.5,5.968l.7.578a51.042,51.042,0,0,1-4.507,3.627,9.5,9.5,0,0,1-10.236.236c.772-.639,1.433-1.4,2.223-2.018a6.756,6.756,0,0,0,5.908-.276m3.5,3.6,2.252,1.867c-4.938,3.977-13.249,3.842-18.1-.18L14.868,9.78l2.241-1.858L21.066,11.2c3.489,2.892,10.323,3.33,14.022.514m2.555,8.657L42.016,24l-2.241,1.858-3.958-3.281c-3.489-2.892-10.323-3.33-14.022-.514L19.543,20.2c4.938-3.977,13.249-3.842,18.1.18m-4-14.305a16.233,16.233,0,0,1-2.4,1.745,5.485,5.485,0,0,0-5.708.151c-1.3.987-2.484,2.218-3.752,3.269-.761-.6-1.5-1.235-2.246-1.854C20.6,8.5,21.616,7.634,22.616,6.694a11.492,11.492,0,0,1,1.9-1.491,8.116,8.116,0,0,1,9.131.867m-2.3,19.745c1.3-.987,2.484-2.218,3.752-3.269.76.6,1.5,1.235,2.246,1.854-1.058.877-2.076,1.747-3.075,2.687a11.517,11.517,0,0,1-1.9,1.491,8.116,8.116,0,0,1-9.131-.866,16.249,16.249,0,0,1,2.4-1.745,5.485,5.485,0,0,0,5.708-.151m23.57.463a13.5,13.5,0,0,0,.69-2.787c.419.146.849.258,1.278.367v2.952c-.658-.168-1.321-.322-1.968-.532m-16.049.892,7.43-6.159q1.12.929,2.238,1.86l-7.417,6.149c-.78-.575-1.51-1.225-2.252-1.849M49.2,18.589a8.239,8.239,0,0,0,3.234-6.116,12.682,12.682,0,0,1,2.806-1.653,13.3,13.3,0,0,1,0,2.6,10.584,10.584,0,0,1-3.815,7.019c-.5-.411-.993-.832-1.491-1.245ZM51.774,8.425a8.718,8.718,0,0,0-3.587-4.4,6.1,6.1,0,0,0-7.05.131c-.758-.629-1.5-1.285-2.316-1.842A8.967,8.967,0,0,1,44.755.079a11.063,11.063,0,0,1,9.6,7.1,14.038,14.038,0,0,0-2.581,1.25m-6.846-.571c2.313,1.917,4.8,3.746,6.95,5.849a6.6,6.6,0,0,1-1.272,2.813,15.2,15.2,0,0,0-1.863-1.783l-6.055-5.02q1.12-.929,2.24-1.859m9.56,9.492a9.825,9.825,0,0,1,.752,2.947A12.784,12.784,0,0,1,52.18,30.05a9.939,9.939,0,0,1-2.986-1.081,9.722,9.722,0,0,0,3.2-8.39q-.022-.216-.054-.422a12.413,12.413,0,0,0,2.149-2.811M48.47,32.762a10.317,10.317,0,0,1-3.714.872c-2.644.12-4.765-1.227-6.707-2.857q-1.871-1.57-3.742-3.142c.714-.647,1.4-1.321,2.142-1.937q1.721,1.442,3.439,2.888c1.514,1.271,3.138,2.379,5.215,2.153a18.151,18.151,0,0,0,3.367,2.022m-3.542-6.346a21.339,21.339,0,0,0,5.372,3.55,17.955,17.955,0,0,0,6.584.771V33.6c-2.858,0-5.675-.063-8.334-1.269a27.1,27.1,0,0,1-5.861-4.055Zm-6.913-17.1C40.4,7.338,42.77,5.342,45.225,3.42A7.188,7.188,0,0,1,48.43,4.7a40.269,40.269,0,0,0-4.458,3.4l-3.715,3.08ZM49.518.992A21.474,21.474,0,0,1,56.884.115v2.86a27.25,27.25,0,0,0-4.547.223A11.491,11.491,0,0,0,49.518.992m-.98,14.126-8.281,6.865-2.241-1.858L46.3,13.261l2.173,1.8.068.057m3.011,9.516c-2.4-1.757-4.728-3.749-7.012-5.642l2.241-1.858,2.882,2.39c.817.677,1.576,1.336,2.354,1.932a10.078,10.078,0,0,1-.466,3.177M0,23.856A13.449,13.449,0,0,0,5.445,21.07c.726.641,1.485,1.246,2.23,1.864A15.963,15.963,0,0,1,1.1,26.528l-1.1.28ZM1.968,7.5a12.9,12.9,0,0,0-.69,2.72C.86,10.077.43,9.965,0,9.856V6.9c.658.168,1.322.389,1.968.6m16.049-.892-7.43,6.16q-1.12-.929-2.238-1.86l7.417-6.149c.78.575,1.51,1.225,2.252,1.849M7.68,15.19a8.24,8.24,0,0,0-3.234,6.116A12.671,12.671,0,0,1,1.64,22.96a13.289,13.289,0,0,1,0-2.6A10.583,10.583,0,0,1,5.46,13.341c.5.411.993.832,1.49,1.244ZM5.11,25.354a8.717,8.717,0,0,0,3.587,4.4,6.1,6.1,0,0,0,7.05-.131c.758.629,1.5,1.285,2.316,1.841A8.965,8.965,0,0,1,12.129,33.7a11.063,11.063,0,0,1-9.6-7.1,14.066,14.066,0,0,0,2.581-1.25m6.846.571c-2.313-1.918-4.8-3.746-6.95-5.849a6.593,6.593,0,0,1,1.272-2.813,15.174,15.174,0,0,0,1.863,1.783l6.055,5.02q-1.12.929-2.24,1.859M2.4,16.434a9.819,9.819,0,0,1-.752-2.947A12.785,12.785,0,0,1,4.7,3.73,9.934,9.934,0,0,1,7.69,4.811a9.72,9.72,0,0,0-3.2,8.39c.014.144.033.284.054.422A12.4,12.4,0,0,0,2.4,16.434M8.415,1.018A10.321,10.321,0,0,1,12.129.146C14.773.026,16.894,1.373,18.835,3q1.872,1.57,3.742,3.143c-.714.647-1.4,1.321-2.142,1.937Q18.714,6.64,17,5.193c-1.514-1.271-3.138-2.379-5.215-2.153A18.187,18.187,0,0,0,8.415,1.018m3.541,6.346a21.318,21.318,0,0,0-5.372-3.55A18,18,0,0,0,0,2.976V.115A19.652,19.652,0,0,1,8.335,1.452,27.084,27.084,0,0,1,14.2,5.507Zm6.913,17.1c-2.383,1.976-4.754,3.971-7.21,5.894a7.19,7.19,0,0,1-3.2-1.276,40.3,40.3,0,0,0,4.458-3.4l3.715-3.08Zm-11.5,8.321A21.426,21.426,0,0,1,0,33.6v-2.86a27.254,27.254,0,0,0,4.547-.156,11.483,11.483,0,0,0,2.82,2.206m.98-14.126L16.628,11.8l2.241,1.858-8.281,6.865-2.173-1.8-.068-.057M5.336,9.145c2.4,1.758,4.728,3.749,7.012,5.642l-2.241,1.858-2.883-2.39c-.817-.677-1.576-1.336-2.354-1.933a10.07,10.07,0,0,1,.466-3.177" transform="translate(0 0)" fill="#fff" fill-rule="evenodd"/>
        </g>
      </g>
      <g id="Groupe_2645" data-name="Groupe 2645" transform="translate(349.864 494.72)">
        <g id="Groupe_2643-2" data-name="Groupe 2643" transform="translate(0)" clip-path="url(#clip-path)">
          <path id="Tracé_1622-2" data-name="Tracé 1622" d="M15.261,17.2l7.475,6.2c-.806.554-1.552,1.182-2.3,1.808L13.02,19.06Zm26.363-.624-7.475-6.2c.806-.553,1.552-1.182,2.3-1.808l7.415,6.147Zm15.26-6.721a13.579,13.579,0,0,0-5.445,2.853c-.726-.641-1.485-1.246-2.23-1.864a16.078,16.078,0,0,1,6.576-3.66l1.1-.28ZM33.914.621a14.022,14.022,0,0,1,4.278,1.807A38.364,38.364,0,0,1,42.016,5.44L39.775,7.3l-2-1.659a10.854,10.854,0,0,0-1.85-1.251C31.909,2.261,25.173,2.317,21.13,4.37c-.777-.653-1.546-1.316-2.333-1.957C22.977-.19,29.172-.516,33.914.621m-.485,22.749c-.771.639-1.433,1.4-2.223,2.018a6.754,6.754,0,0,0-5.908.276,31.756,31.756,0,0,0-4.224,3.3,10.564,10.564,0,0,1-1.69-1.152l-.7-.578a51.039,51.039,0,0,1,4.507-3.626,9.5,9.5,0,0,1,10.235-.236m2.325,6.039c.777.653,1.546,1.316,2.333,1.957-4.181,2.6-10.376,2.928-15.118,1.792a14.019,14.019,0,0,1-4.278-1.807,38.339,38.339,0,0,1-3.823-3.012l2.241-1.858,2,1.659a10.873,10.873,0,0,0,1.85,1.251c4.015,2.126,10.751,2.07,14.794.017M31.586,8.115a31.79,31.79,0,0,0,4.224-3.3A10.563,10.563,0,0,1,37.5,5.968l.7.578a51.042,51.042,0,0,1-4.507,3.627,9.5,9.5,0,0,1-10.236.236c.772-.639,1.433-1.4,2.223-2.018a6.756,6.756,0,0,0,5.908-.276m3.5,3.6,2.252,1.867c-4.938,3.977-13.249,3.842-18.1-.18L14.868,9.78l2.241-1.858L21.066,11.2c3.489,2.892,10.323,3.33,14.022.514m2.555,8.657L42.016,24l-2.241,1.858-3.958-3.281c-3.489-2.892-10.323-3.33-14.022-.514L19.543,20.2c4.938-3.977,13.249-3.842,18.1.18m-4-14.305a16.233,16.233,0,0,1-2.4,1.745,5.485,5.485,0,0,0-5.708.151c-1.3.987-2.484,2.218-3.752,3.269-.761-.6-1.5-1.235-2.246-1.854C20.6,8.5,21.616,7.634,22.616,6.694a11.492,11.492,0,0,1,1.9-1.491,8.116,8.116,0,0,1,9.131.867m-2.3,19.745c1.3-.987,2.484-2.218,3.752-3.269.76.6,1.5,1.235,2.246,1.854-1.058.877-2.076,1.747-3.075,2.687a11.517,11.517,0,0,1-1.9,1.491,8.116,8.116,0,0,1-9.131-.866,16.249,16.249,0,0,1,2.4-1.745,5.485,5.485,0,0,0,5.708-.151m23.57.463a13.5,13.5,0,0,0,.69-2.787c.419.146.849.258,1.278.367v2.952c-.658-.168-1.321-.322-1.968-.532m-16.049.892,7.43-6.159q1.12.929,2.238,1.86l-7.417,6.149c-.78-.575-1.51-1.225-2.252-1.849M49.2,18.589a8.239,8.239,0,0,0,3.234-6.116,12.682,12.682,0,0,1,2.806-1.653,13.3,13.3,0,0,1,0,2.6,10.584,10.584,0,0,1-3.815,7.019c-.5-.411-.993-.832-1.491-1.245ZM51.774,8.425a8.718,8.718,0,0,0-3.587-4.4,6.1,6.1,0,0,0-7.05.131c-.758-.629-1.5-1.285-2.316-1.842A8.967,8.967,0,0,1,44.755.079a11.063,11.063,0,0,1,9.6,7.1,14.038,14.038,0,0,0-2.581,1.25m-6.846-.571c2.313,1.917,4.8,3.746,6.95,5.849a6.6,6.6,0,0,1-1.272,2.813,15.2,15.2,0,0,0-1.863-1.783l-6.055-5.02q1.12-.929,2.24-1.859m9.56,9.492a9.825,9.825,0,0,1,.752,2.947A12.784,12.784,0,0,1,52.18,30.05a9.939,9.939,0,0,1-2.986-1.081,9.722,9.722,0,0,0,3.2-8.39q-.022-.216-.054-.422a12.413,12.413,0,0,0,2.149-2.811M48.47,32.762a10.317,10.317,0,0,1-3.714.872c-2.644.12-4.765-1.227-6.707-2.857q-1.871-1.57-3.742-3.142c.714-.647,1.4-1.321,2.142-1.937q1.721,1.442,3.439,2.888c1.514,1.271,3.138,2.379,5.215,2.153a18.151,18.151,0,0,0,3.367,2.022m-3.542-6.346a21.339,21.339,0,0,0,5.372,3.55,17.955,17.955,0,0,0,6.584.771V33.6c-2.858,0-5.675-.063-8.334-1.269a27.1,27.1,0,0,1-5.861-4.055Zm-6.913-17.1C40.4,7.338,42.77,5.342,45.225,3.42A7.188,7.188,0,0,1,48.43,4.7a40.269,40.269,0,0,0-4.458,3.4l-3.715,3.08ZM49.518.992A21.474,21.474,0,0,1,56.884.115v2.86a27.25,27.25,0,0,0-4.547.223A11.491,11.491,0,0,0,49.518.992m-.98,14.126-8.281,6.865-2.241-1.858L46.3,13.261l2.173,1.8.068.057m3.011,9.516c-2.4-1.757-4.728-3.749-7.012-5.642l2.241-1.858,2.882,2.39c.817.677,1.576,1.336,2.354,1.932a10.078,10.078,0,0,1-.466,3.177M0,23.856A13.449,13.449,0,0,0,5.445,21.07c.726.641,1.485,1.246,2.23,1.864A15.963,15.963,0,0,1,1.1,26.528l-1.1.28ZM1.968,7.5a12.9,12.9,0,0,0-.69,2.72C.86,10.077.43,9.965,0,9.856V6.9c.658.168,1.322.389,1.968.6m16.049-.892-7.43,6.16q-1.12-.929-2.238-1.86l7.417-6.149c.78.575,1.51,1.225,2.252,1.849M7.68,15.19a8.24,8.24,0,0,0-3.234,6.116A12.671,12.671,0,0,1,1.64,22.96a13.289,13.289,0,0,1,0-2.6A10.583,10.583,0,0,1,5.46,13.341c.5.411.993.832,1.49,1.244ZM5.11,25.354a8.717,8.717,0,0,0,3.587,4.4,6.1,6.1,0,0,0,7.05-.131c.758.629,1.5,1.285,2.316,1.841A8.965,8.965,0,0,1,12.129,33.7a11.063,11.063,0,0,1-9.6-7.1,14.066,14.066,0,0,0,2.581-1.25m6.846.571c-2.313-1.918-4.8-3.746-6.95-5.849a6.593,6.593,0,0,1,1.272-2.813,15.174,15.174,0,0,0,1.863,1.783l6.055,5.02q-1.12.929-2.24,1.859M2.4,16.434a9.819,9.819,0,0,1-.752-2.947A12.785,12.785,0,0,1,4.7,3.73,9.934,9.934,0,0,1,7.69,4.811a9.72,9.72,0,0,0-3.2,8.39c.014.144.033.284.054.422A12.4,12.4,0,0,0,2.4,16.434M8.415,1.018A10.321,10.321,0,0,1,12.129.146C14.773.026,16.894,1.373,18.835,3q1.872,1.57,3.742,3.143c-.714.647-1.4,1.321-2.142,1.937Q18.714,6.64,17,5.193c-1.514-1.271-3.138-2.379-5.215-2.153A18.187,18.187,0,0,0,8.415,1.018m3.541,6.346a21.318,21.318,0,0,0-5.372-3.55A18,18,0,0,0,0,2.976V.115A19.652,19.652,0,0,1,8.335,1.452,27.084,27.084,0,0,1,14.2,5.507Zm6.913,17.1c-2.383,1.976-4.754,3.971-7.21,5.894a7.19,7.19,0,0,1-3.2-1.276,40.3,40.3,0,0,0,4.458-3.4l3.715-3.08Zm-11.5,8.321A21.426,21.426,0,0,1,0,33.6v-2.86a27.254,27.254,0,0,0,4.547-.156,11.483,11.483,0,0,0,2.82,2.206m.98-14.126L16.628,11.8l2.241,1.858-8.281,6.865-2.173-1.8-.068-.057M5.336,9.145c2.4,1.758,4.728,3.749,7.012,5.642l-2.241,1.858-2.883-2.39c-.817-.677-1.576-1.336-2.354-1.933a10.07,10.07,0,0,1,.466-3.177" transform="translate(0 0)" fill="#fff" fill-rule="evenodd"/>
        </g>
      </g>
      <g id="Groupe_2643-3" data-name="Groupe 2643" transform="translate(293.884 494.72)" clip-path="url(#clip-path)">
        <path id="Tracé_1622-3" data-name="Tracé 1622" d="M15.261,17.2l7.475,6.2c-.806.554-1.552,1.182-2.3,1.808L13.02,19.06Zm26.363-.624-7.475-6.2c.806-.553,1.552-1.182,2.3-1.808l7.415,6.147Zm15.26-6.721a13.579,13.579,0,0,0-5.445,2.853c-.726-.641-1.485-1.246-2.23-1.864a16.078,16.078,0,0,1,6.576-3.66l1.1-.28ZM33.914.621a14.022,14.022,0,0,1,4.278,1.807A38.364,38.364,0,0,1,42.016,5.44L39.775,7.3l-2-1.659a10.854,10.854,0,0,0-1.85-1.251C31.909,2.261,25.173,2.317,21.13,4.37c-.777-.653-1.546-1.316-2.333-1.957C22.977-.19,29.172-.516,33.914.621m-.485,22.749c-.771.639-1.433,1.4-2.223,2.018a6.754,6.754,0,0,0-5.908.276,31.756,31.756,0,0,0-4.224,3.3,10.564,10.564,0,0,1-1.69-1.152l-.7-.578a51.039,51.039,0,0,1,4.507-3.626,9.5,9.5,0,0,1,10.235-.236m2.325,6.039c.777.653,1.546,1.316,2.333,1.957-4.181,2.6-10.376,2.928-15.118,1.792a14.019,14.019,0,0,1-4.278-1.807,38.339,38.339,0,0,1-3.823-3.012l2.241-1.858,2,1.659a10.873,10.873,0,0,0,1.85,1.251c4.015,2.126,10.751,2.07,14.794.017M31.586,8.115a31.79,31.79,0,0,0,4.224-3.3A10.563,10.563,0,0,1,37.5,5.968l.7.578a51.042,51.042,0,0,1-4.507,3.627,9.5,9.5,0,0,1-10.236.236c.772-.639,1.433-1.4,2.223-2.018a6.756,6.756,0,0,0,5.908-.276m3.5,3.6,2.252,1.867c-4.938,3.977-13.249,3.842-18.1-.18L14.868,9.78l2.241-1.858L21.066,11.2c3.489,2.892,10.323,3.33,14.022.514m2.555,8.657L42.016,24l-2.241,1.858-3.958-3.281c-3.489-2.892-10.323-3.33-14.022-.514L19.543,20.2c4.938-3.977,13.249-3.842,18.1.18m-4-14.305a16.233,16.233,0,0,1-2.4,1.745,5.485,5.485,0,0,0-5.708.151c-1.3.987-2.484,2.218-3.752,3.269-.761-.6-1.5-1.235-2.246-1.854C20.6,8.5,21.616,7.634,22.616,6.694a11.492,11.492,0,0,1,1.9-1.491,8.116,8.116,0,0,1,9.131.867m-2.3,19.745c1.3-.987,2.484-2.218,3.752-3.269.76.6,1.5,1.235,2.246,1.854-1.058.877-2.076,1.747-3.075,2.687a11.517,11.517,0,0,1-1.9,1.491,8.116,8.116,0,0,1-9.131-.866,16.249,16.249,0,0,1,2.4-1.745,5.485,5.485,0,0,0,5.708-.151m23.57.463a13.5,13.5,0,0,0,.69-2.787c.419.146.849.258,1.278.367v2.952c-.658-.168-1.321-.322-1.968-.532m-16.049.892,7.43-6.159q1.12.929,2.238,1.86l-7.417,6.149c-.78-.575-1.51-1.225-2.252-1.849M49.2,18.589a8.239,8.239,0,0,0,3.234-6.116,12.682,12.682,0,0,1,2.806-1.653,13.3,13.3,0,0,1,0,2.6,10.584,10.584,0,0,1-3.815,7.019c-.5-.411-.993-.832-1.491-1.245ZM51.774,8.425a8.718,8.718,0,0,0-3.587-4.4,6.1,6.1,0,0,0-7.05.131c-.758-.629-1.5-1.285-2.316-1.842A8.967,8.967,0,0,1,44.755.079a11.063,11.063,0,0,1,9.6,7.1,14.038,14.038,0,0,0-2.581,1.25m-6.846-.571c2.313,1.917,4.8,3.746,6.95,5.849a6.6,6.6,0,0,1-1.272,2.813,15.2,15.2,0,0,0-1.863-1.783l-6.055-5.02q1.12-.929,2.24-1.859m9.56,9.492a9.825,9.825,0,0,1,.752,2.947A12.784,12.784,0,0,1,52.18,30.05a9.939,9.939,0,0,1-2.986-1.081,9.722,9.722,0,0,0,3.2-8.39q-.022-.216-.054-.422a12.413,12.413,0,0,0,2.149-2.811M48.47,32.762a10.317,10.317,0,0,1-3.714.872c-2.644.12-4.765-1.227-6.707-2.857q-1.871-1.57-3.742-3.142c.714-.647,1.4-1.321,2.142-1.937q1.721,1.442,3.439,2.888c1.514,1.271,3.138,2.379,5.215,2.153a18.151,18.151,0,0,0,3.367,2.022m-3.542-6.346a21.339,21.339,0,0,0,5.372,3.55,17.955,17.955,0,0,0,6.584.771V33.6c-2.858,0-5.675-.063-8.334-1.269a27.1,27.1,0,0,1-5.861-4.055Zm-6.913-17.1C40.4,7.338,42.77,5.342,45.225,3.42A7.188,7.188,0,0,1,48.43,4.7a40.269,40.269,0,0,0-4.458,3.4l-3.715,3.08ZM49.518.992A21.474,21.474,0,0,1,56.884.115v2.86a27.25,27.25,0,0,0-4.547.223A11.491,11.491,0,0,0,49.518.992m-.98,14.126-8.281,6.865-2.241-1.858L46.3,13.261l2.173,1.8.068.057m3.011,9.516c-2.4-1.757-4.728-3.749-7.012-5.642l2.241-1.858,2.882,2.39c.817.677,1.576,1.336,2.354,1.932a10.078,10.078,0,0,1-.466,3.177M0,23.856A13.449,13.449,0,0,0,5.445,21.07c.726.641,1.485,1.246,2.23,1.864A15.963,15.963,0,0,1,1.1,26.528l-1.1.28ZM1.968,7.5a12.9,12.9,0,0,0-.69,2.72C.86,10.077.43,9.965,0,9.856V6.9c.658.168,1.322.389,1.968.6m16.049-.892-7.43,6.16q-1.12-.929-2.238-1.86l7.417-6.149c.78.575,1.51,1.225,2.252,1.849M7.68,15.19a8.24,8.24,0,0,0-3.234,6.116A12.671,12.671,0,0,1,1.64,22.96a13.289,13.289,0,0,1,0-2.6A10.583,10.583,0,0,1,5.46,13.341c.5.411.993.832,1.49,1.244ZM5.11,25.354a8.717,8.717,0,0,0,3.587,4.4,6.1,6.1,0,0,0,7.05-.131c.758.629,1.5,1.285,2.316,1.841A8.965,8.965,0,0,1,12.129,33.7a11.063,11.063,0,0,1-9.6-7.1,14.066,14.066,0,0,0,2.581-1.25m6.846.571c-2.313-1.918-4.8-3.746-6.95-5.849a6.593,6.593,0,0,1,1.272-2.813,15.174,15.174,0,0,0,1.863,1.783l6.055,5.02q-1.12.929-2.24,1.859M2.4,16.434a9.819,9.819,0,0,1-.752-2.947A12.785,12.785,0,0,1,4.7,3.73,9.934,9.934,0,0,1,7.69,4.811a9.72,9.72,0,0,0-3.2,8.39c.014.144.033.284.054.422A12.4,12.4,0,0,0,2.4,16.434M8.415,1.018A10.321,10.321,0,0,1,12.129.146C14.773.026,16.894,1.373,18.835,3q1.872,1.57,3.742,3.143c-.714.647-1.4,1.321-2.142,1.937Q18.714,6.64,17,5.193c-1.514-1.271-3.138-2.379-5.215-2.153A18.187,18.187,0,0,0,8.415,1.018m3.541,6.346a21.318,21.318,0,0,0-5.372-3.55A18,18,0,0,0,0,2.976V.115A19.652,19.652,0,0,1,8.335,1.452,27.084,27.084,0,0,1,14.2,5.507Zm6.913,17.1c-2.383,1.976-4.754,3.971-7.21,5.894a7.19,7.19,0,0,1-3.2-1.276,40.3,40.3,0,0,0,4.458-3.4l3.715-3.08Zm-11.5,8.321A21.426,21.426,0,0,1,0,33.6v-2.86a27.254,27.254,0,0,0,4.547-.156,11.483,11.483,0,0,0,2.82,2.206m.98-14.126L16.628,11.8l2.241,1.858-8.281,6.865-2.173-1.8-.068-.057M5.336,9.145c2.4,1.758,4.728,3.749,7.012,5.642l-2.241,1.858-2.883-2.39c-.817-.677-1.576-1.336-2.354-1.933a10.07,10.07,0,0,1,.466-3.177" transform="translate(0 0)" fill="#fff" fill-rule="evenodd"/>
      </g>
      <g id="Groupe_2647" data-name="Groupe 2647" transform="translate(238 494.72)" clip-path="url(#clip-path)">
        <path id="Tracé_1623" data-name="Tracé 1623" d="M15.261,17.2l7.475,6.2c-.806.554-1.552,1.182-2.3,1.808L13.02,19.06Zm26.363-.624-7.475-6.2c.806-.553,1.552-1.182,2.3-1.808l7.415,6.147Zm15.26-6.721a13.579,13.579,0,0,0-5.445,2.853c-.726-.641-1.485-1.246-2.23-1.864a16.078,16.078,0,0,1,6.576-3.66l1.1-.28ZM33.914.621a14.022,14.022,0,0,1,4.278,1.807A38.364,38.364,0,0,1,42.016,5.44L39.775,7.3l-2-1.659a10.854,10.854,0,0,0-1.85-1.251C31.909,2.261,25.173,2.317,21.13,4.37c-.777-.653-1.546-1.316-2.333-1.957C22.977-.19,29.172-.516,33.914.621m-.485,22.749c-.771.639-1.433,1.4-2.223,2.018a6.754,6.754,0,0,0-5.908.276,31.756,31.756,0,0,0-4.224,3.3,10.564,10.564,0,0,1-1.69-1.152l-.7-.578a51.039,51.039,0,0,1,4.507-3.626,9.5,9.5,0,0,1,10.235-.236m2.325,6.039c.777.653,1.546,1.316,2.333,1.957-4.181,2.6-10.376,2.928-15.118,1.792a14.019,14.019,0,0,1-4.278-1.807,38.339,38.339,0,0,1-3.823-3.012l2.241-1.858,2,1.659a10.873,10.873,0,0,0,1.85,1.251c4.015,2.126,10.751,2.07,14.794.017M31.586,8.115a31.79,31.79,0,0,0,4.224-3.3A10.563,10.563,0,0,1,37.5,5.968l.7.578a51.042,51.042,0,0,1-4.507,3.627,9.5,9.5,0,0,1-10.236.236c.772-.639,1.433-1.4,2.223-2.018a6.756,6.756,0,0,0,5.908-.276m3.5,3.6,2.252,1.867c-4.938,3.977-13.249,3.842-18.1-.18L14.868,9.78l2.241-1.858L21.066,11.2c3.489,2.892,10.323,3.33,14.022.514m2.555,8.657L42.016,24l-2.241,1.858-3.958-3.281c-3.489-2.892-10.323-3.33-14.022-.514L19.543,20.2c4.938-3.977,13.249-3.842,18.1.18m-4-14.305a16.233,16.233,0,0,1-2.4,1.745,5.485,5.485,0,0,0-5.708.151c-1.3.987-2.484,2.218-3.752,3.269-.761-.6-1.5-1.235-2.246-1.854C20.6,8.5,21.616,7.634,22.616,6.694a11.492,11.492,0,0,1,1.9-1.491,8.116,8.116,0,0,1,9.131.867m-2.3,19.745c1.3-.987,2.484-2.218,3.752-3.269.76.6,1.5,1.235,2.246,1.854-1.058.877-2.076,1.747-3.075,2.687a11.517,11.517,0,0,1-1.9,1.491,8.116,8.116,0,0,1-9.131-.866,16.249,16.249,0,0,1,2.4-1.745,5.485,5.485,0,0,0,5.708-.151m23.57.463a13.5,13.5,0,0,0,.69-2.787c.419.146.849.258,1.278.367v2.952c-.658-.168-1.321-.322-1.968-.532m-16.049.892,7.43-6.159q1.12.929,2.238,1.86l-7.417,6.149c-.78-.575-1.51-1.225-2.252-1.849M49.2,18.589a8.239,8.239,0,0,0,3.234-6.116,12.682,12.682,0,0,1,2.806-1.653,13.3,13.3,0,0,1,0,2.6,10.584,10.584,0,0,1-3.815,7.019c-.5-.411-.993-.832-1.491-1.245ZM51.774,8.425a8.718,8.718,0,0,0-3.587-4.4,6.1,6.1,0,0,0-7.05.131c-.758-.629-1.5-1.285-2.316-1.842A8.967,8.967,0,0,1,44.755.079a11.063,11.063,0,0,1,9.6,7.1,14.038,14.038,0,0,0-2.581,1.25m-6.846-.571c2.313,1.917,4.8,3.746,6.95,5.849a6.6,6.6,0,0,1-1.272,2.813,15.2,15.2,0,0,0-1.863-1.783l-6.055-5.02q1.12-.929,2.24-1.859m9.56,9.492a9.825,9.825,0,0,1,.752,2.947A12.784,12.784,0,0,1,52.18,30.05a9.939,9.939,0,0,1-2.986-1.081,9.722,9.722,0,0,0,3.2-8.39q-.022-.216-.054-.422a12.413,12.413,0,0,0,2.149-2.811M48.47,32.762a10.317,10.317,0,0,1-3.714.872c-2.644.12-4.765-1.227-6.707-2.857q-1.871-1.57-3.742-3.142c.714-.647,1.4-1.321,2.142-1.937q1.721,1.442,3.439,2.888c1.514,1.271,3.138,2.379,5.215,2.153a18.151,18.151,0,0,0,3.367,2.022m-3.542-6.346a21.339,21.339,0,0,0,5.372,3.55,17.955,17.955,0,0,0,6.584.771V33.6c-2.858,0-5.675-.063-8.334-1.269a27.1,27.1,0,0,1-5.861-4.055Zm-6.913-17.1C40.4,7.338,42.77,5.342,45.225,3.42A7.188,7.188,0,0,1,48.43,4.7a40.269,40.269,0,0,0-4.458,3.4l-3.715,3.08ZM49.518.992A21.474,21.474,0,0,1,56.884.115v2.86a27.25,27.25,0,0,0-4.547.223A11.491,11.491,0,0,0,49.518.992m-.98,14.126-8.281,6.865-2.241-1.858L46.3,13.261l2.173,1.8.068.057m3.011,9.516c-2.4-1.757-4.728-3.749-7.012-5.642l2.241-1.858,2.882,2.39c.817.677,1.576,1.336,2.354,1.932a10.078,10.078,0,0,1-.466,3.177M0,23.856A13.449,13.449,0,0,0,5.445,21.07c.726.641,1.485,1.246,2.23,1.864A15.963,15.963,0,0,1,1.1,26.528l-1.1.28ZM1.968,7.5a12.9,12.9,0,0,0-.69,2.72C.86,10.077.43,9.965,0,9.856V6.9c.658.168,1.322.389,1.968.6m16.049-.892-7.43,6.16q-1.12-.929-2.238-1.86l7.417-6.149c.78.575,1.51,1.225,2.252,1.849M7.68,15.19a8.24,8.24,0,0,0-3.234,6.116A12.671,12.671,0,0,1,1.64,22.96a13.289,13.289,0,0,1,0-2.6A10.583,10.583,0,0,1,5.46,13.341c.5.411.993.832,1.49,1.244ZM5.11,25.354a8.717,8.717,0,0,0,3.587,4.4,6.1,6.1,0,0,0,7.05-.131c.758.629,1.5,1.285,2.316,1.841A8.965,8.965,0,0,1,12.129,33.7a11.063,11.063,0,0,1-9.6-7.1,14.066,14.066,0,0,0,2.581-1.25m6.846.571c-2.313-1.918-4.8-3.746-6.95-5.849a6.593,6.593,0,0,1,1.272-2.813,15.174,15.174,0,0,0,1.863,1.783l6.055,5.02q-1.12.929-2.24,1.859M2.4,16.434a9.819,9.819,0,0,1-.752-2.947A12.785,12.785,0,0,1,4.7,3.73,9.934,9.934,0,0,1,7.69,4.811a9.72,9.72,0,0,0-3.2,8.39c.014.144.033.284.054.422A12.4,12.4,0,0,0,2.4,16.434M8.415,1.018A10.321,10.321,0,0,1,12.129.146C14.773.026,16.894,1.373,18.835,3q1.872,1.57,3.742,3.143c-.714.647-1.4,1.321-2.142,1.937Q18.714,6.64,17,5.193c-1.514-1.271-3.138-2.379-5.215-2.153A18.187,18.187,0,0,0,8.415,1.018m3.541,6.346a21.318,21.318,0,0,0-5.372-3.55A18,18,0,0,0,0,2.976V.115A19.652,19.652,0,0,1,8.335,1.452,27.084,27.084,0,0,1,14.2,5.507Zm6.913,17.1c-2.383,1.976-4.754,3.971-7.21,5.894a7.19,7.19,0,0,1-3.2-1.276,40.3,40.3,0,0,0,4.458-3.4l3.715-3.08Zm-11.5,8.321A21.426,21.426,0,0,1,0,33.6v-2.86a27.254,27.254,0,0,0,4.547-.156,11.483,11.483,0,0,0,2.82,2.206m.98-14.126L16.628,11.8l2.241,1.858-8.281,6.865-2.173-1.8-.068-.057M5.336,9.145c2.4,1.758,4.728,3.749,7.012,5.642l-2.241,1.858-2.883-2.39c-.817-.677-1.576-1.336-2.354-1.933a10.07,10.07,0,0,1,.466-3.177" transform="translate(0 0)" fill="#fff" fill-rule="evenodd"/>
      </g>
    </g>
  </g>
</svg>
