<svg id="Groupe_2715" data-name="Groupe 2715" xmlns="http://www.w3.org/2000/svg" xmlns:xlink="http://www.w3.org/1999/xlink" width="108.575" height="108.719" viewBox="0 0 108.575 108.719">
  <defs>
    <clipPath id="clip-path">
      <rect id="Rectangle_1434" data-name="Rectangle 1434" width="108.575" height="108.719" fill="none"/>
    </clipPath>
  </defs>
  <g id="Groupe_2714" data-name="Groupe 2714" clip-path="url(#clip-path)">
    <path id="Tracé_3551" data-name="Tracé 3551" d="M54.288,108.893A54.287,54.287,0,0,1,15.9,16.219,54.288,54.288,0,1,1,92.675,92.993a53.931,53.931,0,0,1-38.387,15.9m0-105.2a50.917,50.917,0,1,0,50.917,50.917A50.975,50.975,0,0,0,54.288,3.689" transform="translate(0 -0.175)" fill="#fff"/>
    <path id="Tracé_3552" data-name="Tracé 3552" d="M97.025,23.625a4.087,4.087,0,0,1-.5-.175,8.024,8.024,0,0,1-1.363-.719,9.224,9.224,0,0,1-1.921-1.657,7.959,7.959,0,0,1-.971-1.386,6.852,6.852,0,0,1-.726-1.9,6.337,6.337,0,0,1-.06-2.407,6.874,6.874,0,0,1,.94-2.458c.107-.2.244-.37.369-.558a6,6,0,0,1,.409-.531l.215-.259.027-.033c-.046.046.094-.1.088-.093l.049-.05.1-.1.2-.2.1-.1c.035-.035.1-.087.145-.129.2-.174.42-.361.632-.517s.42-.285.638-.422.458-.244.692-.364c.242-.1.488-.2.738-.3a8.463,8.463,0,0,1,3.194-.426,10.634,10.634,0,0,1,3.183.689,12.876,12.876,0,0,1,2.923,1.575,13.148,13.148,0,0,1,2.529,2.363,12.269,12.269,0,0,1,1.9,3.171,10.175,10.175,0,0,1,.732,3.951v.066c0-.021,0,.1,0,.108l-.005.1-.011.2-.011.2-.006.1-.012.125c-.033.334-.065.681-.116.987a15.183,15.183,0,0,1-.405,1.9,13.99,13.99,0,0,1-1.639,3.685c-.177.3-.389.575-.589.861-.218.273-.427.556-.667.815a12.983,12.983,0,0,1-1.532,1.479,14.032,14.032,0,0,1-1.764,1.226,14.629,14.629,0,0,1-1.935.939,16.047,16.047,0,0,1-2.039.658,19.03,19.03,0,0,1-2.091.381,22.08,22.08,0,0,1-4.2.1l-.521-.036-.517-.054-.259-.028-.129-.014-.065-.007c-.048-.006.017,0-.125-.016l-.47-.07-.471-.07-.554-.108-.561-.115-.532-.134a18.144,18.144,0,0,1-4.173-1.625,15.634,15.634,0,0,1-3.716-2.843,14.523,14.523,0,0,1-2.683-3.976,15.319,15.319,0,0,1-1.005-9.474c.088-.394.178-.789.3-1.176.055-.194.111-.389.18-.58l.1-.287.05-.143.025-.072c.016-.044,0,0,.043-.116l.184-.467c.034-.082.056-.146.1-.243l.121-.279c.081-.182.162-.379.245-.548l.249-.516a21.845,21.845,0,0,1,2.477-3.887,20.566,20.566,0,0,1,3.3-3.3,19.8,19.8,0,0,1,4-2.454,20.636,20.636,0,0,1,2.181-.857A21.193,21.193,0,0,1,94.277.449,22.286,22.286,0,0,1,98.826,0c.752.005,1.5.038,2.238.106l.552.056.276.029.313.044.487.07.243.035.293.054.585.111.29.057.272.064c.362.089.728.166,1.083.275s.716.2,1.066.327.7.235,1.047.374a25.093,25.093,0,0,1,12.781,11.024,21.2,21.2,0,0,1,1.7,3.849c.106.338.213.675.3,1.022s.169.694.242,1.045c.04.173.064.355.094.533l.042.268.021.134.018.155.006.054c.028.3.063.525.08.966l.026.589v.517c0,.346-.014.678-.033,1.009s-.045.657-.076.979-.068.64-.112.954a30.8,30.8,0,0,1-.719,3.616c-.309,1.153-.647,2.274-1.046,3.342-.189.54-.41,1.059-.613,1.58-.226.51-.433,1.024-.67,1.515a41.649,41.649,0,0,1-13.268,16.06,45.723,45.723,0,0,1-4.969,3.123c-.6.318-1.062.544-1.373.7l-.472.239-2.755-5.657,1.581-.829a39.442,39.442,0,0,0,4.225-2.715,36.995,36.995,0,0,0,5.72-5.247,36.091,36.091,0,0,0,5.505-8.389,31.7,31.7,0,0,0,1.965-5.342,24.573,24.573,0,0,0,.585-2.865c.035-.241.069-.483.088-.72s.051-.48.06-.714.029-.474.027-.7l0-.343-.01-.273c.008-.136-.035-.489-.06-.763l0-.054c-.012-.1.01.08,0,.047l-.013-.082-.026-.163c-.018-.109-.028-.217-.054-.329a11.946,11.946,0,0,0-.336-1.347,14.906,14.906,0,0,0-1.167-2.723,18.9,18.9,0,0,0-9.505-8.381c-.255-.108-.518-.2-.78-.289s-.529-.172-.8-.253c-.532-.161-1.093-.3-1.578-.4l-.189-.042-.243-.039-.485-.079-.121-.02-.06-.01c.01,0-.11-.017.009,0l-.214-.026-.428-.051c-.57-.064-1.139-.1-1.708-.114a16.389,16.389,0,0,0-3.356.265,15.408,15.408,0,0,0-1.619.389,14.741,14.741,0,0,0-1.554.578,13.975,13.975,0,0,0-2.862,1.681,14.866,14.866,0,0,0-2.424,2.336A16.21,16.21,0,0,0,85.06,14.07l-.194.385c-.068.13-.114.243-.173.365l-.085.18c-.027.055-.063.148-.094.221l-.194.463c.029-.074,0,.006,0,0l-.017.046-.035.093-.069.185c-.05.122-.088.249-.127.375-.087.25-.148.507-.215.763a9.924,9.924,0,0,0,.475,6.139,9.269,9.269,0,0,0,1.64,2.578,10.47,10.47,0,0,0,2.415,1.946,13.086,13.086,0,0,0,2.969,1.239l.393.112.373.086c.127.029.241.06.379.089l.469.083.468.082c-.1-.016,0,0-.007,0l.053.007.106.014.212.028.423.056.42.039A14.406,14.406,0,0,0,100.9,29a8.866,8.866,0,0,0,4.427-3.369,10.322,10.322,0,0,0,1.706-5.2,5.962,5.962,0,0,0-.353-2.308,8.167,8.167,0,0,0-1.187-2.129,9.266,9.266,0,0,0-3.709-2.881,5.7,5.7,0,0,0-3.814-.352c-.132.05-.264.1-.4.143-.124.063-.248.123-.373.18l-.351.215c-.1.071-.178.138-.274.2a.593.593,0,0,0-.074.054l-.1.1-.2.2-.1.1-.051.048c-.023.023.1-.106.041-.042l-.018.021-.143.163a3.042,3.042,0,0,0-.27.326,3.652,3.652,0,0,0-.234.326,4.433,4.433,0,0,0-.764,2.567,7.623,7.623,0,0,0,.53,2.52,17.651,17.651,0,0,0,.9,2.011c.284.555.525.99.689,1.288l.254.456" transform="translate(-42.898 0)" fill="#fff"/>
    <path id="Tracé_3553" data-name="Tracé 3553" d="M143.642,132.234a4.063,4.063,0,0,1,.376-.375,8.023,8.023,0,0,1,1.241-.914,9.206,9.206,0,0,1,2.328-1.008,7.952,7.952,0,0,1,1.67-.271,6.85,6.85,0,0,1,2.03.175,6.339,6.339,0,0,1,2.193.993,6.89,6.89,0,0,1,1.8,1.917c.134.184.227.381.342.576a5.933,5.933,0,0,1,.3.6l.14.306.017.039c-.021-.062.05.128.046.12l.024.066.047.132.1.266.048.133c.016.047.036.125.053.187.067.26.142.536.19.795s.073.5.1.758c.012.258.021.519.026.782-.015.262-.032.527-.055.793a8.447,8.447,0,0,1-1.008,3.061,10.6,10.6,0,0,1-2.006,2.565,12.871,12.871,0,0,1-2.69,1.946,13.161,13.161,0,0,1-3.228,1.248,12.258,12.258,0,0,1-3.683.331,10.173,10.173,0,0,1-3.876-1.062l-.059-.028c.018.011-.092-.048-.1-.051l-.089-.049-.179-.1-.179-.1-.09-.05-.107-.065c-.287-.175-.585-.355-.838-.535A15.152,15.152,0,0,1,137,144.225a14,14,0,0,1-2.6-3.08c-.19-.289-.348-.6-.518-.9-.151-.315-.314-.627-.443-.956a12.925,12.925,0,0,1-.664-2.022,14.1,14.1,0,0,1-.336-2.122,14.629,14.629,0,0,1,0-2.151,16,16,0,0,1,.3-2.122,19.037,19.037,0,0,1,.567-2.048A22.138,22.138,0,0,1,135.027,125l.259-.453.274-.442.138-.221.069-.111.034-.055c.027-.041-.011.013.069-.106l.267-.392.268-.393.338-.452.347-.455.352-.421a18.132,18.132,0,0,1,3.28-3.049,15.631,15.631,0,0,1,4.177-2.107,14.536,14.536,0,0,1,4.748-.684,15.321,15.321,0,0,1,8.967,3.22c.316.251.633.5.929.779.151.134.3.269.444.414l.216.214.107.107.054.054c.032.034,0,0,.086.089l.34.369c.059.066.107.114.176.195l.2.23c.128.152.27.312.386.46l.357.449a21.86,21.86,0,0,1,2.421,3.922,20.606,20.606,0,0,1,1.532,4.4,19.755,19.755,0,0,1,.468,4.668,20.511,20.511,0,0,1-.177,2.337,21.234,21.234,0,0,1-.45,2.283,22.312,22.312,0,0,1-1.577,4.291c-.332.675-.687,1.333-1.069,1.969l-.291.473-.146.236-.176.263-.275.407-.138.2-.176.24-.355.478-.178.236-.177.217c-.238.287-.465.583-.719.856s-.494.557-.758.817-.518.531-.792.78a25.089,25.089,0,0,1-15.488,6.707,21.209,21.209,0,0,1-4.2-.147c-.35-.052-.7-.1-1.05-.177s-.7-.15-1.046-.237c-.174-.04-.348-.1-.521-.147l-.259-.078-.129-.04-.147-.051-.051-.019c-.286-.107-.5-.172-.9-.348l-.542-.233-.465-.226c-.312-.148-.6-.308-.894-.469s-.572-.326-.848-.495-.547-.34-.81-.516a30.876,30.876,0,0,1-2.942-2.221c-.9-.78-1.765-1.572-2.553-2.4-.4-.4-.774-.829-1.155-1.239-.361-.425-.733-.835-1.072-1.263a41.646,41.646,0,0,1-8.681-18.936,45.766,45.766,0,0,1-.648-5.833c-.026-.675-.027-1.193-.036-1.542s-.009-.529-.009-.529l6.292-.017s.02.621.058,1.784a39.473,39.473,0,0,0,.6,4.986,36.964,36.964,0,0,0,2.234,7.434,36.072,36.072,0,0,0,5.155,8.608,31.7,31.7,0,0,0,3.953,4.1,24.456,24.456,0,0,0,2.325,1.774c.2.137.4.272.61.393s.41.255.617.364.414.233.619.329l.307.153.251.11c.119.066.455.182.713.279l.051.018c.1.035-.076-.026-.045-.015l.079.023.158.048c.106.031.208.069.32.094a11.922,11.922,0,0,0,1.359.285,14.954,14.954,0,0,0,2.959.134,18.9,18.9,0,0,0,11.684-4.908c.208-.183.4-.38.6-.577s.385-.4.575-.605c.376-.409.742-.855,1.043-1.248l.12-.152.141-.2.282-.4.071-.1.035-.05c-.006.009.063-.092,0,.007l.116-.181.233-.363c.3-.486.584-.983.846-1.488A16.358,16.358,0,0,0,160,138.354a15.458,15.458,0,0,0,.355-1.627,14.81,14.81,0,0,0,.156-1.651,14.017,14.017,0,0,0-.267-3.309,14.88,14.88,0,0,0-1.048-3.2,16.234,16.234,0,0,0-1.743-2.945l-.262-.343c-.088-.118-.169-.208-.253-.315l-.125-.154c-.037-.048-.106-.121-.157-.181l-.332-.376c.054.059,0,0,0,0l-.035-.036-.069-.071-.136-.143c-.088-.1-.186-.188-.283-.278-.188-.187-.391-.355-.593-.526a9.919,9.919,0,0,0-5.733-2.245,9.26,9.26,0,0,0-3.035.354,10.469,10.469,0,0,0-2.8,1.327,13.112,13.112,0,0,0-2.409,2.133l-.271.3-.24.3c-.082.1-.159.191-.245.3l-.278.386-.278.386c.059-.086,0,0,0-.006l-.029.045-.059.089-.117.178-.235.356-.218.361a14.4,14.4,0,0,0-2.142,5.916,8.863,8.863,0,0,0,1.106,5.453,10.321,10.321,0,0,0,3.936,3.8,5.959,5.959,0,0,0,2.231.687,8.184,8.184,0,0,0,2.434-.142,9.269,9.269,0,0,0,4.209-2.084,5.706,5.706,0,0,0,1.977-3.28c.013-.141.027-.28.045-.419q0-.208,0-.415-.02-.206-.041-.41c-.018-.124-.046-.221-.06-.333a.574.574,0,0,0-.016-.091l-.044-.135c-.029-.09-.058-.18-.087-.269l-.043-.133-.022-.066c-.01-.031.051.138.02.055l-.011-.025-.085-.2a3.07,3.07,0,0,0-.175-.384,3.735,3.735,0,0,0-.192-.353,4.433,4.433,0,0,0-1.978-1.805,7.629,7.629,0,0,0-2.5-.621,17.866,17.866,0,0,0-2.2-.069c-.623.014-1.12.041-1.459.06l-.522.031" transform="translate(-62.81 -63.487)" fill="#fff"/>
    <path id="Tracé_3554" data-name="Tracé 3554" d="M29.987,119.486a4.045,4.045,0,0,1,.057.528,8,8,0,0,1-.063,1.54,9.2,9.2,0,0,1-.67,2.446,7.932,7.932,0,0,1-.834,1.472,6.853,6.853,0,0,1-1.407,1.474,6.329,6.329,0,0,1-2.147,1.089,6.879,6.879,0,0,1-2.624.208c-.228-.011-.439-.061-.663-.093a6.03,6.03,0,0,1-.655-.141l-.327-.083-.041-.011c.062.022-.13-.041-.122-.039l-.066-.023-.133-.046-.267-.092-.135-.046c-.046-.016-.12-.051-.178-.076-.245-.11-.507-.224-.739-.349s-.438-.257-.655-.394-.418-.309-.626-.469c-.2-.175-.391-.355-.585-.539a8.457,8.457,0,0,1-1.758-2.7,10.624,10.624,0,0,1-.746-3.169,12.876,12.876,0,0,1,.165-3.316,13.155,13.155,0,0,1,1.046-3.3,12.26,12.26,0,0,1,2.045-3.08,10.174,10.174,0,0,1,3.253-2.359l.059-.028c-.02.007.1-.041.1-.043l.094-.039.189-.078.189-.078.095-.039.118-.043c.316-.114.642-.234.941-.319a15.022,15.022,0,0,1,1.891-.452,14,14,0,0,1,4.032-.105c.344.032.686.1,1.03.162.341.079.685.147,1.023.252a12.953,12.953,0,0,1,1.994.747,14.1,14.1,0,0,1,1.866,1.065,14.6,14.6,0,0,1,1.679,1.344,15.987,15.987,0,0,1,1.47,1.558,19.064,19.064,0,0,1,1.243,1.724,22.117,22.117,0,0,1,1.9,3.745l.191.486.174.49.086.246.043.123.022.061c.015.046,0-.017.039.12l.139.454.139.455.14.547.138.555.107.539a18.143,18.143,0,0,1,.327,4.467,15.622,15.622,0,0,1-.97,4.577,14.529,14.529,0,0,1-2.436,4.132,15.323,15.323,0,0,1-8.122,4.981c-.394.089-.788.179-1.189.238-.2.034-.4.068-.6.087l-.3.034-.151.017-.075.008c-.047,0,0,0-.124.011l-.5.034c-.089,0-.156.012-.262.015l-.3.01c-.2,0-.412.016-.6.014l-.574,0a21.842,21.842,0,0,1-4.574-.565,20.564,20.564,0,0,1-4.394-1.56,19.8,19.8,0,0,1-3.935-2.555,20.691,20.691,0,0,1-1.712-1.6,21.231,21.231,0,0,1-1.5-1.78,22.259,22.259,0,0,1-2.361-3.914c-.318-.682-.61-1.37-.867-2.066l-.187-.522-.093-.262-.094-.3L6.5,124.4l-.073-.235-.077-.288L6.2,123.3l-.073-.286-.059-.274c-.075-.365-.163-.728-.217-1.1s-.126-.734-.164-1.1-.09-.737-.113-1.106a25.089,25.089,0,0,1,4.458-16.279,21.206,21.206,0,0,1,2.745-3.188c.26-.241.518-.482.795-.709s.554-.45.839-.667c.14-.111.293-.211.441-.314l.224-.153.112-.076.132-.083.046-.028c.262-.156.447-.282.838-.488l.521-.276.467-.221c.311-.151.619-.28.926-.4s.612-.242.917-.352.608-.214.909-.309a30.929,30.929,0,0,1,3.574-.906c1.174-.217,2.331-.393,3.468-.492.568-.062,1.132-.086,1.69-.126.557-.016,1.11-.05,1.656-.046a41.664,41.664,0,0,1,20.2,5.074,45.811,45.811,0,0,1,4.956,3.144c.543.4.948.726,1.225.937l.419.323-3.923,4.919-1.428-1.071a39.485,39.485,0,0,0-4.268-2.648,37.006,37.006,0,0,0-7.2-2.908,36.106,36.106,0,0,0-9.941-1.364,31.693,31.693,0,0,0-5.668.523,24.415,24.415,0,0,0-2.839.7c-.233.071-.465.145-.688.23s-.455.161-.67.254-.44.177-.644.277l-.311.144-.243.127c-.126.051-.426.241-.663.382l-.047.028c-.089.055.068-.043.041-.025l-.068.047-.136.093c-.091.064-.185.119-.274.19a11.88,11.88,0,0,0-1.072.883,14.908,14.908,0,0,0-1.956,2.224,18.9,18.9,0,0,0-3.48,12.185c.012.277.044.553.074.829s.072.552.112.827c.084.549.2,1.114.322,1.594l.043.189.069.236.137.472.034.118.017.059c0-.01.032.106,0-.008l.069.2.137.408c.188.542.4,1.071.631,1.591a16.381,16.381,0,0,0,1.682,2.916,15.5,15.5,0,0,0,1.048,1.295,14.67,14.67,0,0,0,1.19,1.155,13.99,13.99,0,0,0,2.748,1.861,14.9,14.9,0,0,0,3.151,1.184,16.246,16.246,0,0,0,3.388.483l.432.01c.146,0,.268,0,.4,0h.2c.061,0,.161-.007.24-.009l.5-.024c-.079.005.006,0,0,0l.049,0,.1-.009.2-.017c.132-.007.263-.028.393-.046.263-.03.521-.084.781-.134a9.92,9.92,0,0,0,5.338-3.068,9.267,9.267,0,0,0,1.623-2.589,10.46,10.46,0,0,0,.719-3.018,13.092,13.092,0,0,0-.157-3.213l-.068-.4-.083-.374c-.028-.128-.05-.244-.083-.381l-.127-.459-.127-.458c.03.1,0,0,0,.008l-.017-.051-.033-.1-.066-.2-.131-.406-.145-.4a14.4,14.4,0,0,0-3.275-5.373,8.866,8.866,0,0,0-4.945-2.549,10.326,10.326,0,0,0-5.426.694,5.964,5.964,0,0,0-1.931,1.311,8.161,8.161,0,0,0-1.412,1.988,9.261,9.261,0,0,0-1.007,4.587A5.706,5.706,0,0,0,19.77,123.3c.1.1.2.2.3.3q.165.127.323.26l.345.224c.108.063.2.1.3.161a.612.612,0,0,0,.081.044l.133.051.264.1.131.05.065.025c.03.011-.14-.046-.055-.019l.026.007.209.059a3.135,3.135,0,0,0,.41.1,3.737,3.737,0,0,0,.4.071,4.437,4.437,0,0,0,2.646-.414,7.635,7.635,0,0,0,2.047-1.562,17.793,17.793,0,0,0,1.431-1.673c.378-.5.668-.9.866-1.175l.3-.426" transform="translate(-3.016 -51.773)" fill="#fff"/>
    <path id="Tracé_3555" data-name="Tracé 3555" d="M76.556,88.231s21.828,5.684,32.04-6.611c4.032-.273,2.911,6.807,2.911,6.807s-14.383,17.637-8.476,31.658c-2.312,3.619-8.331-2.734-8.331-2.734S86.9,96.965,73.616,94.207c4.969-1.288,2.94-5.976,2.94-5.976" transform="translate(-40.412 -44.801)" fill="#fff"/>
  </g>
</svg>
